  0
SECTION
  2
HEADER
  9
$ANGBASE
  50
0.0
  9
$ANGDIR
  70
1
  9
$MEASUREMENT
  70
1
  0
ENDSEC
  0
SECTION
  2
TABLES
  0
TABLE
  2
LTYPE
  70
4
  0
LTYPE
  5
40F
  2
CONTINUOUS
  70
0
  3
Solid line
  72
65
  73
0
  40
0.0
  0
LTYPE
  5
410
  2
DASHDOT
 70
0
  3
Dash Dot ____ _ ____ _
 72
65
 73
4
 40
2.0
 49
1.25
 49
-0.25
 49
0.25
 49
-0.25
  0
LTYPE
  5
411
  2
DASHED
 70
0
  3
Dashed __ __ __ __ __
 72
65
 73
2
 40
0.75
 49
0.5
 49
-0.25
  0
LTYPE
  5
43B
  2
DOTTED
 70
0
  3
Dotted .  .  .  .
 72
65
 73
2
 40
0.2
 49
0.0
 49
-0.2
  0
ENDTAB
  0
TABLE
  2
STYLE
  70
4
  0
STYLE
  2
KICAD
  70
0
  40
0
  41
1
  42
1
  50
0
  71
0
  3
isocp.shx
  0
STYLE
  2
KICADB
  70
0
  40
0
  41
1
  42
1
  50
0
  71
0
  3
isocp.shx
  0
STYLE
  2
KICADI
  70
0
  40
0
  41
1
  42
1
  50
15
  71
0
  3
isocp.shx
  0
STYLE
  2
KICADBI
  70
0
  40
0
  41
1
  42
1
  50
15
  71
0
  3
isocp.shx
  0
ENDTAB
  0
TABLE
  2
LAYER
  70
1
  0
LAYER
  2
BLACK
  70
0
  62
7
  6
CONTINUOUS
  0
ENDTAB
  0
ENDSEC
  0
SECTION
  2
ENTITIES
0
LINE
8
BLACK
6
CONTINUOUS
10
195.499
20
-27.3296
11
195.538
21
-27.3361
0
LINE
8
BLACK
6
CONTINUOUS
10
195.538
20
-27.3361
11
195.732
21
-27.4163
0
LINE
8
BLACK
6
CONTINUOUS
10
195.732
20
-27.4163
11
195.732
21
-27.4163
0
LINE
8
BLACK
6
CONTINUOUS
10
195.732
20
-27.4163
11
195.732
21
-27.4163
0
LINE
8
BLACK
6
CONTINUOUS
10
195.732
20
-27.4163
11
195.944
21
-27.5042
0
LINE
8
BLACK
6
CONTINUOUS
10
195.944
20
-27.5042
11
195.976
21
-27.5268
0
LINE
8
BLACK
6
CONTINUOUS
10
195.976
20
-27.5268
11
196.009
21
-27.5475
0
LINE
8
BLACK
6
CONTINUOUS
10
196.009
20
-27.5475
11
196.29
21
-27.8289
0
LINE
8
BLACK
6
CONTINUOUS
10
196.29
20
-27.8289
11
196.311
21
-27.8619
0
LINE
8
BLACK
6
CONTINUOUS
10
196.311
20
-27.8619
11
196.333
21
-27.8937
0
LINE
8
BLACK
6
CONTINUOUS
10
196.333
20
-27.8937
11
196.421
21
-28.1058
0
LINE
8
BLACK
6
CONTINUOUS
10
196.421
20
-28.1058
11
196.421
21
-28.1058
0
LINE
8
BLACK
6
CONTINUOUS
10
196.421
20
-28.1058
11
196.421
21
-28.1059
0
LINE
8
BLACK
6
CONTINUOUS
10
196.421
20
-28.1059
11
196.492
21
-28.2763
0
LINE
8
BLACK
6
CONTINUOUS
10
196.492
20
-28.2763
11
196.498
21
-28.3102
0
LINE
8
BLACK
6
CONTINUOUS
10
196.498
20
-28.3102
11
196.507
21
-28.3432
0
LINE
8
BLACK
6
CONTINUOUS
10
196.507
20
-28.3432
11
201.185
21
-124.602
0
LINE
8
BLACK
6
CONTINUOUS
10
201.185
20
-124.602
11
201.18
21
-124.632
0
LINE
8
BLACK
6
CONTINUOUS
10
201.18
20
-124.632
11
201.179
21
-124.663
0
LINE
8
BLACK
6
CONTINUOUS
10
201.179
20
-124.663
11
193.691
21
-152.608
0
LINE
8
BLACK
6
CONTINUOUS
10
193.691
20
-152.608
11
193.673
21
-152.642
0
LINE
8
BLACK
6
CONTINUOUS
10
193.673
20
-152.642
11
193.656
21
-152.678
0
LINE
8
BLACK
6
CONTINUOUS
10
193.656
20
-152.678
11
193.529
21
-152.844
0
LINE
8
BLACK
6
CONTINUOUS
10
193.529
20
-152.844
11
193.529
21
-152.844
0
LINE
8
BLACK
6
CONTINUOUS
10
193.529
20
-152.844
11
193.529
21
-152.844
0
LINE
8
BLACK
6
CONTINUOUS
10
193.529
20
-152.844
11
193.389
21
-153.026
0
LINE
8
BLACK
6
CONTINUOUS
10
193.389
20
-153.026
11
193.359
21
-153.051
0
LINE
8
BLACK
6
CONTINUOUS
10
193.359
20
-153.051
11
193.33
21
-153.078
0
LINE
8
BLACK
6
CONTINUOUS
10
193.33
20
-153.078
11
192.986
21
-153.277
0
LINE
8
BLACK
6
CONTINUOUS
10
192.986
20
-153.277
11
192.949
21
-153.288
0
LINE
8
BLACK
6
CONTINUOUS
10
192.949
20
-153.288
11
192.912
21
-153.302
0
LINE
8
BLACK
6
CONTINUOUS
10
192.912
20
-153.302
11
192.684
21
-153.332
0
LINE
8
BLACK
6
CONTINUOUS
10
192.684
20
-153.332
11
192.684
21
-153.332
0
LINE
8
BLACK
6
CONTINUOUS
10
192.684
20
-153.332
11
192.684
21
-153.332
0
LINE
8
BLACK
6
CONTINUOUS
10
192.684
20
-153.332
11
192.505
21
-153.355
0
LINE
8
BLACK
6
CONTINUOUS
10
192.505
20
-153.355
11
192.472
21
-153.352
0
LINE
8
BLACK
6
CONTINUOUS
10
192.472
20
-153.352
11
192.438
21
-153.353
0
LINE
8
BLACK
6
CONTINUOUS
10
192.438
20
-153.353
11
56.813
21
-125.035
0
LINE
8
BLACK
6
CONTINUOUS
10
56.813
20
-125.035
11
56.7959
21
-125.027
0
LINE
8
BLACK
6
CONTINUOUS
10
56.7959
20
-125.027
11
56.7774
21
-125.024
0
LINE
8
BLACK
6
CONTINUOUS
10
56.7774
20
-125.024
11
56.6808
21
-124.984
0
LINE
8
BLACK
6
CONTINUOUS
10
56.6808
20
-124.984
11
56.6808
21
-124.984
0
LINE
8
BLACK
6
CONTINUOUS
10
56.6808
20
-124.984
11
56.6808
21
-124.984
0
LINE
8
BLACK
6
CONTINUOUS
10
56.6808
20
-124.984
11
56.4687
21
-124.896
0
LINE
8
BLACK
6
CONTINUOUS
10
56.4687
20
-124.896
11
56.4369
21
-124.873
0
LINE
8
BLACK
6
CONTINUOUS
10
56.4369
20
-124.873
11
56.4039
21
-124.852
0
LINE
8
BLACK
6
CONTINUOUS
10
56.4039
20
-124.852
11
56.1225
21
-124.571
0
LINE
8
BLACK
6
CONTINUOUS
10
56.1225
20
-124.571
11
56.1018
21
-124.538
0
LINE
8
BLACK
6
CONTINUOUS
10
56.1018
20
-124.538
11
56.0792
21
-124.506
0
LINE
8
BLACK
6
CONTINUOUS
10
56.0792
20
-124.506
11
55.9913
21
-124.294
0
LINE
8
BLACK
6
CONTINUOUS
10
55.9913
20
-124.294
11
55.9913
21
-124.294
0
LINE
8
BLACK
6
CONTINUOUS
10
55.9913
20
-124.294
11
55.9913
21
-124.294
0
LINE
8
BLACK
6
CONTINUOUS
10
55.9913
20
-124.294
11
55.9284
21
-124.142
0
LINE
8
BLACK
6
CONTINUOUS
10
55.9284
20
-124.142
11
55.9234
21
-124.112
0
LINE
8
BLACK
6
CONTINUOUS
10
55.9234
20
-124.112
11
55.914
21
-124.083
0
LINE
8
BLACK
6
CONTINUOUS
10
55.914
20
-124.083
11
50.7758
21
-65.7915
0
LINE
8
BLACK
6
CONTINUOUS
10
50.7758
20
-65.7915
11
50.777
21
-65.7827
0
LINE
8
BLACK
6
CONTINUOUS
10
50.777
20
-65.7827
11
50.7751
21
-65.774
0
LINE
8
BLACK
6
CONTINUOUS
10
50.7751
20
-65.774
11
50.7751
21
-47.5311
0
LINE
8
BLACK
6
CONTINUOUS
10
50.7751
20
-47.5311
11
50.7837
21
-47.493
0
LINE
8
BLACK
6
CONTINUOUS
10
50.7837
20
-47.493
11
50.7903
21
-47.4546
0
LINE
8
BLACK
6
CONTINUOUS
10
50.7903
20
-47.4546
11
50.8713
21
-47.2588
0
LINE
8
BLACK
6
CONTINUOUS
10
50.8713
20
-47.2588
11
50.8713
21
-47.2588
0
LINE
8
BLACK
6
CONTINUOUS
10
50.8713
20
-47.2588
11
50.8714
21
-47.2588
0
LINE
8
BLACK
6
CONTINUOUS
10
50.8714
20
-47.2588
11
50.9355
21
-47.104
0
LINE
8
BLACK
6
CONTINUOUS
10
50.9355
20
-47.104
11
50.9506
21
-47.0827
0
LINE
8
BLACK
6
CONTINUOUS
10
50.9506
20
-47.0827
11
50.9614
21
-47.059
0
LINE
8
BLACK
6
CONTINUOUS
10
50.9614
20
-47.059
11
65.7637
21
-27.7029
0
LINE
8
BLACK
6
CONTINUOUS
10
65.7637
20
-27.7029
11
65.784
21
-27.686
0
LINE
8
BLACK
6
CONTINUOUS
10
65.784
20
-27.686
11
65.8007
21
-27.6658
0
LINE
8
BLACK
6
CONTINUOUS
10
65.8007
20
-27.6658
11
66.0102
21
-27.5048
0
LINE
8
BLACK
6
CONTINUOUS
10
66.0102
20
-27.5048
11
66.0341
21
-27.4938
0
LINE
8
BLACK
6
CONTINUOUS
10
66.0341
20
-27.4938
11
66.0555
21
-27.4786
0
LINE
8
BLACK
6
CONTINUOUS
10
66.0555
20
-27.4786
11
66.2058
21
-27.4163
0
LINE
8
BLACK
6
CONTINUOUS
10
66.2058
20
-27.4163
11
66.2058
21
-27.4163
0
LINE
8
BLACK
6
CONTINUOUS
10
66.2058
20
-27.4163
11
66.2059
21
-27.4163
0
LINE
8
BLACK
6
CONTINUOUS
10
66.2059
20
-27.4163
11
66.3996
21
-27.3361
0
LINE
8
BLACK
6
CONTINUOUS
10
66.3996
20
-27.3361
11
66.438
21
-27.3296
0
LINE
8
BLACK
6
CONTINUOUS
10
66.438
20
-27.3296
11
66.4761
21
-27.3209
0
LINE
8
BLACK
6
CONTINUOUS
10
66.4761
20
-27.3209
11
195.461
21
-27.3209
0
LINE
8
BLACK
6
CONTINUOUS
10
195.461
20
-27.3209
11
195.499
21
-27.3296
0
LINE
8
BLACK
6
CONTINUOUS
10
66.5159
20
-27.7209
11
66.3589
21
-27.7859
0
LINE
8
BLACK
6
CONTINUOUS
10
66.3589
20
-27.7859
11
66.3589
21
-27.7859
0
LINE
8
BLACK
6
CONTINUOUS
10
66.3589
20
-27.7859
11
66.233
21
-27.8381
0
LINE
8
BLACK
6
CONTINUOUS
10
66.233
20
-27.8381
11
66.0654
21
-27.9668
0
LINE
8
BLACK
6
CONTINUOUS
10
66.0654
20
-27.9668
11
51.295
21
-47.2812
0
LINE
8
BLACK
6
CONTINUOUS
10
51.295
20
-47.2812
11
51.2409
21
-47.4119
0
LINE
8
BLACK
6
CONTINUOUS
10
51.2409
20
-47.4119
11
51.2409
21
-47.4119
0
LINE
8
BLACK
6
CONTINUOUS
10
51.2409
20
-47.4119
11
51.2409
21
-47.4119
0
LINE
8
BLACK
6
CONTINUOUS
10
51.2409
20
-47.4119
11
51.1751
21
-47.5709
0
LINE
8
BLACK
6
CONTINUOUS
10
51.1751
20
-47.5709
11
51.1751
21
-65.7652
0
LINE
8
BLACK
6
CONTINUOUS
10
51.1751
20
-65.7652
11
56.3098
21
-124.018
0
LINE
8
BLACK
6
CONTINUOUS
10
56.3098
20
-124.018
11
56.3609
21
-124.141
0
LINE
8
BLACK
6
CONTINUOUS
10
56.3609
20
-124.141
11
56.3609
21
-124.141
0
LINE
8
BLACK
6
CONTINUOUS
10
56.3609
20
-124.141
11
56.4335
21
-124.316
0
LINE
8
BLACK
6
CONTINUOUS
10
56.4335
20
-124.316
11
56.6586
21
-124.541
0
LINE
8
BLACK
6
CONTINUOUS
10
56.6586
20
-124.541
11
56.8339
21
-124.614
0
LINE
8
BLACK
6
CONTINUOUS
10
56.8339
20
-124.614
11
56.8339
21
-124.614
0
LINE
8
BLACK
6
CONTINUOUS
10
56.8339
20
-124.614
11
56.8339
21
-124.614
0
LINE
8
BLACK
6
CONTINUOUS
10
56.8339
20
-124.614
11
56.9131
21
-124.647
0
LINE
8
BLACK
6
CONTINUOUS
10
56.9131
20
-124.647
11
192.487
21
-152.954
0
LINE
8
BLACK
6
CONTINUOUS
10
192.487
20
-152.954
11
192.632
21
-152.935
0
LINE
8
BLACK
6
CONTINUOUS
10
192.632
20
-152.935
11
192.632
21
-152.935
0
LINE
8
BLACK
6
CONTINUOUS
10
192.632
20
-152.935
11
192.632
21
-152.935
0
LINE
8
BLACK
6
CONTINUOUS
10
192.632
20
-152.935
11
192.82
21
-152.91
0
LINE
8
BLACK
6
CONTINUOUS
10
192.82
20
-152.91
11
193.096
21
-152.751
0
LINE
8
BLACK
6
CONTINUOUS
10
193.096
20
-152.751
11
193.211
21
-152.601
0
LINE
8
BLACK
6
CONTINUOUS
10
193.211
20
-152.601
11
193.212
21
-152.601
0
LINE
8
BLACK
6
CONTINUOUS
10
193.212
20
-152.601
11
193.212
21
-152.601
0
LINE
8
BLACK
6
CONTINUOUS
10
193.212
20
-152.601
11
193.315
21
-152.466
0
LINE
8
BLACK
6
CONTINUOUS
10
193.315
20
-152.466
11
200.784
21
-124.59
0
LINE
8
BLACK
6
CONTINUOUS
10
200.784
20
-124.59
11
196.109
21
-28.3973
0
LINE
8
BLACK
6
CONTINUOUS
10
196.109
20
-28.3973
11
196.052
21
-28.2589
0
LINE
8
BLACK
6
CONTINUOUS
10
196.052
20
-28.2589
11
196.052
21
-28.2589
0
LINE
8
BLACK
6
CONTINUOUS
10
196.052
20
-28.2589
11
196.052
21
-28.2589
0
LINE
8
BLACK
6
CONTINUOUS
10
196.052
20
-28.2589
11
195.979
21
-28.0836
0
LINE
8
BLACK
6
CONTINUOUS
10
195.979
20
-28.0836
11
195.754
21
-27.8585
0
LINE
8
BLACK
6
CONTINUOUS
10
195.754
20
-27.8585
11
195.579
21
-27.7859
0
LINE
8
BLACK
6
CONTINUOUS
10
195.579
20
-27.7859
11
195.579
21
-27.7859
0
LINE
8
BLACK
6
CONTINUOUS
10
195.579
20
-27.7859
11
195.422
21
-27.7209
0
LINE
8
BLACK
6
CONTINUOUS
10
195.422
20
-27.7209
11
66.5159
21
-27.7209
  0
ENDSEC
  0
EOF
