  0
SECTION
  2
HEADER
  9
$ANGBASE
  50
0.0
  9
$ANGDIR
  70
1
  9
$MEASUREMENT
  70
1
  0
ENDSEC
  0
SECTION
  2
TABLES
  0
TABLE
  2
LTYPE
  70
4
  0
LTYPE
  5
40F
  2
CONTINUOUS
  70
0
  3
Solid line
  72
65
  73
0
  40
0.0
  0
LTYPE
  5
410
  2
DASHDOT
 70
0
  3
Dash Dot ____ _ ____ _
 72
65
 73
4
 40
2.0
 49
1.25
 49
-0.25
 49
0.25
 49
-0.25
  0
LTYPE
  5
411
  2
DASHED
 70
0
  3
Dashed __ __ __ __ __
 72
65
 73
2
 40
0.75
 49
0.5
 49
-0.25
  0
LTYPE
  5
43B
  2
DOTTED
 70
0
  3
Dotted .  .  .  .
 72
65
 73
2
 40
0.2
 49
0.0
 49
-0.2
  0
ENDTAB
  0
TABLE
  2
STYLE
  70
4
  0
STYLE
  2
KICAD
  70
0
  40
0
  41
1
  42
1
  50
0
  71
0
  3
isocp.shx
  0
STYLE
  2
KICADB
  70
0
  40
0
  41
1
  42
1
  50
0
  71
0
  3
isocp.shx
  0
STYLE
  2
KICADI
  70
0
  40
0
  41
1
  42
1
  50
15
  71
0
  3
isocp.shx
  0
STYLE
  2
KICADBI
  70
0
  40
0
  41
1
  42
1
  50
15
  71
0
  3
isocp.shx
  0
ENDTAB
  0
TABLE
  2
LAYER
  70
1
  0
LAYER
  2
BLACK
  70
0
  62
7
  6
CONTINUOUS
  0
ENDTAB
  0
ENDSEC
  0
SECTION
  2
ENTITIES
0
LINE
8
BLACK
6
CONTINUOUS
10
191.522
20
-144.11
11
192.247
21
-144.305
0
LINE
8
BLACK
6
CONTINUOUS
10
192.247
20
-144.305
11
192.325
21
-144.343
0
LINE
8
BLACK
6
CONTINUOUS
10
192.325
20
-144.343
11
192.383
21
-144.409
0
LINE
8
BLACK
6
CONTINUOUS
10
192.383
20
-144.409
11
192.412
21
-144.493
0
LINE
8
BLACK
6
CONTINUOUS
10
192.412
20
-144.493
11
192.406
21
-144.58
0
LINE
8
BLACK
6
CONTINUOUS
10
192.406
20
-144.58
11
192.289
21
-145.015
0
LINE
8
BLACK
6
CONTINUOUS
10
192.289
20
-145.015
11
192.25
21
-145.094
0
LINE
8
BLACK
6
CONTINUOUS
10
192.25
20
-145.094
11
192.184
21
-145.151
0
LINE
8
BLACK
6
CONTINUOUS
10
192.184
20
-145.151
11
192.101
21
-145.18
0
LINE
8
BLACK
6
CONTINUOUS
10
192.101
20
-145.18
11
192.014
21
-145.174
0
LINE
8
BLACK
6
CONTINUOUS
10
192.014
20
-145.174
11
191.289
21
-144.98
0
LINE
8
BLACK
6
CONTINUOUS
10
191.289
20
-144.98
11
191.211
21
-144.941
0
LINE
8
BLACK
6
CONTINUOUS
10
191.211
20
-144.941
11
191.153
21
-144.875
0
LINE
8
BLACK
6
CONTINUOUS
10
191.153
20
-144.875
11
191.124
21
-144.792
0
LINE
8
BLACK
6
CONTINUOUS
10
191.124
20
-144.792
11
191.13
21
-144.704
0
LINE
8
BLACK
6
CONTINUOUS
10
191.13
20
-144.704
11
191.247
21
-144.27
0
LINE
8
BLACK
6
CONTINUOUS
10
191.247
20
-144.27
11
191.285
21
-144.191
0
LINE
8
BLACK
6
CONTINUOUS
10
191.285
20
-144.191
11
191.351
21
-144.133
0
LINE
8
BLACK
6
CONTINUOUS
10
191.351
20
-144.133
11
191.435
21
-144.105
0
LINE
8
BLACK
6
CONTINUOUS
10
191.435
20
-144.105
11
191.522
21
-144.11
0
LINE
8
BLACK
6
CONTINUOUS
10
192.376
20
-140.923
11
193.101
21
-141.117
0
LINE
8
BLACK
6
CONTINUOUS
10
193.101
20
-141.117
11
193.18
21
-141.156
0
LINE
8
BLACK
6
CONTINUOUS
10
193.18
20
-141.156
11
193.237
21
-141.222
0
LINE
8
BLACK
6
CONTINUOUS
10
193.237
20
-141.222
11
193.266
21
-141.305
0
LINE
8
BLACK
6
CONTINUOUS
10
193.266
20
-141.305
11
193.26
21
-141.393
0
LINE
8
BLACK
6
CONTINUOUS
10
193.26
20
-141.393
11
193.143
21
-141.827
0
LINE
8
BLACK
6
CONTINUOUS
10
193.143
20
-141.827
11
193.105
21
-141.906
0
LINE
8
BLACK
6
CONTINUOUS
10
193.105
20
-141.906
11
193.039
21
-141.964
0
LINE
8
BLACK
6
CONTINUOUS
10
193.039
20
-141.964
11
192.955
21
-141.992
0
LINE
8
BLACK
6
CONTINUOUS
10
192.955
20
-141.992
11
192.868
21
-141.986
0
LINE
8
BLACK
6
CONTINUOUS
10
192.868
20
-141.986
11
192.143
21
-141.792
0
LINE
8
BLACK
6
CONTINUOUS
10
192.143
20
-141.792
11
192.065
21
-141.753
0
LINE
8
BLACK
6
CONTINUOUS
10
192.065
20
-141.753
11
192.007
21
-141.687
0
LINE
8
BLACK
6
CONTINUOUS
10
192.007
20
-141.687
11
191.979
21
-141.604
0
LINE
8
BLACK
6
CONTINUOUS
10
191.979
20
-141.604
11
191.984
21
-141.517
0
LINE
8
BLACK
6
CONTINUOUS
10
191.984
20
-141.517
11
192.101
21
-141.082
0
LINE
8
BLACK
6
CONTINUOUS
10
192.101
20
-141.082
11
192.14
21
-141.003
0
LINE
8
BLACK
6
CONTINUOUS
10
192.14
20
-141.003
11
192.206
21
-140.945
0
LINE
8
BLACK
6
CONTINUOUS
10
192.206
20
-140.945
11
192.289
21
-140.917
0
LINE
8
BLACK
6
CONTINUOUS
10
192.289
20
-140.917
11
192.376
21
-140.923
0
LINE
8
BLACK
6
CONTINUOUS
10
173.121
20
-139.18
11
173.846
21
-139.374
0
LINE
8
BLACK
6
CONTINUOUS
10
173.846
20
-139.374
11
173.925
21
-139.413
0
LINE
8
BLACK
6
CONTINUOUS
10
173.925
20
-139.413
11
173.982
21
-139.479
0
LINE
8
BLACK
6
CONTINUOUS
10
173.982
20
-139.479
11
174.011
21
-139.562
0
LINE
8
BLACK
6
CONTINUOUS
10
174.011
20
-139.562
11
174.005
21
-139.65
0
LINE
8
BLACK
6
CONTINUOUS
10
174.005
20
-139.65
11
173.888
21
-140.084
0
LINE
8
BLACK
6
CONTINUOUS
10
173.888
20
-140.084
11
173.85
21
-140.163
0
LINE
8
BLACK
6
CONTINUOUS
10
173.85
20
-140.163
11
173.784
21
-140.221
0
LINE
8
BLACK
6
CONTINUOUS
10
173.784
20
-140.221
11
173.7
21
-140.249
0
LINE
8
BLACK
6
CONTINUOUS
10
173.7
20
-140.249
11
173.613
21
-140.243
0
LINE
8
BLACK
6
CONTINUOUS
10
173.613
20
-140.243
11
172.888
21
-140.049
0
LINE
8
BLACK
6
CONTINUOUS
10
172.888
20
-140.049
11
172.81
21
-140.01
0
LINE
8
BLACK
6
CONTINUOUS
10
172.81
20
-140.01
11
172.752
21
-139.944
0
LINE
8
BLACK
6
CONTINUOUS
10
172.752
20
-139.944
11
172.724
21
-139.861
0
LINE
8
BLACK
6
CONTINUOUS
10
172.724
20
-139.861
11
172.729
21
-139.774
0
LINE
8
BLACK
6
CONTINUOUS
10
172.729
20
-139.774
11
172.846
21
-139.339
0
LINE
8
BLACK
6
CONTINUOUS
10
172.846
20
-139.339
11
172.885
21
-139.26
0
LINE
8
BLACK
6
CONTINUOUS
10
172.885
20
-139.26
11
172.951
21
-139.202
0
LINE
8
BLACK
6
CONTINUOUS
10
172.951
20
-139.202
11
173.034
21
-139.174
0
LINE
8
BLACK
6
CONTINUOUS
10
173.034
20
-139.174
11
173.121
21
-139.18
0
LINE
8
BLACK
6
CONTINUOUS
10
173.975
20
-135.992
11
174.7
21
-136.187
0
LINE
8
BLACK
6
CONTINUOUS
10
174.7
20
-136.187
11
174.779
21
-136.225
0
LINE
8
BLACK
6
CONTINUOUS
10
174.779
20
-136.225
11
174.837
21
-136.291
0
LINE
8
BLACK
6
CONTINUOUS
10
174.837
20
-136.291
11
174.865
21
-136.375
0
LINE
8
BLACK
6
CONTINUOUS
10
174.865
20
-136.375
11
174.859
21
-136.462
0
LINE
8
BLACK
6
CONTINUOUS
10
174.859
20
-136.462
11
174.743
21
-136.897
0
LINE
8
BLACK
6
CONTINUOUS
10
174.743
20
-136.897
11
174.704
21
-136.976
0
LINE
8
BLACK
6
CONTINUOUS
10
174.704
20
-136.976
11
174.638
21
-137.033
0
LINE
8
BLACK
6
CONTINUOUS
10
174.638
20
-137.033
11
174.555
21
-137.062
0
LINE
8
BLACK
6
CONTINUOUS
10
174.555
20
-137.062
11
174.467
21
-137.056
0
LINE
8
BLACK
6
CONTINUOUS
10
174.467
20
-137.056
11
173.743
21
-136.862
0
LINE
8
BLACK
6
CONTINUOUS
10
173.743
20
-136.862
11
173.664
21
-136.823
0
LINE
8
BLACK
6
CONTINUOUS
10
173.664
20
-136.823
11
173.606
21
-136.757
0
LINE
8
BLACK
6
CONTINUOUS
10
173.606
20
-136.757
11
173.578
21
-136.674
0
LINE
8
BLACK
6
CONTINUOUS
10
173.578
20
-136.674
11
173.583
21
-136.586
0
LINE
8
BLACK
6
CONTINUOUS
10
173.583
20
-136.586
11
173.7
21
-136.152
0
LINE
8
BLACK
6
CONTINUOUS
10
173.7
20
-136.152
11
173.739
21
-136.073
0
LINE
8
BLACK
6
CONTINUOUS
10
173.739
20
-136.073
11
173.805
21
-136.015
0
LINE
8
BLACK
6
CONTINUOUS
10
173.805
20
-136.015
11
173.888
21
-135.987
0
LINE
8
BLACK
6
CONTINUOUS
10
173.888
20
-135.987
11
173.975
21
-135.992
0
LINE
8
BLACK
6
CONTINUOUS
10
154.72
20
-134.249
11
155.445
21
-134.444
0
LINE
8
BLACK
6
CONTINUOUS
10
155.445
20
-134.444
11
155.524
21
-134.482
0
LINE
8
BLACK
6
CONTINUOUS
10
155.524
20
-134.482
11
155.582
21
-134.548
0
LINE
8
BLACK
6
CONTINUOUS
10
155.582
20
-134.548
11
155.61
21
-134.632
0
LINE
8
BLACK
6
CONTINUOUS
10
155.61
20
-134.632
11
155.604
21
-134.719
0
LINE
8
BLACK
6
CONTINUOUS
10
155.604
20
-134.719
11
155.488
21
-135.154
0
LINE
8
BLACK
6
CONTINUOUS
10
155.488
20
-135.154
11
155.449
21
-135.233
0
LINE
8
BLACK
6
CONTINUOUS
10
155.449
20
-135.233
11
155.383
21
-135.29
0
LINE
8
BLACK
6
CONTINUOUS
10
155.383
20
-135.29
11
155.3
21
-135.319
0
LINE
8
BLACK
6
CONTINUOUS
10
155.3
20
-135.319
11
155.212
21
-135.313
0
LINE
8
BLACK
6
CONTINUOUS
10
155.212
20
-135.313
11
154.488
21
-135.119
0
LINE
8
BLACK
6
CONTINUOUS
10
154.488
20
-135.119
11
154.409
21
-135.08
0
LINE
8
BLACK
6
CONTINUOUS
10
154.409
20
-135.08
11
154.351
21
-135.014
0
LINE
8
BLACK
6
CONTINUOUS
10
154.351
20
-135.014
11
154.323
21
-134.931
0
LINE
8
BLACK
6
CONTINUOUS
10
154.323
20
-134.931
11
154.328
21
-134.843
0
LINE
8
BLACK
6
CONTINUOUS
10
154.328
20
-134.843
11
154.445
21
-134.409
0
LINE
8
BLACK
6
CONTINUOUS
10
154.445
20
-134.409
11
154.484
21
-134.33
0
LINE
8
BLACK
6
CONTINUOUS
10
154.484
20
-134.33
11
154.55
21
-134.272
0
LINE
8
BLACK
6
CONTINUOUS
10
154.55
20
-134.272
11
154.633
21
-134.244
0
LINE
8
BLACK
6
CONTINUOUS
10
154.633
20
-134.244
11
154.72
21
-134.249
0
LINE
8
BLACK
6
CONTINUOUS
10
193.32
20
-130.958
11
195.3
21
-131.488
0
LINE
8
BLACK
6
CONTINUOUS
10
195.3
20
-131.488
11
195.387
21
-131.531
0
LINE
8
BLACK
6
CONTINUOUS
10
195.387
20
-131.531
11
195.452
21
-131.605
0
LINE
8
BLACK
6
CONTINUOUS
10
195.452
20
-131.605
11
195.483
21
-131.697
0
LINE
8
BLACK
6
CONTINUOUS
10
195.483
20
-131.697
11
195.477
21
-131.794
0
LINE
8
BLACK
6
CONTINUOUS
10
195.477
20
-131.794
11
194.959
21
-133.726
0
LINE
8
BLACK
6
CONTINUOUS
10
194.959
20
-133.726
11
194.916
21
-133.814
0
LINE
8
BLACK
6
CONTINUOUS
10
194.916
20
-133.814
11
194.843
21
-133.878
0
LINE
8
BLACK
6
CONTINUOUS
10
194.843
20
-133.878
11
194.75
21
-133.909
0
LINE
8
BLACK
6
CONTINUOUS
10
194.75
20
-133.909
11
194.653
21
-133.903
0
LINE
8
BLACK
6
CONTINUOUS
10
194.653
20
-133.903
11
192.673
21
-133.372
0
LINE
8
BLACK
6
CONTINUOUS
10
192.673
20
-133.372
11
192.585
21
-133.329
0
LINE
8
BLACK
6
CONTINUOUS
10
192.585
20
-133.329
11
192.521
21
-133.256
0
LINE
8
BLACK
6
CONTINUOUS
10
192.521
20
-133.256
11
192.49
21
-133.164
0
LINE
8
BLACK
6
CONTINUOUS
10
192.49
20
-133.164
11
192.496
21
-133.066
0
LINE
8
BLACK
6
CONTINUOUS
10
192.496
20
-133.066
11
193.014
21
-131.134
0
LINE
8
BLACK
6
CONTINUOUS
10
193.014
20
-131.134
11
193.057
21
-131.047
0
LINE
8
BLACK
6
CONTINUOUS
10
193.057
20
-131.047
11
193.13
21
-130.983
0
LINE
8
BLACK
6
CONTINUOUS
10
193.13
20
-130.983
11
193.222
21
-130.951
0
LINE
8
BLACK
6
CONTINUOUS
10
193.222
20
-130.951
11
193.32
21
-130.958
0
LINE
8
BLACK
6
CONTINUOUS
10
180.176
20
-130.065
11
182.156
21
-130.596
0
LINE
8
BLACK
6
CONTINUOUS
10
182.156
20
-130.596
11
182.243
21
-130.639
0
LINE
8
BLACK
6
CONTINUOUS
10
182.243
20
-130.639
11
182.308
21
-130.712
0
LINE
8
BLACK
6
CONTINUOUS
10
182.308
20
-130.712
11
182.339
21
-130.805
0
LINE
8
BLACK
6
CONTINUOUS
10
182.339
20
-130.805
11
182.333
21
-130.902
0
LINE
8
BLACK
6
CONTINUOUS
10
182.333
20
-130.902
11
181.815
21
-132.834
0
LINE
8
BLACK
6
CONTINUOUS
10
181.815
20
-132.834
11
181.772
21
-132.921
0
LINE
8
BLACK
6
CONTINUOUS
10
181.772
20
-132.921
11
181.699
21
-132.986
0
LINE
8
BLACK
6
CONTINUOUS
10
181.699
20
-132.986
11
181.606
21
-133.017
0
LINE
8
BLACK
6
CONTINUOUS
10
181.606
20
-133.017
11
181.509
21
-133.011
0
LINE
8
BLACK
6
CONTINUOUS
10
181.509
20
-133.011
11
179.529
21
-132.48
0
LINE
8
BLACK
6
CONTINUOUS
10
179.529
20
-132.48
11
179.441
21
-132.437
0
LINE
8
BLACK
6
CONTINUOUS
10
179.441
20
-132.437
11
179.377
21
-132.364
0
LINE
8
BLACK
6
CONTINUOUS
10
179.377
20
-132.364
11
179.346
21
-132.271
0
LINE
8
BLACK
6
CONTINUOUS
10
179.346
20
-132.271
11
179.352
21
-132.174
0
LINE
8
BLACK
6
CONTINUOUS
10
179.352
20
-132.174
11
179.87
21
-130.242
0
LINE
8
BLACK
6
CONTINUOUS
10
179.87
20
-130.242
11
179.913
21
-130.155
0
LINE
8
BLACK
6
CONTINUOUS
10
179.913
20
-130.155
11
179.986
21
-130.09
0
LINE
8
BLACK
6
CONTINUOUS
10
179.986
20
-130.09
11
180.078
21
-130.059
0
LINE
8
BLACK
6
CONTINUOUS
10
180.078
20
-130.059
11
180.176
21
-130.065
0
LINE
8
BLACK
6
CONTINUOUS
10
155.575
20
-131.062
11
156.299
21
-131.256
0
LINE
8
BLACK
6
CONTINUOUS
10
156.299
20
-131.256
11
156.378
21
-131.295
0
LINE
8
BLACK
6
CONTINUOUS
10
156.378
20
-131.295
11
156.436
21
-131.361
0
LINE
8
BLACK
6
CONTINUOUS
10
156.436
20
-131.361
11
156.464
21
-131.444
0
LINE
8
BLACK
6
CONTINUOUS
10
156.464
20
-131.444
11
156.458
21
-131.532
0
LINE
8
BLACK
6
CONTINUOUS
10
156.458
20
-131.532
11
156.342
21
-131.966
0
LINE
8
BLACK
6
CONTINUOUS
10
156.342
20
-131.966
11
156.303
21
-132.045
0
LINE
8
BLACK
6
CONTINUOUS
10
156.303
20
-132.045
11
156.237
21
-132.103
0
LINE
8
BLACK
6
CONTINUOUS
10
156.237
20
-132.103
11
156.154
21
-132.131
0
LINE
8
BLACK
6
CONTINUOUS
10
156.154
20
-132.131
11
156.066
21
-132.125
0
LINE
8
BLACK
6
CONTINUOUS
10
156.066
20
-132.125
11
155.342
21
-131.931
0
LINE
8
BLACK
6
CONTINUOUS
10
155.342
20
-131.931
11
155.263
21
-131.892
0
LINE
8
BLACK
6
CONTINUOUS
10
155.263
20
-131.892
11
155.205
21
-131.826
0
LINE
8
BLACK
6
CONTINUOUS
10
155.205
20
-131.826
11
155.177
21
-131.743
0
LINE
8
BLACK
6
CONTINUOUS
10
155.177
20
-131.743
11
155.183
21
-131.656
0
LINE
8
BLACK
6
CONTINUOUS
10
155.183
20
-131.656
11
155.299
21
-131.221
0
LINE
8
BLACK
6
CONTINUOUS
10
155.299
20
-131.221
11
155.338
21
-131.142
0
LINE
8
BLACK
6
CONTINUOUS
10
155.338
20
-131.142
11
155.404
21
-131.084
0
LINE
8
BLACK
6
CONTINUOUS
10
155.404
20
-131.084
11
155.487
21
-131.056
0
LINE
8
BLACK
6
CONTINUOUS
10
155.487
20
-131.056
11
155.575
21
-131.062
0
LINE
8
BLACK
6
CONTINUOUS
10
136.32
20
-129.319
11
137.044
21
-129.513
0
LINE
8
BLACK
6
CONTINUOUS
10
137.044
20
-129.513
11
137.123
21
-129.552
0
LINE
8
BLACK
6
CONTINUOUS
10
137.123
20
-129.552
11
137.181
21
-129.618
0
LINE
8
BLACK
6
CONTINUOUS
10
137.181
20
-129.618
11
137.209
21
-129.701
0
LINE
8
BLACK
6
CONTINUOUS
10
137.209
20
-129.701
11
137.203
21
-129.789
0
LINE
8
BLACK
6
CONTINUOUS
10
137.203
20
-129.789
11
137.087
21
-130.223
0
LINE
8
BLACK
6
CONTINUOUS
10
137.087
20
-130.223
11
137.048
21
-130.302
0
LINE
8
BLACK
6
CONTINUOUS
10
137.048
20
-130.302
11
136.982
21
-130.36
0
LINE
8
BLACK
6
CONTINUOUS
10
136.982
20
-130.36
11
136.899
21
-130.388
0
LINE
8
BLACK
6
CONTINUOUS
10
136.899
20
-130.388
11
136.811
21
-130.382
0
LINE
8
BLACK
6
CONTINUOUS
10
136.811
20
-130.382
11
136.087
21
-130.188
0
LINE
8
BLACK
6
CONTINUOUS
10
136.087
20
-130.188
11
136.008
21
-130.149
0
LINE
8
BLACK
6
CONTINUOUS
10
136.008
20
-130.149
11
135.95
21
-130.083
0
LINE
8
BLACK
6
CONTINUOUS
10
135.95
20
-130.083
11
135.922
21
-130
0
LINE
8
BLACK
6
CONTINUOUS
10
135.922
20
-130
11
135.928
21
-129.913
0
LINE
8
BLACK
6
CONTINUOUS
10
135.928
20
-129.913
11
136.044
21
-129.478
0
LINE
8
BLACK
6
CONTINUOUS
10
136.044
20
-129.478
11
136.083
21
-129.399
0
LINE
8
BLACK
6
CONTINUOUS
10
136.083
20
-129.399
11
136.149
21
-129.341
0
LINE
8
BLACK
6
CONTINUOUS
10
136.149
20
-129.341
11
136.232
21
-129.313
0
LINE
8
BLACK
6
CONTINUOUS
10
136.232
20
-129.313
11
136.32
21
-129.319
0
LINE
8
BLACK
6
CONTINUOUS
10
174.919
20
-126.027
11
176.899
21
-126.558
0
LINE
8
BLACK
6
CONTINUOUS
10
176.899
20
-126.558
11
176.986
21
-126.601
0
LINE
8
BLACK
6
CONTINUOUS
10
176.986
20
-126.601
11
177.051
21
-126.674
0
LINE
8
BLACK
6
CONTINUOUS
10
177.051
20
-126.674
11
177.082
21
-126.766
0
LINE
8
BLACK
6
CONTINUOUS
10
177.082
20
-126.766
11
177.076
21
-126.864
0
LINE
8
BLACK
6
CONTINUOUS
10
177.076
20
-126.864
11
176.558
21
-128.796
0
LINE
8
BLACK
6
CONTINUOUS
10
176.558
20
-128.796
11
176.515
21
-128.883
0
LINE
8
BLACK
6
CONTINUOUS
10
176.515
20
-128.883
11
176.442
21
-128.947
0
LINE
8
BLACK
6
CONTINUOUS
10
176.442
20
-128.947
11
176.349
21
-128.979
0
LINE
8
BLACK
6
CONTINUOUS
10
176.349
20
-128.979
11
176.252
21
-128.972
0
LINE
8
BLACK
6
CONTINUOUS
10
176.252
20
-128.972
11
174.272
21
-128.442
0
LINE
8
BLACK
6
CONTINUOUS
10
174.272
20
-128.442
11
174.184
21
-128.399
0
LINE
8
BLACK
6
CONTINUOUS
10
174.184
20
-128.399
11
174.12
21
-128.325
0
LINE
8
BLACK
6
CONTINUOUS
10
174.12
20
-128.325
11
174.089
21
-128.233
0
LINE
8
BLACK
6
CONTINUOUS
10
174.089
20
-128.233
11
174.095
21
-128.136
0
LINE
8
BLACK
6
CONTINUOUS
10
174.095
20
-128.136
11
174.613
21
-126.204
0
LINE
8
BLACK
6
CONTINUOUS
10
174.613
20
-126.204
11
174.656
21
-126.116
0
LINE
8
BLACK
6
CONTINUOUS
10
174.656
20
-126.116
11
174.729
21
-126.052
0
LINE
8
BLACK
6
CONTINUOUS
10
174.729
20
-126.052
11
174.821
21
-126.021
0
LINE
8
BLACK
6
CONTINUOUS
10
174.821
20
-126.021
11
174.919
21
-126.027
0
LINE
8
BLACK
6
CONTINUOUS
10
161.775
20
-125.135
11
163.755
21
-125.665
0
LINE
8
BLACK
6
CONTINUOUS
10
163.755
20
-125.665
11
163.843
21
-125.708
0
LINE
8
BLACK
6
CONTINUOUS
10
163.843
20
-125.708
11
163.907
21
-125.782
0
LINE
8
BLACK
6
CONTINUOUS
10
163.907
20
-125.782
11
163.938
21
-125.874
0
LINE
8
BLACK
6
CONTINUOUS
10
163.938
20
-125.874
11
163.932
21
-125.972
0
LINE
8
BLACK
6
CONTINUOUS
10
163.932
20
-125.972
11
163.414
21
-127.903
0
LINE
8
BLACK
6
CONTINUOUS
10
163.414
20
-127.903
11
163.371
21
-127.991
0
LINE
8
BLACK
6
CONTINUOUS
10
163.371
20
-127.991
11
163.298
21
-128.055
0
LINE
8
BLACK
6
CONTINUOUS
10
163.298
20
-128.055
11
163.205
21
-128.087
0
LINE
8
BLACK
6
CONTINUOUS
10
163.205
20
-128.087
11
163.108
21
-128.08
0
LINE
8
BLACK
6
CONTINUOUS
10
163.108
20
-128.08
11
161.128
21
-127.55
0
LINE
8
BLACK
6
CONTINUOUS
10
161.128
20
-127.55
11
161.04
21
-127.506
0
LINE
8
BLACK
6
CONTINUOUS
10
161.04
20
-127.506
11
160.976
21
-127.433
0
LINE
8
BLACK
6
CONTINUOUS
10
160.976
20
-127.433
11
160.945
21
-127.341
0
LINE
8
BLACK
6
CONTINUOUS
10
160.945
20
-127.341
11
160.951
21
-127.243
0
LINE
8
BLACK
6
CONTINUOUS
10
160.951
20
-127.243
11
161.469
21
-125.312
0
LINE
8
BLACK
6
CONTINUOUS
10
161.469
20
-125.312
11
161.512
21
-125.224
0
LINE
8
BLACK
6
CONTINUOUS
10
161.512
20
-125.224
11
161.585
21
-125.16
0
LINE
8
BLACK
6
CONTINUOUS
10
161.585
20
-125.16
11
161.678
21
-125.128
0
LINE
8
BLACK
6
CONTINUOUS
10
161.678
20
-125.128
11
161.775
21
-125.135
0
LINE
8
BLACK
6
CONTINUOUS
10
137.174
20
-126.131
11
137.898
21
-126.326
0
LINE
8
BLACK
6
CONTINUOUS
10
137.898
20
-126.326
11
137.977
21
-126.364
0
LINE
8
BLACK
6
CONTINUOUS
10
137.977
20
-126.364
11
138.035
21
-126.43
0
LINE
8
BLACK
6
CONTINUOUS
10
138.035
20
-126.43
11
138.063
21
-126.514
0
LINE
8
BLACK
6
CONTINUOUS
10
138.063
20
-126.514
11
138.057
21
-126.601
0
LINE
8
BLACK
6
CONTINUOUS
10
138.057
20
-126.601
11
137.941
21
-127.036
0
LINE
8
BLACK
6
CONTINUOUS
10
137.941
20
-127.036
11
137.902
21
-127.115
0
LINE
8
BLACK
6
CONTINUOUS
10
137.902
20
-127.115
11
137.836
21
-127.172
0
LINE
8
BLACK
6
CONTINUOUS
10
137.836
20
-127.172
11
137.753
21
-127.201
0
LINE
8
BLACK
6
CONTINUOUS
10
137.753
20
-127.201
11
137.665
21
-127.195
0
LINE
8
BLACK
6
CONTINUOUS
10
137.665
20
-127.195
11
136.941
21
-127.001
0
LINE
8
BLACK
6
CONTINUOUS
10
136.941
20
-127.001
11
136.862
21
-126.962
0
LINE
8
BLACK
6
CONTINUOUS
10
136.862
20
-126.962
11
136.804
21
-126.896
0
LINE
8
BLACK
6
CONTINUOUS
10
136.804
20
-126.896
11
136.776
21
-126.813
0
LINE
8
BLACK
6
CONTINUOUS
10
136.776
20
-126.813
11
136.782
21
-126.725
0
LINE
8
BLACK
6
CONTINUOUS
10
136.782
20
-126.725
11
136.898
21
-126.291
0
LINE
8
BLACK
6
CONTINUOUS
10
136.898
20
-126.291
11
136.937
21
-126.212
0
LINE
8
BLACK
6
CONTINUOUS
10
136.937
20
-126.212
11
137.003
21
-126.154
0
LINE
8
BLACK
6
CONTINUOUS
10
137.003
20
-126.154
11
137.086
21
-126.126
0
LINE
8
BLACK
6
CONTINUOUS
10
137.086
20
-126.126
11
137.174
21
-126.131
0
LINE
8
BLACK
6
CONTINUOUS
10
156.518
20
-121.097
11
158.498
21
-121.627
0
LINE
8
BLACK
6
CONTINUOUS
10
158.498
20
-121.627
11
158.586
21
-121.67
0
LINE
8
BLACK
6
CONTINUOUS
10
158.586
20
-121.67
11
158.65
21
-121.744
0
LINE
8
BLACK
6
CONTINUOUS
10
158.65
20
-121.744
11
158.681
21
-121.836
0
LINE
8
BLACK
6
CONTINUOUS
10
158.681
20
-121.836
11
158.675
21
-121.933
0
LINE
8
BLACK
6
CONTINUOUS
10
158.675
20
-121.933
11
158.157
21
-123.865
0
LINE
8
BLACK
6
CONTINUOUS
10
158.157
20
-123.865
11
158.114
21
-123.953
0
LINE
8
BLACK
6
CONTINUOUS
10
158.114
20
-123.953
11
158.041
21
-124.017
0
LINE
8
BLACK
6
CONTINUOUS
10
158.041
20
-124.017
11
157.948
21
-124.048
0
LINE
8
BLACK
6
CONTINUOUS
10
157.948
20
-124.048
11
157.851
21
-124.042
0
LINE
8
BLACK
6
CONTINUOUS
10
157.851
20
-124.042
11
155.871
21
-123.511
0
LINE
8
BLACK
6
CONTINUOUS
10
155.871
20
-123.511
11
155.783
21
-123.468
0
LINE
8
BLACK
6
CONTINUOUS
10
155.783
20
-123.468
11
155.719
21
-123.395
0
LINE
8
BLACK
6
CONTINUOUS
10
155.719
20
-123.395
11
155.688
21
-123.303
0
LINE
8
BLACK
6
CONTINUOUS
10
155.688
20
-123.303
11
155.694
21
-123.205
0
LINE
8
BLACK
6
CONTINUOUS
10
155.694
20
-123.205
11
156.212
21
-121.273
0
LINE
8
BLACK
6
CONTINUOUS
10
156.212
20
-121.273
11
156.255
21
-121.186
0
LINE
8
BLACK
6
CONTINUOUS
10
156.255
20
-121.186
11
156.328
21
-121.122
0
LINE
8
BLACK
6
CONTINUOUS
10
156.328
20
-121.122
11
156.421
21
-121.09
0
LINE
8
BLACK
6
CONTINUOUS
10
156.421
20
-121.09
11
156.518
21
-121.097
0
LINE
8
BLACK
6
CONTINUOUS
10
143.374
20
-120.204
11
145.354
21
-120.735
0
LINE
8
BLACK
6
CONTINUOUS
10
145.354
20
-120.735
11
145.442
21
-120.778
0
LINE
8
BLACK
6
CONTINUOUS
10
145.442
20
-120.778
11
145.506
21
-120.851
0
LINE
8
BLACK
6
CONTINUOUS
10
145.506
20
-120.851
11
145.537
21
-120.944
0
LINE
8
BLACK
6
CONTINUOUS
10
145.537
20
-120.944
11
145.531
21
-121.041
0
LINE
8
BLACK
6
CONTINUOUS
10
145.531
20
-121.041
11
145.013
21
-122.973
0
LINE
8
BLACK
6
CONTINUOUS
10
145.013
20
-122.973
11
144.97
21
-123.06
0
LINE
8
BLACK
6
CONTINUOUS
10
144.97
20
-123.06
11
144.897
21
-123.125
0
LINE
8
BLACK
6
CONTINUOUS
10
144.897
20
-123.125
11
144.804
21
-123.156
0
LINE
8
BLACK
6
CONTINUOUS
10
144.804
20
-123.156
11
144.707
21
-123.15
0
LINE
8
BLACK
6
CONTINUOUS
10
144.707
20
-123.15
11
142.727
21
-122.619
0
LINE
8
BLACK
6
CONTINUOUS
10
142.727
20
-122.619
11
142.639
21
-122.576
0
LINE
8
BLACK
6
CONTINUOUS
10
142.639
20
-122.576
11
142.575
21
-122.503
0
LINE
8
BLACK
6
CONTINUOUS
10
142.575
20
-122.503
11
142.544
21
-122.41
0
LINE
8
BLACK
6
CONTINUOUS
10
142.544
20
-122.41
11
142.55
21
-122.313
0
LINE
8
BLACK
6
CONTINUOUS
10
142.55
20
-122.313
11
143.068
21
-120.381
0
LINE
8
BLACK
6
CONTINUOUS
10
143.068
20
-120.381
11
143.111
21
-120.294
0
LINE
8
BLACK
6
CONTINUOUS
10
143.111
20
-120.294
11
143.184
21
-120.229
0
LINE
8
BLACK
6
CONTINUOUS
10
143.184
20
-120.229
11
143.277
21
-120.198
0
LINE
8
BLACK
6
CONTINUOUS
10
143.277
20
-120.198
11
143.374
21
-120.204
0
LINE
8
BLACK
6
CONTINUOUS
10
116.859
20
-121.157
11
116.932
21
-121.206
0
LINE
8
BLACK
6
CONTINUOUS
10
116.932
20
-121.206
11
116.98
21
-121.279
0
LINE
8
BLACK
6
CONTINUOUS
10
116.98
20
-121.279
11
116.997
21
-121.365
0
LINE
8
BLACK
6
CONTINUOUS
10
116.997
20
-121.365
11
116.997
21
-121.815
0
LINE
8
BLACK
6
CONTINUOUS
10
116.997
20
-121.815
11
116.98
21
-121.901
0
LINE
8
BLACK
6
CONTINUOUS
10
116.98
20
-121.901
11
116.932
21
-121.974
0
LINE
8
BLACK
6
CONTINUOUS
10
116.932
20
-121.974
11
116.859
21
-122.023
0
LINE
8
BLACK
6
CONTINUOUS
10
116.859
20
-122.023
11
116.772
21
-122.04
0
LINE
8
BLACK
6
CONTINUOUS
10
116.772
20
-122.04
11
116.022
21
-122.04
0
LINE
8
BLACK
6
CONTINUOUS
10
116.022
20
-122.04
11
115.936
21
-122.023
0
LINE
8
BLACK
6
CONTINUOUS
10
115.936
20
-122.023
11
115.863
21
-121.974
0
LINE
8
BLACK
6
CONTINUOUS
10
115.863
20
-121.974
11
115.815
21
-121.901
0
LINE
8
BLACK
6
CONTINUOUS
10
115.815
20
-121.901
11
115.797
21
-121.815
0
LINE
8
BLACK
6
CONTINUOUS
10
115.797
20
-121.815
11
115.797
21
-121.365
0
LINE
8
BLACK
6
CONTINUOUS
10
115.797
20
-121.365
11
115.815
21
-121.279
0
LINE
8
BLACK
6
CONTINUOUS
10
115.815
20
-121.279
11
115.863
21
-121.206
0
LINE
8
BLACK
6
CONTINUOUS
10
115.863
20
-121.206
11
115.936
21
-121.157
0
LINE
8
BLACK
6
CONTINUOUS
10
115.936
20
-121.157
11
116.022
21
-121.14
0
LINE
8
BLACK
6
CONTINUOUS
10
116.022
20
-121.14
11
116.772
21
-121.14
0
LINE
8
BLACK
6
CONTINUOUS
10
116.772
20
-121.14
11
116.859
21
-121.157
0
LINE
8
BLACK
6
CONTINUOUS
10
95.4274
20
-121.157
11
95.5003
21
-121.206
0
LINE
8
BLACK
6
CONTINUOUS
10
95.5003
20
-121.206
11
95.5491
21
-121.279
0
LINE
8
BLACK
6
CONTINUOUS
10
95.5491
20
-121.279
11
95.5662
21
-121.365
0
LINE
8
BLACK
6
CONTINUOUS
10
95.5662
20
-121.365
11
95.5662
21
-121.815
0
LINE
8
BLACK
6
CONTINUOUS
10
95.5662
20
-121.815
11
95.5491
21
-121.901
0
LINE
8
BLACK
6
CONTINUOUS
10
95.5491
20
-121.901
11
95.5003
21
-121.974
0
LINE
8
BLACK
6
CONTINUOUS
10
95.5003
20
-121.974
11
95.4274
21
-122.023
0
LINE
8
BLACK
6
CONTINUOUS
10
95.4274
20
-122.023
11
95.3413
21
-122.04
0
LINE
8
BLACK
6
CONTINUOUS
10
95.3413
20
-122.04
11
94.5913
21
-122.04
0
LINE
8
BLACK
6
CONTINUOUS
10
94.5913
20
-122.04
11
94.5051
21
-122.023
0
LINE
8
BLACK
6
CONTINUOUS
10
94.5051
20
-122.023
11
94.4322
21
-121.974
0
LINE
8
BLACK
6
CONTINUOUS
10
94.4322
20
-121.974
11
94.3834
21
-121.901
0
LINE
8
BLACK
6
CONTINUOUS
10
94.3834
20
-121.901
11
94.3662
21
-121.815
0
LINE
8
BLACK
6
CONTINUOUS
10
94.3662
20
-121.815
11
94.3662
21
-121.365
0
LINE
8
BLACK
6
CONTINUOUS
10
94.3662
20
-121.365
11
94.3834
21
-121.279
0
LINE
8
BLACK
6
CONTINUOUS
10
94.3834
20
-121.279
11
94.4322
21
-121.206
0
LINE
8
BLACK
6
CONTINUOUS
10
94.4322
20
-121.206
11
94.5051
21
-121.157
0
LINE
8
BLACK
6
CONTINUOUS
10
94.5051
20
-121.157
11
94.5913
21
-121.14
0
LINE
8
BLACK
6
CONTINUOUS
10
94.5913
20
-121.14
11
95.3413
21
-121.14
0
LINE
8
BLACK
6
CONTINUOUS
10
95.3413
20
-121.14
11
95.4274
21
-121.157
0
LINE
8
BLACK
6
CONTINUOUS
10
73.9961
20
-121.157
11
74.0691
21
-121.206
0
LINE
8
BLACK
6
CONTINUOUS
10
74.0691
20
-121.206
11
74.1179
21
-121.279
0
LINE
8
BLACK
6
CONTINUOUS
10
74.1179
20
-121.279
11
74.135
21
-121.365
0
LINE
8
BLACK
6
CONTINUOUS
10
74.135
20
-121.365
11
74.135
21
-121.815
0
LINE
8
BLACK
6
CONTINUOUS
10
74.135
20
-121.815
11
74.1179
21
-121.901
0
LINE
8
BLACK
6
CONTINUOUS
10
74.1179
20
-121.901
11
74.0691
21
-121.974
0
LINE
8
BLACK
6
CONTINUOUS
10
74.0691
20
-121.974
11
73.9961
21
-122.023
0
LINE
8
BLACK
6
CONTINUOUS
10
73.9961
20
-122.023
11
73.91
21
-122.04
0
LINE
8
BLACK
6
CONTINUOUS
10
73.91
20
-122.04
11
73.16
21
-122.04
0
LINE
8
BLACK
6
CONTINUOUS
10
73.16
20
-122.04
11
73.0739
21
-122.023
0
LINE
8
BLACK
6
CONTINUOUS
10
73.0739
20
-122.023
11
73.0009
21
-121.974
0
LINE
8
BLACK
6
CONTINUOUS
10
73.0009
20
-121.974
11
72.9521
21
-121.901
0
LINE
8
BLACK
6
CONTINUOUS
10
72.9521
20
-121.901
11
72.935
21
-121.815
0
LINE
8
BLACK
6
CONTINUOUS
10
72.935
20
-121.815
11
72.935
21
-121.365
0
LINE
8
BLACK
6
CONTINUOUS
10
72.935
20
-121.365
11
72.9521
21
-121.279
0
LINE
8
BLACK
6
CONTINUOUS
10
72.9521
20
-121.279
11
73.0009
21
-121.206
0
LINE
8
BLACK
6
CONTINUOUS
10
73.0009
20
-121.206
11
73.0739
21
-121.157
0
LINE
8
BLACK
6
CONTINUOUS
10
73.0739
20
-121.157
11
73.16
21
-121.14
0
LINE
8
BLACK
6
CONTINUOUS
10
73.16
20
-121.14
11
73.91
21
-121.14
0
LINE
8
BLACK
6
CONTINUOUS
10
73.91
20
-121.14
11
73.9961
21
-121.157
0
LINE
8
BLACK
6
CONTINUOUS
10
138.117
20
-116.166
11
140.097
21
-116.697
0
LINE
8
BLACK
6
CONTINUOUS
10
140.097
20
-116.697
11
140.185
21
-116.74
0
LINE
8
BLACK
6
CONTINUOUS
10
140.185
20
-116.74
11
140.249
21
-116.813
0
LINE
8
BLACK
6
CONTINUOUS
10
140.249
20
-116.813
11
140.28
21
-116.905
0
LINE
8
BLACK
6
CONTINUOUS
10
140.28
20
-116.905
11
140.274
21
-117.003
0
LINE
8
BLACK
6
CONTINUOUS
10
140.274
20
-117.003
11
139.756
21
-118.935
0
LINE
8
BLACK
6
CONTINUOUS
10
139.756
20
-118.935
11
139.713
21
-119.022
0
LINE
8
BLACK
6
CONTINUOUS
10
139.713
20
-119.022
11
139.64
21
-119.086
0
LINE
8
BLACK
6
CONTINUOUS
10
139.64
20
-119.086
11
139.547
21
-119.118
0
LINE
8
BLACK
6
CONTINUOUS
10
139.547
20
-119.118
11
139.45
21
-119.111
0
LINE
8
BLACK
6
CONTINUOUS
10
139.45
20
-119.111
11
137.47
21
-118.581
0
LINE
8
BLACK
6
CONTINUOUS
10
137.47
20
-118.581
11
137.383
21
-118.538
0
LINE
8
BLACK
6
CONTINUOUS
10
137.383
20
-118.538
11
137.318
21
-118.464
0
LINE
8
BLACK
6
CONTINUOUS
10
137.318
20
-118.464
11
137.287
21
-118.372
0
LINE
8
BLACK
6
CONTINUOUS
10
137.287
20
-118.372
11
137.293
21
-118.275
0
LINE
8
BLACK
6
CONTINUOUS
10
137.293
20
-118.275
11
137.811
21
-116.343
0
LINE
8
BLACK
6
CONTINUOUS
10
137.811
20
-116.343
11
137.854
21
-116.255
0
LINE
8
BLACK
6
CONTINUOUS
10
137.854
20
-116.255
11
137.927
21
-116.191
0
LINE
8
BLACK
6
CONTINUOUS
10
137.927
20
-116.191
11
138.02
21
-116.16
0
LINE
8
BLACK
6
CONTINUOUS
10
138.02
20
-116.16
11
138.117
21
-116.166
0
LINE
8
BLACK
6
CONTINUOUS
10
116.859
20
-117.857
11
116.932
21
-117.906
0
LINE
8
BLACK
6
CONTINUOUS
10
116.932
20
-117.906
11
116.98
21
-117.979
0
LINE
8
BLACK
6
CONTINUOUS
10
116.98
20
-117.979
11
116.997
21
-118.065
0
LINE
8
BLACK
6
CONTINUOUS
10
116.997
20
-118.065
11
116.997
21
-118.515
0
LINE
8
BLACK
6
CONTINUOUS
10
116.997
20
-118.515
11
116.98
21
-118.601
0
LINE
8
BLACK
6
CONTINUOUS
10
116.98
20
-118.601
11
116.932
21
-118.674
0
LINE
8
BLACK
6
CONTINUOUS
10
116.932
20
-118.674
11
116.859
21
-118.723
0
LINE
8
BLACK
6
CONTINUOUS
10
116.859
20
-118.723
11
116.772
21
-118.74
0
LINE
8
BLACK
6
CONTINUOUS
10
116.772
20
-118.74
11
116.022
21
-118.74
0
LINE
8
BLACK
6
CONTINUOUS
10
116.022
20
-118.74
11
115.936
21
-118.723
0
LINE
8
BLACK
6
CONTINUOUS
10
115.936
20
-118.723
11
115.863
21
-118.674
0
LINE
8
BLACK
6
CONTINUOUS
10
115.863
20
-118.674
11
115.815
21
-118.601
0
LINE
8
BLACK
6
CONTINUOUS
10
115.815
20
-118.601
11
115.797
21
-118.515
0
LINE
8
BLACK
6
CONTINUOUS
10
115.797
20
-118.515
11
115.797
21
-118.065
0
LINE
8
BLACK
6
CONTINUOUS
10
115.797
20
-118.065
11
115.815
21
-117.979
0
LINE
8
BLACK
6
CONTINUOUS
10
115.815
20
-117.979
11
115.863
21
-117.906
0
LINE
8
BLACK
6
CONTINUOUS
10
115.863
20
-117.906
11
115.936
21
-117.857
0
LINE
8
BLACK
6
CONTINUOUS
10
115.936
20
-117.857
11
116.022
21
-117.84
0
LINE
8
BLACK
6
CONTINUOUS
10
116.022
20
-117.84
11
116.772
21
-117.84
0
LINE
8
BLACK
6
CONTINUOUS
10
116.772
20
-117.84
11
116.859
21
-117.857
0
LINE
8
BLACK
6
CONTINUOUS
10
95.4274
20
-117.857
11
95.5003
21
-117.906
0
LINE
8
BLACK
6
CONTINUOUS
10
95.5003
20
-117.906
11
95.5491
21
-117.979
0
LINE
8
BLACK
6
CONTINUOUS
10
95.5491
20
-117.979
11
95.5662
21
-118.065
0
LINE
8
BLACK
6
CONTINUOUS
10
95.5662
20
-118.065
11
95.5662
21
-118.515
0
LINE
8
BLACK
6
CONTINUOUS
10
95.5662
20
-118.515
11
95.5491
21
-118.601
0
LINE
8
BLACK
6
CONTINUOUS
10
95.5491
20
-118.601
11
95.5003
21
-118.674
0
LINE
8
BLACK
6
CONTINUOUS
10
95.5003
20
-118.674
11
95.4274
21
-118.723
0
LINE
8
BLACK
6
CONTINUOUS
10
95.4274
20
-118.723
11
95.3413
21
-118.74
0
LINE
8
BLACK
6
CONTINUOUS
10
95.3413
20
-118.74
11
94.5913
21
-118.74
0
LINE
8
BLACK
6
CONTINUOUS
10
94.5913
20
-118.74
11
94.5051
21
-118.723
0
LINE
8
BLACK
6
CONTINUOUS
10
94.5051
20
-118.723
11
94.4322
21
-118.674
0
LINE
8
BLACK
6
CONTINUOUS
10
94.4322
20
-118.674
11
94.3834
21
-118.601
0
LINE
8
BLACK
6
CONTINUOUS
10
94.3834
20
-118.601
11
94.3662
21
-118.515
0
LINE
8
BLACK
6
CONTINUOUS
10
94.3662
20
-118.515
11
94.3662
21
-118.065
0
LINE
8
BLACK
6
CONTINUOUS
10
94.3662
20
-118.065
11
94.3834
21
-117.979
0
LINE
8
BLACK
6
CONTINUOUS
10
94.3834
20
-117.979
11
94.4322
21
-117.906
0
LINE
8
BLACK
6
CONTINUOUS
10
94.4322
20
-117.906
11
94.5051
21
-117.857
0
LINE
8
BLACK
6
CONTINUOUS
10
94.5051
20
-117.857
11
94.5913
21
-117.84
0
LINE
8
BLACK
6
CONTINUOUS
10
94.5913
20
-117.84
11
95.3413
21
-117.84
0
LINE
8
BLACK
6
CONTINUOUS
10
95.3413
20
-117.84
11
95.4274
21
-117.857
0
LINE
8
BLACK
6
CONTINUOUS
10
73.9961
20
-117.857
11
74.0691
21
-117.906
0
LINE
8
BLACK
6
CONTINUOUS
10
74.0691
20
-117.906
11
74.1179
21
-117.979
0
LINE
8
BLACK
6
CONTINUOUS
10
74.1179
20
-117.979
11
74.135
21
-118.065
0
LINE
8
BLACK
6
CONTINUOUS
10
74.135
20
-118.065
11
74.135
21
-118.515
0
LINE
8
BLACK
6
CONTINUOUS
10
74.135
20
-118.515
11
74.1179
21
-118.601
0
LINE
8
BLACK
6
CONTINUOUS
10
74.1179
20
-118.601
11
74.0691
21
-118.674
0
LINE
8
BLACK
6
CONTINUOUS
10
74.0691
20
-118.674
11
73.9961
21
-118.723
0
LINE
8
BLACK
6
CONTINUOUS
10
73.9961
20
-118.723
11
73.91
21
-118.74
0
LINE
8
BLACK
6
CONTINUOUS
10
73.91
20
-118.74
11
73.16
21
-118.74
0
LINE
8
BLACK
6
CONTINUOUS
10
73.16
20
-118.74
11
73.0739
21
-118.723
0
LINE
8
BLACK
6
CONTINUOUS
10
73.0739
20
-118.723
11
73.0009
21
-118.674
0
LINE
8
BLACK
6
CONTINUOUS
10
73.0009
20
-118.674
11
72.9521
21
-118.601
0
LINE
8
BLACK
6
CONTINUOUS
10
72.9521
20
-118.601
11
72.935
21
-118.515
0
LINE
8
BLACK
6
CONTINUOUS
10
72.935
20
-118.515
11
72.935
21
-118.065
0
LINE
8
BLACK
6
CONTINUOUS
10
72.935
20
-118.065
11
72.9521
21
-117.979
0
LINE
8
BLACK
6
CONTINUOUS
10
72.9521
20
-117.979
11
73.0009
21
-117.906
0
LINE
8
BLACK
6
CONTINUOUS
10
73.0009
20
-117.906
11
73.0739
21
-117.857
0
LINE
8
BLACK
6
CONTINUOUS
10
73.0739
20
-117.857
11
73.16
21
-117.84
0
LINE
8
BLACK
6
CONTINUOUS
10
73.16
20
-117.84
11
73.91
21
-117.84
0
LINE
8
BLACK
6
CONTINUOUS
10
73.91
20
-117.84
11
73.9961
21
-117.857
0
LINE
8
BLACK
6
CONTINUOUS
10
124.973
20
-115.274
11
126.953
21
-115.804
0
LINE
8
BLACK
6
CONTINUOUS
10
126.953
20
-115.804
11
127.041
21
-115.847
0
LINE
8
BLACK
6
CONTINUOUS
10
127.041
20
-115.847
11
127.105
21
-115.921
0
LINE
8
BLACK
6
CONTINUOUS
10
127.105
20
-115.921
11
127.136
21
-116.013
0
LINE
8
BLACK
6
CONTINUOUS
10
127.136
20
-116.013
11
127.13
21
-116.11
0
LINE
8
BLACK
6
CONTINUOUS
10
127.13
20
-116.11
11
126.612
21
-118.042
0
LINE
8
BLACK
6
CONTINUOUS
10
126.612
20
-118.042
11
126.569
21
-118.13
0
LINE
8
BLACK
6
CONTINUOUS
10
126.569
20
-118.13
11
126.496
21
-118.194
0
LINE
8
BLACK
6
CONTINUOUS
10
126.496
20
-118.194
11
126.404
21
-118.226
0
LINE
8
BLACK
6
CONTINUOUS
10
126.404
20
-118.226
11
126.306
21
-118.219
0
LINE
8
BLACK
6
CONTINUOUS
10
126.306
20
-118.219
11
124.326
21
-117.689
0
LINE
8
BLACK
6
CONTINUOUS
10
124.326
20
-117.689
11
124.239
21
-117.645
0
LINE
8
BLACK
6
CONTINUOUS
10
124.239
20
-117.645
11
124.174
21
-117.572
0
LINE
8
BLACK
6
CONTINUOUS
10
124.174
20
-117.572
11
124.143
21
-117.48
0
LINE
8
BLACK
6
CONTINUOUS
10
124.143
20
-117.48
11
124.149
21
-117.382
0
LINE
8
BLACK
6
CONTINUOUS
10
124.149
20
-117.382
11
124.667
21
-115.451
0
LINE
8
BLACK
6
CONTINUOUS
10
124.667
20
-115.451
11
124.71
21
-115.363
0
LINE
8
BLACK
6
CONTINUOUS
10
124.71
20
-115.363
11
124.783
21
-115.299
0
LINE
8
BLACK
6
CONTINUOUS
10
124.783
20
-115.299
11
124.876
21
-115.267
0
LINE
8
BLACK
6
CONTINUOUS
10
124.876
20
-115.267
11
124.973
21
-115.274
0
LINE
8
BLACK
6
CONTINUOUS
10
103.573
20
-110.529
11
103.654
21
-110.583
0
LINE
8
BLACK
6
CONTINUOUS
10
103.654
20
-110.583
11
103.708
21
-110.664
0
LINE
8
BLACK
6
CONTINUOUS
10
103.708
20
-110.664
11
103.727
21
-110.76
0
LINE
8
BLACK
6
CONTINUOUS
10
103.727
20
-110.76
11
103.727
21
-112.76
0
LINE
8
BLACK
6
CONTINUOUS
10
103.727
20
-112.76
11
103.708
21
-112.856
0
LINE
8
BLACK
6
CONTINUOUS
10
103.708
20
-112.856
11
103.654
21
-112.937
0
LINE
8
BLACK
6
CONTINUOUS
10
103.654
20
-112.937
11
103.573
21
-112.991
0
LINE
8
BLACK
6
CONTINUOUS
10
103.573
20
-112.991
11
103.477
21
-113.01
0
LINE
8
BLACK
6
CONTINUOUS
10
103.477
20
-113.01
11
101.427
21
-113.01
0
LINE
8
BLACK
6
CONTINUOUS
10
101.427
20
-113.01
11
101.332
21
-112.991
0
LINE
8
BLACK
6
CONTINUOUS
10
101.332
20
-112.991
11
101.251
21
-112.937
0
LINE
8
BLACK
6
CONTINUOUS
10
101.251
20
-112.937
11
101.197
21
-112.856
0
LINE
8
BLACK
6
CONTINUOUS
10
101.197
20
-112.856
11
101.177
21
-112.76
0
LINE
8
BLACK
6
CONTINUOUS
10
101.177
20
-112.76
11
101.177
21
-110.76
0
LINE
8
BLACK
6
CONTINUOUS
10
101.177
20
-110.76
11
101.197
21
-110.664
0
LINE
8
BLACK
6
CONTINUOUS
10
101.197
20
-110.664
11
101.251
21
-110.583
0
LINE
8
BLACK
6
CONTINUOUS
10
101.251
20
-110.583
11
101.332
21
-110.529
0
LINE
8
BLACK
6
CONTINUOUS
10
101.332
20
-110.529
11
101.427
21
-110.51
0
LINE
8
BLACK
6
CONTINUOUS
10
101.427
20
-110.51
11
103.477
21
-110.51
0
LINE
8
BLACK
6
CONTINUOUS
10
103.477
20
-110.51
11
103.573
21
-110.529
0
LINE
8
BLACK
6
CONTINUOUS
10
82.1419
20
-110.529
11
82.223
21
-110.583
0
LINE
8
BLACK
6
CONTINUOUS
10
82.223
20
-110.583
11
82.2772
21
-110.664
0
LINE
8
BLACK
6
CONTINUOUS
10
82.2772
20
-110.664
11
82.2963
21
-110.76
0
LINE
8
BLACK
6
CONTINUOUS
10
82.2963
20
-110.76
11
82.2963
21
-112.76
0
LINE
8
BLACK
6
CONTINUOUS
10
82.2963
20
-112.76
11
82.2772
21
-112.856
0
LINE
8
BLACK
6
CONTINUOUS
10
82.2772
20
-112.856
11
82.223
21
-112.937
0
LINE
8
BLACK
6
CONTINUOUS
10
82.223
20
-112.937
11
82.1419
21
-112.991
0
LINE
8
BLACK
6
CONTINUOUS
10
82.1419
20
-112.991
11
82.0463
21
-113.01
0
LINE
8
BLACK
6
CONTINUOUS
10
82.0463
20
-113.01
11
79.9963
21
-113.01
0
LINE
8
BLACK
6
CONTINUOUS
10
79.9963
20
-113.01
11
79.9006
21
-112.991
0
LINE
8
BLACK
6
CONTINUOUS
10
79.9006
20
-112.991
11
79.8195
21
-112.937
0
LINE
8
BLACK
6
CONTINUOUS
10
79.8195
20
-112.937
11
79.7653
21
-112.856
0
LINE
8
BLACK
6
CONTINUOUS
10
79.7653
20
-112.856
11
79.7463
21
-112.76
0
LINE
8
BLACK
6
CONTINUOUS
10
79.7463
20
-112.76
11
79.7463
21
-110.76
0
LINE
8
BLACK
6
CONTINUOUS
10
79.7463
20
-110.76
11
79.7653
21
-110.664
0
LINE
8
BLACK
6
CONTINUOUS
10
79.7653
20
-110.664
11
79.8195
21
-110.583
0
LINE
8
BLACK
6
CONTINUOUS
10
79.8195
20
-110.583
11
79.9006
21
-110.529
0
LINE
8
BLACK
6
CONTINUOUS
10
79.9006
20
-110.529
11
79.9963
21
-110.51
0
LINE
8
BLACK
6
CONTINUOUS
10
79.9963
20
-110.51
11
82.0463
21
-110.51
0
LINE
8
BLACK
6
CONTINUOUS
10
82.0463
20
-110.51
11
82.1419
21
-110.529
0
LINE
8
BLACK
6
CONTINUOUS
10
60.7107
20
-110.529
11
60.7918
21
-110.583
0
LINE
8
BLACK
6
CONTINUOUS
10
60.7918
20
-110.583
11
60.846
21
-110.664
0
LINE
8
BLACK
6
CONTINUOUS
10
60.846
20
-110.664
11
60.865
21
-110.76
0
LINE
8
BLACK
6
CONTINUOUS
10
60.865
20
-110.76
11
60.865
21
-112.76
0
LINE
8
BLACK
6
CONTINUOUS
10
60.865
20
-112.76
11
60.846
21
-112.856
0
LINE
8
BLACK
6
CONTINUOUS
10
60.846
20
-112.856
11
60.7918
21
-112.937
0
LINE
8
BLACK
6
CONTINUOUS
10
60.7918
20
-112.937
11
60.7107
21
-112.991
0
LINE
8
BLACK
6
CONTINUOUS
10
60.7107
20
-112.991
11
60.615
21
-113.01
0
LINE
8
BLACK
6
CONTINUOUS
10
60.615
20
-113.01
11
58.565
21
-113.01
0
LINE
8
BLACK
6
CONTINUOUS
10
58.565
20
-113.01
11
58.4693
21
-112.991
0
LINE
8
BLACK
6
CONTINUOUS
10
58.4693
20
-112.991
11
58.3882
21
-112.937
0
LINE
8
BLACK
6
CONTINUOUS
10
58.3882
20
-112.937
11
58.334
21
-112.856
0
LINE
8
BLACK
6
CONTINUOUS
10
58.334
20
-112.856
11
58.315
21
-112.76
0
LINE
8
BLACK
6
CONTINUOUS
10
58.315
20
-112.76
11
58.315
21
-110.76
0
LINE
8
BLACK
6
CONTINUOUS
10
58.315
20
-110.76
11
58.334
21
-110.664
0
LINE
8
BLACK
6
CONTINUOUS
10
58.334
20
-110.664
11
58.3882
21
-110.583
0
LINE
8
BLACK
6
CONTINUOUS
10
58.3882
20
-110.583
11
58.4693
21
-110.529
0
LINE
8
BLACK
6
CONTINUOUS
10
58.4693
20
-110.529
11
58.565
21
-110.51
0
LINE
8
BLACK
6
CONTINUOUS
10
58.565
20
-110.51
11
60.615
21
-110.51
0
LINE
8
BLACK
6
CONTINUOUS
10
60.615
20
-110.51
11
60.7107
21
-110.529
0
LINE
8
BLACK
6
CONTINUOUS
10
116.5
20
-107.989
11
116.581
21
-108.043
0
LINE
8
BLACK
6
CONTINUOUS
10
116.581
20
-108.043
11
116.635
21
-108.124
0
LINE
8
BLACK
6
CONTINUOUS
10
116.635
20
-108.124
11
116.654
21
-108.22
0
LINE
8
BLACK
6
CONTINUOUS
10
116.654
20
-108.22
11
116.654
21
-110.22
0
LINE
8
BLACK
6
CONTINUOUS
10
116.654
20
-110.22
11
116.635
21
-110.316
0
LINE
8
BLACK
6
CONTINUOUS
10
116.635
20
-110.316
11
116.581
21
-110.397
0
LINE
8
BLACK
6
CONTINUOUS
10
116.581
20
-110.397
11
116.5
21
-110.451
0
LINE
8
BLACK
6
CONTINUOUS
10
116.5
20
-110.451
11
116.404
21
-110.47
0
LINE
8
BLACK
6
CONTINUOUS
10
116.404
20
-110.47
11
114.355
21
-110.47
0
LINE
8
BLACK
6
CONTINUOUS
10
114.355
20
-110.47
11
114.259
21
-110.451
0
LINE
8
BLACK
6
CONTINUOUS
10
114.259
20
-110.451
11
114.178
21
-110.397
0
LINE
8
BLACK
6
CONTINUOUS
10
114.178
20
-110.397
11
114.124
21
-110.316
0
LINE
8
BLACK
6
CONTINUOUS
10
114.124
20
-110.316
11
114.105
21
-110.22
0
LINE
8
BLACK
6
CONTINUOUS
10
114.105
20
-110.22
11
114.105
21
-108.22
0
LINE
8
BLACK
6
CONTINUOUS
10
114.105
20
-108.22
11
114.124
21
-108.124
0
LINE
8
BLACK
6
CONTINUOUS
10
114.124
20
-108.124
11
114.178
21
-108.043
0
LINE
8
BLACK
6
CONTINUOUS
10
114.178
20
-108.043
11
114.259
21
-107.989
0
LINE
8
BLACK
6
CONTINUOUS
10
114.259
20
-107.989
11
114.355
21
-107.97
0
LINE
8
BLACK
6
CONTINUOUS
10
114.355
20
-107.97
11
116.404
21
-107.97
0
LINE
8
BLACK
6
CONTINUOUS
10
116.404
20
-107.97
11
116.5
21
-107.989
0
LINE
8
BLACK
6
CONTINUOUS
10
95.0689
20
-107.989
11
95.15
21
-108.043
0
LINE
8
BLACK
6
CONTINUOUS
10
95.15
20
-108.043
11
95.2042
21
-108.124
0
LINE
8
BLACK
6
CONTINUOUS
10
95.2042
20
-108.124
11
95.2232
21
-108.22
0
LINE
8
BLACK
6
CONTINUOUS
10
95.2232
20
-108.22
11
95.2232
21
-110.22
0
LINE
8
BLACK
6
CONTINUOUS
10
95.2232
20
-110.22
11
95.2042
21
-110.316
0
LINE
8
BLACK
6
CONTINUOUS
10
95.2042
20
-110.316
11
95.15
21
-110.397
0
LINE
8
BLACK
6
CONTINUOUS
10
95.15
20
-110.397
11
95.0689
21
-110.451
0
LINE
8
BLACK
6
CONTINUOUS
10
95.0689
20
-110.451
11
94.9732
21
-110.47
0
LINE
8
BLACK
6
CONTINUOUS
10
94.9732
20
-110.47
11
92.9232
21
-110.47
0
LINE
8
BLACK
6
CONTINUOUS
10
92.9232
20
-110.47
11
92.8276
21
-110.451
0
LINE
8
BLACK
6
CONTINUOUS
10
92.8276
20
-110.451
11
92.7465
21
-110.397
0
LINE
8
BLACK
6
CONTINUOUS
10
92.7465
20
-110.397
11
92.6923
21
-110.316
0
LINE
8
BLACK
6
CONTINUOUS
10
92.6923
20
-110.316
11
92.6732
21
-110.22
0
LINE
8
BLACK
6
CONTINUOUS
10
92.6732
20
-110.22
11
92.6732
21
-108.22
0
LINE
8
BLACK
6
CONTINUOUS
10
92.6732
20
-108.22
11
92.6923
21
-108.124
0
LINE
8
BLACK
6
CONTINUOUS
10
92.6923
20
-108.124
11
92.7465
21
-108.043
0
LINE
8
BLACK
6
CONTINUOUS
10
92.7465
20
-108.043
11
92.8276
21
-107.989
0
LINE
8
BLACK
6
CONTINUOUS
10
92.8276
20
-107.989
11
92.9232
21
-107.97
0
LINE
8
BLACK
6
CONTINUOUS
10
92.9232
20
-107.97
11
94.9732
21
-107.97
0
LINE
8
BLACK
6
CONTINUOUS
10
94.9732
20
-107.97
11
95.0689
21
-107.989
0
LINE
8
BLACK
6
CONTINUOUS
10
73.6377
20
-107.989
11
73.7188
21
-108.043
0
LINE
8
BLACK
6
CONTINUOUS
10
73.7188
20
-108.043
11
73.773
21
-108.124
0
LINE
8
BLACK
6
CONTINUOUS
10
73.773
20
-108.124
11
73.792
21
-108.22
0
LINE
8
BLACK
6
CONTINUOUS
10
73.792
20
-108.22
11
73.792
21
-110.22
0
LINE
8
BLACK
6
CONTINUOUS
10
73.792
20
-110.22
11
73.773
21
-110.316
0
LINE
8
BLACK
6
CONTINUOUS
10
73.773
20
-110.316
11
73.7188
21
-110.397
0
LINE
8
BLACK
6
CONTINUOUS
10
73.7188
20
-110.397
11
73.6377
21
-110.451
0
LINE
8
BLACK
6
CONTINUOUS
10
73.6377
20
-110.451
11
73.542
21
-110.47
0
LINE
8
BLACK
6
CONTINUOUS
10
73.542
20
-110.47
11
71.492
21
-110.47
0
LINE
8
BLACK
6
CONTINUOUS
10
71.492
20
-110.47
11
71.3963
21
-110.451
0
LINE
8
BLACK
6
CONTINUOUS
10
71.3963
20
-110.451
11
71.3152
21
-110.397
0
LINE
8
BLACK
6
CONTINUOUS
10
71.3152
20
-110.397
11
71.261
21
-110.316
0
LINE
8
BLACK
6
CONTINUOUS
10
71.261
20
-110.316
11
71.242
21
-110.22
0
LINE
8
BLACK
6
CONTINUOUS
10
71.242
20
-110.22
11
71.242
21
-108.22
0
LINE
8
BLACK
6
CONTINUOUS
10
71.242
20
-108.22
11
71.261
21
-108.124
0
LINE
8
BLACK
6
CONTINUOUS
10
71.261
20
-108.124
11
71.3152
21
-108.043
0
LINE
8
BLACK
6
CONTINUOUS
10
71.3152
20
-108.043
11
71.3963
21
-107.989
0
LINE
8
BLACK
6
CONTINUOUS
10
71.3963
20
-107.989
11
71.492
21
-107.97
0
LINE
8
BLACK
6
CONTINUOUS
10
71.492
20
-107.97
11
73.542
21
-107.97
0
LINE
8
BLACK
6
CONTINUOUS
10
73.542
20
-107.97
11
73.6377
21
-107.989
0
LINE
8
BLACK
6
CONTINUOUS
10
193.059
20
-102.107
11
193.132
21
-102.156
0
LINE
8
BLACK
6
CONTINUOUS
10
193.132
20
-102.156
11
193.18
21
-102.229
0
LINE
8
BLACK
6
CONTINUOUS
10
193.18
20
-102.229
11
193.197
21
-102.315
0
LINE
8
BLACK
6
CONTINUOUS
10
193.197
20
-102.315
11
193.197
21
-102.765
0
LINE
8
BLACK
6
CONTINUOUS
10
193.197
20
-102.765
11
193.18
21
-102.851
0
LINE
8
BLACK
6
CONTINUOUS
10
193.18
20
-102.851
11
193.132
21
-102.924
0
LINE
8
BLACK
6
CONTINUOUS
10
193.132
20
-102.924
11
193.059
21
-102.973
0
LINE
8
BLACK
6
CONTINUOUS
10
193.059
20
-102.973
11
192.972
21
-102.99
0
LINE
8
BLACK
6
CONTINUOUS
10
192.972
20
-102.99
11
192.222
21
-102.99
0
LINE
8
BLACK
6
CONTINUOUS
10
192.222
20
-102.99
11
192.136
21
-102.973
0
LINE
8
BLACK
6
CONTINUOUS
10
192.136
20
-102.973
11
192.063
21
-102.924
0
LINE
8
BLACK
6
CONTINUOUS
10
192.063
20
-102.924
11
192.015
21
-102.851
0
LINE
8
BLACK
6
CONTINUOUS
10
192.015
20
-102.851
11
191.998
21
-102.765
0
LINE
8
BLACK
6
CONTINUOUS
10
191.998
20
-102.765
11
191.998
21
-102.315
0
LINE
8
BLACK
6
CONTINUOUS
10
191.998
20
-102.315
11
192.015
21
-102.229
0
LINE
8
BLACK
6
CONTINUOUS
10
192.015
20
-102.229
11
192.063
21
-102.156
0
LINE
8
BLACK
6
CONTINUOUS
10
192.063
20
-102.156
11
192.136
21
-102.107
0
LINE
8
BLACK
6
CONTINUOUS
10
192.136
20
-102.107
11
192.222
21
-102.09
0
LINE
8
BLACK
6
CONTINUOUS
10
192.222
20
-102.09
11
192.972
21
-102.09
0
LINE
8
BLACK
6
CONTINUOUS
10
192.972
20
-102.09
11
193.059
21
-102.107
0
LINE
8
BLACK
6
CONTINUOUS
10
174.009
20
-102.107
11
174.082
21
-102.156
0
LINE
8
BLACK
6
CONTINUOUS
10
174.082
20
-102.156
11
174.13
21
-102.229
0
LINE
8
BLACK
6
CONTINUOUS
10
174.13
20
-102.229
11
174.147
21
-102.315
0
LINE
8
BLACK
6
CONTINUOUS
10
174.147
20
-102.315
11
174.147
21
-102.765
0
LINE
8
BLACK
6
CONTINUOUS
10
174.147
20
-102.765
11
174.13
21
-102.851
0
LINE
8
BLACK
6
CONTINUOUS
10
174.13
20
-102.851
11
174.082
21
-102.924
0
LINE
8
BLACK
6
CONTINUOUS
10
174.082
20
-102.924
11
174.009
21
-102.973
0
LINE
8
BLACK
6
CONTINUOUS
10
174.009
20
-102.973
11
173.922
21
-102.99
0
LINE
8
BLACK
6
CONTINUOUS
10
173.922
20
-102.99
11
173.172
21
-102.99
0
LINE
8
BLACK
6
CONTINUOUS
10
173.172
20
-102.99
11
173.086
21
-102.973
0
LINE
8
BLACK
6
CONTINUOUS
10
173.086
20
-102.973
11
173.013
21
-102.924
0
LINE
8
BLACK
6
CONTINUOUS
10
173.013
20
-102.924
11
172.965
21
-102.851
0
LINE
8
BLACK
6
CONTINUOUS
10
172.965
20
-102.851
11
172.947
21
-102.765
0
LINE
8
BLACK
6
CONTINUOUS
10
172.947
20
-102.765
11
172.947
21
-102.315
0
LINE
8
BLACK
6
CONTINUOUS
10
172.947
20
-102.315
11
172.965
21
-102.229
0
LINE
8
BLACK
6
CONTINUOUS
10
172.965
20
-102.229
11
173.013
21
-102.156
0
LINE
8
BLACK
6
CONTINUOUS
10
173.013
20
-102.156
11
173.086
21
-102.107
0
LINE
8
BLACK
6
CONTINUOUS
10
173.086
20
-102.107
11
173.172
21
-102.09
0
LINE
8
BLACK
6
CONTINUOUS
10
173.172
20
-102.09
11
173.922
21
-102.09
0
LINE
8
BLACK
6
CONTINUOUS
10
173.922
20
-102.09
11
174.009
21
-102.107
0
LINE
8
BLACK
6
CONTINUOUS
10
154.959
20
-102.107
11
155.032
21
-102.156
0
LINE
8
BLACK
6
CONTINUOUS
10
155.032
20
-102.156
11
155.08
21
-102.229
0
LINE
8
BLACK
6
CONTINUOUS
10
155.08
20
-102.229
11
155.097
21
-102.315
0
LINE
8
BLACK
6
CONTINUOUS
10
155.097
20
-102.315
11
155.097
21
-102.765
0
LINE
8
BLACK
6
CONTINUOUS
10
155.097
20
-102.765
11
155.08
21
-102.851
0
LINE
8
BLACK
6
CONTINUOUS
10
155.08
20
-102.851
11
155.032
21
-102.924
0
LINE
8
BLACK
6
CONTINUOUS
10
155.032
20
-102.924
11
154.959
21
-102.973
0
LINE
8
BLACK
6
CONTINUOUS
10
154.959
20
-102.973
11
154.873
21
-102.99
0
LINE
8
BLACK
6
CONTINUOUS
10
154.873
20
-102.99
11
154.123
21
-102.99
0
LINE
8
BLACK
6
CONTINUOUS
10
154.123
20
-102.99
11
154.036
21
-102.973
0
LINE
8
BLACK
6
CONTINUOUS
10
154.036
20
-102.973
11
153.963
21
-102.924
0
LINE
8
BLACK
6
CONTINUOUS
10
153.963
20
-102.924
11
153.915
21
-102.851
0
LINE
8
BLACK
6
CONTINUOUS
10
153.915
20
-102.851
11
153.897
21
-102.765
0
LINE
8
BLACK
6
CONTINUOUS
10
153.897
20
-102.765
11
153.897
21
-102.315
0
LINE
8
BLACK
6
CONTINUOUS
10
153.897
20
-102.315
11
153.915
21
-102.229
0
LINE
8
BLACK
6
CONTINUOUS
10
153.915
20
-102.229
11
153.963
21
-102.156
0
LINE
8
BLACK
6
CONTINUOUS
10
153.963
20
-102.156
11
154.036
21
-102.107
0
LINE
8
BLACK
6
CONTINUOUS
10
154.036
20
-102.107
11
154.123
21
-102.09
0
LINE
8
BLACK
6
CONTINUOUS
10
154.123
20
-102.09
11
154.873
21
-102.09
0
LINE
8
BLACK
6
CONTINUOUS
10
154.873
20
-102.09
11
154.959
21
-102.107
0
LINE
8
BLACK
6
CONTINUOUS
10
135.909
20
-102.107
11
135.982
21
-102.156
0
LINE
8
BLACK
6
CONTINUOUS
10
135.982
20
-102.156
11
136.03
21
-102.229
0
LINE
8
BLACK
6
CONTINUOUS
10
136.03
20
-102.229
11
136.047
21
-102.315
0
LINE
8
BLACK
6
CONTINUOUS
10
136.047
20
-102.315
11
136.047
21
-102.765
0
LINE
8
BLACK
6
CONTINUOUS
10
136.047
20
-102.765
11
136.03
21
-102.851
0
LINE
8
BLACK
6
CONTINUOUS
10
136.03
20
-102.851
11
135.982
21
-102.924
0
LINE
8
BLACK
6
CONTINUOUS
10
135.982
20
-102.924
11
135.909
21
-102.973
0
LINE
8
BLACK
6
CONTINUOUS
10
135.909
20
-102.973
11
135.822
21
-102.99
0
LINE
8
BLACK
6
CONTINUOUS
10
135.822
20
-102.99
11
135.072
21
-102.99
0
LINE
8
BLACK
6
CONTINUOUS
10
135.072
20
-102.99
11
134.986
21
-102.973
0
LINE
8
BLACK
6
CONTINUOUS
10
134.986
20
-102.973
11
134.913
21
-102.924
0
LINE
8
BLACK
6
CONTINUOUS
10
134.913
20
-102.924
11
134.865
21
-102.851
0
LINE
8
BLACK
6
CONTINUOUS
10
134.865
20
-102.851
11
134.847
21
-102.765
0
LINE
8
BLACK
6
CONTINUOUS
10
134.847
20
-102.765
11
134.847
21
-102.315
0
LINE
8
BLACK
6
CONTINUOUS
10
134.847
20
-102.315
11
134.865
21
-102.229
0
LINE
8
BLACK
6
CONTINUOUS
10
134.865
20
-102.229
11
134.913
21
-102.156
0
LINE
8
BLACK
6
CONTINUOUS
10
134.913
20
-102.156
11
134.986
21
-102.107
0
LINE
8
BLACK
6
CONTINUOUS
10
134.986
20
-102.107
11
135.072
21
-102.09
0
LINE
8
BLACK
6
CONTINUOUS
10
135.072
20
-102.09
11
135.822
21
-102.09
0
LINE
8
BLACK
6
CONTINUOUS
10
135.822
20
-102.09
11
135.909
21
-102.107
0
LINE
8
BLACK
6
CONTINUOUS
10
116.859
20
-102.107
11
116.932
21
-102.156
0
LINE
8
BLACK
6
CONTINUOUS
10
116.932
20
-102.156
11
116.98
21
-102.229
0
LINE
8
BLACK
6
CONTINUOUS
10
116.98
20
-102.229
11
116.997
21
-102.315
0
LINE
8
BLACK
6
CONTINUOUS
10
116.997
20
-102.315
11
116.997
21
-102.765
0
LINE
8
BLACK
6
CONTINUOUS
10
116.997
20
-102.765
11
116.98
21
-102.851
0
LINE
8
BLACK
6
CONTINUOUS
10
116.98
20
-102.851
11
116.932
21
-102.924
0
LINE
8
BLACK
6
CONTINUOUS
10
116.932
20
-102.924
11
116.859
21
-102.973
0
LINE
8
BLACK
6
CONTINUOUS
10
116.859
20
-102.973
11
116.772
21
-102.99
0
LINE
8
BLACK
6
CONTINUOUS
10
116.772
20
-102.99
11
116.022
21
-102.99
0
LINE
8
BLACK
6
CONTINUOUS
10
116.022
20
-102.99
11
115.936
21
-102.973
0
LINE
8
BLACK
6
CONTINUOUS
10
115.936
20
-102.973
11
115.863
21
-102.924
0
LINE
8
BLACK
6
CONTINUOUS
10
115.863
20
-102.924
11
115.815
21
-102.851
0
LINE
8
BLACK
6
CONTINUOUS
10
115.815
20
-102.851
11
115.797
21
-102.765
0
LINE
8
BLACK
6
CONTINUOUS
10
115.797
20
-102.765
11
115.797
21
-102.315
0
LINE
8
BLACK
6
CONTINUOUS
10
115.797
20
-102.315
11
115.815
21
-102.229
0
LINE
8
BLACK
6
CONTINUOUS
10
115.815
20
-102.229
11
115.863
21
-102.156
0
LINE
8
BLACK
6
CONTINUOUS
10
115.863
20
-102.156
11
115.936
21
-102.107
0
LINE
8
BLACK
6
CONTINUOUS
10
115.936
20
-102.107
11
116.022
21
-102.09
0
LINE
8
BLACK
6
CONTINUOUS
10
116.022
20
-102.09
11
116.772
21
-102.09
0
LINE
8
BLACK
6
CONTINUOUS
10
116.772
20
-102.09
11
116.859
21
-102.107
0
LINE
8
BLACK
6
CONTINUOUS
10
95.4274
20
-102.107
11
95.5003
21
-102.156
0
LINE
8
BLACK
6
CONTINUOUS
10
95.5003
20
-102.156
11
95.5491
21
-102.229
0
LINE
8
BLACK
6
CONTINUOUS
10
95.5491
20
-102.229
11
95.5662
21
-102.315
0
LINE
8
BLACK
6
CONTINUOUS
10
95.5662
20
-102.315
11
95.5662
21
-102.765
0
LINE
8
BLACK
6
CONTINUOUS
10
95.5662
20
-102.765
11
95.5491
21
-102.851
0
LINE
8
BLACK
6
CONTINUOUS
10
95.5491
20
-102.851
11
95.5003
21
-102.924
0
LINE
8
BLACK
6
CONTINUOUS
10
95.5003
20
-102.924
11
95.4274
21
-102.973
0
LINE
8
BLACK
6
CONTINUOUS
10
95.4274
20
-102.973
11
95.3413
21
-102.99
0
LINE
8
BLACK
6
CONTINUOUS
10
95.3413
20
-102.99
11
94.5913
21
-102.99
0
LINE
8
BLACK
6
CONTINUOUS
10
94.5913
20
-102.99
11
94.5051
21
-102.973
0
LINE
8
BLACK
6
CONTINUOUS
10
94.5051
20
-102.973
11
94.4322
21
-102.924
0
LINE
8
BLACK
6
CONTINUOUS
10
94.4322
20
-102.924
11
94.3834
21
-102.851
0
LINE
8
BLACK
6
CONTINUOUS
10
94.3834
20
-102.851
11
94.3662
21
-102.765
0
LINE
8
BLACK
6
CONTINUOUS
10
94.3662
20
-102.765
11
94.3662
21
-102.315
0
LINE
8
BLACK
6
CONTINUOUS
10
94.3662
20
-102.315
11
94.3834
21
-102.229
0
LINE
8
BLACK
6
CONTINUOUS
10
94.3834
20
-102.229
11
94.4322
21
-102.156
0
LINE
8
BLACK
6
CONTINUOUS
10
94.4322
20
-102.156
11
94.5051
21
-102.107
0
LINE
8
BLACK
6
CONTINUOUS
10
94.5051
20
-102.107
11
94.5913
21
-102.09
0
LINE
8
BLACK
6
CONTINUOUS
10
94.5913
20
-102.09
11
95.3413
21
-102.09
0
LINE
8
BLACK
6
CONTINUOUS
10
95.3413
20
-102.09
11
95.4274
21
-102.107
0
LINE
8
BLACK
6
CONTINUOUS
10
73.9961
20
-102.107
11
74.0691
21
-102.156
0
LINE
8
BLACK
6
CONTINUOUS
10
74.0691
20
-102.156
11
74.1179
21
-102.229
0
LINE
8
BLACK
6
CONTINUOUS
10
74.1179
20
-102.229
11
74.135
21
-102.315
0
LINE
8
BLACK
6
CONTINUOUS
10
74.135
20
-102.315
11
74.135
21
-102.765
0
LINE
8
BLACK
6
CONTINUOUS
10
74.135
20
-102.765
11
74.1179
21
-102.851
0
LINE
8
BLACK
6
CONTINUOUS
10
74.1179
20
-102.851
11
74.0691
21
-102.924
0
LINE
8
BLACK
6
CONTINUOUS
10
74.0691
20
-102.924
11
73.9961
21
-102.973
0
LINE
8
BLACK
6
CONTINUOUS
10
73.9961
20
-102.973
11
73.91
21
-102.99
0
LINE
8
BLACK
6
CONTINUOUS
10
73.91
20
-102.99
11
73.16
21
-102.99
0
LINE
8
BLACK
6
CONTINUOUS
10
73.16
20
-102.99
11
73.0739
21
-102.973
0
LINE
8
BLACK
6
CONTINUOUS
10
73.0739
20
-102.973
11
73.0009
21
-102.924
0
LINE
8
BLACK
6
CONTINUOUS
10
73.0009
20
-102.924
11
72.9521
21
-102.851
0
LINE
8
BLACK
6
CONTINUOUS
10
72.9521
20
-102.851
11
72.935
21
-102.765
0
LINE
8
BLACK
6
CONTINUOUS
10
72.935
20
-102.765
11
72.935
21
-102.315
0
LINE
8
BLACK
6
CONTINUOUS
10
72.935
20
-102.315
11
72.9521
21
-102.229
0
LINE
8
BLACK
6
CONTINUOUS
10
72.9521
20
-102.229
11
73.0009
21
-102.156
0
LINE
8
BLACK
6
CONTINUOUS
10
73.0009
20
-102.156
11
73.0739
21
-102.107
0
LINE
8
BLACK
6
CONTINUOUS
10
73.0739
20
-102.107
11
73.16
21
-102.09
0
LINE
8
BLACK
6
CONTINUOUS
10
73.16
20
-102.09
11
73.91
21
-102.09
0
LINE
8
BLACK
6
CONTINUOUS
10
73.91
20
-102.09
11
73.9961
21
-102.107
0
LINE
8
BLACK
6
CONTINUOUS
10
193.059
20
-98.8071
11
193.132
21
-98.8559
0
LINE
8
BLACK
6
CONTINUOUS
10
193.132
20
-98.8559
11
193.18
21
-98.9289
0
LINE
8
BLACK
6
CONTINUOUS
10
193.18
20
-98.9289
11
193.197
21
-99.015
0
LINE
8
BLACK
6
CONTINUOUS
10
193.197
20
-99.015
11
193.197
21
-99.465
0
LINE
8
BLACK
6
CONTINUOUS
10
193.197
20
-99.465
11
193.18
21
-99.5511
0
LINE
8
BLACK
6
CONTINUOUS
10
193.18
20
-99.5511
11
193.132
21
-99.6241
0
LINE
8
BLACK
6
CONTINUOUS
10
193.132
20
-99.6241
11
193.059
21
-99.6729
0
LINE
8
BLACK
6
CONTINUOUS
10
193.059
20
-99.6729
11
192.972
21
-99.69
0
LINE
8
BLACK
6
CONTINUOUS
10
192.972
20
-99.69
11
192.222
21
-99.69
0
LINE
8
BLACK
6
CONTINUOUS
10
192.222
20
-99.69
11
192.136
21
-99.6729
0
LINE
8
BLACK
6
CONTINUOUS
10
192.136
20
-99.6729
11
192.063
21
-99.6241
0
LINE
8
BLACK
6
CONTINUOUS
10
192.063
20
-99.6241
11
192.015
21
-99.5511
0
LINE
8
BLACK
6
CONTINUOUS
10
192.015
20
-99.5511
11
191.998
21
-99.465
0
LINE
8
BLACK
6
CONTINUOUS
10
191.998
20
-99.465
11
191.998
21
-99.015
0
LINE
8
BLACK
6
CONTINUOUS
10
191.998
20
-99.015
11
192.015
21
-98.9289
0
LINE
8
BLACK
6
CONTINUOUS
10
192.015
20
-98.9289
11
192.063
21
-98.8559
0
LINE
8
BLACK
6
CONTINUOUS
10
192.063
20
-98.8559
11
192.136
21
-98.8071
0
LINE
8
BLACK
6
CONTINUOUS
10
192.136
20
-98.8071
11
192.222
21
-98.79
0
LINE
8
BLACK
6
CONTINUOUS
10
192.222
20
-98.79
11
192.972
21
-98.79
0
LINE
8
BLACK
6
CONTINUOUS
10
192.972
20
-98.79
11
193.059
21
-98.8071
0
LINE
8
BLACK
6
CONTINUOUS
10
174.009
20
-98.8071
11
174.082
21
-98.8559
0
LINE
8
BLACK
6
CONTINUOUS
10
174.082
20
-98.8559
11
174.13
21
-98.9289
0
LINE
8
BLACK
6
CONTINUOUS
10
174.13
20
-98.9289
11
174.147
21
-99.015
0
LINE
8
BLACK
6
CONTINUOUS
10
174.147
20
-99.015
11
174.147
21
-99.465
0
LINE
8
BLACK
6
CONTINUOUS
10
174.147
20
-99.465
11
174.13
21
-99.5511
0
LINE
8
BLACK
6
CONTINUOUS
10
174.13
20
-99.5511
11
174.082
21
-99.6241
0
LINE
8
BLACK
6
CONTINUOUS
10
174.082
20
-99.6241
11
174.009
21
-99.6729
0
LINE
8
BLACK
6
CONTINUOUS
10
174.009
20
-99.6729
11
173.922
21
-99.69
0
LINE
8
BLACK
6
CONTINUOUS
10
173.922
20
-99.69
11
173.172
21
-99.69
0
LINE
8
BLACK
6
CONTINUOUS
10
173.172
20
-99.69
11
173.086
21
-99.6729
0
LINE
8
BLACK
6
CONTINUOUS
10
173.086
20
-99.6729
11
173.013
21
-99.6241
0
LINE
8
BLACK
6
CONTINUOUS
10
173.013
20
-99.6241
11
172.965
21
-99.5511
0
LINE
8
BLACK
6
CONTINUOUS
10
172.965
20
-99.5511
11
172.947
21
-99.465
0
LINE
8
BLACK
6
CONTINUOUS
10
172.947
20
-99.465
11
172.947
21
-99.015
0
LINE
8
BLACK
6
CONTINUOUS
10
172.947
20
-99.015
11
172.965
21
-98.9289
0
LINE
8
BLACK
6
CONTINUOUS
10
172.965
20
-98.9289
11
173.013
21
-98.8559
0
LINE
8
BLACK
6
CONTINUOUS
10
173.013
20
-98.8559
11
173.086
21
-98.8071
0
LINE
8
BLACK
6
CONTINUOUS
10
173.086
20
-98.8071
11
173.172
21
-98.79
0
LINE
8
BLACK
6
CONTINUOUS
10
173.172
20
-98.79
11
173.922
21
-98.79
0
LINE
8
BLACK
6
CONTINUOUS
10
173.922
20
-98.79
11
174.009
21
-98.8071
0
LINE
8
BLACK
6
CONTINUOUS
10
154.959
20
-98.8071
11
155.032
21
-98.8559
0
LINE
8
BLACK
6
CONTINUOUS
10
155.032
20
-98.8559
11
155.08
21
-98.9289
0
LINE
8
BLACK
6
CONTINUOUS
10
155.08
20
-98.9289
11
155.097
21
-99.015
0
LINE
8
BLACK
6
CONTINUOUS
10
155.097
20
-99.015
11
155.097
21
-99.465
0
LINE
8
BLACK
6
CONTINUOUS
10
155.097
20
-99.465
11
155.08
21
-99.5511
0
LINE
8
BLACK
6
CONTINUOUS
10
155.08
20
-99.5511
11
155.032
21
-99.6241
0
LINE
8
BLACK
6
CONTINUOUS
10
155.032
20
-99.6241
11
154.959
21
-99.6729
0
LINE
8
BLACK
6
CONTINUOUS
10
154.959
20
-99.6729
11
154.873
21
-99.69
0
LINE
8
BLACK
6
CONTINUOUS
10
154.873
20
-99.69
11
154.123
21
-99.69
0
LINE
8
BLACK
6
CONTINUOUS
10
154.123
20
-99.69
11
154.036
21
-99.6729
0
LINE
8
BLACK
6
CONTINUOUS
10
154.036
20
-99.6729
11
153.963
21
-99.6241
0
LINE
8
BLACK
6
CONTINUOUS
10
153.963
20
-99.6241
11
153.915
21
-99.5511
0
LINE
8
BLACK
6
CONTINUOUS
10
153.915
20
-99.5511
11
153.897
21
-99.465
0
LINE
8
BLACK
6
CONTINUOUS
10
153.897
20
-99.465
11
153.897
21
-99.015
0
LINE
8
BLACK
6
CONTINUOUS
10
153.897
20
-99.015
11
153.915
21
-98.9289
0
LINE
8
BLACK
6
CONTINUOUS
10
153.915
20
-98.9289
11
153.963
21
-98.8559
0
LINE
8
BLACK
6
CONTINUOUS
10
153.963
20
-98.8559
11
154.036
21
-98.8071
0
LINE
8
BLACK
6
CONTINUOUS
10
154.036
20
-98.8071
11
154.123
21
-98.79
0
LINE
8
BLACK
6
CONTINUOUS
10
154.123
20
-98.79
11
154.873
21
-98.79
0
LINE
8
BLACK
6
CONTINUOUS
10
154.873
20
-98.79
11
154.959
21
-98.8071
0
LINE
8
BLACK
6
CONTINUOUS
10
135.909
20
-98.8071
11
135.982
21
-98.8559
0
LINE
8
BLACK
6
CONTINUOUS
10
135.982
20
-98.8559
11
136.03
21
-98.9289
0
LINE
8
BLACK
6
CONTINUOUS
10
136.03
20
-98.9289
11
136.047
21
-99.015
0
LINE
8
BLACK
6
CONTINUOUS
10
136.047
20
-99.015
11
136.047
21
-99.465
0
LINE
8
BLACK
6
CONTINUOUS
10
136.047
20
-99.465
11
136.03
21
-99.5511
0
LINE
8
BLACK
6
CONTINUOUS
10
136.03
20
-99.5511
11
135.982
21
-99.6241
0
LINE
8
BLACK
6
CONTINUOUS
10
135.982
20
-99.6241
11
135.909
21
-99.6729
0
LINE
8
BLACK
6
CONTINUOUS
10
135.909
20
-99.6729
11
135.822
21
-99.69
0
LINE
8
BLACK
6
CONTINUOUS
10
135.822
20
-99.69
11
135.072
21
-99.69
0
LINE
8
BLACK
6
CONTINUOUS
10
135.072
20
-99.69
11
134.986
21
-99.6729
0
LINE
8
BLACK
6
CONTINUOUS
10
134.986
20
-99.6729
11
134.913
21
-99.6241
0
LINE
8
BLACK
6
CONTINUOUS
10
134.913
20
-99.6241
11
134.865
21
-99.5511
0
LINE
8
BLACK
6
CONTINUOUS
10
134.865
20
-99.5511
11
134.847
21
-99.465
0
LINE
8
BLACK
6
CONTINUOUS
10
134.847
20
-99.465
11
134.847
21
-99.015
0
LINE
8
BLACK
6
CONTINUOUS
10
134.847
20
-99.015
11
134.865
21
-98.9289
0
LINE
8
BLACK
6
CONTINUOUS
10
134.865
20
-98.9289
11
134.913
21
-98.8559
0
LINE
8
BLACK
6
CONTINUOUS
10
134.913
20
-98.8559
11
134.986
21
-98.8071
0
LINE
8
BLACK
6
CONTINUOUS
10
134.986
20
-98.8071
11
135.072
21
-98.79
0
LINE
8
BLACK
6
CONTINUOUS
10
135.072
20
-98.79
11
135.822
21
-98.79
0
LINE
8
BLACK
6
CONTINUOUS
10
135.822
20
-98.79
11
135.909
21
-98.8071
0
LINE
8
BLACK
6
CONTINUOUS
10
116.859
20
-98.8071
11
116.932
21
-98.8559
0
LINE
8
BLACK
6
CONTINUOUS
10
116.932
20
-98.8559
11
116.98
21
-98.9289
0
LINE
8
BLACK
6
CONTINUOUS
10
116.98
20
-98.9289
11
116.997
21
-99.015
0
LINE
8
BLACK
6
CONTINUOUS
10
116.997
20
-99.015
11
116.997
21
-99.465
0
LINE
8
BLACK
6
CONTINUOUS
10
116.997
20
-99.465
11
116.98
21
-99.5511
0
LINE
8
BLACK
6
CONTINUOUS
10
116.98
20
-99.5511
11
116.932
21
-99.6241
0
LINE
8
BLACK
6
CONTINUOUS
10
116.932
20
-99.6241
11
116.859
21
-99.6729
0
LINE
8
BLACK
6
CONTINUOUS
10
116.859
20
-99.6729
11
116.772
21
-99.69
0
LINE
8
BLACK
6
CONTINUOUS
10
116.772
20
-99.69
11
116.022
21
-99.69
0
LINE
8
BLACK
6
CONTINUOUS
10
116.022
20
-99.69
11
115.936
21
-99.6729
0
LINE
8
BLACK
6
CONTINUOUS
10
115.936
20
-99.6729
11
115.863
21
-99.6241
0
LINE
8
BLACK
6
CONTINUOUS
10
115.863
20
-99.6241
11
115.815
21
-99.5511
0
LINE
8
BLACK
6
CONTINUOUS
10
115.815
20
-99.5511
11
115.797
21
-99.465
0
LINE
8
BLACK
6
CONTINUOUS
10
115.797
20
-99.465
11
115.797
21
-99.015
0
LINE
8
BLACK
6
CONTINUOUS
10
115.797
20
-99.015
11
115.815
21
-98.9289
0
LINE
8
BLACK
6
CONTINUOUS
10
115.815
20
-98.9289
11
115.863
21
-98.8559
0
LINE
8
BLACK
6
CONTINUOUS
10
115.863
20
-98.8559
11
115.936
21
-98.8071
0
LINE
8
BLACK
6
CONTINUOUS
10
115.936
20
-98.8071
11
116.022
21
-98.79
0
LINE
8
BLACK
6
CONTINUOUS
10
116.022
20
-98.79
11
116.772
21
-98.79
0
LINE
8
BLACK
6
CONTINUOUS
10
116.772
20
-98.79
11
116.859
21
-98.8071
0
LINE
8
BLACK
6
CONTINUOUS
10
95.4274
20
-98.8071
11
95.5003
21
-98.8559
0
LINE
8
BLACK
6
CONTINUOUS
10
95.5003
20
-98.8559
11
95.5491
21
-98.9289
0
LINE
8
BLACK
6
CONTINUOUS
10
95.5491
20
-98.9289
11
95.5662
21
-99.015
0
LINE
8
BLACK
6
CONTINUOUS
10
95.5662
20
-99.015
11
95.5662
21
-99.465
0
LINE
8
BLACK
6
CONTINUOUS
10
95.5662
20
-99.465
11
95.5491
21
-99.5511
0
LINE
8
BLACK
6
CONTINUOUS
10
95.5491
20
-99.5511
11
95.5003
21
-99.6241
0
LINE
8
BLACK
6
CONTINUOUS
10
95.5003
20
-99.6241
11
95.4274
21
-99.6729
0
LINE
8
BLACK
6
CONTINUOUS
10
95.4274
20
-99.6729
11
95.3413
21
-99.69
0
LINE
8
BLACK
6
CONTINUOUS
10
95.3413
20
-99.69
11
94.5913
21
-99.69
0
LINE
8
BLACK
6
CONTINUOUS
10
94.5913
20
-99.69
11
94.5051
21
-99.6729
0
LINE
8
BLACK
6
CONTINUOUS
10
94.5051
20
-99.6729
11
94.4322
21
-99.6241
0
LINE
8
BLACK
6
CONTINUOUS
10
94.4322
20
-99.6241
11
94.3834
21
-99.5511
0
LINE
8
BLACK
6
CONTINUOUS
10
94.3834
20
-99.5511
11
94.3662
21
-99.465
0
LINE
8
BLACK
6
CONTINUOUS
10
94.3662
20
-99.465
11
94.3662
21
-99.015
0
LINE
8
BLACK
6
CONTINUOUS
10
94.3662
20
-99.015
11
94.3834
21
-98.9289
0
LINE
8
BLACK
6
CONTINUOUS
10
94.3834
20
-98.9289
11
94.4322
21
-98.8559
0
LINE
8
BLACK
6
CONTINUOUS
10
94.4322
20
-98.8559
11
94.5051
21
-98.8071
0
LINE
8
BLACK
6
CONTINUOUS
10
94.5051
20
-98.8071
11
94.5913
21
-98.79
0
LINE
8
BLACK
6
CONTINUOUS
10
94.5913
20
-98.79
11
95.3413
21
-98.79
0
LINE
8
BLACK
6
CONTINUOUS
10
95.3413
20
-98.79
11
95.4274
21
-98.8071
0
LINE
8
BLACK
6
CONTINUOUS
10
73.9961
20
-98.8071
11
74.0691
21
-98.8559
0
LINE
8
BLACK
6
CONTINUOUS
10
74.0691
20
-98.8559
11
74.1179
21
-98.9289
0
LINE
8
BLACK
6
CONTINUOUS
10
74.1179
20
-98.9289
11
74.135
21
-99.015
0
LINE
8
BLACK
6
CONTINUOUS
10
74.135
20
-99.015
11
74.135
21
-99.465
0
LINE
8
BLACK
6
CONTINUOUS
10
74.135
20
-99.465
11
74.1179
21
-99.5511
0
LINE
8
BLACK
6
CONTINUOUS
10
74.1179
20
-99.5511
11
74.0691
21
-99.6241
0
LINE
8
BLACK
6
CONTINUOUS
10
74.0691
20
-99.6241
11
73.9961
21
-99.6729
0
LINE
8
BLACK
6
CONTINUOUS
10
73.9961
20
-99.6729
11
73.91
21
-99.69
0
LINE
8
BLACK
6
CONTINUOUS
10
73.91
20
-99.69
11
73.16
21
-99.69
0
LINE
8
BLACK
6
CONTINUOUS
10
73.16
20
-99.69
11
73.0739
21
-99.6729
0
LINE
8
BLACK
6
CONTINUOUS
10
73.0739
20
-99.6729
11
73.0009
21
-99.6241
0
LINE
8
BLACK
6
CONTINUOUS
10
73.0009
20
-99.6241
11
72.9521
21
-99.5511
0
LINE
8
BLACK
6
CONTINUOUS
10
72.9521
20
-99.5511
11
72.935
21
-99.465
0
LINE
8
BLACK
6
CONTINUOUS
10
72.935
20
-99.465
11
72.935
21
-99.015
0
LINE
8
BLACK
6
CONTINUOUS
10
72.935
20
-99.015
11
72.9521
21
-98.9289
0
LINE
8
BLACK
6
CONTINUOUS
10
72.9521
20
-98.9289
11
73.0009
21
-98.8559
0
LINE
8
BLACK
6
CONTINUOUS
10
73.0009
20
-98.8559
11
73.0739
21
-98.8071
0
LINE
8
BLACK
6
CONTINUOUS
10
73.0739
20
-98.8071
11
73.16
21
-98.79
0
LINE
8
BLACK
6
CONTINUOUS
10
73.16
20
-98.79
11
73.91
21
-98.79
0
LINE
8
BLACK
6
CONTINUOUS
10
73.91
20
-98.79
11
73.9961
21
-98.8071
0
LINE
8
BLACK
6
CONTINUOUS
10
179.773
20
-91.479
11
179.854
21
-91.5332
0
LINE
8
BLACK
6
CONTINUOUS
10
179.854
20
-91.5332
11
179.908
21
-91.6143
0
LINE
8
BLACK
6
CONTINUOUS
10
179.908
20
-91.6143
11
179.927
21
-91.71
0
LINE
8
BLACK
6
CONTINUOUS
10
179.927
20
-91.71
11
179.927
21
-93.71
0
LINE
8
BLACK
6
CONTINUOUS
10
179.927
20
-93.71
11
179.908
21
-93.8057
0
LINE
8
BLACK
6
CONTINUOUS
10
179.908
20
-93.8057
11
179.854
21
-93.8868
0
LINE
8
BLACK
6
CONTINUOUS
10
179.854
20
-93.8868
11
179.773
21
-93.941
0
LINE
8
BLACK
6
CONTINUOUS
10
179.773
20
-93.941
11
179.677
21
-93.96
0
LINE
8
BLACK
6
CONTINUOUS
10
179.677
20
-93.96
11
177.627
21
-93.96
0
LINE
8
BLACK
6
CONTINUOUS
10
177.627
20
-93.96
11
177.532
21
-93.941
0
LINE
8
BLACK
6
CONTINUOUS
10
177.532
20
-93.941
11
177.451
21
-93.8868
0
LINE
8
BLACK
6
CONTINUOUS
10
177.451
20
-93.8868
11
177.397
21
-93.8057
0
LINE
8
BLACK
6
CONTINUOUS
10
177.397
20
-93.8057
11
177.377
21
-93.71
0
LINE
8
BLACK
6
CONTINUOUS
10
177.377
20
-93.71
11
177.377
21
-91.71
0
LINE
8
BLACK
6
CONTINUOUS
10
177.377
20
-91.71
11
177.397
21
-91.6143
0
LINE
8
BLACK
6
CONTINUOUS
10
177.397
20
-91.6143
11
177.451
21
-91.5332
0
LINE
8
BLACK
6
CONTINUOUS
10
177.451
20
-91.5332
11
177.532
21
-91.479
0
LINE
8
BLACK
6
CONTINUOUS
10
177.532
20
-91.479
11
177.627
21
-91.46
0
LINE
8
BLACK
6
CONTINUOUS
10
177.627
20
-91.46
11
179.677
21
-91.46
0
LINE
8
BLACK
6
CONTINUOUS
10
179.677
20
-91.46
11
179.773
21
-91.479
0
LINE
8
BLACK
6
CONTINUOUS
10
160.723
20
-91.479
11
160.804
21
-91.5332
0
LINE
8
BLACK
6
CONTINUOUS
10
160.804
20
-91.5332
11
160.858
21
-91.6143
0
LINE
8
BLACK
6
CONTINUOUS
10
160.858
20
-91.6143
11
160.877
21
-91.71
0
LINE
8
BLACK
6
CONTINUOUS
10
160.877
20
-91.71
11
160.877
21
-93.71
0
LINE
8
BLACK
6
CONTINUOUS
10
160.877
20
-93.71
11
160.858
21
-93.8057
0
LINE
8
BLACK
6
CONTINUOUS
10
160.858
20
-93.8057
11
160.804
21
-93.8868
0
LINE
8
BLACK
6
CONTINUOUS
10
160.804
20
-93.8868
11
160.723
21
-93.941
0
LINE
8
BLACK
6
CONTINUOUS
10
160.723
20
-93.941
11
160.627
21
-93.96
0
LINE
8
BLACK
6
CONTINUOUS
10
160.627
20
-93.96
11
158.577
21
-93.96
0
LINE
8
BLACK
6
CONTINUOUS
10
158.577
20
-93.96
11
158.482
21
-93.941
0
LINE
8
BLACK
6
CONTINUOUS
10
158.482
20
-93.941
11
158.401
21
-93.8868
0
LINE
8
BLACK
6
CONTINUOUS
10
158.401
20
-93.8868
11
158.347
21
-93.8057
0
LINE
8
BLACK
6
CONTINUOUS
10
158.347
20
-93.8057
11
158.327
21
-93.71
0
LINE
8
BLACK
6
CONTINUOUS
10
158.327
20
-93.71
11
158.327
21
-91.71
0
LINE
8
BLACK
6
CONTINUOUS
10
158.327
20
-91.71
11
158.347
21
-91.6143
0
LINE
8
BLACK
6
CONTINUOUS
10
158.347
20
-91.6143
11
158.401
21
-91.5332
0
LINE
8
BLACK
6
CONTINUOUS
10
158.401
20
-91.5332
11
158.482
21
-91.479
0
LINE
8
BLACK
6
CONTINUOUS
10
158.482
20
-91.479
11
158.577
21
-91.46
0
LINE
8
BLACK
6
CONTINUOUS
10
158.577
20
-91.46
11
160.627
21
-91.46
0
LINE
8
BLACK
6
CONTINUOUS
10
160.627
20
-91.46
11
160.723
21
-91.479
0
LINE
8
BLACK
6
CONTINUOUS
10
141.673
20
-91.479
11
141.754
21
-91.5332
0
LINE
8
BLACK
6
CONTINUOUS
10
141.754
20
-91.5332
11
141.808
21
-91.6143
0
LINE
8
BLACK
6
CONTINUOUS
10
141.808
20
-91.6143
11
141.827
21
-91.71
0
LINE
8
BLACK
6
CONTINUOUS
10
141.827
20
-91.71
11
141.827
21
-93.71
0
LINE
8
BLACK
6
CONTINUOUS
10
141.827
20
-93.71
11
141.808
21
-93.8057
0
LINE
8
BLACK
6
CONTINUOUS
10
141.808
20
-93.8057
11
141.754
21
-93.8868
0
LINE
8
BLACK
6
CONTINUOUS
10
141.754
20
-93.8868
11
141.673
21
-93.941
0
LINE
8
BLACK
6
CONTINUOUS
10
141.673
20
-93.941
11
141.577
21
-93.96
0
LINE
8
BLACK
6
CONTINUOUS
10
141.577
20
-93.96
11
139.528
21
-93.96
0
LINE
8
BLACK
6
CONTINUOUS
10
139.528
20
-93.96
11
139.432
21
-93.941
0
LINE
8
BLACK
6
CONTINUOUS
10
139.432
20
-93.941
11
139.351
21
-93.8868
0
LINE
8
BLACK
6
CONTINUOUS
10
139.351
20
-93.8868
11
139.297
21
-93.8057
0
LINE
8
BLACK
6
CONTINUOUS
10
139.297
20
-93.8057
11
139.278
21
-93.71
0
LINE
8
BLACK
6
CONTINUOUS
10
139.278
20
-93.71
11
139.278
21
-91.71
0
LINE
8
BLACK
6
CONTINUOUS
10
139.278
20
-91.71
11
139.297
21
-91.6143
0
LINE
8
BLACK
6
CONTINUOUS
10
139.297
20
-91.6143
11
139.351
21
-91.5332
0
LINE
8
BLACK
6
CONTINUOUS
10
139.351
20
-91.5332
11
139.432
21
-91.479
0
LINE
8
BLACK
6
CONTINUOUS
10
139.432
20
-91.479
11
139.528
21
-91.46
0
LINE
8
BLACK
6
CONTINUOUS
10
139.528
20
-91.46
11
141.577
21
-91.46
0
LINE
8
BLACK
6
CONTINUOUS
10
141.577
20
-91.46
11
141.673
21
-91.479
0
LINE
8
BLACK
6
CONTINUOUS
10
122.623
20
-91.479
11
122.704
21
-91.5332
0
LINE
8
BLACK
6
CONTINUOUS
10
122.704
20
-91.5332
11
122.758
21
-91.6143
0
LINE
8
BLACK
6
CONTINUOUS
10
122.758
20
-91.6143
11
122.777
21
-91.71
0
LINE
8
BLACK
6
CONTINUOUS
10
122.777
20
-91.71
11
122.777
21
-93.71
0
LINE
8
BLACK
6
CONTINUOUS
10
122.777
20
-93.71
11
122.758
21
-93.8057
0
LINE
8
BLACK
6
CONTINUOUS
10
122.758
20
-93.8057
11
122.704
21
-93.8868
0
LINE
8
BLACK
6
CONTINUOUS
10
122.704
20
-93.8868
11
122.623
21
-93.941
0
LINE
8
BLACK
6
CONTINUOUS
10
122.623
20
-93.941
11
122.527
21
-93.96
0
LINE
8
BLACK
6
CONTINUOUS
10
122.527
20
-93.96
11
120.477
21
-93.96
0
LINE
8
BLACK
6
CONTINUOUS
10
120.477
20
-93.96
11
120.382
21
-93.941
0
LINE
8
BLACK
6
CONTINUOUS
10
120.382
20
-93.941
11
120.301
21
-93.8868
0
LINE
8
BLACK
6
CONTINUOUS
10
120.301
20
-93.8868
11
120.247
21
-93.8057
0
LINE
8
BLACK
6
CONTINUOUS
10
120.247
20
-93.8057
11
120.227
21
-93.71
0
LINE
8
BLACK
6
CONTINUOUS
10
120.227
20
-93.71
11
120.227
21
-91.71
0
LINE
8
BLACK
6
CONTINUOUS
10
120.227
20
-91.71
11
120.247
21
-91.6143
0
LINE
8
BLACK
6
CONTINUOUS
10
120.247
20
-91.6143
11
120.301
21
-91.5332
0
LINE
8
BLACK
6
CONTINUOUS
10
120.301
20
-91.5332
11
120.382
21
-91.479
0
LINE
8
BLACK
6
CONTINUOUS
10
120.382
20
-91.479
11
120.477
21
-91.46
0
LINE
8
BLACK
6
CONTINUOUS
10
120.477
20
-91.46
11
122.527
21
-91.46
0
LINE
8
BLACK
6
CONTINUOUS
10
122.527
20
-91.46
11
122.623
21
-91.479
0
LINE
8
BLACK
6
CONTINUOUS
10
103.573
20
-91.479
11
103.654
21
-91.5332
0
LINE
8
BLACK
6
CONTINUOUS
10
103.654
20
-91.5332
11
103.708
21
-91.6143
0
LINE
8
BLACK
6
CONTINUOUS
10
103.708
20
-91.6143
11
103.727
21
-91.71
0
LINE
8
BLACK
6
CONTINUOUS
10
103.727
20
-91.71
11
103.727
21
-93.71
0
LINE
8
BLACK
6
CONTINUOUS
10
103.727
20
-93.71
11
103.708
21
-93.8057
0
LINE
8
BLACK
6
CONTINUOUS
10
103.708
20
-93.8057
11
103.654
21
-93.8868
0
LINE
8
BLACK
6
CONTINUOUS
10
103.654
20
-93.8868
11
103.573
21
-93.941
0
LINE
8
BLACK
6
CONTINUOUS
10
103.573
20
-93.941
11
103.477
21
-93.96
0
LINE
8
BLACK
6
CONTINUOUS
10
103.477
20
-93.96
11
101.427
21
-93.96
0
LINE
8
BLACK
6
CONTINUOUS
10
101.427
20
-93.96
11
101.332
21
-93.941
0
LINE
8
BLACK
6
CONTINUOUS
10
101.332
20
-93.941
11
101.251
21
-93.8868
0
LINE
8
BLACK
6
CONTINUOUS
10
101.251
20
-93.8868
11
101.197
21
-93.8057
0
LINE
8
BLACK
6
CONTINUOUS
10
101.197
20
-93.8057
11
101.177
21
-93.71
0
LINE
8
BLACK
6
CONTINUOUS
10
101.177
20
-93.71
11
101.177
21
-91.71
0
LINE
8
BLACK
6
CONTINUOUS
10
101.177
20
-91.71
11
101.197
21
-91.6143
0
LINE
8
BLACK
6
CONTINUOUS
10
101.197
20
-91.6143
11
101.251
21
-91.5332
0
LINE
8
BLACK
6
CONTINUOUS
10
101.251
20
-91.5332
11
101.332
21
-91.479
0
LINE
8
BLACK
6
CONTINUOUS
10
101.332
20
-91.479
11
101.427
21
-91.46
0
LINE
8
BLACK
6
CONTINUOUS
10
101.427
20
-91.46
11
103.477
21
-91.46
0
LINE
8
BLACK
6
CONTINUOUS
10
103.477
20
-91.46
11
103.573
21
-91.479
0
LINE
8
BLACK
6
CONTINUOUS
10
82.1419
20
-91.479
11
82.223
21
-91.5332
0
LINE
8
BLACK
6
CONTINUOUS
10
82.223
20
-91.5332
11
82.2772
21
-91.6143
0
LINE
8
BLACK
6
CONTINUOUS
10
82.2772
20
-91.6143
11
82.2963
21
-91.71
0
LINE
8
BLACK
6
CONTINUOUS
10
82.2963
20
-91.71
11
82.2963
21
-93.71
0
LINE
8
BLACK
6
CONTINUOUS
10
82.2963
20
-93.71
11
82.2772
21
-93.8057
0
LINE
8
BLACK
6
CONTINUOUS
10
82.2772
20
-93.8057
11
82.223
21
-93.8868
0
LINE
8
BLACK
6
CONTINUOUS
10
82.223
20
-93.8868
11
82.1419
21
-93.941
0
LINE
8
BLACK
6
CONTINUOUS
10
82.1419
20
-93.941
11
82.0463
21
-93.96
0
LINE
8
BLACK
6
CONTINUOUS
10
82.0463
20
-93.96
11
79.9963
21
-93.96
0
LINE
8
BLACK
6
CONTINUOUS
10
79.9963
20
-93.96
11
79.9006
21
-93.941
0
LINE
8
BLACK
6
CONTINUOUS
10
79.9006
20
-93.941
11
79.8195
21
-93.8868
0
LINE
8
BLACK
6
CONTINUOUS
10
79.8195
20
-93.8868
11
79.7653
21
-93.8057
0
LINE
8
BLACK
6
CONTINUOUS
10
79.7653
20
-93.8057
11
79.7463
21
-93.71
0
LINE
8
BLACK
6
CONTINUOUS
10
79.7463
20
-93.71
11
79.7463
21
-91.71
0
LINE
8
BLACK
6
CONTINUOUS
10
79.7463
20
-91.71
11
79.7653
21
-91.6143
0
LINE
8
BLACK
6
CONTINUOUS
10
79.7653
20
-91.6143
11
79.8195
21
-91.5332
0
LINE
8
BLACK
6
CONTINUOUS
10
79.8195
20
-91.5332
11
79.9006
21
-91.479
0
LINE
8
BLACK
6
CONTINUOUS
10
79.9006
20
-91.479
11
79.9963
21
-91.46
0
LINE
8
BLACK
6
CONTINUOUS
10
79.9963
20
-91.46
11
82.0463
21
-91.46
0
LINE
8
BLACK
6
CONTINUOUS
10
82.0463
20
-91.46
11
82.1419
21
-91.479
0
LINE
8
BLACK
6
CONTINUOUS
10
60.7107
20
-91.479
11
60.7918
21
-91.5332
0
LINE
8
BLACK
6
CONTINUOUS
10
60.7918
20
-91.5332
11
60.846
21
-91.6143
0
LINE
8
BLACK
6
CONTINUOUS
10
60.846
20
-91.6143
11
60.865
21
-91.71
0
LINE
8
BLACK
6
CONTINUOUS
10
60.865
20
-91.71
11
60.865
21
-93.71
0
LINE
8
BLACK
6
CONTINUOUS
10
60.865
20
-93.71
11
60.846
21
-93.8057
0
LINE
8
BLACK
6
CONTINUOUS
10
60.846
20
-93.8057
11
60.7918
21
-93.8868
0
LINE
8
BLACK
6
CONTINUOUS
10
60.7918
20
-93.8868
11
60.7107
21
-93.941
0
LINE
8
BLACK
6
CONTINUOUS
10
60.7107
20
-93.941
11
60.615
21
-93.96
0
LINE
8
BLACK
6
CONTINUOUS
10
60.615
20
-93.96
11
58.565
21
-93.96
0
LINE
8
BLACK
6
CONTINUOUS
10
58.565
20
-93.96
11
58.4693
21
-93.941
0
LINE
8
BLACK
6
CONTINUOUS
10
58.4693
20
-93.941
11
58.3882
21
-93.8868
0
LINE
8
BLACK
6
CONTINUOUS
10
58.3882
20
-93.8868
11
58.334
21
-93.8057
0
LINE
8
BLACK
6
CONTINUOUS
10
58.334
20
-93.8057
11
58.315
21
-93.71
0
LINE
8
BLACK
6
CONTINUOUS
10
58.315
20
-93.71
11
58.315
21
-91.71
0
LINE
8
BLACK
6
CONTINUOUS
10
58.315
20
-91.71
11
58.334
21
-91.6143
0
LINE
8
BLACK
6
CONTINUOUS
10
58.334
20
-91.6143
11
58.3882
21
-91.5332
0
LINE
8
BLACK
6
CONTINUOUS
10
58.3882
20
-91.5332
11
58.4693
21
-91.479
0
LINE
8
BLACK
6
CONTINUOUS
10
58.4693
20
-91.479
11
58.565
21
-91.46
0
LINE
8
BLACK
6
CONTINUOUS
10
58.565
20
-91.46
11
60.615
21
-91.46
0
LINE
8
BLACK
6
CONTINUOUS
10
60.615
20
-91.46
11
60.7107
21
-91.479
0
LINE
8
BLACK
6
CONTINUOUS
10
192.7
20
-88.939
11
192.781
21
-88.9932
0
LINE
8
BLACK
6
CONTINUOUS
10
192.781
20
-88.9932
11
192.835
21
-89.0743
0
LINE
8
BLACK
6
CONTINUOUS
10
192.835
20
-89.0743
11
192.855
21
-89.17
0
LINE
8
BLACK
6
CONTINUOUS
10
192.855
20
-89.17
11
192.855
21
-91.17
0
LINE
8
BLACK
6
CONTINUOUS
10
192.855
20
-91.17
11
192.835
21
-91.2657
0
LINE
8
BLACK
6
CONTINUOUS
10
192.835
20
-91.2657
11
192.781
21
-91.3468
0
LINE
8
BLACK
6
CONTINUOUS
10
192.781
20
-91.3468
11
192.7
21
-91.401
0
LINE
8
BLACK
6
CONTINUOUS
10
192.7
20
-91.401
11
192.605
21
-91.42
0
LINE
8
BLACK
6
CONTINUOUS
10
192.605
20
-91.42
11
190.554
21
-91.42
0
LINE
8
BLACK
6
CONTINUOUS
10
190.554
20
-91.42
11
190.459
21
-91.401
0
LINE
8
BLACK
6
CONTINUOUS
10
190.459
20
-91.401
11
190.378
21
-91.3468
0
LINE
8
BLACK
6
CONTINUOUS
10
190.378
20
-91.3468
11
190.324
21
-91.2657
0
LINE
8
BLACK
6
CONTINUOUS
10
190.324
20
-91.2657
11
190.304
21
-91.17
0
LINE
8
BLACK
6
CONTINUOUS
10
190.304
20
-91.17
11
190.304
21
-89.17
0
LINE
8
BLACK
6
CONTINUOUS
10
190.304
20
-89.17
11
190.324
21
-89.0743
0
LINE
8
BLACK
6
CONTINUOUS
10
190.324
20
-89.0743
11
190.378
21
-88.9932
0
LINE
8
BLACK
6
CONTINUOUS
10
190.378
20
-88.9932
11
190.459
21
-88.939
0
LINE
8
BLACK
6
CONTINUOUS
10
190.459
20
-88.939
11
190.554
21
-88.92
0
LINE
8
BLACK
6
CONTINUOUS
10
190.554
20
-88.92
11
192.605
21
-88.92
0
LINE
8
BLACK
6
CONTINUOUS
10
192.605
20
-88.92
11
192.7
21
-88.939
0
LINE
8
BLACK
6
CONTINUOUS
10
173.65
20
-88.939
11
173.731
21
-88.9932
0
LINE
8
BLACK
6
CONTINUOUS
10
173.731
20
-88.9932
11
173.785
21
-89.0743
0
LINE
8
BLACK
6
CONTINUOUS
10
173.785
20
-89.0743
11
173.804
21
-89.17
0
LINE
8
BLACK
6
CONTINUOUS
10
173.804
20
-89.17
11
173.804
21
-91.17
0
LINE
8
BLACK
6
CONTINUOUS
10
173.804
20
-91.17
11
173.785
21
-91.2657
0
LINE
8
BLACK
6
CONTINUOUS
10
173.785
20
-91.2657
11
173.731
21
-91.3468
0
LINE
8
BLACK
6
CONTINUOUS
10
173.731
20
-91.3468
11
173.65
21
-91.401
0
LINE
8
BLACK
6
CONTINUOUS
10
173.65
20
-91.401
11
173.554
21
-91.42
0
LINE
8
BLACK
6
CONTINUOUS
10
173.554
20
-91.42
11
171.504
21
-91.42
0
LINE
8
BLACK
6
CONTINUOUS
10
171.504
20
-91.42
11
171.409
21
-91.401
0
LINE
8
BLACK
6
CONTINUOUS
10
171.409
20
-91.401
11
171.328
21
-91.3468
0
LINE
8
BLACK
6
CONTINUOUS
10
171.328
20
-91.3468
11
171.274
21
-91.2657
0
LINE
8
BLACK
6
CONTINUOUS
10
171.274
20
-91.2657
11
171.254
21
-91.17
0
LINE
8
BLACK
6
CONTINUOUS
10
171.254
20
-91.17
11
171.254
21
-89.17
0
LINE
8
BLACK
6
CONTINUOUS
10
171.254
20
-89.17
11
171.274
21
-89.0743
0
LINE
8
BLACK
6
CONTINUOUS
10
171.274
20
-89.0743
11
171.328
21
-88.9932
0
LINE
8
BLACK
6
CONTINUOUS
10
171.328
20
-88.9932
11
171.409
21
-88.939
0
LINE
8
BLACK
6
CONTINUOUS
10
171.409
20
-88.939
11
171.504
21
-88.92
0
LINE
8
BLACK
6
CONTINUOUS
10
171.504
20
-88.92
11
173.554
21
-88.92
0
LINE
8
BLACK
6
CONTINUOUS
10
173.554
20
-88.92
11
173.65
21
-88.939
0
LINE
8
BLACK
6
CONTINUOUS
10
154.6
20
-88.939
11
154.681
21
-88.9932
0
LINE
8
BLACK
6
CONTINUOUS
10
154.681
20
-88.9932
11
154.735
21
-89.0743
0
LINE
8
BLACK
6
CONTINUOUS
10
154.735
20
-89.0743
11
154.754
21
-89.17
0
LINE
8
BLACK
6
CONTINUOUS
10
154.754
20
-89.17
11
154.754
21
-91.17
0
LINE
8
BLACK
6
CONTINUOUS
10
154.754
20
-91.17
11
154.735
21
-91.2657
0
LINE
8
BLACK
6
CONTINUOUS
10
154.735
20
-91.2657
11
154.681
21
-91.3468
0
LINE
8
BLACK
6
CONTINUOUS
10
154.681
20
-91.3468
11
154.6
21
-91.401
0
LINE
8
BLACK
6
CONTINUOUS
10
154.6
20
-91.401
11
154.504
21
-91.42
0
LINE
8
BLACK
6
CONTINUOUS
10
154.504
20
-91.42
11
152.454
21
-91.42
0
LINE
8
BLACK
6
CONTINUOUS
10
152.454
20
-91.42
11
152.359
21
-91.401
0
LINE
8
BLACK
6
CONTINUOUS
10
152.359
20
-91.401
11
152.278
21
-91.3468
0
LINE
8
BLACK
6
CONTINUOUS
10
152.278
20
-91.3468
11
152.224
21
-91.2657
0
LINE
8
BLACK
6
CONTINUOUS
10
152.224
20
-91.2657
11
152.204
21
-91.17
0
LINE
8
BLACK
6
CONTINUOUS
10
152.204
20
-91.17
11
152.204
21
-89.17
0
LINE
8
BLACK
6
CONTINUOUS
10
152.204
20
-89.17
11
152.224
21
-89.0743
0
LINE
8
BLACK
6
CONTINUOUS
10
152.224
20
-89.0743
11
152.278
21
-88.9932
0
LINE
8
BLACK
6
CONTINUOUS
10
152.278
20
-88.9932
11
152.359
21
-88.939
0
LINE
8
BLACK
6
CONTINUOUS
10
152.359
20
-88.939
11
152.454
21
-88.92
0
LINE
8
BLACK
6
CONTINUOUS
10
152.454
20
-88.92
11
154.504
21
-88.92
0
LINE
8
BLACK
6
CONTINUOUS
10
154.504
20
-88.92
11
154.6
21
-88.939
0
LINE
8
BLACK
6
CONTINUOUS
10
135.55
20
-88.939
11
135.631
21
-88.9932
0
LINE
8
BLACK
6
CONTINUOUS
10
135.631
20
-88.9932
11
135.685
21
-89.0743
0
LINE
8
BLACK
6
CONTINUOUS
10
135.685
20
-89.0743
11
135.704
21
-89.17
0
LINE
8
BLACK
6
CONTINUOUS
10
135.704
20
-89.17
11
135.704
21
-91.17
0
LINE
8
BLACK
6
CONTINUOUS
10
135.704
20
-91.17
11
135.685
21
-91.2657
0
LINE
8
BLACK
6
CONTINUOUS
10
135.685
20
-91.2657
11
135.631
21
-91.3468
0
LINE
8
BLACK
6
CONTINUOUS
10
135.631
20
-91.3468
11
135.55
21
-91.401
0
LINE
8
BLACK
6
CONTINUOUS
10
135.55
20
-91.401
11
135.454
21
-91.42
0
LINE
8
BLACK
6
CONTINUOUS
10
135.454
20
-91.42
11
133.404
21
-91.42
0
LINE
8
BLACK
6
CONTINUOUS
10
133.404
20
-91.42
11
133.309
21
-91.401
0
LINE
8
BLACK
6
CONTINUOUS
10
133.309
20
-91.401
11
133.228
21
-91.3468
0
LINE
8
BLACK
6
CONTINUOUS
10
133.228
20
-91.3468
11
133.174
21
-91.2657
0
LINE
8
BLACK
6
CONTINUOUS
10
133.174
20
-91.2657
11
133.154
21
-91.17
0
LINE
8
BLACK
6
CONTINUOUS
10
133.154
20
-91.17
11
133.154
21
-89.17
0
LINE
8
BLACK
6
CONTINUOUS
10
133.154
20
-89.17
11
133.174
21
-89.0743
0
LINE
8
BLACK
6
CONTINUOUS
10
133.174
20
-89.0743
11
133.228
21
-88.9932
0
LINE
8
BLACK
6
CONTINUOUS
10
133.228
20
-88.9932
11
133.309
21
-88.939
0
LINE
8
BLACK
6
CONTINUOUS
10
133.309
20
-88.939
11
133.404
21
-88.92
0
LINE
8
BLACK
6
CONTINUOUS
10
133.404
20
-88.92
11
135.454
21
-88.92
0
LINE
8
BLACK
6
CONTINUOUS
10
135.454
20
-88.92
11
135.55
21
-88.939
0
LINE
8
BLACK
6
CONTINUOUS
10
116.5
20
-88.939
11
116.581
21
-88.9932
0
LINE
8
BLACK
6
CONTINUOUS
10
116.581
20
-88.9932
11
116.635
21
-89.0743
0
LINE
8
BLACK
6
CONTINUOUS
10
116.635
20
-89.0743
11
116.654
21
-89.17
0
LINE
8
BLACK
6
CONTINUOUS
10
116.654
20
-89.17
11
116.654
21
-91.17
0
LINE
8
BLACK
6
CONTINUOUS
10
116.654
20
-91.17
11
116.635
21
-91.2657
0
LINE
8
BLACK
6
CONTINUOUS
10
116.635
20
-91.2657
11
116.581
21
-91.3468
0
LINE
8
BLACK
6
CONTINUOUS
10
116.581
20
-91.3468
11
116.5
21
-91.401
0
LINE
8
BLACK
6
CONTINUOUS
10
116.5
20
-91.401
11
116.404
21
-91.42
0
LINE
8
BLACK
6
CONTINUOUS
10
116.404
20
-91.42
11
114.355
21
-91.42
0
LINE
8
BLACK
6
CONTINUOUS
10
114.355
20
-91.42
11
114.259
21
-91.401
0
LINE
8
BLACK
6
CONTINUOUS
10
114.259
20
-91.401
11
114.178
21
-91.3468
0
LINE
8
BLACK
6
CONTINUOUS
10
114.178
20
-91.3468
11
114.124
21
-91.2657
0
LINE
8
BLACK
6
CONTINUOUS
10
114.124
20
-91.2657
11
114.105
21
-91.17
0
LINE
8
BLACK
6
CONTINUOUS
10
114.105
20
-91.17
11
114.105
21
-89.17
0
LINE
8
BLACK
6
CONTINUOUS
10
114.105
20
-89.17
11
114.124
21
-89.0743
0
LINE
8
BLACK
6
CONTINUOUS
10
114.124
20
-89.0743
11
114.178
21
-88.9932
0
LINE
8
BLACK
6
CONTINUOUS
10
114.178
20
-88.9932
11
114.259
21
-88.939
0
LINE
8
BLACK
6
CONTINUOUS
10
114.259
20
-88.939
11
114.355
21
-88.92
0
LINE
8
BLACK
6
CONTINUOUS
10
114.355
20
-88.92
11
116.404
21
-88.92
0
LINE
8
BLACK
6
CONTINUOUS
10
116.404
20
-88.92
11
116.5
21
-88.939
0
LINE
8
BLACK
6
CONTINUOUS
10
95.0689
20
-88.939
11
95.15
21
-88.9932
0
LINE
8
BLACK
6
CONTINUOUS
10
95.15
20
-88.9932
11
95.2042
21
-89.0743
0
LINE
8
BLACK
6
CONTINUOUS
10
95.2042
20
-89.0743
11
95.2232
21
-89.17
0
LINE
8
BLACK
6
CONTINUOUS
10
95.2232
20
-89.17
11
95.2232
21
-91.17
0
LINE
8
BLACK
6
CONTINUOUS
10
95.2232
20
-91.17
11
95.2042
21
-91.2657
0
LINE
8
BLACK
6
CONTINUOUS
10
95.2042
20
-91.2657
11
95.15
21
-91.3468
0
LINE
8
BLACK
6
CONTINUOUS
10
95.15
20
-91.3468
11
95.0689
21
-91.401
0
LINE
8
BLACK
6
CONTINUOUS
10
95.0689
20
-91.401
11
94.9732
21
-91.42
0
LINE
8
BLACK
6
CONTINUOUS
10
94.9732
20
-91.42
11
92.9232
21
-91.42
0
LINE
8
BLACK
6
CONTINUOUS
10
92.9232
20
-91.42
11
92.8276
21
-91.401
0
LINE
8
BLACK
6
CONTINUOUS
10
92.8276
20
-91.401
11
92.7465
21
-91.3468
0
LINE
8
BLACK
6
CONTINUOUS
10
92.7465
20
-91.3468
11
92.6923
21
-91.2657
0
LINE
8
BLACK
6
CONTINUOUS
10
92.6923
20
-91.2657
11
92.6732
21
-91.17
0
LINE
8
BLACK
6
CONTINUOUS
10
92.6732
20
-91.17
11
92.6732
21
-89.17
0
LINE
8
BLACK
6
CONTINUOUS
10
92.6732
20
-89.17
11
92.6923
21
-89.0743
0
LINE
8
BLACK
6
CONTINUOUS
10
92.6923
20
-89.0743
11
92.7465
21
-88.9932
0
LINE
8
BLACK
6
CONTINUOUS
10
92.7465
20
-88.9932
11
92.8276
21
-88.939
0
LINE
8
BLACK
6
CONTINUOUS
10
92.8276
20
-88.939
11
92.9232
21
-88.92
0
LINE
8
BLACK
6
CONTINUOUS
10
92.9232
20
-88.92
11
94.9732
21
-88.92
0
LINE
8
BLACK
6
CONTINUOUS
10
94.9732
20
-88.92
11
95.0689
21
-88.939
0
LINE
8
BLACK
6
CONTINUOUS
10
73.6377
20
-88.939
11
73.7188
21
-88.9932
0
LINE
8
BLACK
6
CONTINUOUS
10
73.7188
20
-88.9932
11
73.773
21
-89.0743
0
LINE
8
BLACK
6
CONTINUOUS
10
73.773
20
-89.0743
11
73.792
21
-89.17
0
LINE
8
BLACK
6
CONTINUOUS
10
73.792
20
-89.17
11
73.792
21
-91.17
0
LINE
8
BLACK
6
CONTINUOUS
10
73.792
20
-91.17
11
73.773
21
-91.2657
0
LINE
8
BLACK
6
CONTINUOUS
10
73.773
20
-91.2657
11
73.7188
21
-91.3468
0
LINE
8
BLACK
6
CONTINUOUS
10
73.7188
20
-91.3468
11
73.6377
21
-91.401
0
LINE
8
BLACK
6
CONTINUOUS
10
73.6377
20
-91.401
11
73.542
21
-91.42
0
LINE
8
BLACK
6
CONTINUOUS
10
73.542
20
-91.42
11
71.492
21
-91.42
0
LINE
8
BLACK
6
CONTINUOUS
10
71.492
20
-91.42
11
71.3963
21
-91.401
0
LINE
8
BLACK
6
CONTINUOUS
10
71.3963
20
-91.401
11
71.3152
21
-91.3468
0
LINE
8
BLACK
6
CONTINUOUS
10
71.3152
20
-91.3468
11
71.261
21
-91.2657
0
LINE
8
BLACK
6
CONTINUOUS
10
71.261
20
-91.2657
11
71.242
21
-91.17
0
LINE
8
BLACK
6
CONTINUOUS
10
71.242
20
-91.17
11
71.242
21
-89.17
0
LINE
8
BLACK
6
CONTINUOUS
10
71.242
20
-89.17
11
71.261
21
-89.0743
0
LINE
8
BLACK
6
CONTINUOUS
10
71.261
20
-89.0743
11
71.3152
21
-88.9932
0
LINE
8
BLACK
6
CONTINUOUS
10
71.3152
20
-88.9932
11
71.3963
21
-88.939
0
LINE
8
BLACK
6
CONTINUOUS
10
71.3963
20
-88.939
11
71.492
21
-88.92
0
LINE
8
BLACK
6
CONTINUOUS
10
71.492
20
-88.92
11
73.542
21
-88.92
0
LINE
8
BLACK
6
CONTINUOUS
10
73.542
20
-88.92
11
73.6377
21
-88.939
0
LINE
8
BLACK
6
CONTINUOUS
10
193.059
20
-83.0571
11
193.132
21
-83.1059
0
LINE
8
BLACK
6
CONTINUOUS
10
193.132
20
-83.1059
11
193.18
21
-83.1789
0
LINE
8
BLACK
6
CONTINUOUS
10
193.18
20
-83.1789
11
193.197
21
-83.265
0
LINE
8
BLACK
6
CONTINUOUS
10
193.197
20
-83.265
11
193.197
21
-83.715
0
LINE
8
BLACK
6
CONTINUOUS
10
193.197
20
-83.715
11
193.18
21
-83.8011
0
LINE
8
BLACK
6
CONTINUOUS
10
193.18
20
-83.8011
11
193.132
21
-83.8741
0
LINE
8
BLACK
6
CONTINUOUS
10
193.132
20
-83.8741
11
193.059
21
-83.9229
0
LINE
8
BLACK
6
CONTINUOUS
10
193.059
20
-83.9229
11
192.972
21
-83.94
0
LINE
8
BLACK
6
CONTINUOUS
10
192.972
20
-83.94
11
192.222
21
-83.94
0
LINE
8
BLACK
6
CONTINUOUS
10
192.222
20
-83.94
11
192.136
21
-83.9229
0
LINE
8
BLACK
6
CONTINUOUS
10
192.136
20
-83.9229
11
192.063
21
-83.8741
0
LINE
8
BLACK
6
CONTINUOUS
10
192.063
20
-83.8741
11
192.015
21
-83.8011
0
LINE
8
BLACK
6
CONTINUOUS
10
192.015
20
-83.8011
11
191.998
21
-83.715
0
LINE
8
BLACK
6
CONTINUOUS
10
191.998
20
-83.715
11
191.998
21
-83.265
0
LINE
8
BLACK
6
CONTINUOUS
10
191.998
20
-83.265
11
192.015
21
-83.1789
0
LINE
8
BLACK
6
CONTINUOUS
10
192.015
20
-83.1789
11
192.063
21
-83.1059
0
LINE
8
BLACK
6
CONTINUOUS
10
192.063
20
-83.1059
11
192.136
21
-83.0571
0
LINE
8
BLACK
6
CONTINUOUS
10
192.136
20
-83.0571
11
192.222
21
-83.04
0
LINE
8
BLACK
6
CONTINUOUS
10
192.222
20
-83.04
11
192.972
21
-83.04
0
LINE
8
BLACK
6
CONTINUOUS
10
192.972
20
-83.04
11
193.059
21
-83.0571
0
LINE
8
BLACK
6
CONTINUOUS
10
174.009
20
-83.0571
11
174.082
21
-83.1059
0
LINE
8
BLACK
6
CONTINUOUS
10
174.082
20
-83.1059
11
174.13
21
-83.1789
0
LINE
8
BLACK
6
CONTINUOUS
10
174.13
20
-83.1789
11
174.147
21
-83.265
0
LINE
8
BLACK
6
CONTINUOUS
10
174.147
20
-83.265
11
174.147
21
-83.715
0
LINE
8
BLACK
6
CONTINUOUS
10
174.147
20
-83.715
11
174.13
21
-83.8011
0
LINE
8
BLACK
6
CONTINUOUS
10
174.13
20
-83.8011
11
174.082
21
-83.8741
0
LINE
8
BLACK
6
CONTINUOUS
10
174.082
20
-83.8741
11
174.009
21
-83.9229
0
LINE
8
BLACK
6
CONTINUOUS
10
174.009
20
-83.9229
11
173.922
21
-83.94
0
LINE
8
BLACK
6
CONTINUOUS
10
173.922
20
-83.94
11
173.172
21
-83.94
0
LINE
8
BLACK
6
CONTINUOUS
10
173.172
20
-83.94
11
173.086
21
-83.9229
0
LINE
8
BLACK
6
CONTINUOUS
10
173.086
20
-83.9229
11
173.013
21
-83.8741
0
LINE
8
BLACK
6
CONTINUOUS
10
173.013
20
-83.8741
11
172.965
21
-83.8011
0
LINE
8
BLACK
6
CONTINUOUS
10
172.965
20
-83.8011
11
172.947
21
-83.715
0
LINE
8
BLACK
6
CONTINUOUS
10
172.947
20
-83.715
11
172.947
21
-83.265
0
LINE
8
BLACK
6
CONTINUOUS
10
172.947
20
-83.265
11
172.965
21
-83.1789
0
LINE
8
BLACK
6
CONTINUOUS
10
172.965
20
-83.1789
11
173.013
21
-83.1059
0
LINE
8
BLACK
6
CONTINUOUS
10
173.013
20
-83.1059
11
173.086
21
-83.0571
0
LINE
8
BLACK
6
CONTINUOUS
10
173.086
20
-83.0571
11
173.172
21
-83.04
0
LINE
8
BLACK
6
CONTINUOUS
10
173.172
20
-83.04
11
173.922
21
-83.04
0
LINE
8
BLACK
6
CONTINUOUS
10
173.922
20
-83.04
11
174.009
21
-83.0571
0
LINE
8
BLACK
6
CONTINUOUS
10
154.959
20
-83.0571
11
155.032
21
-83.1059
0
LINE
8
BLACK
6
CONTINUOUS
10
155.032
20
-83.1059
11
155.08
21
-83.1789
0
LINE
8
BLACK
6
CONTINUOUS
10
155.08
20
-83.1789
11
155.097
21
-83.265
0
LINE
8
BLACK
6
CONTINUOUS
10
155.097
20
-83.265
11
155.097
21
-83.715
0
LINE
8
BLACK
6
CONTINUOUS
10
155.097
20
-83.715
11
155.08
21
-83.8011
0
LINE
8
BLACK
6
CONTINUOUS
10
155.08
20
-83.8011
11
155.032
21
-83.8741
0
LINE
8
BLACK
6
CONTINUOUS
10
155.032
20
-83.8741
11
154.959
21
-83.9229
0
LINE
8
BLACK
6
CONTINUOUS
10
154.959
20
-83.9229
11
154.873
21
-83.94
0
LINE
8
BLACK
6
CONTINUOUS
10
154.873
20
-83.94
11
154.123
21
-83.94
0
LINE
8
BLACK
6
CONTINUOUS
10
154.123
20
-83.94
11
154.036
21
-83.9229
0
LINE
8
BLACK
6
CONTINUOUS
10
154.036
20
-83.9229
11
153.963
21
-83.8741
0
LINE
8
BLACK
6
CONTINUOUS
10
153.963
20
-83.8741
11
153.915
21
-83.8011
0
LINE
8
BLACK
6
CONTINUOUS
10
153.915
20
-83.8011
11
153.897
21
-83.715
0
LINE
8
BLACK
6
CONTINUOUS
10
153.897
20
-83.715
11
153.897
21
-83.265
0
LINE
8
BLACK
6
CONTINUOUS
10
153.897
20
-83.265
11
153.915
21
-83.1789
0
LINE
8
BLACK
6
CONTINUOUS
10
153.915
20
-83.1789
11
153.963
21
-83.1059
0
LINE
8
BLACK
6
CONTINUOUS
10
153.963
20
-83.1059
11
154.036
21
-83.0571
0
LINE
8
BLACK
6
CONTINUOUS
10
154.036
20
-83.0571
11
154.123
21
-83.04
0
LINE
8
BLACK
6
CONTINUOUS
10
154.123
20
-83.04
11
154.873
21
-83.04
0
LINE
8
BLACK
6
CONTINUOUS
10
154.873
20
-83.04
11
154.959
21
-83.0571
0
LINE
8
BLACK
6
CONTINUOUS
10
135.909
20
-83.0571
11
135.982
21
-83.1059
0
LINE
8
BLACK
6
CONTINUOUS
10
135.982
20
-83.1059
11
136.03
21
-83.1789
0
LINE
8
BLACK
6
CONTINUOUS
10
136.03
20
-83.1789
11
136.047
21
-83.265
0
LINE
8
BLACK
6
CONTINUOUS
10
136.047
20
-83.265
11
136.047
21
-83.715
0
LINE
8
BLACK
6
CONTINUOUS
10
136.047
20
-83.715
11
136.03
21
-83.8011
0
LINE
8
BLACK
6
CONTINUOUS
10
136.03
20
-83.8011
11
135.982
21
-83.8741
0
LINE
8
BLACK
6
CONTINUOUS
10
135.982
20
-83.8741
11
135.909
21
-83.9229
0
LINE
8
BLACK
6
CONTINUOUS
10
135.909
20
-83.9229
11
135.822
21
-83.94
0
LINE
8
BLACK
6
CONTINUOUS
10
135.822
20
-83.94
11
135.072
21
-83.94
0
LINE
8
BLACK
6
CONTINUOUS
10
135.072
20
-83.94
11
134.986
21
-83.9229
0
LINE
8
BLACK
6
CONTINUOUS
10
134.986
20
-83.9229
11
134.913
21
-83.8741
0
LINE
8
BLACK
6
CONTINUOUS
10
134.913
20
-83.8741
11
134.865
21
-83.8011
0
LINE
8
BLACK
6
CONTINUOUS
10
134.865
20
-83.8011
11
134.847
21
-83.715
0
LINE
8
BLACK
6
CONTINUOUS
10
134.847
20
-83.715
11
134.847
21
-83.265
0
LINE
8
BLACK
6
CONTINUOUS
10
134.847
20
-83.265
11
134.865
21
-83.1789
0
LINE
8
BLACK
6
CONTINUOUS
10
134.865
20
-83.1789
11
134.913
21
-83.1059
0
LINE
8
BLACK
6
CONTINUOUS
10
134.913
20
-83.1059
11
134.986
21
-83.0571
0
LINE
8
BLACK
6
CONTINUOUS
10
134.986
20
-83.0571
11
135.072
21
-83.04
0
LINE
8
BLACK
6
CONTINUOUS
10
135.072
20
-83.04
11
135.822
21
-83.04
0
LINE
8
BLACK
6
CONTINUOUS
10
135.822
20
-83.04
11
135.909
21
-83.0571
0
LINE
8
BLACK
6
CONTINUOUS
10
116.859
20
-83.0571
11
116.932
21
-83.1059
0
LINE
8
BLACK
6
CONTINUOUS
10
116.932
20
-83.1059
11
116.98
21
-83.1789
0
LINE
8
BLACK
6
CONTINUOUS
10
116.98
20
-83.1789
11
116.997
21
-83.265
0
LINE
8
BLACK
6
CONTINUOUS
10
116.997
20
-83.265
11
116.997
21
-83.715
0
LINE
8
BLACK
6
CONTINUOUS
10
116.997
20
-83.715
11
116.98
21
-83.8011
0
LINE
8
BLACK
6
CONTINUOUS
10
116.98
20
-83.8011
11
116.932
21
-83.8741
0
LINE
8
BLACK
6
CONTINUOUS
10
116.932
20
-83.8741
11
116.859
21
-83.9229
0
LINE
8
BLACK
6
CONTINUOUS
10
116.859
20
-83.9229
11
116.772
21
-83.94
0
LINE
8
BLACK
6
CONTINUOUS
10
116.772
20
-83.94
11
116.022
21
-83.94
0
LINE
8
BLACK
6
CONTINUOUS
10
116.022
20
-83.94
11
115.936
21
-83.9229
0
LINE
8
BLACK
6
CONTINUOUS
10
115.936
20
-83.9229
11
115.863
21
-83.8741
0
LINE
8
BLACK
6
CONTINUOUS
10
115.863
20
-83.8741
11
115.815
21
-83.8011
0
LINE
8
BLACK
6
CONTINUOUS
10
115.815
20
-83.8011
11
115.797
21
-83.715
0
LINE
8
BLACK
6
CONTINUOUS
10
115.797
20
-83.715
11
115.797
21
-83.265
0
LINE
8
BLACK
6
CONTINUOUS
10
115.797
20
-83.265
11
115.815
21
-83.1789
0
LINE
8
BLACK
6
CONTINUOUS
10
115.815
20
-83.1789
11
115.863
21
-83.1059
0
LINE
8
BLACK
6
CONTINUOUS
10
115.863
20
-83.1059
11
115.936
21
-83.0571
0
LINE
8
BLACK
6
CONTINUOUS
10
115.936
20
-83.0571
11
116.022
21
-83.04
0
LINE
8
BLACK
6
CONTINUOUS
10
116.022
20
-83.04
11
116.772
21
-83.04
0
LINE
8
BLACK
6
CONTINUOUS
10
116.772
20
-83.04
11
116.859
21
-83.0571
0
LINE
8
BLACK
6
CONTINUOUS
10
95.4274
20
-83.0571
11
95.5003
21
-83.1059
0
LINE
8
BLACK
6
CONTINUOUS
10
95.5003
20
-83.1059
11
95.5491
21
-83.1789
0
LINE
8
BLACK
6
CONTINUOUS
10
95.5491
20
-83.1789
11
95.5662
21
-83.265
0
LINE
8
BLACK
6
CONTINUOUS
10
95.5662
20
-83.265
11
95.5662
21
-83.715
0
LINE
8
BLACK
6
CONTINUOUS
10
95.5662
20
-83.715
11
95.5491
21
-83.8011
0
LINE
8
BLACK
6
CONTINUOUS
10
95.5491
20
-83.8011
11
95.5003
21
-83.8741
0
LINE
8
BLACK
6
CONTINUOUS
10
95.5003
20
-83.8741
11
95.4274
21
-83.9229
0
LINE
8
BLACK
6
CONTINUOUS
10
95.4274
20
-83.9229
11
95.3413
21
-83.94
0
LINE
8
BLACK
6
CONTINUOUS
10
95.3413
20
-83.94
11
94.5913
21
-83.94
0
LINE
8
BLACK
6
CONTINUOUS
10
94.5913
20
-83.94
11
94.5051
21
-83.9229
0
LINE
8
BLACK
6
CONTINUOUS
10
94.5051
20
-83.9229
11
94.4322
21
-83.8741
0
LINE
8
BLACK
6
CONTINUOUS
10
94.4322
20
-83.8741
11
94.3834
21
-83.8011
0
LINE
8
BLACK
6
CONTINUOUS
10
94.3834
20
-83.8011
11
94.3662
21
-83.715
0
LINE
8
BLACK
6
CONTINUOUS
10
94.3662
20
-83.715
11
94.3662
21
-83.265
0
LINE
8
BLACK
6
CONTINUOUS
10
94.3662
20
-83.265
11
94.3834
21
-83.1789
0
LINE
8
BLACK
6
CONTINUOUS
10
94.3834
20
-83.1789
11
94.4322
21
-83.1059
0
LINE
8
BLACK
6
CONTINUOUS
10
94.4322
20
-83.1059
11
94.5051
21
-83.0571
0
LINE
8
BLACK
6
CONTINUOUS
10
94.5051
20
-83.0571
11
94.5913
21
-83.04
0
LINE
8
BLACK
6
CONTINUOUS
10
94.5913
20
-83.04
11
95.3413
21
-83.04
0
LINE
8
BLACK
6
CONTINUOUS
10
95.3413
20
-83.04
11
95.4274
21
-83.0571
0
LINE
8
BLACK
6
CONTINUOUS
10
73.9961
20
-83.0571
11
74.0691
21
-83.1059
0
LINE
8
BLACK
6
CONTINUOUS
10
74.0691
20
-83.1059
11
74.1179
21
-83.1789
0
LINE
8
BLACK
6
CONTINUOUS
10
74.1179
20
-83.1789
11
74.135
21
-83.265
0
LINE
8
BLACK
6
CONTINUOUS
10
74.135
20
-83.265
11
74.135
21
-83.715
0
LINE
8
BLACK
6
CONTINUOUS
10
74.135
20
-83.715
11
74.1179
21
-83.8011
0
LINE
8
BLACK
6
CONTINUOUS
10
74.1179
20
-83.8011
11
74.0691
21
-83.8741
0
LINE
8
BLACK
6
CONTINUOUS
10
74.0691
20
-83.8741
11
73.9961
21
-83.9229
0
LINE
8
BLACK
6
CONTINUOUS
10
73.9961
20
-83.9229
11
73.91
21
-83.94
0
LINE
8
BLACK
6
CONTINUOUS
10
73.91
20
-83.94
11
73.16
21
-83.94
0
LINE
8
BLACK
6
CONTINUOUS
10
73.16
20
-83.94
11
73.0739
21
-83.9229
0
LINE
8
BLACK
6
CONTINUOUS
10
73.0739
20
-83.9229
11
73.0009
21
-83.8741
0
LINE
8
BLACK
6
CONTINUOUS
10
73.0009
20
-83.8741
11
72.9521
21
-83.8011
0
LINE
8
BLACK
6
CONTINUOUS
10
72.9521
20
-83.8011
11
72.935
21
-83.715
0
LINE
8
BLACK
6
CONTINUOUS
10
72.935
20
-83.715
11
72.935
21
-83.265
0
LINE
8
BLACK
6
CONTINUOUS
10
72.935
20
-83.265
11
72.9521
21
-83.1789
0
LINE
8
BLACK
6
CONTINUOUS
10
72.9521
20
-83.1789
11
73.0009
21
-83.1059
0
LINE
8
BLACK
6
CONTINUOUS
10
73.0009
20
-83.1059
11
73.0739
21
-83.0571
0
LINE
8
BLACK
6
CONTINUOUS
10
73.0739
20
-83.0571
11
73.16
21
-83.04
0
LINE
8
BLACK
6
CONTINUOUS
10
73.16
20
-83.04
11
73.91
21
-83.04
0
LINE
8
BLACK
6
CONTINUOUS
10
73.91
20
-83.04
11
73.9961
21
-83.0571
0
LINE
8
BLACK
6
CONTINUOUS
10
193.059
20
-79.7571
11
193.132
21
-79.8059
0
LINE
8
BLACK
6
CONTINUOUS
10
193.132
20
-79.8059
11
193.18
21
-79.8789
0
LINE
8
BLACK
6
CONTINUOUS
10
193.18
20
-79.8789
11
193.197
21
-79.965
0
LINE
8
BLACK
6
CONTINUOUS
10
193.197
20
-79.965
11
193.197
21
-80.415
0
LINE
8
BLACK
6
CONTINUOUS
10
193.197
20
-80.415
11
193.18
21
-80.5011
0
LINE
8
BLACK
6
CONTINUOUS
10
193.18
20
-80.5011
11
193.132
21
-80.5741
0
LINE
8
BLACK
6
CONTINUOUS
10
193.132
20
-80.5741
11
193.059
21
-80.6229
0
LINE
8
BLACK
6
CONTINUOUS
10
193.059
20
-80.6229
11
192.972
21
-80.64
0
LINE
8
BLACK
6
CONTINUOUS
10
192.972
20
-80.64
11
192.222
21
-80.64
0
LINE
8
BLACK
6
CONTINUOUS
10
192.222
20
-80.64
11
192.136
21
-80.6229
0
LINE
8
BLACK
6
CONTINUOUS
10
192.136
20
-80.6229
11
192.063
21
-80.5741
0
LINE
8
BLACK
6
CONTINUOUS
10
192.063
20
-80.5741
11
192.015
21
-80.5011
0
LINE
8
BLACK
6
CONTINUOUS
10
192.015
20
-80.5011
11
191.998
21
-80.415
0
LINE
8
BLACK
6
CONTINUOUS
10
191.998
20
-80.415
11
191.998
21
-79.965
0
LINE
8
BLACK
6
CONTINUOUS
10
191.998
20
-79.965
11
192.015
21
-79.8789
0
LINE
8
BLACK
6
CONTINUOUS
10
192.015
20
-79.8789
11
192.063
21
-79.8059
0
LINE
8
BLACK
6
CONTINUOUS
10
192.063
20
-79.8059
11
192.136
21
-79.7571
0
LINE
8
BLACK
6
CONTINUOUS
10
192.136
20
-79.7571
11
192.222
21
-79.74
0
LINE
8
BLACK
6
CONTINUOUS
10
192.222
20
-79.74
11
192.972
21
-79.74
0
LINE
8
BLACK
6
CONTINUOUS
10
192.972
20
-79.74
11
193.059
21
-79.7571
0
LINE
8
BLACK
6
CONTINUOUS
10
174.009
20
-79.7571
11
174.082
21
-79.8059
0
LINE
8
BLACK
6
CONTINUOUS
10
174.082
20
-79.8059
11
174.13
21
-79.8789
0
LINE
8
BLACK
6
CONTINUOUS
10
174.13
20
-79.8789
11
174.147
21
-79.965
0
LINE
8
BLACK
6
CONTINUOUS
10
174.147
20
-79.965
11
174.147
21
-80.415
0
LINE
8
BLACK
6
CONTINUOUS
10
174.147
20
-80.415
11
174.13
21
-80.5011
0
LINE
8
BLACK
6
CONTINUOUS
10
174.13
20
-80.5011
11
174.082
21
-80.5741
0
LINE
8
BLACK
6
CONTINUOUS
10
174.082
20
-80.5741
11
174.009
21
-80.6229
0
LINE
8
BLACK
6
CONTINUOUS
10
174.009
20
-80.6229
11
173.922
21
-80.64
0
LINE
8
BLACK
6
CONTINUOUS
10
173.922
20
-80.64
11
173.172
21
-80.64
0
LINE
8
BLACK
6
CONTINUOUS
10
173.172
20
-80.64
11
173.086
21
-80.6229
0
LINE
8
BLACK
6
CONTINUOUS
10
173.086
20
-80.6229
11
173.013
21
-80.5741
0
LINE
8
BLACK
6
CONTINUOUS
10
173.013
20
-80.5741
11
172.965
21
-80.5011
0
LINE
8
BLACK
6
CONTINUOUS
10
172.965
20
-80.5011
11
172.947
21
-80.415
0
LINE
8
BLACK
6
CONTINUOUS
10
172.947
20
-80.415
11
172.947
21
-79.965
0
LINE
8
BLACK
6
CONTINUOUS
10
172.947
20
-79.965
11
172.965
21
-79.8789
0
LINE
8
BLACK
6
CONTINUOUS
10
172.965
20
-79.8789
11
173.013
21
-79.8059
0
LINE
8
BLACK
6
CONTINUOUS
10
173.013
20
-79.8059
11
173.086
21
-79.7571
0
LINE
8
BLACK
6
CONTINUOUS
10
173.086
20
-79.7571
11
173.172
21
-79.74
0
LINE
8
BLACK
6
CONTINUOUS
10
173.172
20
-79.74
11
173.922
21
-79.74
0
LINE
8
BLACK
6
CONTINUOUS
10
173.922
20
-79.74
11
174.009
21
-79.7571
0
LINE
8
BLACK
6
CONTINUOUS
10
154.959
20
-79.7571
11
155.032
21
-79.8059
0
LINE
8
BLACK
6
CONTINUOUS
10
155.032
20
-79.8059
11
155.08
21
-79.8789
0
LINE
8
BLACK
6
CONTINUOUS
10
155.08
20
-79.8789
11
155.097
21
-79.965
0
LINE
8
BLACK
6
CONTINUOUS
10
155.097
20
-79.965
11
155.097
21
-80.415
0
LINE
8
BLACK
6
CONTINUOUS
10
155.097
20
-80.415
11
155.08
21
-80.5011
0
LINE
8
BLACK
6
CONTINUOUS
10
155.08
20
-80.5011
11
155.032
21
-80.5741
0
LINE
8
BLACK
6
CONTINUOUS
10
155.032
20
-80.5741
11
154.959
21
-80.6229
0
LINE
8
BLACK
6
CONTINUOUS
10
154.959
20
-80.6229
11
154.873
21
-80.64
0
LINE
8
BLACK
6
CONTINUOUS
10
154.873
20
-80.64
11
154.123
21
-80.64
0
LINE
8
BLACK
6
CONTINUOUS
10
154.123
20
-80.64
11
154.036
21
-80.6229
0
LINE
8
BLACK
6
CONTINUOUS
10
154.036
20
-80.6229
11
153.963
21
-80.5741
0
LINE
8
BLACK
6
CONTINUOUS
10
153.963
20
-80.5741
11
153.915
21
-80.5011
0
LINE
8
BLACK
6
CONTINUOUS
10
153.915
20
-80.5011
11
153.897
21
-80.415
0
LINE
8
BLACK
6
CONTINUOUS
10
153.897
20
-80.415
11
153.897
21
-79.965
0
LINE
8
BLACK
6
CONTINUOUS
10
153.897
20
-79.965
11
153.915
21
-79.8789
0
LINE
8
BLACK
6
CONTINUOUS
10
153.915
20
-79.8789
11
153.963
21
-79.8059
0
LINE
8
BLACK
6
CONTINUOUS
10
153.963
20
-79.8059
11
154.036
21
-79.7571
0
LINE
8
BLACK
6
CONTINUOUS
10
154.036
20
-79.7571
11
154.123
21
-79.74
0
LINE
8
BLACK
6
CONTINUOUS
10
154.123
20
-79.74
11
154.873
21
-79.74
0
LINE
8
BLACK
6
CONTINUOUS
10
154.873
20
-79.74
11
154.959
21
-79.7571
0
LINE
8
BLACK
6
CONTINUOUS
10
135.909
20
-79.7571
11
135.982
21
-79.8059
0
LINE
8
BLACK
6
CONTINUOUS
10
135.982
20
-79.8059
11
136.03
21
-79.8789
0
LINE
8
BLACK
6
CONTINUOUS
10
136.03
20
-79.8789
11
136.047
21
-79.965
0
LINE
8
BLACK
6
CONTINUOUS
10
136.047
20
-79.965
11
136.047
21
-80.415
0
LINE
8
BLACK
6
CONTINUOUS
10
136.047
20
-80.415
11
136.03
21
-80.5011
0
LINE
8
BLACK
6
CONTINUOUS
10
136.03
20
-80.5011
11
135.982
21
-80.5741
0
LINE
8
BLACK
6
CONTINUOUS
10
135.982
20
-80.5741
11
135.909
21
-80.6229
0
LINE
8
BLACK
6
CONTINUOUS
10
135.909
20
-80.6229
11
135.822
21
-80.64
0
LINE
8
BLACK
6
CONTINUOUS
10
135.822
20
-80.64
11
135.072
21
-80.64
0
LINE
8
BLACK
6
CONTINUOUS
10
135.072
20
-80.64
11
134.986
21
-80.6229
0
LINE
8
BLACK
6
CONTINUOUS
10
134.986
20
-80.6229
11
134.913
21
-80.5741
0
LINE
8
BLACK
6
CONTINUOUS
10
134.913
20
-80.5741
11
134.865
21
-80.5011
0
LINE
8
BLACK
6
CONTINUOUS
10
134.865
20
-80.5011
11
134.847
21
-80.415
0
LINE
8
BLACK
6
CONTINUOUS
10
134.847
20
-80.415
11
134.847
21
-79.965
0
LINE
8
BLACK
6
CONTINUOUS
10
134.847
20
-79.965
11
134.865
21
-79.8789
0
LINE
8
BLACK
6
CONTINUOUS
10
134.865
20
-79.8789
11
134.913
21
-79.8059
0
LINE
8
BLACK
6
CONTINUOUS
10
134.913
20
-79.8059
11
134.986
21
-79.7571
0
LINE
8
BLACK
6
CONTINUOUS
10
134.986
20
-79.7571
11
135.072
21
-79.74
0
LINE
8
BLACK
6
CONTINUOUS
10
135.072
20
-79.74
11
135.822
21
-79.74
0
LINE
8
BLACK
6
CONTINUOUS
10
135.822
20
-79.74
11
135.909
21
-79.7571
0
LINE
8
BLACK
6
CONTINUOUS
10
116.859
20
-79.7571
11
116.932
21
-79.8059
0
LINE
8
BLACK
6
CONTINUOUS
10
116.932
20
-79.8059
11
116.98
21
-79.8789
0
LINE
8
BLACK
6
CONTINUOUS
10
116.98
20
-79.8789
11
116.997
21
-79.965
0
LINE
8
BLACK
6
CONTINUOUS
10
116.997
20
-79.965
11
116.997
21
-80.415
0
LINE
8
BLACK
6
CONTINUOUS
10
116.997
20
-80.415
11
116.98
21
-80.5011
0
LINE
8
BLACK
6
CONTINUOUS
10
116.98
20
-80.5011
11
116.932
21
-80.5741
0
LINE
8
BLACK
6
CONTINUOUS
10
116.932
20
-80.5741
11
116.859
21
-80.6229
0
LINE
8
BLACK
6
CONTINUOUS
10
116.859
20
-80.6229
11
116.772
21
-80.64
0
LINE
8
BLACK
6
CONTINUOUS
10
116.772
20
-80.64
11
116.022
21
-80.64
0
LINE
8
BLACK
6
CONTINUOUS
10
116.022
20
-80.64
11
115.936
21
-80.6229
0
LINE
8
BLACK
6
CONTINUOUS
10
115.936
20
-80.6229
11
115.863
21
-80.5741
0
LINE
8
BLACK
6
CONTINUOUS
10
115.863
20
-80.5741
11
115.815
21
-80.5011
0
LINE
8
BLACK
6
CONTINUOUS
10
115.815
20
-80.5011
11
115.797
21
-80.415
0
LINE
8
BLACK
6
CONTINUOUS
10
115.797
20
-80.415
11
115.797
21
-79.965
0
LINE
8
BLACK
6
CONTINUOUS
10
115.797
20
-79.965
11
115.815
21
-79.8789
0
LINE
8
BLACK
6
CONTINUOUS
10
115.815
20
-79.8789
11
115.863
21
-79.8059
0
LINE
8
BLACK
6
CONTINUOUS
10
115.863
20
-79.8059
11
115.936
21
-79.7571
0
LINE
8
BLACK
6
CONTINUOUS
10
115.936
20
-79.7571
11
116.022
21
-79.74
0
LINE
8
BLACK
6
CONTINUOUS
10
116.022
20
-79.74
11
116.772
21
-79.74
0
LINE
8
BLACK
6
CONTINUOUS
10
116.772
20
-79.74
11
116.859
21
-79.7571
0
LINE
8
BLACK
6
CONTINUOUS
10
95.4274
20
-79.7571
11
95.5003
21
-79.8059
0
LINE
8
BLACK
6
CONTINUOUS
10
95.5003
20
-79.8059
11
95.5491
21
-79.8789
0
LINE
8
BLACK
6
CONTINUOUS
10
95.5491
20
-79.8789
11
95.5662
21
-79.965
0
LINE
8
BLACK
6
CONTINUOUS
10
95.5662
20
-79.965
11
95.5662
21
-80.415
0
LINE
8
BLACK
6
CONTINUOUS
10
95.5662
20
-80.415
11
95.5491
21
-80.5011
0
LINE
8
BLACK
6
CONTINUOUS
10
95.5491
20
-80.5011
11
95.5003
21
-80.5741
0
LINE
8
BLACK
6
CONTINUOUS
10
95.5003
20
-80.5741
11
95.4274
21
-80.6229
0
LINE
8
BLACK
6
CONTINUOUS
10
95.4274
20
-80.6229
11
95.3413
21
-80.64
0
LINE
8
BLACK
6
CONTINUOUS
10
95.3413
20
-80.64
11
94.5913
21
-80.64
0
LINE
8
BLACK
6
CONTINUOUS
10
94.5913
20
-80.64
11
94.5051
21
-80.6229
0
LINE
8
BLACK
6
CONTINUOUS
10
94.5051
20
-80.6229
11
94.4322
21
-80.5741
0
LINE
8
BLACK
6
CONTINUOUS
10
94.4322
20
-80.5741
11
94.3834
21
-80.5011
0
LINE
8
BLACK
6
CONTINUOUS
10
94.3834
20
-80.5011
11
94.3662
21
-80.415
0
LINE
8
BLACK
6
CONTINUOUS
10
94.3662
20
-80.415
11
94.3662
21
-79.965
0
LINE
8
BLACK
6
CONTINUOUS
10
94.3662
20
-79.965
11
94.3834
21
-79.8789
0
LINE
8
BLACK
6
CONTINUOUS
10
94.3834
20
-79.8789
11
94.4322
21
-79.8059
0
LINE
8
BLACK
6
CONTINUOUS
10
94.4322
20
-79.8059
11
94.5051
21
-79.7571
0
LINE
8
BLACK
6
CONTINUOUS
10
94.5051
20
-79.7571
11
94.5913
21
-79.74
0
LINE
8
BLACK
6
CONTINUOUS
10
94.5913
20
-79.74
11
95.3413
21
-79.74
0
LINE
8
BLACK
6
CONTINUOUS
10
95.3413
20
-79.74
11
95.4274
21
-79.7571
0
LINE
8
BLACK
6
CONTINUOUS
10
73.9961
20
-79.7571
11
74.0691
21
-79.8059
0
LINE
8
BLACK
6
CONTINUOUS
10
74.0691
20
-79.8059
11
74.1179
21
-79.8789
0
LINE
8
BLACK
6
CONTINUOUS
10
74.1179
20
-79.8789
11
74.135
21
-79.965
0
LINE
8
BLACK
6
CONTINUOUS
10
74.135
20
-79.965
11
74.135
21
-80.415
0
LINE
8
BLACK
6
CONTINUOUS
10
74.135
20
-80.415
11
74.1179
21
-80.5011
0
LINE
8
BLACK
6
CONTINUOUS
10
74.1179
20
-80.5011
11
74.0691
21
-80.5741
0
LINE
8
BLACK
6
CONTINUOUS
10
74.0691
20
-80.5741
11
73.9961
21
-80.6229
0
LINE
8
BLACK
6
CONTINUOUS
10
73.9961
20
-80.6229
11
73.91
21
-80.64
0
LINE
8
BLACK
6
CONTINUOUS
10
73.91
20
-80.64
11
73.16
21
-80.64
0
LINE
8
BLACK
6
CONTINUOUS
10
73.16
20
-80.64
11
73.0739
21
-80.6229
0
LINE
8
BLACK
6
CONTINUOUS
10
73.0739
20
-80.6229
11
73.0009
21
-80.5741
0
LINE
8
BLACK
6
CONTINUOUS
10
73.0009
20
-80.5741
11
72.9521
21
-80.5011
0
LINE
8
BLACK
6
CONTINUOUS
10
72.9521
20
-80.5011
11
72.935
21
-80.415
0
LINE
8
BLACK
6
CONTINUOUS
10
72.935
20
-80.415
11
72.935
21
-79.965
0
LINE
8
BLACK
6
CONTINUOUS
10
72.935
20
-79.965
11
72.9521
21
-79.8789
0
LINE
8
BLACK
6
CONTINUOUS
10
72.9521
20
-79.8789
11
73.0009
21
-79.8059
0
LINE
8
BLACK
6
CONTINUOUS
10
73.0009
20
-79.8059
11
73.0739
21
-79.7571
0
LINE
8
BLACK
6
CONTINUOUS
10
73.0739
20
-79.7571
11
73.16
21
-79.74
0
LINE
8
BLACK
6
CONTINUOUS
10
73.16
20
-79.74
11
73.91
21
-79.74
0
LINE
8
BLACK
6
CONTINUOUS
10
73.91
20
-79.74
11
73.9961
21
-79.7571
0
LINE
8
BLACK
6
CONTINUOUS
10
179.773
20
-72.429
11
179.854
21
-72.4832
0
LINE
8
BLACK
6
CONTINUOUS
10
179.854
20
-72.4832
11
179.908
21
-72.5643
0
LINE
8
BLACK
6
CONTINUOUS
10
179.908
20
-72.5643
11
179.927
21
-72.66
0
LINE
8
BLACK
6
CONTINUOUS
10
179.927
20
-72.66
11
179.927
21
-74.66
0
LINE
8
BLACK
6
CONTINUOUS
10
179.927
20
-74.66
11
179.908
21
-74.7557
0
LINE
8
BLACK
6
CONTINUOUS
10
179.908
20
-74.7557
11
179.854
21
-74.8368
0
LINE
8
BLACK
6
CONTINUOUS
10
179.854
20
-74.8368
11
179.773
21
-74.891
0
LINE
8
BLACK
6
CONTINUOUS
10
179.773
20
-74.891
11
179.677
21
-74.91
0
LINE
8
BLACK
6
CONTINUOUS
10
179.677
20
-74.91
11
177.627
21
-74.91
0
LINE
8
BLACK
6
CONTINUOUS
10
177.627
20
-74.91
11
177.532
21
-74.891
0
LINE
8
BLACK
6
CONTINUOUS
10
177.532
20
-74.891
11
177.451
21
-74.8368
0
LINE
8
BLACK
6
CONTINUOUS
10
177.451
20
-74.8368
11
177.397
21
-74.7557
0
LINE
8
BLACK
6
CONTINUOUS
10
177.397
20
-74.7557
11
177.377
21
-74.66
0
LINE
8
BLACK
6
CONTINUOUS
10
177.377
20
-74.66
11
177.377
21
-72.66
0
LINE
8
BLACK
6
CONTINUOUS
10
177.377
20
-72.66
11
177.397
21
-72.5643
0
LINE
8
BLACK
6
CONTINUOUS
10
177.397
20
-72.5643
11
177.451
21
-72.4832
0
LINE
8
BLACK
6
CONTINUOUS
10
177.451
20
-72.4832
11
177.532
21
-72.429
0
LINE
8
BLACK
6
CONTINUOUS
10
177.532
20
-72.429
11
177.627
21
-72.41
0
LINE
8
BLACK
6
CONTINUOUS
10
177.627
20
-72.41
11
179.677
21
-72.41
0
LINE
8
BLACK
6
CONTINUOUS
10
179.677
20
-72.41
11
179.773
21
-72.429
0
LINE
8
BLACK
6
CONTINUOUS
10
160.723
20
-72.429
11
160.804
21
-72.4832
0
LINE
8
BLACK
6
CONTINUOUS
10
160.804
20
-72.4832
11
160.858
21
-72.5643
0
LINE
8
BLACK
6
CONTINUOUS
10
160.858
20
-72.5643
11
160.877
21
-72.66
0
LINE
8
BLACK
6
CONTINUOUS
10
160.877
20
-72.66
11
160.877
21
-74.66
0
LINE
8
BLACK
6
CONTINUOUS
10
160.877
20
-74.66
11
160.858
21
-74.7557
0
LINE
8
BLACK
6
CONTINUOUS
10
160.858
20
-74.7557
11
160.804
21
-74.8368
0
LINE
8
BLACK
6
CONTINUOUS
10
160.804
20
-74.8368
11
160.723
21
-74.891
0
LINE
8
BLACK
6
CONTINUOUS
10
160.723
20
-74.891
11
160.627
21
-74.91
0
LINE
8
BLACK
6
CONTINUOUS
10
160.627
20
-74.91
11
158.577
21
-74.91
0
LINE
8
BLACK
6
CONTINUOUS
10
158.577
20
-74.91
11
158.482
21
-74.891
0
LINE
8
BLACK
6
CONTINUOUS
10
158.482
20
-74.891
11
158.401
21
-74.8368
0
LINE
8
BLACK
6
CONTINUOUS
10
158.401
20
-74.8368
11
158.347
21
-74.7557
0
LINE
8
BLACK
6
CONTINUOUS
10
158.347
20
-74.7557
11
158.327
21
-74.66
0
LINE
8
BLACK
6
CONTINUOUS
10
158.327
20
-74.66
11
158.327
21
-72.66
0
LINE
8
BLACK
6
CONTINUOUS
10
158.327
20
-72.66
11
158.347
21
-72.5643
0
LINE
8
BLACK
6
CONTINUOUS
10
158.347
20
-72.5643
11
158.401
21
-72.4832
0
LINE
8
BLACK
6
CONTINUOUS
10
158.401
20
-72.4832
11
158.482
21
-72.429
0
LINE
8
BLACK
6
CONTINUOUS
10
158.482
20
-72.429
11
158.577
21
-72.41
0
LINE
8
BLACK
6
CONTINUOUS
10
158.577
20
-72.41
11
160.627
21
-72.41
0
LINE
8
BLACK
6
CONTINUOUS
10
160.627
20
-72.41
11
160.723
21
-72.429
0
LINE
8
BLACK
6
CONTINUOUS
10
141.673
20
-72.429
11
141.754
21
-72.4832
0
LINE
8
BLACK
6
CONTINUOUS
10
141.754
20
-72.4832
11
141.808
21
-72.5643
0
LINE
8
BLACK
6
CONTINUOUS
10
141.808
20
-72.5643
11
141.827
21
-72.66
0
LINE
8
BLACK
6
CONTINUOUS
10
141.827
20
-72.66
11
141.827
21
-74.66
0
LINE
8
BLACK
6
CONTINUOUS
10
141.827
20
-74.66
11
141.808
21
-74.7557
0
LINE
8
BLACK
6
CONTINUOUS
10
141.808
20
-74.7557
11
141.754
21
-74.8368
0
LINE
8
BLACK
6
CONTINUOUS
10
141.754
20
-74.8368
11
141.673
21
-74.891
0
LINE
8
BLACK
6
CONTINUOUS
10
141.673
20
-74.891
11
141.577
21
-74.91
0
LINE
8
BLACK
6
CONTINUOUS
10
141.577
20
-74.91
11
139.528
21
-74.91
0
LINE
8
BLACK
6
CONTINUOUS
10
139.528
20
-74.91
11
139.432
21
-74.891
0
LINE
8
BLACK
6
CONTINUOUS
10
139.432
20
-74.891
11
139.351
21
-74.8368
0
LINE
8
BLACK
6
CONTINUOUS
10
139.351
20
-74.8368
11
139.297
21
-74.7557
0
LINE
8
BLACK
6
CONTINUOUS
10
139.297
20
-74.7557
11
139.278
21
-74.66
0
LINE
8
BLACK
6
CONTINUOUS
10
139.278
20
-74.66
11
139.278
21
-72.66
0
LINE
8
BLACK
6
CONTINUOUS
10
139.278
20
-72.66
11
139.297
21
-72.5643
0
LINE
8
BLACK
6
CONTINUOUS
10
139.297
20
-72.5643
11
139.351
21
-72.4832
0
LINE
8
BLACK
6
CONTINUOUS
10
139.351
20
-72.4832
11
139.432
21
-72.429
0
LINE
8
BLACK
6
CONTINUOUS
10
139.432
20
-72.429
11
139.528
21
-72.41
0
LINE
8
BLACK
6
CONTINUOUS
10
139.528
20
-72.41
11
141.577
21
-72.41
0
LINE
8
BLACK
6
CONTINUOUS
10
141.577
20
-72.41
11
141.673
21
-72.429
0
LINE
8
BLACK
6
CONTINUOUS
10
122.623
20
-72.429
11
122.704
21
-72.4832
0
LINE
8
BLACK
6
CONTINUOUS
10
122.704
20
-72.4832
11
122.758
21
-72.5643
0
LINE
8
BLACK
6
CONTINUOUS
10
122.758
20
-72.5643
11
122.777
21
-72.66
0
LINE
8
BLACK
6
CONTINUOUS
10
122.777
20
-72.66
11
122.777
21
-74.66
0
LINE
8
BLACK
6
CONTINUOUS
10
122.777
20
-74.66
11
122.758
21
-74.7557
0
LINE
8
BLACK
6
CONTINUOUS
10
122.758
20
-74.7557
11
122.704
21
-74.8368
0
LINE
8
BLACK
6
CONTINUOUS
10
122.704
20
-74.8368
11
122.623
21
-74.891
0
LINE
8
BLACK
6
CONTINUOUS
10
122.623
20
-74.891
11
122.527
21
-74.91
0
LINE
8
BLACK
6
CONTINUOUS
10
122.527
20
-74.91
11
120.477
21
-74.91
0
LINE
8
BLACK
6
CONTINUOUS
10
120.477
20
-74.91
11
120.382
21
-74.891
0
LINE
8
BLACK
6
CONTINUOUS
10
120.382
20
-74.891
11
120.301
21
-74.8368
0
LINE
8
BLACK
6
CONTINUOUS
10
120.301
20
-74.8368
11
120.247
21
-74.7557
0
LINE
8
BLACK
6
CONTINUOUS
10
120.247
20
-74.7557
11
120.227
21
-74.66
0
LINE
8
BLACK
6
CONTINUOUS
10
120.227
20
-74.66
11
120.227
21
-72.66
0
LINE
8
BLACK
6
CONTINUOUS
10
120.227
20
-72.66
11
120.247
21
-72.5643
0
LINE
8
BLACK
6
CONTINUOUS
10
120.247
20
-72.5643
11
120.301
21
-72.4832
0
LINE
8
BLACK
6
CONTINUOUS
10
120.301
20
-72.4832
11
120.382
21
-72.429
0
LINE
8
BLACK
6
CONTINUOUS
10
120.382
20
-72.429
11
120.477
21
-72.41
0
LINE
8
BLACK
6
CONTINUOUS
10
120.477
20
-72.41
11
122.527
21
-72.41
0
LINE
8
BLACK
6
CONTINUOUS
10
122.527
20
-72.41
11
122.623
21
-72.429
0
LINE
8
BLACK
6
CONTINUOUS
10
103.573
20
-72.429
11
103.654
21
-72.4832
0
LINE
8
BLACK
6
CONTINUOUS
10
103.654
20
-72.4832
11
103.708
21
-72.5643
0
LINE
8
BLACK
6
CONTINUOUS
10
103.708
20
-72.5643
11
103.727
21
-72.66
0
LINE
8
BLACK
6
CONTINUOUS
10
103.727
20
-72.66
11
103.727
21
-74.66
0
LINE
8
BLACK
6
CONTINUOUS
10
103.727
20
-74.66
11
103.708
21
-74.7557
0
LINE
8
BLACK
6
CONTINUOUS
10
103.708
20
-74.7557
11
103.654
21
-74.8368
0
LINE
8
BLACK
6
CONTINUOUS
10
103.654
20
-74.8368
11
103.573
21
-74.891
0
LINE
8
BLACK
6
CONTINUOUS
10
103.573
20
-74.891
11
103.477
21
-74.91
0
LINE
8
BLACK
6
CONTINUOUS
10
103.477
20
-74.91
11
101.427
21
-74.91
0
LINE
8
BLACK
6
CONTINUOUS
10
101.427
20
-74.91
11
101.332
21
-74.891
0
LINE
8
BLACK
6
CONTINUOUS
10
101.332
20
-74.891
11
101.251
21
-74.8368
0
LINE
8
BLACK
6
CONTINUOUS
10
101.251
20
-74.8368
11
101.197
21
-74.7557
0
LINE
8
BLACK
6
CONTINUOUS
10
101.197
20
-74.7557
11
101.177
21
-74.66
0
LINE
8
BLACK
6
CONTINUOUS
10
101.177
20
-74.66
11
101.177
21
-72.66
0
LINE
8
BLACK
6
CONTINUOUS
10
101.177
20
-72.66
11
101.197
21
-72.5643
0
LINE
8
BLACK
6
CONTINUOUS
10
101.197
20
-72.5643
11
101.251
21
-72.4832
0
LINE
8
BLACK
6
CONTINUOUS
10
101.251
20
-72.4832
11
101.332
21
-72.429
0
LINE
8
BLACK
6
CONTINUOUS
10
101.332
20
-72.429
11
101.427
21
-72.41
0
LINE
8
BLACK
6
CONTINUOUS
10
101.427
20
-72.41
11
103.477
21
-72.41
0
LINE
8
BLACK
6
CONTINUOUS
10
103.477
20
-72.41
11
103.573
21
-72.429
0
LINE
8
BLACK
6
CONTINUOUS
10
82.1419
20
-72.429
11
82.223
21
-72.4832
0
LINE
8
BLACK
6
CONTINUOUS
10
82.223
20
-72.4832
11
82.2772
21
-72.5643
0
LINE
8
BLACK
6
CONTINUOUS
10
82.2772
20
-72.5643
11
82.2963
21
-72.66
0
LINE
8
BLACK
6
CONTINUOUS
10
82.2963
20
-72.66
11
82.2963
21
-74.66
0
LINE
8
BLACK
6
CONTINUOUS
10
82.2963
20
-74.66
11
82.2772
21
-74.7557
0
LINE
8
BLACK
6
CONTINUOUS
10
82.2772
20
-74.7557
11
82.223
21
-74.8368
0
LINE
8
BLACK
6
CONTINUOUS
10
82.223
20
-74.8368
11
82.1419
21
-74.891
0
LINE
8
BLACK
6
CONTINUOUS
10
82.1419
20
-74.891
11
82.0463
21
-74.91
0
LINE
8
BLACK
6
CONTINUOUS
10
82.0463
20
-74.91
11
79.9963
21
-74.91
0
LINE
8
BLACK
6
CONTINUOUS
10
79.9963
20
-74.91
11
79.9006
21
-74.891
0
LINE
8
BLACK
6
CONTINUOUS
10
79.9006
20
-74.891
11
79.8195
21
-74.8368
0
LINE
8
BLACK
6
CONTINUOUS
10
79.8195
20
-74.8368
11
79.7653
21
-74.7557
0
LINE
8
BLACK
6
CONTINUOUS
10
79.7653
20
-74.7557
11
79.7463
21
-74.66
0
LINE
8
BLACK
6
CONTINUOUS
10
79.7463
20
-74.66
11
79.7463
21
-72.66
0
LINE
8
BLACK
6
CONTINUOUS
10
79.7463
20
-72.66
11
79.7653
21
-72.5643
0
LINE
8
BLACK
6
CONTINUOUS
10
79.7653
20
-72.5643
11
79.8195
21
-72.4832
0
LINE
8
BLACK
6
CONTINUOUS
10
79.8195
20
-72.4832
11
79.9006
21
-72.429
0
LINE
8
BLACK
6
CONTINUOUS
10
79.9006
20
-72.429
11
79.9963
21
-72.41
0
LINE
8
BLACK
6
CONTINUOUS
10
79.9963
20
-72.41
11
82.0463
21
-72.41
0
LINE
8
BLACK
6
CONTINUOUS
10
82.0463
20
-72.41
11
82.1419
21
-72.429
0
LINE
8
BLACK
6
CONTINUOUS
10
60.7107
20
-72.429
11
60.7918
21
-72.4832
0
LINE
8
BLACK
6
CONTINUOUS
10
60.7918
20
-72.4832
11
60.846
21
-72.5643
0
LINE
8
BLACK
6
CONTINUOUS
10
60.846
20
-72.5643
11
60.865
21
-72.66
0
LINE
8
BLACK
6
CONTINUOUS
10
60.865
20
-72.66
11
60.865
21
-74.66
0
LINE
8
BLACK
6
CONTINUOUS
10
60.865
20
-74.66
11
60.846
21
-74.7557
0
LINE
8
BLACK
6
CONTINUOUS
10
60.846
20
-74.7557
11
60.7918
21
-74.8368
0
LINE
8
BLACK
6
CONTINUOUS
10
60.7918
20
-74.8368
11
60.7107
21
-74.891
0
LINE
8
BLACK
6
CONTINUOUS
10
60.7107
20
-74.891
11
60.615
21
-74.91
0
LINE
8
BLACK
6
CONTINUOUS
10
60.615
20
-74.91
11
58.565
21
-74.91
0
LINE
8
BLACK
6
CONTINUOUS
10
58.565
20
-74.91
11
58.4693
21
-74.891
0
LINE
8
BLACK
6
CONTINUOUS
10
58.4693
20
-74.891
11
58.3882
21
-74.8368
0
LINE
8
BLACK
6
CONTINUOUS
10
58.3882
20
-74.8368
11
58.334
21
-74.7557
0
LINE
8
BLACK
6
CONTINUOUS
10
58.334
20
-74.7557
11
58.315
21
-74.66
0
LINE
8
BLACK
6
CONTINUOUS
10
58.315
20
-74.66
11
58.315
21
-72.66
0
LINE
8
BLACK
6
CONTINUOUS
10
58.315
20
-72.66
11
58.334
21
-72.5643
0
LINE
8
BLACK
6
CONTINUOUS
10
58.334
20
-72.5643
11
58.3882
21
-72.4832
0
LINE
8
BLACK
6
CONTINUOUS
10
58.3882
20
-72.4832
11
58.4693
21
-72.429
0
LINE
8
BLACK
6
CONTINUOUS
10
58.4693
20
-72.429
11
58.565
21
-72.41
0
LINE
8
BLACK
6
CONTINUOUS
10
58.565
20
-72.41
11
60.615
21
-72.41
0
LINE
8
BLACK
6
CONTINUOUS
10
60.615
20
-72.41
11
60.7107
21
-72.429
0
LINE
8
BLACK
6
CONTINUOUS
10
56.205
20
-73.84
11
55.555
21
-73.84
0
LINE
8
BLACK
6
CONTINUOUS
10
55.555
20
-73.84
11
55.555
21
-73.44
0
LINE
8
BLACK
6
CONTINUOUS
10
55.555
20
-73.44
11
56.205
21
-73.44
0
LINE
8
BLACK
6
CONTINUOUS
10
56.205
20
-73.44
11
56.205
21
-73.84
0
LINE
8
BLACK
6
CONTINUOUS
10
54.305
20
-73.84
11
53.655
21
-73.84
0
LINE
8
BLACK
6
CONTINUOUS
10
53.655
20
-73.84
11
53.655
21
-73.44
0
LINE
8
BLACK
6
CONTINUOUS
10
53.655
20
-73.44
11
54.305
21
-73.44
0
LINE
8
BLACK
6
CONTINUOUS
10
54.305
20
-73.44
11
54.305
21
-73.84
0
LINE
8
BLACK
6
CONTINUOUS
10
56.205
20
-73.19
11
55.555
21
-73.19
0
LINE
8
BLACK
6
CONTINUOUS
10
55.555
20
-73.19
11
55.555
21
-72.79
0
LINE
8
BLACK
6
CONTINUOUS
10
55.555
20
-72.79
11
56.205
21
-72.79
0
LINE
8
BLACK
6
CONTINUOUS
10
56.205
20
-72.79
11
56.205
21
-73.19
0
LINE
8
BLACK
6
CONTINUOUS
10
54.305
20
-73.19
11
53.655
21
-73.19
0
LINE
8
BLACK
6
CONTINUOUS
10
53.655
20
-73.19
11
53.655
21
-72.79
0
LINE
8
BLACK
6
CONTINUOUS
10
53.655
20
-72.79
11
54.305
21
-72.79
0
LINE
8
BLACK
6
CONTINUOUS
10
54.305
20
-72.79
11
54.305
21
-73.19
0
LINE
8
BLACK
6
CONTINUOUS
10
56.205
20
-72.54
11
55.555
21
-72.54
0
LINE
8
BLACK
6
CONTINUOUS
10
55.555
20
-72.54
11
55.555
21
-72.14
0
LINE
8
BLACK
6
CONTINUOUS
10
55.555
20
-72.14
11
56.205
21
-72.14
0
LINE
8
BLACK
6
CONTINUOUS
10
56.205
20
-72.14
11
56.205
21
-72.54
0
LINE
8
BLACK
6
CONTINUOUS
10
54.305
20
-72.54
11
53.655
21
-72.54
0
LINE
8
BLACK
6
CONTINUOUS
10
53.655
20
-72.54
11
53.655
21
-72.14
0
LINE
8
BLACK
6
CONTINUOUS
10
53.655
20
-72.14
11
54.305
21
-72.14
0
LINE
8
BLACK
6
CONTINUOUS
10
54.305
20
-72.14
11
54.305
21
-72.54
0
LINE
8
BLACK
6
CONTINUOUS
10
192.7
20
-69.889
11
192.781
21
-69.9432
0
LINE
8
BLACK
6
CONTINUOUS
10
192.781
20
-69.9432
11
192.835
21
-70.0243
0
LINE
8
BLACK
6
CONTINUOUS
10
192.835
20
-70.0243
11
192.855
21
-70.12
0
LINE
8
BLACK
6
CONTINUOUS
10
192.855
20
-70.12
11
192.855
21
-72.12
0
LINE
8
BLACK
6
CONTINUOUS
10
192.855
20
-72.12
11
192.835
21
-72.2157
0
LINE
8
BLACK
6
CONTINUOUS
10
192.835
20
-72.2157
11
192.781
21
-72.2968
0
LINE
8
BLACK
6
CONTINUOUS
10
192.781
20
-72.2968
11
192.7
21
-72.351
0
LINE
8
BLACK
6
CONTINUOUS
10
192.7
20
-72.351
11
192.605
21
-72.37
0
LINE
8
BLACK
6
CONTINUOUS
10
192.605
20
-72.37
11
190.554
21
-72.37
0
LINE
8
BLACK
6
CONTINUOUS
10
190.554
20
-72.37
11
190.459
21
-72.351
0
LINE
8
BLACK
6
CONTINUOUS
10
190.459
20
-72.351
11
190.378
21
-72.2968
0
LINE
8
BLACK
6
CONTINUOUS
10
190.378
20
-72.2968
11
190.324
21
-72.2157
0
LINE
8
BLACK
6
CONTINUOUS
10
190.324
20
-72.2157
11
190.304
21
-72.12
0
LINE
8
BLACK
6
CONTINUOUS
10
190.304
20
-72.12
11
190.304
21
-70.12
0
LINE
8
BLACK
6
CONTINUOUS
10
190.304
20
-70.12
11
190.324
21
-70.0243
0
LINE
8
BLACK
6
CONTINUOUS
10
190.324
20
-70.0243
11
190.378
21
-69.9432
0
LINE
8
BLACK
6
CONTINUOUS
10
190.378
20
-69.9432
11
190.459
21
-69.889
0
LINE
8
BLACK
6
CONTINUOUS
10
190.459
20
-69.889
11
190.554
21
-69.87
0
LINE
8
BLACK
6
CONTINUOUS
10
190.554
20
-69.87
11
192.605
21
-69.87
0
LINE
8
BLACK
6
CONTINUOUS
10
192.605
20
-69.87
11
192.7
21
-69.889
0
LINE
8
BLACK
6
CONTINUOUS
10
173.65
20
-69.889
11
173.731
21
-69.9432
0
LINE
8
BLACK
6
CONTINUOUS
10
173.731
20
-69.9432
11
173.785
21
-70.0243
0
LINE
8
BLACK
6
CONTINUOUS
10
173.785
20
-70.0243
11
173.804
21
-70.12
0
LINE
8
BLACK
6
CONTINUOUS
10
173.804
20
-70.12
11
173.804
21
-72.12
0
LINE
8
BLACK
6
CONTINUOUS
10
173.804
20
-72.12
11
173.785
21
-72.2157
0
LINE
8
BLACK
6
CONTINUOUS
10
173.785
20
-72.2157
11
173.731
21
-72.2968
0
LINE
8
BLACK
6
CONTINUOUS
10
173.731
20
-72.2968
11
173.65
21
-72.351
0
LINE
8
BLACK
6
CONTINUOUS
10
173.65
20
-72.351
11
173.554
21
-72.37
0
LINE
8
BLACK
6
CONTINUOUS
10
173.554
20
-72.37
11
171.504
21
-72.37
0
LINE
8
BLACK
6
CONTINUOUS
10
171.504
20
-72.37
11
171.409
21
-72.351
0
LINE
8
BLACK
6
CONTINUOUS
10
171.409
20
-72.351
11
171.328
21
-72.2968
0
LINE
8
BLACK
6
CONTINUOUS
10
171.328
20
-72.2968
11
171.274
21
-72.2157
0
LINE
8
BLACK
6
CONTINUOUS
10
171.274
20
-72.2157
11
171.254
21
-72.12
0
LINE
8
BLACK
6
CONTINUOUS
10
171.254
20
-72.12
11
171.254
21
-70.12
0
LINE
8
BLACK
6
CONTINUOUS
10
171.254
20
-70.12
11
171.274
21
-70.0243
0
LINE
8
BLACK
6
CONTINUOUS
10
171.274
20
-70.0243
11
171.328
21
-69.9432
0
LINE
8
BLACK
6
CONTINUOUS
10
171.328
20
-69.9432
11
171.409
21
-69.889
0
LINE
8
BLACK
6
CONTINUOUS
10
171.409
20
-69.889
11
171.504
21
-69.87
0
LINE
8
BLACK
6
CONTINUOUS
10
171.504
20
-69.87
11
173.554
21
-69.87
0
LINE
8
BLACK
6
CONTINUOUS
10
173.554
20
-69.87
11
173.65
21
-69.889
0
LINE
8
BLACK
6
CONTINUOUS
10
154.6
20
-69.889
11
154.681
21
-69.9432
0
LINE
8
BLACK
6
CONTINUOUS
10
154.681
20
-69.9432
11
154.735
21
-70.0243
0
LINE
8
BLACK
6
CONTINUOUS
10
154.735
20
-70.0243
11
154.754
21
-70.12
0
LINE
8
BLACK
6
CONTINUOUS
10
154.754
20
-70.12
11
154.754
21
-72.12
0
LINE
8
BLACK
6
CONTINUOUS
10
154.754
20
-72.12
11
154.735
21
-72.2157
0
LINE
8
BLACK
6
CONTINUOUS
10
154.735
20
-72.2157
11
154.681
21
-72.2968
0
LINE
8
BLACK
6
CONTINUOUS
10
154.681
20
-72.2968
11
154.6
21
-72.351
0
LINE
8
BLACK
6
CONTINUOUS
10
154.6
20
-72.351
11
154.504
21
-72.37
0
LINE
8
BLACK
6
CONTINUOUS
10
154.504
20
-72.37
11
152.454
21
-72.37
0
LINE
8
BLACK
6
CONTINUOUS
10
152.454
20
-72.37
11
152.359
21
-72.351
0
LINE
8
BLACK
6
CONTINUOUS
10
152.359
20
-72.351
11
152.278
21
-72.2968
0
LINE
8
BLACK
6
CONTINUOUS
10
152.278
20
-72.2968
11
152.224
21
-72.2157
0
LINE
8
BLACK
6
CONTINUOUS
10
152.224
20
-72.2157
11
152.204
21
-72.12
0
LINE
8
BLACK
6
CONTINUOUS
10
152.204
20
-72.12
11
152.204
21
-70.12
0
LINE
8
BLACK
6
CONTINUOUS
10
152.204
20
-70.12
11
152.224
21
-70.0243
0
LINE
8
BLACK
6
CONTINUOUS
10
152.224
20
-70.0243
11
152.278
21
-69.9432
0
LINE
8
BLACK
6
CONTINUOUS
10
152.278
20
-69.9432
11
152.359
21
-69.889
0
LINE
8
BLACK
6
CONTINUOUS
10
152.359
20
-69.889
11
152.454
21
-69.87
0
LINE
8
BLACK
6
CONTINUOUS
10
152.454
20
-69.87
11
154.504
21
-69.87
0
LINE
8
BLACK
6
CONTINUOUS
10
154.504
20
-69.87
11
154.6
21
-69.889
0
LINE
8
BLACK
6
CONTINUOUS
10
135.55
20
-69.889
11
135.631
21
-69.9432
0
LINE
8
BLACK
6
CONTINUOUS
10
135.631
20
-69.9432
11
135.685
21
-70.0243
0
LINE
8
BLACK
6
CONTINUOUS
10
135.685
20
-70.0243
11
135.704
21
-70.12
0
LINE
8
BLACK
6
CONTINUOUS
10
135.704
20
-70.12
11
135.704
21
-72.12
0
LINE
8
BLACK
6
CONTINUOUS
10
135.704
20
-72.12
11
135.685
21
-72.2157
0
LINE
8
BLACK
6
CONTINUOUS
10
135.685
20
-72.2157
11
135.631
21
-72.2968
0
LINE
8
BLACK
6
CONTINUOUS
10
135.631
20
-72.2968
11
135.55
21
-72.351
0
LINE
8
BLACK
6
CONTINUOUS
10
135.55
20
-72.351
11
135.454
21
-72.37
0
LINE
8
BLACK
6
CONTINUOUS
10
135.454
20
-72.37
11
133.404
21
-72.37
0
LINE
8
BLACK
6
CONTINUOUS
10
133.404
20
-72.37
11
133.309
21
-72.351
0
LINE
8
BLACK
6
CONTINUOUS
10
133.309
20
-72.351
11
133.228
21
-72.2968
0
LINE
8
BLACK
6
CONTINUOUS
10
133.228
20
-72.2968
11
133.174
21
-72.2157
0
LINE
8
BLACK
6
CONTINUOUS
10
133.174
20
-72.2157
11
133.154
21
-72.12
0
LINE
8
BLACK
6
CONTINUOUS
10
133.154
20
-72.12
11
133.154
21
-70.12
0
LINE
8
BLACK
6
CONTINUOUS
10
133.154
20
-70.12
11
133.174
21
-70.0243
0
LINE
8
BLACK
6
CONTINUOUS
10
133.174
20
-70.0243
11
133.228
21
-69.9432
0
LINE
8
BLACK
6
CONTINUOUS
10
133.228
20
-69.9432
11
133.309
21
-69.889
0
LINE
8
BLACK
6
CONTINUOUS
10
133.309
20
-69.889
11
133.404
21
-69.87
0
LINE
8
BLACK
6
CONTINUOUS
10
133.404
20
-69.87
11
135.454
21
-69.87
0
LINE
8
BLACK
6
CONTINUOUS
10
135.454
20
-69.87
11
135.55
21
-69.889
0
LINE
8
BLACK
6
CONTINUOUS
10
116.5
20
-69.889
11
116.581
21
-69.9432
0
LINE
8
BLACK
6
CONTINUOUS
10
116.581
20
-69.9432
11
116.635
21
-70.0243
0
LINE
8
BLACK
6
CONTINUOUS
10
116.635
20
-70.0243
11
116.654
21
-70.12
0
LINE
8
BLACK
6
CONTINUOUS
10
116.654
20
-70.12
11
116.654
21
-72.12
0
LINE
8
BLACK
6
CONTINUOUS
10
116.654
20
-72.12
11
116.635
21
-72.2157
0
LINE
8
BLACK
6
CONTINUOUS
10
116.635
20
-72.2157
11
116.581
21
-72.2968
0
LINE
8
BLACK
6
CONTINUOUS
10
116.581
20
-72.2968
11
116.5
21
-72.351
0
LINE
8
BLACK
6
CONTINUOUS
10
116.5
20
-72.351
11
116.404
21
-72.37
0
LINE
8
BLACK
6
CONTINUOUS
10
116.404
20
-72.37
11
114.355
21
-72.37
0
LINE
8
BLACK
6
CONTINUOUS
10
114.355
20
-72.37
11
114.259
21
-72.351
0
LINE
8
BLACK
6
CONTINUOUS
10
114.259
20
-72.351
11
114.178
21
-72.2968
0
LINE
8
BLACK
6
CONTINUOUS
10
114.178
20
-72.2968
11
114.124
21
-72.2157
0
LINE
8
BLACK
6
CONTINUOUS
10
114.124
20
-72.2157
11
114.105
21
-72.12
0
LINE
8
BLACK
6
CONTINUOUS
10
114.105
20
-72.12
11
114.105
21
-70.12
0
LINE
8
BLACK
6
CONTINUOUS
10
114.105
20
-70.12
11
114.124
21
-70.0243
0
LINE
8
BLACK
6
CONTINUOUS
10
114.124
20
-70.0243
11
114.178
21
-69.9432
0
LINE
8
BLACK
6
CONTINUOUS
10
114.178
20
-69.9432
11
114.259
21
-69.889
0
LINE
8
BLACK
6
CONTINUOUS
10
114.259
20
-69.889
11
114.355
21
-69.87
0
LINE
8
BLACK
6
CONTINUOUS
10
114.355
20
-69.87
11
116.404
21
-69.87
0
LINE
8
BLACK
6
CONTINUOUS
10
116.404
20
-69.87
11
116.5
21
-69.889
0
LINE
8
BLACK
6
CONTINUOUS
10
95.0689
20
-69.889
11
95.15
21
-69.9432
0
LINE
8
BLACK
6
CONTINUOUS
10
95.15
20
-69.9432
11
95.2042
21
-70.0243
0
LINE
8
BLACK
6
CONTINUOUS
10
95.2042
20
-70.0243
11
95.2232
21
-70.12
0
LINE
8
BLACK
6
CONTINUOUS
10
95.2232
20
-70.12
11
95.2232
21
-72.12
0
LINE
8
BLACK
6
CONTINUOUS
10
95.2232
20
-72.12
11
95.2042
21
-72.2157
0
LINE
8
BLACK
6
CONTINUOUS
10
95.2042
20
-72.2157
11
95.15
21
-72.2968
0
LINE
8
BLACK
6
CONTINUOUS
10
95.15
20
-72.2968
11
95.0689
21
-72.351
0
LINE
8
BLACK
6
CONTINUOUS
10
95.0689
20
-72.351
11
94.9732
21
-72.37
0
LINE
8
BLACK
6
CONTINUOUS
10
94.9732
20
-72.37
11
92.9232
21
-72.37
0
LINE
8
BLACK
6
CONTINUOUS
10
92.9232
20
-72.37
11
92.8276
21
-72.351
0
LINE
8
BLACK
6
CONTINUOUS
10
92.8276
20
-72.351
11
92.7465
21
-72.2968
0
LINE
8
BLACK
6
CONTINUOUS
10
92.7465
20
-72.2968
11
92.6923
21
-72.2157
0
LINE
8
BLACK
6
CONTINUOUS
10
92.6923
20
-72.2157
11
92.6732
21
-72.12
0
LINE
8
BLACK
6
CONTINUOUS
10
92.6732
20
-72.12
11
92.6732
21
-70.12
0
LINE
8
BLACK
6
CONTINUOUS
10
92.6732
20
-70.12
11
92.6923
21
-70.0243
0
LINE
8
BLACK
6
CONTINUOUS
10
92.6923
20
-70.0243
11
92.7465
21
-69.9432
0
LINE
8
BLACK
6
CONTINUOUS
10
92.7465
20
-69.9432
11
92.8276
21
-69.889
0
LINE
8
BLACK
6
CONTINUOUS
10
92.8276
20
-69.889
11
92.9232
21
-69.87
0
LINE
8
BLACK
6
CONTINUOUS
10
92.9232
20
-69.87
11
94.9732
21
-69.87
0
LINE
8
BLACK
6
CONTINUOUS
10
94.9732
20
-69.87
11
95.0689
21
-69.889
0
LINE
8
BLACK
6
CONTINUOUS
10
73.6377
20
-69.889
11
73.7188
21
-69.9432
0
LINE
8
BLACK
6
CONTINUOUS
10
73.7188
20
-69.9432
11
73.773
21
-70.0243
0
LINE
8
BLACK
6
CONTINUOUS
10
73.773
20
-70.0243
11
73.792
21
-70.12
0
LINE
8
BLACK
6
CONTINUOUS
10
73.792
20
-70.12
11
73.792
21
-72.12
0
LINE
8
BLACK
6
CONTINUOUS
10
73.792
20
-72.12
11
73.773
21
-72.2157
0
LINE
8
BLACK
6
CONTINUOUS
10
73.773
20
-72.2157
11
73.7188
21
-72.2968
0
LINE
8
BLACK
6
CONTINUOUS
10
73.7188
20
-72.2968
11
73.6377
21
-72.351
0
LINE
8
BLACK
6
CONTINUOUS
10
73.6377
20
-72.351
11
73.542
21
-72.37
0
LINE
8
BLACK
6
CONTINUOUS
10
73.542
20
-72.37
11
71.492
21
-72.37
0
LINE
8
BLACK
6
CONTINUOUS
10
71.492
20
-72.37
11
71.3963
21
-72.351
0
LINE
8
BLACK
6
CONTINUOUS
10
71.3963
20
-72.351
11
71.3152
21
-72.2968
0
LINE
8
BLACK
6
CONTINUOUS
10
71.3152
20
-72.2968
11
71.261
21
-72.2157
0
LINE
8
BLACK
6
CONTINUOUS
10
71.261
20
-72.2157
11
71.242
21
-72.12
0
LINE
8
BLACK
6
CONTINUOUS
10
71.242
20
-72.12
11
71.242
21
-70.12
0
LINE
8
BLACK
6
CONTINUOUS
10
71.242
20
-70.12
11
71.261
21
-70.0243
0
LINE
8
BLACK
6
CONTINUOUS
10
71.261
20
-70.0243
11
71.3152
21
-69.9432
0
LINE
8
BLACK
6
CONTINUOUS
10
71.3152
20
-69.9432
11
71.3963
21
-69.889
0
LINE
8
BLACK
6
CONTINUOUS
10
71.3963
20
-69.889
11
71.492
21
-69.87
0
LINE
8
BLACK
6
CONTINUOUS
10
71.492
20
-69.87
11
73.542
21
-69.87
0
LINE
8
BLACK
6
CONTINUOUS
10
73.542
20
-69.87
11
73.6377
21
-69.889
0
LINE
8
BLACK
6
CONTINUOUS
10
193.059
20
-64.0071
11
193.132
21
-64.0559
0
LINE
8
BLACK
6
CONTINUOUS
10
193.132
20
-64.0559
11
193.18
21
-64.1289
0
LINE
8
BLACK
6
CONTINUOUS
10
193.18
20
-64.1289
11
193.197
21
-64.215
0
LINE
8
BLACK
6
CONTINUOUS
10
193.197
20
-64.215
11
193.197
21
-64.665
0
LINE
8
BLACK
6
CONTINUOUS
10
193.197
20
-64.665
11
193.18
21
-64.7511
0
LINE
8
BLACK
6
CONTINUOUS
10
193.18
20
-64.7511
11
193.132
21
-64.8241
0
LINE
8
BLACK
6
CONTINUOUS
10
193.132
20
-64.8241
11
193.059
21
-64.8729
0
LINE
8
BLACK
6
CONTINUOUS
10
193.059
20
-64.8729
11
192.972
21
-64.89
0
LINE
8
BLACK
6
CONTINUOUS
10
192.972
20
-64.89
11
192.222
21
-64.89
0
LINE
8
BLACK
6
CONTINUOUS
10
192.222
20
-64.89
11
192.136
21
-64.8729
0
LINE
8
BLACK
6
CONTINUOUS
10
192.136
20
-64.8729
11
192.063
21
-64.8241
0
LINE
8
BLACK
6
CONTINUOUS
10
192.063
20
-64.8241
11
192.015
21
-64.7511
0
LINE
8
BLACK
6
CONTINUOUS
10
192.015
20
-64.7511
11
191.998
21
-64.665
0
LINE
8
BLACK
6
CONTINUOUS
10
191.998
20
-64.665
11
191.998
21
-64.215
0
LINE
8
BLACK
6
CONTINUOUS
10
191.998
20
-64.215
11
192.015
21
-64.1289
0
LINE
8
BLACK
6
CONTINUOUS
10
192.015
20
-64.1289
11
192.063
21
-64.0559
0
LINE
8
BLACK
6
CONTINUOUS
10
192.063
20
-64.0559
11
192.136
21
-64.0071
0
LINE
8
BLACK
6
CONTINUOUS
10
192.136
20
-64.0071
11
192.222
21
-63.99
0
LINE
8
BLACK
6
CONTINUOUS
10
192.222
20
-63.99
11
192.972
21
-63.99
0
LINE
8
BLACK
6
CONTINUOUS
10
192.972
20
-63.99
11
193.059
21
-64.0071
0
LINE
8
BLACK
6
CONTINUOUS
10
174.009
20
-64.0071
11
174.082
21
-64.0559
0
LINE
8
BLACK
6
CONTINUOUS
10
174.082
20
-64.0559
11
174.13
21
-64.1289
0
LINE
8
BLACK
6
CONTINUOUS
10
174.13
20
-64.1289
11
174.147
21
-64.215
0
LINE
8
BLACK
6
CONTINUOUS
10
174.147
20
-64.215
11
174.147
21
-64.665
0
LINE
8
BLACK
6
CONTINUOUS
10
174.147
20
-64.665
11
174.13
21
-64.7511
0
LINE
8
BLACK
6
CONTINUOUS
10
174.13
20
-64.7511
11
174.082
21
-64.8241
0
LINE
8
BLACK
6
CONTINUOUS
10
174.082
20
-64.8241
11
174.009
21
-64.8729
0
LINE
8
BLACK
6
CONTINUOUS
10
174.009
20
-64.8729
11
173.922
21
-64.89
0
LINE
8
BLACK
6
CONTINUOUS
10
173.922
20
-64.89
11
173.172
21
-64.89
0
LINE
8
BLACK
6
CONTINUOUS
10
173.172
20
-64.89
11
173.086
21
-64.8729
0
LINE
8
BLACK
6
CONTINUOUS
10
173.086
20
-64.8729
11
173.013
21
-64.8241
0
LINE
8
BLACK
6
CONTINUOUS
10
173.013
20
-64.8241
11
172.965
21
-64.7511
0
LINE
8
BLACK
6
CONTINUOUS
10
172.965
20
-64.7511
11
172.947
21
-64.665
0
LINE
8
BLACK
6
CONTINUOUS
10
172.947
20
-64.665
11
172.947
21
-64.215
0
LINE
8
BLACK
6
CONTINUOUS
10
172.947
20
-64.215
11
172.965
21
-64.1289
0
LINE
8
BLACK
6
CONTINUOUS
10
172.965
20
-64.1289
11
173.013
21
-64.0559
0
LINE
8
BLACK
6
CONTINUOUS
10
173.013
20
-64.0559
11
173.086
21
-64.0071
0
LINE
8
BLACK
6
CONTINUOUS
10
173.086
20
-64.0071
11
173.172
21
-63.99
0
LINE
8
BLACK
6
CONTINUOUS
10
173.172
20
-63.99
11
173.922
21
-63.99
0
LINE
8
BLACK
6
CONTINUOUS
10
173.922
20
-63.99
11
174.009
21
-64.0071
0
LINE
8
BLACK
6
CONTINUOUS
10
154.959
20
-64.0071
11
155.032
21
-64.0559
0
LINE
8
BLACK
6
CONTINUOUS
10
155.032
20
-64.0559
11
155.08
21
-64.1289
0
LINE
8
BLACK
6
CONTINUOUS
10
155.08
20
-64.1289
11
155.097
21
-64.215
0
LINE
8
BLACK
6
CONTINUOUS
10
155.097
20
-64.215
11
155.097
21
-64.665
0
LINE
8
BLACK
6
CONTINUOUS
10
155.097
20
-64.665
11
155.08
21
-64.7511
0
LINE
8
BLACK
6
CONTINUOUS
10
155.08
20
-64.7511
11
155.032
21
-64.8241
0
LINE
8
BLACK
6
CONTINUOUS
10
155.032
20
-64.8241
11
154.959
21
-64.8729
0
LINE
8
BLACK
6
CONTINUOUS
10
154.959
20
-64.8729
11
154.873
21
-64.89
0
LINE
8
BLACK
6
CONTINUOUS
10
154.873
20
-64.89
11
154.123
21
-64.89
0
LINE
8
BLACK
6
CONTINUOUS
10
154.123
20
-64.89
11
154.036
21
-64.8729
0
LINE
8
BLACK
6
CONTINUOUS
10
154.036
20
-64.8729
11
153.963
21
-64.8241
0
LINE
8
BLACK
6
CONTINUOUS
10
153.963
20
-64.8241
11
153.915
21
-64.7511
0
LINE
8
BLACK
6
CONTINUOUS
10
153.915
20
-64.7511
11
153.897
21
-64.665
0
LINE
8
BLACK
6
CONTINUOUS
10
153.897
20
-64.665
11
153.897
21
-64.215
0
LINE
8
BLACK
6
CONTINUOUS
10
153.897
20
-64.215
11
153.915
21
-64.1289
0
LINE
8
BLACK
6
CONTINUOUS
10
153.915
20
-64.1289
11
153.963
21
-64.0559
0
LINE
8
BLACK
6
CONTINUOUS
10
153.963
20
-64.0559
11
154.036
21
-64.0071
0
LINE
8
BLACK
6
CONTINUOUS
10
154.036
20
-64.0071
11
154.123
21
-63.99
0
LINE
8
BLACK
6
CONTINUOUS
10
154.123
20
-63.99
11
154.873
21
-63.99
0
LINE
8
BLACK
6
CONTINUOUS
10
154.873
20
-63.99
11
154.959
21
-64.0071
0
LINE
8
BLACK
6
CONTINUOUS
10
135.909
20
-64.0071
11
135.982
21
-64.0559
0
LINE
8
BLACK
6
CONTINUOUS
10
135.982
20
-64.0559
11
136.03
21
-64.1289
0
LINE
8
BLACK
6
CONTINUOUS
10
136.03
20
-64.1289
11
136.047
21
-64.215
0
LINE
8
BLACK
6
CONTINUOUS
10
136.047
20
-64.215
11
136.047
21
-64.665
0
LINE
8
BLACK
6
CONTINUOUS
10
136.047
20
-64.665
11
136.03
21
-64.7511
0
LINE
8
BLACK
6
CONTINUOUS
10
136.03
20
-64.7511
11
135.982
21
-64.8241
0
LINE
8
BLACK
6
CONTINUOUS
10
135.982
20
-64.8241
11
135.909
21
-64.8729
0
LINE
8
BLACK
6
CONTINUOUS
10
135.909
20
-64.8729
11
135.822
21
-64.89
0
LINE
8
BLACK
6
CONTINUOUS
10
135.822
20
-64.89
11
135.072
21
-64.89
0
LINE
8
BLACK
6
CONTINUOUS
10
135.072
20
-64.89
11
134.986
21
-64.8729
0
LINE
8
BLACK
6
CONTINUOUS
10
134.986
20
-64.8729
11
134.913
21
-64.8241
0
LINE
8
BLACK
6
CONTINUOUS
10
134.913
20
-64.8241
11
134.865
21
-64.7511
0
LINE
8
BLACK
6
CONTINUOUS
10
134.865
20
-64.7511
11
134.847
21
-64.665
0
LINE
8
BLACK
6
CONTINUOUS
10
134.847
20
-64.665
11
134.847
21
-64.215
0
LINE
8
BLACK
6
CONTINUOUS
10
134.847
20
-64.215
11
134.865
21
-64.1289
0
LINE
8
BLACK
6
CONTINUOUS
10
134.865
20
-64.1289
11
134.913
21
-64.0559
0
LINE
8
BLACK
6
CONTINUOUS
10
134.913
20
-64.0559
11
134.986
21
-64.0071
0
LINE
8
BLACK
6
CONTINUOUS
10
134.986
20
-64.0071
11
135.072
21
-63.99
0
LINE
8
BLACK
6
CONTINUOUS
10
135.072
20
-63.99
11
135.822
21
-63.99
0
LINE
8
BLACK
6
CONTINUOUS
10
135.822
20
-63.99
11
135.909
21
-64.0071
0
LINE
8
BLACK
6
CONTINUOUS
10
116.859
20
-64.0071
11
116.932
21
-64.0559
0
LINE
8
BLACK
6
CONTINUOUS
10
116.932
20
-64.0559
11
116.98
21
-64.1289
0
LINE
8
BLACK
6
CONTINUOUS
10
116.98
20
-64.1289
11
116.997
21
-64.215
0
LINE
8
BLACK
6
CONTINUOUS
10
116.997
20
-64.215
11
116.997
21
-64.665
0
LINE
8
BLACK
6
CONTINUOUS
10
116.997
20
-64.665
11
116.98
21
-64.7511
0
LINE
8
BLACK
6
CONTINUOUS
10
116.98
20
-64.7511
11
116.932
21
-64.8241
0
LINE
8
BLACK
6
CONTINUOUS
10
116.932
20
-64.8241
11
116.859
21
-64.8729
0
LINE
8
BLACK
6
CONTINUOUS
10
116.859
20
-64.8729
11
116.772
21
-64.89
0
LINE
8
BLACK
6
CONTINUOUS
10
116.772
20
-64.89
11
116.022
21
-64.89
0
LINE
8
BLACK
6
CONTINUOUS
10
116.022
20
-64.89
11
115.936
21
-64.8729
0
LINE
8
BLACK
6
CONTINUOUS
10
115.936
20
-64.8729
11
115.863
21
-64.8241
0
LINE
8
BLACK
6
CONTINUOUS
10
115.863
20
-64.8241
11
115.815
21
-64.7511
0
LINE
8
BLACK
6
CONTINUOUS
10
115.815
20
-64.7511
11
115.797
21
-64.665
0
LINE
8
BLACK
6
CONTINUOUS
10
115.797
20
-64.665
11
115.797
21
-64.215
0
LINE
8
BLACK
6
CONTINUOUS
10
115.797
20
-64.215
11
115.815
21
-64.1289
0
LINE
8
BLACK
6
CONTINUOUS
10
115.815
20
-64.1289
11
115.863
21
-64.0559
0
LINE
8
BLACK
6
CONTINUOUS
10
115.863
20
-64.0559
11
115.936
21
-64.0071
0
LINE
8
BLACK
6
CONTINUOUS
10
115.936
20
-64.0071
11
116.022
21
-63.99
0
LINE
8
BLACK
6
CONTINUOUS
10
116.022
20
-63.99
11
116.772
21
-63.99
0
LINE
8
BLACK
6
CONTINUOUS
10
116.772
20
-63.99
11
116.859
21
-64.0071
0
LINE
8
BLACK
6
CONTINUOUS
10
95.4274
20
-64.0071
11
95.5003
21
-64.0559
0
LINE
8
BLACK
6
CONTINUOUS
10
95.5003
20
-64.0559
11
95.5491
21
-64.1289
0
LINE
8
BLACK
6
CONTINUOUS
10
95.5491
20
-64.1289
11
95.5662
21
-64.215
0
LINE
8
BLACK
6
CONTINUOUS
10
95.5662
20
-64.215
11
95.5662
21
-64.665
0
LINE
8
BLACK
6
CONTINUOUS
10
95.5662
20
-64.665
11
95.5491
21
-64.7511
0
LINE
8
BLACK
6
CONTINUOUS
10
95.5491
20
-64.7511
11
95.5003
21
-64.8241
0
LINE
8
BLACK
6
CONTINUOUS
10
95.5003
20
-64.8241
11
95.4274
21
-64.8729
0
LINE
8
BLACK
6
CONTINUOUS
10
95.4274
20
-64.8729
11
95.3413
21
-64.89
0
LINE
8
BLACK
6
CONTINUOUS
10
95.3413
20
-64.89
11
94.5913
21
-64.89
0
LINE
8
BLACK
6
CONTINUOUS
10
94.5913
20
-64.89
11
94.5051
21
-64.8729
0
LINE
8
BLACK
6
CONTINUOUS
10
94.5051
20
-64.8729
11
94.4322
21
-64.8241
0
LINE
8
BLACK
6
CONTINUOUS
10
94.4322
20
-64.8241
11
94.3834
21
-64.7511
0
LINE
8
BLACK
6
CONTINUOUS
10
94.3834
20
-64.7511
11
94.3662
21
-64.665
0
LINE
8
BLACK
6
CONTINUOUS
10
94.3662
20
-64.665
11
94.3662
21
-64.215
0
LINE
8
BLACK
6
CONTINUOUS
10
94.3662
20
-64.215
11
94.3834
21
-64.1289
0
LINE
8
BLACK
6
CONTINUOUS
10
94.3834
20
-64.1289
11
94.4322
21
-64.0559
0
LINE
8
BLACK
6
CONTINUOUS
10
94.4322
20
-64.0559
11
94.5051
21
-64.0071
0
LINE
8
BLACK
6
CONTINUOUS
10
94.5051
20
-64.0071
11
94.5913
21
-63.99
0
LINE
8
BLACK
6
CONTINUOUS
10
94.5913
20
-63.99
11
95.3413
21
-63.99
0
LINE
8
BLACK
6
CONTINUOUS
10
95.3413
20
-63.99
11
95.4274
21
-64.0071
0
LINE
8
BLACK
6
CONTINUOUS
10
193.059
20
-60.7071
11
193.132
21
-60.7559
0
LINE
8
BLACK
6
CONTINUOUS
10
193.132
20
-60.7559
11
193.18
21
-60.8289
0
LINE
8
BLACK
6
CONTINUOUS
10
193.18
20
-60.8289
11
193.197
21
-60.915
0
LINE
8
BLACK
6
CONTINUOUS
10
193.197
20
-60.915
11
193.197
21
-61.365
0
LINE
8
BLACK
6
CONTINUOUS
10
193.197
20
-61.365
11
193.18
21
-61.4511
0
LINE
8
BLACK
6
CONTINUOUS
10
193.18
20
-61.4511
11
193.132
21
-61.5241
0
LINE
8
BLACK
6
CONTINUOUS
10
193.132
20
-61.5241
11
193.059
21
-61.5729
0
LINE
8
BLACK
6
CONTINUOUS
10
193.059
20
-61.5729
11
192.972
21
-61.59
0
LINE
8
BLACK
6
CONTINUOUS
10
192.972
20
-61.59
11
192.222
21
-61.59
0
LINE
8
BLACK
6
CONTINUOUS
10
192.222
20
-61.59
11
192.136
21
-61.5729
0
LINE
8
BLACK
6
CONTINUOUS
10
192.136
20
-61.5729
11
192.063
21
-61.5241
0
LINE
8
BLACK
6
CONTINUOUS
10
192.063
20
-61.5241
11
192.015
21
-61.4511
0
LINE
8
BLACK
6
CONTINUOUS
10
192.015
20
-61.4511
11
191.998
21
-61.365
0
LINE
8
BLACK
6
CONTINUOUS
10
191.998
20
-61.365
11
191.998
21
-60.915
0
LINE
8
BLACK
6
CONTINUOUS
10
191.998
20
-60.915
11
192.015
21
-60.8289
0
LINE
8
BLACK
6
CONTINUOUS
10
192.015
20
-60.8289
11
192.063
21
-60.7559
0
LINE
8
BLACK
6
CONTINUOUS
10
192.063
20
-60.7559
11
192.136
21
-60.7071
0
LINE
8
BLACK
6
CONTINUOUS
10
192.136
20
-60.7071
11
192.222
21
-60.69
0
LINE
8
BLACK
6
CONTINUOUS
10
192.222
20
-60.69
11
192.972
21
-60.69
0
LINE
8
BLACK
6
CONTINUOUS
10
192.972
20
-60.69
11
193.059
21
-60.7071
0
LINE
8
BLACK
6
CONTINUOUS
10
174.009
20
-60.7071
11
174.082
21
-60.7559
0
LINE
8
BLACK
6
CONTINUOUS
10
174.082
20
-60.7559
11
174.13
21
-60.8289
0
LINE
8
BLACK
6
CONTINUOUS
10
174.13
20
-60.8289
11
174.147
21
-60.915
0
LINE
8
BLACK
6
CONTINUOUS
10
174.147
20
-60.915
11
174.147
21
-61.365
0
LINE
8
BLACK
6
CONTINUOUS
10
174.147
20
-61.365
11
174.13
21
-61.4511
0
LINE
8
BLACK
6
CONTINUOUS
10
174.13
20
-61.4511
11
174.082
21
-61.5241
0
LINE
8
BLACK
6
CONTINUOUS
10
174.082
20
-61.5241
11
174.009
21
-61.5729
0
LINE
8
BLACK
6
CONTINUOUS
10
174.009
20
-61.5729
11
173.922
21
-61.59
0
LINE
8
BLACK
6
CONTINUOUS
10
173.922
20
-61.59
11
173.172
21
-61.59
0
LINE
8
BLACK
6
CONTINUOUS
10
173.172
20
-61.59
11
173.086
21
-61.5729
0
LINE
8
BLACK
6
CONTINUOUS
10
173.086
20
-61.5729
11
173.013
21
-61.5241
0
LINE
8
BLACK
6
CONTINUOUS
10
173.013
20
-61.5241
11
172.965
21
-61.4511
0
LINE
8
BLACK
6
CONTINUOUS
10
172.965
20
-61.4511
11
172.947
21
-61.365
0
LINE
8
BLACK
6
CONTINUOUS
10
172.947
20
-61.365
11
172.947
21
-60.915
0
LINE
8
BLACK
6
CONTINUOUS
10
172.947
20
-60.915
11
172.965
21
-60.8289
0
LINE
8
BLACK
6
CONTINUOUS
10
172.965
20
-60.8289
11
173.013
21
-60.7559
0
LINE
8
BLACK
6
CONTINUOUS
10
173.013
20
-60.7559
11
173.086
21
-60.7071
0
LINE
8
BLACK
6
CONTINUOUS
10
173.086
20
-60.7071
11
173.172
21
-60.69
0
LINE
8
BLACK
6
CONTINUOUS
10
173.172
20
-60.69
11
173.922
21
-60.69
0
LINE
8
BLACK
6
CONTINUOUS
10
173.922
20
-60.69
11
174.009
21
-60.7071
0
LINE
8
BLACK
6
CONTINUOUS
10
154.959
20
-60.7071
11
155.032
21
-60.7559
0
LINE
8
BLACK
6
CONTINUOUS
10
155.032
20
-60.7559
11
155.08
21
-60.8289
0
LINE
8
BLACK
6
CONTINUOUS
10
155.08
20
-60.8289
11
155.097
21
-60.915
0
LINE
8
BLACK
6
CONTINUOUS
10
155.097
20
-60.915
11
155.097
21
-61.365
0
LINE
8
BLACK
6
CONTINUOUS
10
155.097
20
-61.365
11
155.08
21
-61.4511
0
LINE
8
BLACK
6
CONTINUOUS
10
155.08
20
-61.4511
11
155.032
21
-61.5241
0
LINE
8
BLACK
6
CONTINUOUS
10
155.032
20
-61.5241
11
154.959
21
-61.5729
0
LINE
8
BLACK
6
CONTINUOUS
10
154.959
20
-61.5729
11
154.873
21
-61.59
0
LINE
8
BLACK
6
CONTINUOUS
10
154.873
20
-61.59
11
154.123
21
-61.59
0
LINE
8
BLACK
6
CONTINUOUS
10
154.123
20
-61.59
11
154.036
21
-61.5729
0
LINE
8
BLACK
6
CONTINUOUS
10
154.036
20
-61.5729
11
153.963
21
-61.5241
0
LINE
8
BLACK
6
CONTINUOUS
10
153.963
20
-61.5241
11
153.915
21
-61.4511
0
LINE
8
BLACK
6
CONTINUOUS
10
153.915
20
-61.4511
11
153.897
21
-61.365
0
LINE
8
BLACK
6
CONTINUOUS
10
153.897
20
-61.365
11
153.897
21
-60.915
0
LINE
8
BLACK
6
CONTINUOUS
10
153.897
20
-60.915
11
153.915
21
-60.8289
0
LINE
8
BLACK
6
CONTINUOUS
10
153.915
20
-60.8289
11
153.963
21
-60.7559
0
LINE
8
BLACK
6
CONTINUOUS
10
153.963
20
-60.7559
11
154.036
21
-60.7071
0
LINE
8
BLACK
6
CONTINUOUS
10
154.036
20
-60.7071
11
154.123
21
-60.69
0
LINE
8
BLACK
6
CONTINUOUS
10
154.123
20
-60.69
11
154.873
21
-60.69
0
LINE
8
BLACK
6
CONTINUOUS
10
154.873
20
-60.69
11
154.959
21
-60.7071
0
LINE
8
BLACK
6
CONTINUOUS
10
135.909
20
-60.7071
11
135.982
21
-60.7559
0
LINE
8
BLACK
6
CONTINUOUS
10
135.982
20
-60.7559
11
136.03
21
-60.8289
0
LINE
8
BLACK
6
CONTINUOUS
10
136.03
20
-60.8289
11
136.047
21
-60.915
0
LINE
8
BLACK
6
CONTINUOUS
10
136.047
20
-60.915
11
136.047
21
-61.365
0
LINE
8
BLACK
6
CONTINUOUS
10
136.047
20
-61.365
11
136.03
21
-61.4511
0
LINE
8
BLACK
6
CONTINUOUS
10
136.03
20
-61.4511
11
135.982
21
-61.5241
0
LINE
8
BLACK
6
CONTINUOUS
10
135.982
20
-61.5241
11
135.909
21
-61.5729
0
LINE
8
BLACK
6
CONTINUOUS
10
135.909
20
-61.5729
11
135.822
21
-61.59
0
LINE
8
BLACK
6
CONTINUOUS
10
135.822
20
-61.59
11
135.072
21
-61.59
0
LINE
8
BLACK
6
CONTINUOUS
10
135.072
20
-61.59
11
134.986
21
-61.5729
0
LINE
8
BLACK
6
CONTINUOUS
10
134.986
20
-61.5729
11
134.913
21
-61.5241
0
LINE
8
BLACK
6
CONTINUOUS
10
134.913
20
-61.5241
11
134.865
21
-61.4511
0
LINE
8
BLACK
6
CONTINUOUS
10
134.865
20
-61.4511
11
134.847
21
-61.365
0
LINE
8
BLACK
6
CONTINUOUS
10
134.847
20
-61.365
11
134.847
21
-60.915
0
LINE
8
BLACK
6
CONTINUOUS
10
134.847
20
-60.915
11
134.865
21
-60.8289
0
LINE
8
BLACK
6
CONTINUOUS
10
134.865
20
-60.8289
11
134.913
21
-60.7559
0
LINE
8
BLACK
6
CONTINUOUS
10
134.913
20
-60.7559
11
134.986
21
-60.7071
0
LINE
8
BLACK
6
CONTINUOUS
10
134.986
20
-60.7071
11
135.072
21
-60.69
0
LINE
8
BLACK
6
CONTINUOUS
10
135.072
20
-60.69
11
135.822
21
-60.69
0
LINE
8
BLACK
6
CONTINUOUS
10
135.822
20
-60.69
11
135.909
21
-60.7071
0
LINE
8
BLACK
6
CONTINUOUS
10
116.859
20
-60.7071
11
116.932
21
-60.7559
0
LINE
8
BLACK
6
CONTINUOUS
10
116.932
20
-60.7559
11
116.98
21
-60.8289
0
LINE
8
BLACK
6
CONTINUOUS
10
116.98
20
-60.8289
11
116.997
21
-60.915
0
LINE
8
BLACK
6
CONTINUOUS
10
116.997
20
-60.915
11
116.997
21
-61.365
0
LINE
8
BLACK
6
CONTINUOUS
10
116.997
20
-61.365
11
116.98
21
-61.4511
0
LINE
8
BLACK
6
CONTINUOUS
10
116.98
20
-61.4511
11
116.932
21
-61.5241
0
LINE
8
BLACK
6
CONTINUOUS
10
116.932
20
-61.5241
11
116.859
21
-61.5729
0
LINE
8
BLACK
6
CONTINUOUS
10
116.859
20
-61.5729
11
116.772
21
-61.59
0
LINE
8
BLACK
6
CONTINUOUS
10
116.772
20
-61.59
11
116.022
21
-61.59
0
LINE
8
BLACK
6
CONTINUOUS
10
116.022
20
-61.59
11
115.936
21
-61.5729
0
LINE
8
BLACK
6
CONTINUOUS
10
115.936
20
-61.5729
11
115.863
21
-61.5241
0
LINE
8
BLACK
6
CONTINUOUS
10
115.863
20
-61.5241
11
115.815
21
-61.4511
0
LINE
8
BLACK
6
CONTINUOUS
10
115.815
20
-61.4511
11
115.797
21
-61.365
0
LINE
8
BLACK
6
CONTINUOUS
10
115.797
20
-61.365
11
115.797
21
-60.915
0
LINE
8
BLACK
6
CONTINUOUS
10
115.797
20
-60.915
11
115.815
21
-60.8289
0
LINE
8
BLACK
6
CONTINUOUS
10
115.815
20
-60.8289
11
115.863
21
-60.7559
0
LINE
8
BLACK
6
CONTINUOUS
10
115.863
20
-60.7559
11
115.936
21
-60.7071
0
LINE
8
BLACK
6
CONTINUOUS
10
115.936
20
-60.7071
11
116.022
21
-60.69
0
LINE
8
BLACK
6
CONTINUOUS
10
116.022
20
-60.69
11
116.772
21
-60.69
0
LINE
8
BLACK
6
CONTINUOUS
10
116.772
20
-60.69
11
116.859
21
-60.7071
0
LINE
8
BLACK
6
CONTINUOUS
10
95.4274
20
-60.7071
11
95.5003
21
-60.7559
0
LINE
8
BLACK
6
CONTINUOUS
10
95.5003
20
-60.7559
11
95.5491
21
-60.8289
0
LINE
8
BLACK
6
CONTINUOUS
10
95.5491
20
-60.8289
11
95.5662
21
-60.915
0
LINE
8
BLACK
6
CONTINUOUS
10
95.5662
20
-60.915
11
95.5662
21
-61.365
0
LINE
8
BLACK
6
CONTINUOUS
10
95.5662
20
-61.365
11
95.5491
21
-61.4511
0
LINE
8
BLACK
6
CONTINUOUS
10
95.5491
20
-61.4511
11
95.5003
21
-61.5241
0
LINE
8
BLACK
6
CONTINUOUS
10
95.5003
20
-61.5241
11
95.4274
21
-61.5729
0
LINE
8
BLACK
6
CONTINUOUS
10
95.4274
20
-61.5729
11
95.3413
21
-61.59
0
LINE
8
BLACK
6
CONTINUOUS
10
95.3413
20
-61.59
11
94.5913
21
-61.59
0
LINE
8
BLACK
6
CONTINUOUS
10
94.5913
20
-61.59
11
94.5051
21
-61.5729
0
LINE
8
BLACK
6
CONTINUOUS
10
94.5051
20
-61.5729
11
94.4322
21
-61.5241
0
LINE
8
BLACK
6
CONTINUOUS
10
94.4322
20
-61.5241
11
94.3834
21
-61.4511
0
LINE
8
BLACK
6
CONTINUOUS
10
94.3834
20
-61.4511
11
94.3662
21
-61.365
0
LINE
8
BLACK
6
CONTINUOUS
10
94.3662
20
-61.365
11
94.3662
21
-60.915
0
LINE
8
BLACK
6
CONTINUOUS
10
94.3662
20
-60.915
11
94.3834
21
-60.8289
0
LINE
8
BLACK
6
CONTINUOUS
10
94.3834
20
-60.8289
11
94.4322
21
-60.7559
0
LINE
8
BLACK
6
CONTINUOUS
10
94.4322
20
-60.7559
11
94.5051
21
-60.7071
0
LINE
8
BLACK
6
CONTINUOUS
10
94.5051
20
-60.7071
11
94.5913
21
-60.69
0
LINE
8
BLACK
6
CONTINUOUS
10
94.5913
20
-60.69
11
95.3413
21
-60.69
0
LINE
8
BLACK
6
CONTINUOUS
10
95.3413
20
-60.69
11
95.4274
21
-60.7071
0
LINE
8
BLACK
6
CONTINUOUS
10
179.773
20
-53.379
11
179.854
21
-53.4332
0
LINE
8
BLACK
6
CONTINUOUS
10
179.854
20
-53.4332
11
179.908
21
-53.5143
0
LINE
8
BLACK
6
CONTINUOUS
10
179.908
20
-53.5143
11
179.927
21
-53.61
0
LINE
8
BLACK
6
CONTINUOUS
10
179.927
20
-53.61
11
179.927
21
-55.61
0
LINE
8
BLACK
6
CONTINUOUS
10
179.927
20
-55.61
11
179.908
21
-55.7057
0
LINE
8
BLACK
6
CONTINUOUS
10
179.908
20
-55.7057
11
179.854
21
-55.7868
0
LINE
8
BLACK
6
CONTINUOUS
10
179.854
20
-55.7868
11
179.773
21
-55.841
0
LINE
8
BLACK
6
CONTINUOUS
10
179.773
20
-55.841
11
179.677
21
-55.86
0
LINE
8
BLACK
6
CONTINUOUS
10
179.677
20
-55.86
11
177.627
21
-55.86
0
LINE
8
BLACK
6
CONTINUOUS
10
177.627
20
-55.86
11
177.532
21
-55.841
0
LINE
8
BLACK
6
CONTINUOUS
10
177.532
20
-55.841
11
177.451
21
-55.7868
0
LINE
8
BLACK
6
CONTINUOUS
10
177.451
20
-55.7868
11
177.397
21
-55.7057
0
LINE
8
BLACK
6
CONTINUOUS
10
177.397
20
-55.7057
11
177.377
21
-55.61
0
LINE
8
BLACK
6
CONTINUOUS
10
177.377
20
-55.61
11
177.377
21
-53.61
0
LINE
8
BLACK
6
CONTINUOUS
10
177.377
20
-53.61
11
177.397
21
-53.5143
0
LINE
8
BLACK
6
CONTINUOUS
10
177.397
20
-53.5143
11
177.451
21
-53.4332
0
LINE
8
BLACK
6
CONTINUOUS
10
177.451
20
-53.4332
11
177.532
21
-53.379
0
LINE
8
BLACK
6
CONTINUOUS
10
177.532
20
-53.379
11
177.627
21
-53.36
0
LINE
8
BLACK
6
CONTINUOUS
10
177.627
20
-53.36
11
179.677
21
-53.36
0
LINE
8
BLACK
6
CONTINUOUS
10
179.677
20
-53.36
11
179.773
21
-53.379
0
LINE
8
BLACK
6
CONTINUOUS
10
160.723
20
-53.379
11
160.804
21
-53.4332
0
LINE
8
BLACK
6
CONTINUOUS
10
160.804
20
-53.4332
11
160.858
21
-53.5143
0
LINE
8
BLACK
6
CONTINUOUS
10
160.858
20
-53.5143
11
160.877
21
-53.61
0
LINE
8
BLACK
6
CONTINUOUS
10
160.877
20
-53.61
11
160.877
21
-55.61
0
LINE
8
BLACK
6
CONTINUOUS
10
160.877
20
-55.61
11
160.858
21
-55.7057
0
LINE
8
BLACK
6
CONTINUOUS
10
160.858
20
-55.7057
11
160.804
21
-55.7868
0
LINE
8
BLACK
6
CONTINUOUS
10
160.804
20
-55.7868
11
160.723
21
-55.841
0
LINE
8
BLACK
6
CONTINUOUS
10
160.723
20
-55.841
11
160.627
21
-55.86
0
LINE
8
BLACK
6
CONTINUOUS
10
160.627
20
-55.86
11
158.577
21
-55.86
0
LINE
8
BLACK
6
CONTINUOUS
10
158.577
20
-55.86
11
158.482
21
-55.841
0
LINE
8
BLACK
6
CONTINUOUS
10
158.482
20
-55.841
11
158.401
21
-55.7868
0
LINE
8
BLACK
6
CONTINUOUS
10
158.401
20
-55.7868
11
158.347
21
-55.7057
0
LINE
8
BLACK
6
CONTINUOUS
10
158.347
20
-55.7057
11
158.327
21
-55.61
0
LINE
8
BLACK
6
CONTINUOUS
10
158.327
20
-55.61
11
158.327
21
-53.61
0
LINE
8
BLACK
6
CONTINUOUS
10
158.327
20
-53.61
11
158.347
21
-53.5143
0
LINE
8
BLACK
6
CONTINUOUS
10
158.347
20
-53.5143
11
158.401
21
-53.4332
0
LINE
8
BLACK
6
CONTINUOUS
10
158.401
20
-53.4332
11
158.482
21
-53.379
0
LINE
8
BLACK
6
CONTINUOUS
10
158.482
20
-53.379
11
158.577
21
-53.36
0
LINE
8
BLACK
6
CONTINUOUS
10
158.577
20
-53.36
11
160.627
21
-53.36
0
LINE
8
BLACK
6
CONTINUOUS
10
160.627
20
-53.36
11
160.723
21
-53.379
0
LINE
8
BLACK
6
CONTINUOUS
10
141.673
20
-53.379
11
141.754
21
-53.4332
0
LINE
8
BLACK
6
CONTINUOUS
10
141.754
20
-53.4332
11
141.808
21
-53.5143
0
LINE
8
BLACK
6
CONTINUOUS
10
141.808
20
-53.5143
11
141.827
21
-53.61
0
LINE
8
BLACK
6
CONTINUOUS
10
141.827
20
-53.61
11
141.827
21
-55.61
0
LINE
8
BLACK
6
CONTINUOUS
10
141.827
20
-55.61
11
141.808
21
-55.7057
0
LINE
8
BLACK
6
CONTINUOUS
10
141.808
20
-55.7057
11
141.754
21
-55.7868
0
LINE
8
BLACK
6
CONTINUOUS
10
141.754
20
-55.7868
11
141.673
21
-55.841
0
LINE
8
BLACK
6
CONTINUOUS
10
141.673
20
-55.841
11
141.577
21
-55.86
0
LINE
8
BLACK
6
CONTINUOUS
10
141.577
20
-55.86
11
139.528
21
-55.86
0
LINE
8
BLACK
6
CONTINUOUS
10
139.528
20
-55.86
11
139.432
21
-55.841
0
LINE
8
BLACK
6
CONTINUOUS
10
139.432
20
-55.841
11
139.351
21
-55.7868
0
LINE
8
BLACK
6
CONTINUOUS
10
139.351
20
-55.7868
11
139.297
21
-55.7057
0
LINE
8
BLACK
6
CONTINUOUS
10
139.297
20
-55.7057
11
139.278
21
-55.61
0
LINE
8
BLACK
6
CONTINUOUS
10
139.278
20
-55.61
11
139.278
21
-53.61
0
LINE
8
BLACK
6
CONTINUOUS
10
139.278
20
-53.61
11
139.297
21
-53.5143
0
LINE
8
BLACK
6
CONTINUOUS
10
139.297
20
-53.5143
11
139.351
21
-53.4332
0
LINE
8
BLACK
6
CONTINUOUS
10
139.351
20
-53.4332
11
139.432
21
-53.379
0
LINE
8
BLACK
6
CONTINUOUS
10
139.432
20
-53.379
11
139.528
21
-53.36
0
LINE
8
BLACK
6
CONTINUOUS
10
139.528
20
-53.36
11
141.577
21
-53.36
0
LINE
8
BLACK
6
CONTINUOUS
10
141.577
20
-53.36
11
141.673
21
-53.379
0
LINE
8
BLACK
6
CONTINUOUS
10
122.623
20
-53.379
11
122.704
21
-53.4332
0
LINE
8
BLACK
6
CONTINUOUS
10
122.704
20
-53.4332
11
122.758
21
-53.5143
0
LINE
8
BLACK
6
CONTINUOUS
10
122.758
20
-53.5143
11
122.777
21
-53.61
0
LINE
8
BLACK
6
CONTINUOUS
10
122.777
20
-53.61
11
122.777
21
-55.61
0
LINE
8
BLACK
6
CONTINUOUS
10
122.777
20
-55.61
11
122.758
21
-55.7057
0
LINE
8
BLACK
6
CONTINUOUS
10
122.758
20
-55.7057
11
122.704
21
-55.7868
0
LINE
8
BLACK
6
CONTINUOUS
10
122.704
20
-55.7868
11
122.623
21
-55.841
0
LINE
8
BLACK
6
CONTINUOUS
10
122.623
20
-55.841
11
122.527
21
-55.86
0
LINE
8
BLACK
6
CONTINUOUS
10
122.527
20
-55.86
11
120.477
21
-55.86
0
LINE
8
BLACK
6
CONTINUOUS
10
120.477
20
-55.86
11
120.382
21
-55.841
0
LINE
8
BLACK
6
CONTINUOUS
10
120.382
20
-55.841
11
120.301
21
-55.7868
0
LINE
8
BLACK
6
CONTINUOUS
10
120.301
20
-55.7868
11
120.247
21
-55.7057
0
LINE
8
BLACK
6
CONTINUOUS
10
120.247
20
-55.7057
11
120.227
21
-55.61
0
LINE
8
BLACK
6
CONTINUOUS
10
120.227
20
-55.61
11
120.227
21
-53.61
0
LINE
8
BLACK
6
CONTINUOUS
10
120.227
20
-53.61
11
120.247
21
-53.5143
0
LINE
8
BLACK
6
CONTINUOUS
10
120.247
20
-53.5143
11
120.301
21
-53.4332
0
LINE
8
BLACK
6
CONTINUOUS
10
120.301
20
-53.4332
11
120.382
21
-53.379
0
LINE
8
BLACK
6
CONTINUOUS
10
120.382
20
-53.379
11
120.477
21
-53.36
0
LINE
8
BLACK
6
CONTINUOUS
10
120.477
20
-53.36
11
122.527
21
-53.36
0
LINE
8
BLACK
6
CONTINUOUS
10
122.527
20
-53.36
11
122.623
21
-53.379
0
LINE
8
BLACK
6
CONTINUOUS
10
103.573
20
-53.379
11
103.654
21
-53.4332
0
LINE
8
BLACK
6
CONTINUOUS
10
103.654
20
-53.4332
11
103.708
21
-53.5143
0
LINE
8
BLACK
6
CONTINUOUS
10
103.708
20
-53.5143
11
103.727
21
-53.61
0
LINE
8
BLACK
6
CONTINUOUS
10
103.727
20
-53.61
11
103.727
21
-55.61
0
LINE
8
BLACK
6
CONTINUOUS
10
103.727
20
-55.61
11
103.708
21
-55.7057
0
LINE
8
BLACK
6
CONTINUOUS
10
103.708
20
-55.7057
11
103.654
21
-55.7868
0
LINE
8
BLACK
6
CONTINUOUS
10
103.654
20
-55.7868
11
103.573
21
-55.841
0
LINE
8
BLACK
6
CONTINUOUS
10
103.573
20
-55.841
11
103.477
21
-55.86
0
LINE
8
BLACK
6
CONTINUOUS
10
103.477
20
-55.86
11
101.427
21
-55.86
0
LINE
8
BLACK
6
CONTINUOUS
10
101.427
20
-55.86
11
101.332
21
-55.841
0
LINE
8
BLACK
6
CONTINUOUS
10
101.332
20
-55.841
11
101.251
21
-55.7868
0
LINE
8
BLACK
6
CONTINUOUS
10
101.251
20
-55.7868
11
101.197
21
-55.7057
0
LINE
8
BLACK
6
CONTINUOUS
10
101.197
20
-55.7057
11
101.177
21
-55.61
0
LINE
8
BLACK
6
CONTINUOUS
10
101.177
20
-55.61
11
101.177
21
-53.61
0
LINE
8
BLACK
6
CONTINUOUS
10
101.177
20
-53.61
11
101.197
21
-53.5143
0
LINE
8
BLACK
6
CONTINUOUS
10
101.197
20
-53.5143
11
101.251
21
-53.4332
0
LINE
8
BLACK
6
CONTINUOUS
10
101.251
20
-53.4332
11
101.332
21
-53.379
0
LINE
8
BLACK
6
CONTINUOUS
10
101.332
20
-53.379
11
101.427
21
-53.36
0
LINE
8
BLACK
6
CONTINUOUS
10
101.427
20
-53.36
11
103.477
21
-53.36
0
LINE
8
BLACK
6
CONTINUOUS
10
103.477
20
-53.36
11
103.573
21
-53.379
0
LINE
8
BLACK
6
CONTINUOUS
10
82.1419
20
-53.379
11
82.223
21
-53.4332
0
LINE
8
BLACK
6
CONTINUOUS
10
82.223
20
-53.4332
11
82.2772
21
-53.5143
0
LINE
8
BLACK
6
CONTINUOUS
10
82.2772
20
-53.5143
11
82.2963
21
-53.61
0
LINE
8
BLACK
6
CONTINUOUS
10
82.2963
20
-53.61
11
82.2963
21
-55.61
0
LINE
8
BLACK
6
CONTINUOUS
10
82.2963
20
-55.61
11
82.2772
21
-55.7057
0
LINE
8
BLACK
6
CONTINUOUS
10
82.2772
20
-55.7057
11
82.223
21
-55.7868
0
LINE
8
BLACK
6
CONTINUOUS
10
82.223
20
-55.7868
11
82.1419
21
-55.841
0
LINE
8
BLACK
6
CONTINUOUS
10
82.1419
20
-55.841
11
82.0463
21
-55.86
0
LINE
8
BLACK
6
CONTINUOUS
10
82.0463
20
-55.86
11
79.9963
21
-55.86
0
LINE
8
BLACK
6
CONTINUOUS
10
79.9963
20
-55.86
11
79.9006
21
-55.841
0
LINE
8
BLACK
6
CONTINUOUS
10
79.9006
20
-55.841
11
79.8195
21
-55.7868
0
LINE
8
BLACK
6
CONTINUOUS
10
79.8195
20
-55.7868
11
79.7653
21
-55.7057
0
LINE
8
BLACK
6
CONTINUOUS
10
79.7653
20
-55.7057
11
79.7463
21
-55.61
0
LINE
8
BLACK
6
CONTINUOUS
10
79.7463
20
-55.61
11
79.7463
21
-53.61
0
LINE
8
BLACK
6
CONTINUOUS
10
79.7463
20
-53.61
11
79.7653
21
-53.5143
0
LINE
8
BLACK
6
CONTINUOUS
10
79.7653
20
-53.5143
11
79.8195
21
-53.4332
0
LINE
8
BLACK
6
CONTINUOUS
10
79.8195
20
-53.4332
11
79.9006
21
-53.379
0
LINE
8
BLACK
6
CONTINUOUS
10
79.9006
20
-53.379
11
79.9963
21
-53.36
0
LINE
8
BLACK
6
CONTINUOUS
10
79.9963
20
-53.36
11
82.0463
21
-53.36
0
LINE
8
BLACK
6
CONTINUOUS
10
82.0463
20
-53.36
11
82.1419
21
-53.379
0
LINE
8
BLACK
6
CONTINUOUS
10
192.7
20
-50.839
11
192.781
21
-50.8932
0
LINE
8
BLACK
6
CONTINUOUS
10
192.781
20
-50.8932
11
192.835
21
-50.9743
0
LINE
8
BLACK
6
CONTINUOUS
10
192.835
20
-50.9743
11
192.855
21
-51.07
0
LINE
8
BLACK
6
CONTINUOUS
10
192.855
20
-51.07
11
192.855
21
-53.07
0
LINE
8
BLACK
6
CONTINUOUS
10
192.855
20
-53.07
11
192.835
21
-53.1657
0
LINE
8
BLACK
6
CONTINUOUS
10
192.835
20
-53.1657
11
192.781
21
-53.2468
0
LINE
8
BLACK
6
CONTINUOUS
10
192.781
20
-53.2468
11
192.7
21
-53.301
0
LINE
8
BLACK
6
CONTINUOUS
10
192.7
20
-53.301
11
192.605
21
-53.32
0
LINE
8
BLACK
6
CONTINUOUS
10
192.605
20
-53.32
11
190.554
21
-53.32
0
LINE
8
BLACK
6
CONTINUOUS
10
190.554
20
-53.32
11
190.459
21
-53.301
0
LINE
8
BLACK
6
CONTINUOUS
10
190.459
20
-53.301
11
190.378
21
-53.2468
0
LINE
8
BLACK
6
CONTINUOUS
10
190.378
20
-53.2468
11
190.324
21
-53.1657
0
LINE
8
BLACK
6
CONTINUOUS
10
190.324
20
-53.1657
11
190.304
21
-53.07
0
LINE
8
BLACK
6
CONTINUOUS
10
190.304
20
-53.07
11
190.304
21
-51.07
0
LINE
8
BLACK
6
CONTINUOUS
10
190.304
20
-51.07
11
190.324
21
-50.9743
0
LINE
8
BLACK
6
CONTINUOUS
10
190.324
20
-50.9743
11
190.378
21
-50.8932
0
LINE
8
BLACK
6
CONTINUOUS
10
190.378
20
-50.8932
11
190.459
21
-50.839
0
LINE
8
BLACK
6
CONTINUOUS
10
190.459
20
-50.839
11
190.554
21
-50.82
0
LINE
8
BLACK
6
CONTINUOUS
10
190.554
20
-50.82
11
192.605
21
-50.82
0
LINE
8
BLACK
6
CONTINUOUS
10
192.605
20
-50.82
11
192.7
21
-50.839
0
LINE
8
BLACK
6
CONTINUOUS
10
173.65
20
-50.839
11
173.731
21
-50.8932
0
LINE
8
BLACK
6
CONTINUOUS
10
173.731
20
-50.8932
11
173.785
21
-50.9743
0
LINE
8
BLACK
6
CONTINUOUS
10
173.785
20
-50.9743
11
173.804
21
-51.07
0
LINE
8
BLACK
6
CONTINUOUS
10
173.804
20
-51.07
11
173.804
21
-53.07
0
LINE
8
BLACK
6
CONTINUOUS
10
173.804
20
-53.07
11
173.785
21
-53.1657
0
LINE
8
BLACK
6
CONTINUOUS
10
173.785
20
-53.1657
11
173.731
21
-53.2468
0
LINE
8
BLACK
6
CONTINUOUS
10
173.731
20
-53.2468
11
173.65
21
-53.301
0
LINE
8
BLACK
6
CONTINUOUS
10
173.65
20
-53.301
11
173.554
21
-53.32
0
LINE
8
BLACK
6
CONTINUOUS
10
173.554
20
-53.32
11
171.504
21
-53.32
0
LINE
8
BLACK
6
CONTINUOUS
10
171.504
20
-53.32
11
171.409
21
-53.301
0
LINE
8
BLACK
6
CONTINUOUS
10
171.409
20
-53.301
11
171.328
21
-53.2468
0
LINE
8
BLACK
6
CONTINUOUS
10
171.328
20
-53.2468
11
171.274
21
-53.1657
0
LINE
8
BLACK
6
CONTINUOUS
10
171.274
20
-53.1657
11
171.254
21
-53.07
0
LINE
8
BLACK
6
CONTINUOUS
10
171.254
20
-53.07
11
171.254
21
-51.07
0
LINE
8
BLACK
6
CONTINUOUS
10
171.254
20
-51.07
11
171.274
21
-50.9743
0
LINE
8
BLACK
6
CONTINUOUS
10
171.274
20
-50.9743
11
171.328
21
-50.8932
0
LINE
8
BLACK
6
CONTINUOUS
10
171.328
20
-50.8932
11
171.409
21
-50.839
0
LINE
8
BLACK
6
CONTINUOUS
10
171.409
20
-50.839
11
171.504
21
-50.82
0
LINE
8
BLACK
6
CONTINUOUS
10
171.504
20
-50.82
11
173.554
21
-50.82
0
LINE
8
BLACK
6
CONTINUOUS
10
173.554
20
-50.82
11
173.65
21
-50.839
0
LINE
8
BLACK
6
CONTINUOUS
10
154.6
20
-50.839
11
154.681
21
-50.8932
0
LINE
8
BLACK
6
CONTINUOUS
10
154.681
20
-50.8932
11
154.735
21
-50.9743
0
LINE
8
BLACK
6
CONTINUOUS
10
154.735
20
-50.9743
11
154.754
21
-51.07
0
LINE
8
BLACK
6
CONTINUOUS
10
154.754
20
-51.07
11
154.754
21
-53.07
0
LINE
8
BLACK
6
CONTINUOUS
10
154.754
20
-53.07
11
154.735
21
-53.1657
0
LINE
8
BLACK
6
CONTINUOUS
10
154.735
20
-53.1657
11
154.681
21
-53.2468
0
LINE
8
BLACK
6
CONTINUOUS
10
154.681
20
-53.2468
11
154.6
21
-53.301
0
LINE
8
BLACK
6
CONTINUOUS
10
154.6
20
-53.301
11
154.504
21
-53.32
0
LINE
8
BLACK
6
CONTINUOUS
10
154.504
20
-53.32
11
152.454
21
-53.32
0
LINE
8
BLACK
6
CONTINUOUS
10
152.454
20
-53.32
11
152.359
21
-53.301
0
LINE
8
BLACK
6
CONTINUOUS
10
152.359
20
-53.301
11
152.278
21
-53.2468
0
LINE
8
BLACK
6
CONTINUOUS
10
152.278
20
-53.2468
11
152.224
21
-53.1657
0
LINE
8
BLACK
6
CONTINUOUS
10
152.224
20
-53.1657
11
152.204
21
-53.07
0
LINE
8
BLACK
6
CONTINUOUS
10
152.204
20
-53.07
11
152.204
21
-51.07
0
LINE
8
BLACK
6
CONTINUOUS
10
152.204
20
-51.07
11
152.224
21
-50.9743
0
LINE
8
BLACK
6
CONTINUOUS
10
152.224
20
-50.9743
11
152.278
21
-50.8932
0
LINE
8
BLACK
6
CONTINUOUS
10
152.278
20
-50.8932
11
152.359
21
-50.839
0
LINE
8
BLACK
6
CONTINUOUS
10
152.359
20
-50.839
11
152.454
21
-50.82
0
LINE
8
BLACK
6
CONTINUOUS
10
152.454
20
-50.82
11
154.504
21
-50.82
0
LINE
8
BLACK
6
CONTINUOUS
10
154.504
20
-50.82
11
154.6
21
-50.839
0
LINE
8
BLACK
6
CONTINUOUS
10
135.55
20
-50.839
11
135.631
21
-50.8932
0
LINE
8
BLACK
6
CONTINUOUS
10
135.631
20
-50.8932
11
135.685
21
-50.9743
0
LINE
8
BLACK
6
CONTINUOUS
10
135.685
20
-50.9743
11
135.704
21
-51.07
0
LINE
8
BLACK
6
CONTINUOUS
10
135.704
20
-51.07
11
135.704
21
-53.07
0
LINE
8
BLACK
6
CONTINUOUS
10
135.704
20
-53.07
11
135.685
21
-53.1657
0
LINE
8
BLACK
6
CONTINUOUS
10
135.685
20
-53.1657
11
135.631
21
-53.2468
0
LINE
8
BLACK
6
CONTINUOUS
10
135.631
20
-53.2468
11
135.55
21
-53.301
0
LINE
8
BLACK
6
CONTINUOUS
10
135.55
20
-53.301
11
135.454
21
-53.32
0
LINE
8
BLACK
6
CONTINUOUS
10
135.454
20
-53.32
11
133.404
21
-53.32
0
LINE
8
BLACK
6
CONTINUOUS
10
133.404
20
-53.32
11
133.309
21
-53.301
0
LINE
8
BLACK
6
CONTINUOUS
10
133.309
20
-53.301
11
133.228
21
-53.2468
0
LINE
8
BLACK
6
CONTINUOUS
10
133.228
20
-53.2468
11
133.174
21
-53.1657
0
LINE
8
BLACK
6
CONTINUOUS
10
133.174
20
-53.1657
11
133.154
21
-53.07
0
LINE
8
BLACK
6
CONTINUOUS
10
133.154
20
-53.07
11
133.154
21
-51.07
0
LINE
8
BLACK
6
CONTINUOUS
10
133.154
20
-51.07
11
133.174
21
-50.9743
0
LINE
8
BLACK
6
CONTINUOUS
10
133.174
20
-50.9743
11
133.228
21
-50.8932
0
LINE
8
BLACK
6
CONTINUOUS
10
133.228
20
-50.8932
11
133.309
21
-50.839
0
LINE
8
BLACK
6
CONTINUOUS
10
133.309
20
-50.839
11
133.404
21
-50.82
0
LINE
8
BLACK
6
CONTINUOUS
10
133.404
20
-50.82
11
135.454
21
-50.82
0
LINE
8
BLACK
6
CONTINUOUS
10
135.454
20
-50.82
11
135.55
21
-50.839
0
LINE
8
BLACK
6
CONTINUOUS
10
116.5
20
-50.839
11
116.581
21
-50.8932
0
LINE
8
BLACK
6
CONTINUOUS
10
116.581
20
-50.8932
11
116.635
21
-50.9743
0
LINE
8
BLACK
6
CONTINUOUS
10
116.635
20
-50.9743
11
116.654
21
-51.07
0
LINE
8
BLACK
6
CONTINUOUS
10
116.654
20
-51.07
11
116.654
21
-53.07
0
LINE
8
BLACK
6
CONTINUOUS
10
116.654
20
-53.07
11
116.635
21
-53.1657
0
LINE
8
BLACK
6
CONTINUOUS
10
116.635
20
-53.1657
11
116.581
21
-53.2468
0
LINE
8
BLACK
6
CONTINUOUS
10
116.581
20
-53.2468
11
116.5
21
-53.301
0
LINE
8
BLACK
6
CONTINUOUS
10
116.5
20
-53.301
11
116.404
21
-53.32
0
LINE
8
BLACK
6
CONTINUOUS
10
116.404
20
-53.32
11
114.355
21
-53.32
0
LINE
8
BLACK
6
CONTINUOUS
10
114.355
20
-53.32
11
114.259
21
-53.301
0
LINE
8
BLACK
6
CONTINUOUS
10
114.259
20
-53.301
11
114.178
21
-53.2468
0
LINE
8
BLACK
6
CONTINUOUS
10
114.178
20
-53.2468
11
114.124
21
-53.1657
0
LINE
8
BLACK
6
CONTINUOUS
10
114.124
20
-53.1657
11
114.105
21
-53.07
0
LINE
8
BLACK
6
CONTINUOUS
10
114.105
20
-53.07
11
114.105
21
-51.07
0
LINE
8
BLACK
6
CONTINUOUS
10
114.105
20
-51.07
11
114.124
21
-50.9743
0
LINE
8
BLACK
6
CONTINUOUS
10
114.124
20
-50.9743
11
114.178
21
-50.8932
0
LINE
8
BLACK
6
CONTINUOUS
10
114.178
20
-50.8932
11
114.259
21
-50.839
0
LINE
8
BLACK
6
CONTINUOUS
10
114.259
20
-50.839
11
114.355
21
-50.82
0
LINE
8
BLACK
6
CONTINUOUS
10
114.355
20
-50.82
11
116.404
21
-50.82
0
LINE
8
BLACK
6
CONTINUOUS
10
116.404
20
-50.82
11
116.5
21
-50.839
0
LINE
8
BLACK
6
CONTINUOUS
10
95.0689
20
-50.839
11
95.15
21
-50.8932
0
LINE
8
BLACK
6
CONTINUOUS
10
95.15
20
-50.8932
11
95.2042
21
-50.9743
0
LINE
8
BLACK
6
CONTINUOUS
10
95.2042
20
-50.9743
11
95.2232
21
-51.07
0
LINE
8
BLACK
6
CONTINUOUS
10
95.2232
20
-51.07
11
95.2232
21
-53.07
0
LINE
8
BLACK
6
CONTINUOUS
10
95.2232
20
-53.07
11
95.2042
21
-53.1657
0
LINE
8
BLACK
6
CONTINUOUS
10
95.2042
20
-53.1657
11
95.15
21
-53.2468
0
LINE
8
BLACK
6
CONTINUOUS
10
95.15
20
-53.2468
11
95.0689
21
-53.301
0
LINE
8
BLACK
6
CONTINUOUS
10
95.0689
20
-53.301
11
94.9732
21
-53.32
0
LINE
8
BLACK
6
CONTINUOUS
10
94.9732
20
-53.32
11
92.9232
21
-53.32
0
LINE
8
BLACK
6
CONTINUOUS
10
92.9232
20
-53.32
11
92.8276
21
-53.301
0
LINE
8
BLACK
6
CONTINUOUS
10
92.8276
20
-53.301
11
92.7465
21
-53.2468
0
LINE
8
BLACK
6
CONTINUOUS
10
92.7465
20
-53.2468
11
92.6923
21
-53.1657
0
LINE
8
BLACK
6
CONTINUOUS
10
92.6923
20
-53.1657
11
92.6732
21
-53.07
0
LINE
8
BLACK
6
CONTINUOUS
10
92.6732
20
-53.07
11
92.6732
21
-51.07
0
LINE
8
BLACK
6
CONTINUOUS
10
92.6732
20
-51.07
11
92.6923
21
-50.9743
0
LINE
8
BLACK
6
CONTINUOUS
10
92.6923
20
-50.9743
11
92.7465
21
-50.8932
0
LINE
8
BLACK
6
CONTINUOUS
10
92.7465
20
-50.8932
11
92.8276
21
-50.839
0
LINE
8
BLACK
6
CONTINUOUS
10
92.8276
20
-50.839
11
92.9232
21
-50.82
0
LINE
8
BLACK
6
CONTINUOUS
10
92.9232
20
-50.82
11
94.9732
21
-50.82
0
LINE
8
BLACK
6
CONTINUOUS
10
94.9732
20
-50.82
11
95.0689
21
-50.839
0
LINE
8
BLACK
6
CONTINUOUS
10
193.059
20
-44.9571
11
193.132
21
-45.0059
0
LINE
8
BLACK
6
CONTINUOUS
10
193.132
20
-45.0059
11
193.18
21
-45.0789
0
LINE
8
BLACK
6
CONTINUOUS
10
193.18
20
-45.0789
11
193.197
21
-45.165
0
LINE
8
BLACK
6
CONTINUOUS
10
193.197
20
-45.165
11
193.197
21
-45.615
0
LINE
8
BLACK
6
CONTINUOUS
10
193.197
20
-45.615
11
193.18
21
-45.7011
0
LINE
8
BLACK
6
CONTINUOUS
10
193.18
20
-45.7011
11
193.132
21
-45.7741
0
LINE
8
BLACK
6
CONTINUOUS
10
193.132
20
-45.7741
11
193.059
21
-45.8229
0
LINE
8
BLACK
6
CONTINUOUS
10
193.059
20
-45.8229
11
192.972
21
-45.84
0
LINE
8
BLACK
6
CONTINUOUS
10
192.972
20
-45.84
11
192.222
21
-45.84
0
LINE
8
BLACK
6
CONTINUOUS
10
192.222
20
-45.84
11
192.136
21
-45.8229
0
LINE
8
BLACK
6
CONTINUOUS
10
192.136
20
-45.8229
11
192.063
21
-45.7741
0
LINE
8
BLACK
6
CONTINUOUS
10
192.063
20
-45.7741
11
192.015
21
-45.7011
0
LINE
8
BLACK
6
CONTINUOUS
10
192.015
20
-45.7011
11
191.998
21
-45.615
0
LINE
8
BLACK
6
CONTINUOUS
10
191.998
20
-45.615
11
191.998
21
-45.165
0
LINE
8
BLACK
6
CONTINUOUS
10
191.998
20
-45.165
11
192.015
21
-45.0789
0
LINE
8
BLACK
6
CONTINUOUS
10
192.015
20
-45.0789
11
192.063
21
-45.0059
0
LINE
8
BLACK
6
CONTINUOUS
10
192.063
20
-45.0059
11
192.136
21
-44.9571
0
LINE
8
BLACK
6
CONTINUOUS
10
192.136
20
-44.9571
11
192.222
21
-44.94
0
LINE
8
BLACK
6
CONTINUOUS
10
192.222
20
-44.94
11
192.972
21
-44.94
0
LINE
8
BLACK
6
CONTINUOUS
10
192.972
20
-44.94
11
193.059
21
-44.9571
0
LINE
8
BLACK
6
CONTINUOUS
10
174.009
20
-44.9571
11
174.082
21
-45.0059
0
LINE
8
BLACK
6
CONTINUOUS
10
174.082
20
-45.0059
11
174.13
21
-45.0789
0
LINE
8
BLACK
6
CONTINUOUS
10
174.13
20
-45.0789
11
174.147
21
-45.165
0
LINE
8
BLACK
6
CONTINUOUS
10
174.147
20
-45.165
11
174.147
21
-45.615
0
LINE
8
BLACK
6
CONTINUOUS
10
174.147
20
-45.615
11
174.13
21
-45.7011
0
LINE
8
BLACK
6
CONTINUOUS
10
174.13
20
-45.7011
11
174.082
21
-45.7741
0
LINE
8
BLACK
6
CONTINUOUS
10
174.082
20
-45.7741
11
174.009
21
-45.8229
0
LINE
8
BLACK
6
CONTINUOUS
10
174.009
20
-45.8229
11
173.922
21
-45.84
0
LINE
8
BLACK
6
CONTINUOUS
10
173.922
20
-45.84
11
173.172
21
-45.84
0
LINE
8
BLACK
6
CONTINUOUS
10
173.172
20
-45.84
11
173.086
21
-45.8229
0
LINE
8
BLACK
6
CONTINUOUS
10
173.086
20
-45.8229
11
173.013
21
-45.7741
0
LINE
8
BLACK
6
CONTINUOUS
10
173.013
20
-45.7741
11
172.965
21
-45.7011
0
LINE
8
BLACK
6
CONTINUOUS
10
172.965
20
-45.7011
11
172.947
21
-45.615
0
LINE
8
BLACK
6
CONTINUOUS
10
172.947
20
-45.615
11
172.947
21
-45.165
0
LINE
8
BLACK
6
CONTINUOUS
10
172.947
20
-45.165
11
172.965
21
-45.0789
0
LINE
8
BLACK
6
CONTINUOUS
10
172.965
20
-45.0789
11
173.013
21
-45.0059
0
LINE
8
BLACK
6
CONTINUOUS
10
173.013
20
-45.0059
11
173.086
21
-44.9571
0
LINE
8
BLACK
6
CONTINUOUS
10
173.086
20
-44.9571
11
173.172
21
-44.94
0
LINE
8
BLACK
6
CONTINUOUS
10
173.172
20
-44.94
11
173.922
21
-44.94
0
LINE
8
BLACK
6
CONTINUOUS
10
173.922
20
-44.94
11
174.009
21
-44.9571
0
LINE
8
BLACK
6
CONTINUOUS
10
154.959
20
-44.9571
11
155.032
21
-45.0059
0
LINE
8
BLACK
6
CONTINUOUS
10
155.032
20
-45.0059
11
155.08
21
-45.0789
0
LINE
8
BLACK
6
CONTINUOUS
10
155.08
20
-45.0789
11
155.097
21
-45.165
0
LINE
8
BLACK
6
CONTINUOUS
10
155.097
20
-45.165
11
155.097
21
-45.615
0
LINE
8
BLACK
6
CONTINUOUS
10
155.097
20
-45.615
11
155.08
21
-45.7011
0
LINE
8
BLACK
6
CONTINUOUS
10
155.08
20
-45.7011
11
155.032
21
-45.7741
0
LINE
8
BLACK
6
CONTINUOUS
10
155.032
20
-45.7741
11
154.959
21
-45.8229
0
LINE
8
BLACK
6
CONTINUOUS
10
154.959
20
-45.8229
11
154.873
21
-45.84
0
LINE
8
BLACK
6
CONTINUOUS
10
154.873
20
-45.84
11
154.123
21
-45.84
0
LINE
8
BLACK
6
CONTINUOUS
10
154.123
20
-45.84
11
154.036
21
-45.8229
0
LINE
8
BLACK
6
CONTINUOUS
10
154.036
20
-45.8229
11
153.963
21
-45.7741
0
LINE
8
BLACK
6
CONTINUOUS
10
153.963
20
-45.7741
11
153.915
21
-45.7011
0
LINE
8
BLACK
6
CONTINUOUS
10
153.915
20
-45.7011
11
153.897
21
-45.615
0
LINE
8
BLACK
6
CONTINUOUS
10
153.897
20
-45.615
11
153.897
21
-45.165
0
LINE
8
BLACK
6
CONTINUOUS
10
153.897
20
-45.165
11
153.915
21
-45.0789
0
LINE
8
BLACK
6
CONTINUOUS
10
153.915
20
-45.0789
11
153.963
21
-45.0059
0
LINE
8
BLACK
6
CONTINUOUS
10
153.963
20
-45.0059
11
154.036
21
-44.9571
0
LINE
8
BLACK
6
CONTINUOUS
10
154.036
20
-44.9571
11
154.123
21
-44.94
0
LINE
8
BLACK
6
CONTINUOUS
10
154.123
20
-44.94
11
154.873
21
-44.94
0
LINE
8
BLACK
6
CONTINUOUS
10
154.873
20
-44.94
11
154.959
21
-44.9571
0
LINE
8
BLACK
6
CONTINUOUS
10
135.909
20
-44.9571
11
135.982
21
-45.0059
0
LINE
8
BLACK
6
CONTINUOUS
10
135.982
20
-45.0059
11
136.03
21
-45.0789
0
LINE
8
BLACK
6
CONTINUOUS
10
136.03
20
-45.0789
11
136.047
21
-45.165
0
LINE
8
BLACK
6
CONTINUOUS
10
136.047
20
-45.165
11
136.047
21
-45.615
0
LINE
8
BLACK
6
CONTINUOUS
10
136.047
20
-45.615
11
136.03
21
-45.7011
0
LINE
8
BLACK
6
CONTINUOUS
10
136.03
20
-45.7011
11
135.982
21
-45.7741
0
LINE
8
BLACK
6
CONTINUOUS
10
135.982
20
-45.7741
11
135.909
21
-45.8229
0
LINE
8
BLACK
6
CONTINUOUS
10
135.909
20
-45.8229
11
135.822
21
-45.84
0
LINE
8
BLACK
6
CONTINUOUS
10
135.822
20
-45.84
11
135.072
21
-45.84
0
LINE
8
BLACK
6
CONTINUOUS
10
135.072
20
-45.84
11
134.986
21
-45.8229
0
LINE
8
BLACK
6
CONTINUOUS
10
134.986
20
-45.8229
11
134.913
21
-45.7741
0
LINE
8
BLACK
6
CONTINUOUS
10
134.913
20
-45.7741
11
134.865
21
-45.7011
0
LINE
8
BLACK
6
CONTINUOUS
10
134.865
20
-45.7011
11
134.847
21
-45.615
0
LINE
8
BLACK
6
CONTINUOUS
10
134.847
20
-45.615
11
134.847
21
-45.165
0
LINE
8
BLACK
6
CONTINUOUS
10
134.847
20
-45.165
11
134.865
21
-45.0789
0
LINE
8
BLACK
6
CONTINUOUS
10
134.865
20
-45.0789
11
134.913
21
-45.0059
0
LINE
8
BLACK
6
CONTINUOUS
10
134.913
20
-45.0059
11
134.986
21
-44.9571
0
LINE
8
BLACK
6
CONTINUOUS
10
134.986
20
-44.9571
11
135.072
21
-44.94
0
LINE
8
BLACK
6
CONTINUOUS
10
135.072
20
-44.94
11
135.822
21
-44.94
0
LINE
8
BLACK
6
CONTINUOUS
10
135.822
20
-44.94
11
135.909
21
-44.9571
0
LINE
8
BLACK
6
CONTINUOUS
10
116.859
20
-44.9571
11
116.932
21
-45.0059
0
LINE
8
BLACK
6
CONTINUOUS
10
116.932
20
-45.0059
11
116.98
21
-45.0789
0
LINE
8
BLACK
6
CONTINUOUS
10
116.98
20
-45.0789
11
116.997
21
-45.165
0
LINE
8
BLACK
6
CONTINUOUS
10
116.997
20
-45.165
11
116.997
21
-45.615
0
LINE
8
BLACK
6
CONTINUOUS
10
116.997
20
-45.615
11
116.98
21
-45.7011
0
LINE
8
BLACK
6
CONTINUOUS
10
116.98
20
-45.7011
11
116.932
21
-45.7741
0
LINE
8
BLACK
6
CONTINUOUS
10
116.932
20
-45.7741
11
116.859
21
-45.8229
0
LINE
8
BLACK
6
CONTINUOUS
10
116.859
20
-45.8229
11
116.772
21
-45.84
0
LINE
8
BLACK
6
CONTINUOUS
10
116.772
20
-45.84
11
116.022
21
-45.84
0
LINE
8
BLACK
6
CONTINUOUS
10
116.022
20
-45.84
11
115.936
21
-45.8229
0
LINE
8
BLACK
6
CONTINUOUS
10
115.936
20
-45.8229
11
115.863
21
-45.7741
0
LINE
8
BLACK
6
CONTINUOUS
10
115.863
20
-45.7741
11
115.815
21
-45.7011
0
LINE
8
BLACK
6
CONTINUOUS
10
115.815
20
-45.7011
11
115.797
21
-45.615
0
LINE
8
BLACK
6
CONTINUOUS
10
115.797
20
-45.615
11
115.797
21
-45.165
0
LINE
8
BLACK
6
CONTINUOUS
10
115.797
20
-45.165
11
115.815
21
-45.0789
0
LINE
8
BLACK
6
CONTINUOUS
10
115.815
20
-45.0789
11
115.863
21
-45.0059
0
LINE
8
BLACK
6
CONTINUOUS
10
115.863
20
-45.0059
11
115.936
21
-44.9571
0
LINE
8
BLACK
6
CONTINUOUS
10
115.936
20
-44.9571
11
116.022
21
-44.94
0
LINE
8
BLACK
6
CONTINUOUS
10
116.022
20
-44.94
11
116.772
21
-44.94
0
LINE
8
BLACK
6
CONTINUOUS
10
116.772
20
-44.94
11
116.859
21
-44.9571
0
LINE
8
BLACK
6
CONTINUOUS
10
83.5211
20
-44.9571
11
83.5941
21
-45.0059
0
LINE
8
BLACK
6
CONTINUOUS
10
83.5941
20
-45.0059
11
83.6429
21
-45.0789
0
LINE
8
BLACK
6
CONTINUOUS
10
83.6429
20
-45.0789
11
83.66
21
-45.165
0
LINE
8
BLACK
6
CONTINUOUS
10
83.66
20
-45.165
11
83.66
21
-45.615
0
LINE
8
BLACK
6
CONTINUOUS
10
83.66
20
-45.615
11
83.6429
21
-45.7011
0
LINE
8
BLACK
6
CONTINUOUS
10
83.6429
20
-45.7011
11
83.5941
21
-45.7741
0
LINE
8
BLACK
6
CONTINUOUS
10
83.5941
20
-45.7741
11
83.5211
21
-45.8229
0
LINE
8
BLACK
6
CONTINUOUS
10
83.5211
20
-45.8229
11
83.435
21
-45.84
0
LINE
8
BLACK
6
CONTINUOUS
10
83.435
20
-45.84
11
82.685
21
-45.84
0
LINE
8
BLACK
6
CONTINUOUS
10
82.685
20
-45.84
11
82.5989
21
-45.8229
0
LINE
8
BLACK
6
CONTINUOUS
10
82.5989
20
-45.8229
11
82.5259
21
-45.7741
0
LINE
8
BLACK
6
CONTINUOUS
10
82.5259
20
-45.7741
11
82.4771
21
-45.7011
0
LINE
8
BLACK
6
CONTINUOUS
10
82.4771
20
-45.7011
11
82.46
21
-45.615
0
LINE
8
BLACK
6
CONTINUOUS
10
82.46
20
-45.615
11
82.46
21
-45.165
0
LINE
8
BLACK
6
CONTINUOUS
10
82.46
20
-45.165
11
82.4771
21
-45.0789
0
LINE
8
BLACK
6
CONTINUOUS
10
82.4771
20
-45.0789
11
82.5259
21
-45.0059
0
LINE
8
BLACK
6
CONTINUOUS
10
82.5259
20
-45.0059
11
82.5989
21
-44.9571
0
LINE
8
BLACK
6
CONTINUOUS
10
82.5989
20
-44.9571
11
82.685
21
-44.94
0
LINE
8
BLACK
6
CONTINUOUS
10
82.685
20
-44.94
11
83.435
21
-44.94
0
LINE
8
BLACK
6
CONTINUOUS
10
83.435
20
-44.94
11
83.5211
21
-44.9571
0
LINE
8
BLACK
6
CONTINUOUS
10
193.059
20
-41.6571
11
193.132
21
-41.7059
0
LINE
8
BLACK
6
CONTINUOUS
10
193.132
20
-41.7059
11
193.18
21
-41.7789
0
LINE
8
BLACK
6
CONTINUOUS
10
193.18
20
-41.7789
11
193.197
21
-41.865
0
LINE
8
BLACK
6
CONTINUOUS
10
193.197
20
-41.865
11
193.197
21
-42.315
0
LINE
8
BLACK
6
CONTINUOUS
10
193.197
20
-42.315
11
193.18
21
-42.4011
0
LINE
8
BLACK
6
CONTINUOUS
10
193.18
20
-42.4011
11
193.132
21
-42.4741
0
LINE
8
BLACK
6
CONTINUOUS
10
193.132
20
-42.4741
11
193.059
21
-42.5229
0
LINE
8
BLACK
6
CONTINUOUS
10
193.059
20
-42.5229
11
192.972
21
-42.54
0
LINE
8
BLACK
6
CONTINUOUS
10
192.972
20
-42.54
11
192.222
21
-42.54
0
LINE
8
BLACK
6
CONTINUOUS
10
192.222
20
-42.54
11
192.136
21
-42.5229
0
LINE
8
BLACK
6
CONTINUOUS
10
192.136
20
-42.5229
11
192.063
21
-42.4741
0
LINE
8
BLACK
6
CONTINUOUS
10
192.063
20
-42.4741
11
192.015
21
-42.4011
0
LINE
8
BLACK
6
CONTINUOUS
10
192.015
20
-42.4011
11
191.998
21
-42.315
0
LINE
8
BLACK
6
CONTINUOUS
10
191.998
20
-42.315
11
191.998
21
-41.865
0
LINE
8
BLACK
6
CONTINUOUS
10
191.998
20
-41.865
11
192.015
21
-41.7789
0
LINE
8
BLACK
6
CONTINUOUS
10
192.015
20
-41.7789
11
192.063
21
-41.7059
0
LINE
8
BLACK
6
CONTINUOUS
10
192.063
20
-41.7059
11
192.136
21
-41.6571
0
LINE
8
BLACK
6
CONTINUOUS
10
192.136
20
-41.6571
11
192.222
21
-41.64
0
LINE
8
BLACK
6
CONTINUOUS
10
192.222
20
-41.64
11
192.972
21
-41.64
0
LINE
8
BLACK
6
CONTINUOUS
10
192.972
20
-41.64
11
193.059
21
-41.6571
0
LINE
8
BLACK
6
CONTINUOUS
10
174.009
20
-41.6571
11
174.082
21
-41.7059
0
LINE
8
BLACK
6
CONTINUOUS
10
174.082
20
-41.7059
11
174.13
21
-41.7789
0
LINE
8
BLACK
6
CONTINUOUS
10
174.13
20
-41.7789
11
174.147
21
-41.865
0
LINE
8
BLACK
6
CONTINUOUS
10
174.147
20
-41.865
11
174.147
21
-42.315
0
LINE
8
BLACK
6
CONTINUOUS
10
174.147
20
-42.315
11
174.13
21
-42.4011
0
LINE
8
BLACK
6
CONTINUOUS
10
174.13
20
-42.4011
11
174.082
21
-42.4741
0
LINE
8
BLACK
6
CONTINUOUS
10
174.082
20
-42.4741
11
174.009
21
-42.5229
0
LINE
8
BLACK
6
CONTINUOUS
10
174.009
20
-42.5229
11
173.922
21
-42.54
0
LINE
8
BLACK
6
CONTINUOUS
10
173.922
20
-42.54
11
173.172
21
-42.54
0
LINE
8
BLACK
6
CONTINUOUS
10
173.172
20
-42.54
11
173.086
21
-42.5229
0
LINE
8
BLACK
6
CONTINUOUS
10
173.086
20
-42.5229
11
173.013
21
-42.4741
0
LINE
8
BLACK
6
CONTINUOUS
10
173.013
20
-42.4741
11
172.965
21
-42.4011
0
LINE
8
BLACK
6
CONTINUOUS
10
172.965
20
-42.4011
11
172.947
21
-42.315
0
LINE
8
BLACK
6
CONTINUOUS
10
172.947
20
-42.315
11
172.947
21
-41.865
0
LINE
8
BLACK
6
CONTINUOUS
10
172.947
20
-41.865
11
172.965
21
-41.7789
0
LINE
8
BLACK
6
CONTINUOUS
10
172.965
20
-41.7789
11
173.013
21
-41.7059
0
LINE
8
BLACK
6
CONTINUOUS
10
173.013
20
-41.7059
11
173.086
21
-41.6571
0
LINE
8
BLACK
6
CONTINUOUS
10
173.086
20
-41.6571
11
173.172
21
-41.64
0
LINE
8
BLACK
6
CONTINUOUS
10
173.172
20
-41.64
11
173.922
21
-41.64
0
LINE
8
BLACK
6
CONTINUOUS
10
173.922
20
-41.64
11
174.009
21
-41.6571
0
LINE
8
BLACK
6
CONTINUOUS
10
154.959
20
-41.6571
11
155.032
21
-41.7059
0
LINE
8
BLACK
6
CONTINUOUS
10
155.032
20
-41.7059
11
155.08
21
-41.7789
0
LINE
8
BLACK
6
CONTINUOUS
10
155.08
20
-41.7789
11
155.097
21
-41.865
0
LINE
8
BLACK
6
CONTINUOUS
10
155.097
20
-41.865
11
155.097
21
-42.315
0
LINE
8
BLACK
6
CONTINUOUS
10
155.097
20
-42.315
11
155.08
21
-42.4011
0
LINE
8
BLACK
6
CONTINUOUS
10
155.08
20
-42.4011
11
155.032
21
-42.4741
0
LINE
8
BLACK
6
CONTINUOUS
10
155.032
20
-42.4741
11
154.959
21
-42.5229
0
LINE
8
BLACK
6
CONTINUOUS
10
154.959
20
-42.5229
11
154.873
21
-42.54
0
LINE
8
BLACK
6
CONTINUOUS
10
154.873
20
-42.54
11
154.123
21
-42.54
0
LINE
8
BLACK
6
CONTINUOUS
10
154.123
20
-42.54
11
154.036
21
-42.5229
0
LINE
8
BLACK
6
CONTINUOUS
10
154.036
20
-42.5229
11
153.963
21
-42.4741
0
LINE
8
BLACK
6
CONTINUOUS
10
153.963
20
-42.4741
11
153.915
21
-42.4011
0
LINE
8
BLACK
6
CONTINUOUS
10
153.915
20
-42.4011
11
153.897
21
-42.315
0
LINE
8
BLACK
6
CONTINUOUS
10
153.897
20
-42.315
11
153.897
21
-41.865
0
LINE
8
BLACK
6
CONTINUOUS
10
153.897
20
-41.865
11
153.915
21
-41.7789
0
LINE
8
BLACK
6
CONTINUOUS
10
153.915
20
-41.7789
11
153.963
21
-41.7059
0
LINE
8
BLACK
6
CONTINUOUS
10
153.963
20
-41.7059
11
154.036
21
-41.6571
0
LINE
8
BLACK
6
CONTINUOUS
10
154.036
20
-41.6571
11
154.123
21
-41.64
0
LINE
8
BLACK
6
CONTINUOUS
10
154.123
20
-41.64
11
154.873
21
-41.64
0
LINE
8
BLACK
6
CONTINUOUS
10
154.873
20
-41.64
11
154.959
21
-41.6571
0
LINE
8
BLACK
6
CONTINUOUS
10
135.909
20
-41.6571
11
135.982
21
-41.7059
0
LINE
8
BLACK
6
CONTINUOUS
10
135.982
20
-41.7059
11
136.03
21
-41.7789
0
LINE
8
BLACK
6
CONTINUOUS
10
136.03
20
-41.7789
11
136.047
21
-41.865
0
LINE
8
BLACK
6
CONTINUOUS
10
136.047
20
-41.865
11
136.047
21
-42.315
0
LINE
8
BLACK
6
CONTINUOUS
10
136.047
20
-42.315
11
136.03
21
-42.4011
0
LINE
8
BLACK
6
CONTINUOUS
10
136.03
20
-42.4011
11
135.982
21
-42.4741
0
LINE
8
BLACK
6
CONTINUOUS
10
135.982
20
-42.4741
11
135.909
21
-42.5229
0
LINE
8
BLACK
6
CONTINUOUS
10
135.909
20
-42.5229
11
135.822
21
-42.54
0
LINE
8
BLACK
6
CONTINUOUS
10
135.822
20
-42.54
11
135.072
21
-42.54
0
LINE
8
BLACK
6
CONTINUOUS
10
135.072
20
-42.54
11
134.986
21
-42.5229
0
LINE
8
BLACK
6
CONTINUOUS
10
134.986
20
-42.5229
11
134.913
21
-42.4741
0
LINE
8
BLACK
6
CONTINUOUS
10
134.913
20
-42.4741
11
134.865
21
-42.4011
0
LINE
8
BLACK
6
CONTINUOUS
10
134.865
20
-42.4011
11
134.847
21
-42.315
0
LINE
8
BLACK
6
CONTINUOUS
10
134.847
20
-42.315
11
134.847
21
-41.865
0
LINE
8
BLACK
6
CONTINUOUS
10
134.847
20
-41.865
11
134.865
21
-41.7789
0
LINE
8
BLACK
6
CONTINUOUS
10
134.865
20
-41.7789
11
134.913
21
-41.7059
0
LINE
8
BLACK
6
CONTINUOUS
10
134.913
20
-41.7059
11
134.986
21
-41.6571
0
LINE
8
BLACK
6
CONTINUOUS
10
134.986
20
-41.6571
11
135.072
21
-41.64
0
LINE
8
BLACK
6
CONTINUOUS
10
135.072
20
-41.64
11
135.822
21
-41.64
0
LINE
8
BLACK
6
CONTINUOUS
10
135.822
20
-41.64
11
135.909
21
-41.6571
0
LINE
8
BLACK
6
CONTINUOUS
10
116.859
20
-41.6571
11
116.932
21
-41.7059
0
LINE
8
BLACK
6
CONTINUOUS
10
116.932
20
-41.7059
11
116.98
21
-41.7789
0
LINE
8
BLACK
6
CONTINUOUS
10
116.98
20
-41.7789
11
116.997
21
-41.865
0
LINE
8
BLACK
6
CONTINUOUS
10
116.997
20
-41.865
11
116.997
21
-42.315
0
LINE
8
BLACK
6
CONTINUOUS
10
116.997
20
-42.315
11
116.98
21
-42.4011
0
LINE
8
BLACK
6
CONTINUOUS
10
116.98
20
-42.4011
11
116.932
21
-42.4741
0
LINE
8
BLACK
6
CONTINUOUS
10
116.932
20
-42.4741
11
116.859
21
-42.5229
0
LINE
8
BLACK
6
CONTINUOUS
10
116.859
20
-42.5229
11
116.772
21
-42.54
0
LINE
8
BLACK
6
CONTINUOUS
10
116.772
20
-42.54
11
116.022
21
-42.54
0
LINE
8
BLACK
6
CONTINUOUS
10
116.022
20
-42.54
11
115.936
21
-42.5229
0
LINE
8
BLACK
6
CONTINUOUS
10
115.936
20
-42.5229
11
115.863
21
-42.4741
0
LINE
8
BLACK
6
CONTINUOUS
10
115.863
20
-42.4741
11
115.815
21
-42.4011
0
LINE
8
BLACK
6
CONTINUOUS
10
115.815
20
-42.4011
11
115.797
21
-42.315
0
LINE
8
BLACK
6
CONTINUOUS
10
115.797
20
-42.315
11
115.797
21
-41.865
0
LINE
8
BLACK
6
CONTINUOUS
10
115.797
20
-41.865
11
115.815
21
-41.7789
0
LINE
8
BLACK
6
CONTINUOUS
10
115.815
20
-41.7789
11
115.863
21
-41.7059
0
LINE
8
BLACK
6
CONTINUOUS
10
115.863
20
-41.7059
11
115.936
21
-41.6571
0
LINE
8
BLACK
6
CONTINUOUS
10
115.936
20
-41.6571
11
116.022
21
-41.64
0
LINE
8
BLACK
6
CONTINUOUS
10
116.022
20
-41.64
11
116.772
21
-41.64
0
LINE
8
BLACK
6
CONTINUOUS
10
116.772
20
-41.64
11
116.859
21
-41.6571
0
LINE
8
BLACK
6
CONTINUOUS
10
83.5211
20
-41.6571
11
83.5941
21
-41.7059
0
LINE
8
BLACK
6
CONTINUOUS
10
83.5941
20
-41.7059
11
83.6429
21
-41.7789
0
LINE
8
BLACK
6
CONTINUOUS
10
83.6429
20
-41.7789
11
83.66
21
-41.865
0
LINE
8
BLACK
6
CONTINUOUS
10
83.66
20
-41.865
11
83.66
21
-42.315
0
LINE
8
BLACK
6
CONTINUOUS
10
83.66
20
-42.315
11
83.6429
21
-42.4011
0
LINE
8
BLACK
6
CONTINUOUS
10
83.6429
20
-42.4011
11
83.5941
21
-42.4741
0
LINE
8
BLACK
6
CONTINUOUS
10
83.5941
20
-42.4741
11
83.5211
21
-42.5229
0
LINE
8
BLACK
6
CONTINUOUS
10
83.5211
20
-42.5229
11
83.435
21
-42.54
0
LINE
8
BLACK
6
CONTINUOUS
10
83.435
20
-42.54
11
82.685
21
-42.54
0
LINE
8
BLACK
6
CONTINUOUS
10
82.685
20
-42.54
11
82.5989
21
-42.5229
0
LINE
8
BLACK
6
CONTINUOUS
10
82.5989
20
-42.5229
11
82.5259
21
-42.4741
0
LINE
8
BLACK
6
CONTINUOUS
10
82.5259
20
-42.4741
11
82.4771
21
-42.4011
0
LINE
8
BLACK
6
CONTINUOUS
10
82.4771
20
-42.4011
11
82.46
21
-42.315
0
LINE
8
BLACK
6
CONTINUOUS
10
82.46
20
-42.315
11
82.46
21
-41.865
0
LINE
8
BLACK
6
CONTINUOUS
10
82.46
20
-41.865
11
82.4771
21
-41.7789
0
LINE
8
BLACK
6
CONTINUOUS
10
82.4771
20
-41.7789
11
82.5259
21
-41.7059
0
LINE
8
BLACK
6
CONTINUOUS
10
82.5259
20
-41.7059
11
82.5989
21
-41.6571
0
LINE
8
BLACK
6
CONTINUOUS
10
82.5989
20
-41.6571
11
82.685
21
-41.64
0
LINE
8
BLACK
6
CONTINUOUS
10
82.685
20
-41.64
11
83.435
21
-41.64
0
LINE
8
BLACK
6
CONTINUOUS
10
83.435
20
-41.64
11
83.5211
21
-41.6571
0
LINE
8
BLACK
6
CONTINUOUS
10
179.773
20
-34.329
11
179.854
21
-34.3832
0
LINE
8
BLACK
6
CONTINUOUS
10
179.854
20
-34.3832
11
179.908
21
-34.4643
0
LINE
8
BLACK
6
CONTINUOUS
10
179.908
20
-34.4643
11
179.927
21
-34.56
0
LINE
8
BLACK
6
CONTINUOUS
10
179.927
20
-34.56
11
179.927
21
-36.56
0
LINE
8
BLACK
6
CONTINUOUS
10
179.927
20
-36.56
11
179.908
21
-36.6557
0
LINE
8
BLACK
6
CONTINUOUS
10
179.908
20
-36.6557
11
179.854
21
-36.7368
0
LINE
8
BLACK
6
CONTINUOUS
10
179.854
20
-36.7368
11
179.773
21
-36.791
0
LINE
8
BLACK
6
CONTINUOUS
10
179.773
20
-36.791
11
179.677
21
-36.81
0
LINE
8
BLACK
6
CONTINUOUS
10
179.677
20
-36.81
11
177.627
21
-36.81
0
LINE
8
BLACK
6
CONTINUOUS
10
177.627
20
-36.81
11
177.532
21
-36.791
0
LINE
8
BLACK
6
CONTINUOUS
10
177.532
20
-36.791
11
177.451
21
-36.7368
0
LINE
8
BLACK
6
CONTINUOUS
10
177.451
20
-36.7368
11
177.397
21
-36.6557
0
LINE
8
BLACK
6
CONTINUOUS
10
177.397
20
-36.6557
11
177.377
21
-36.56
0
LINE
8
BLACK
6
CONTINUOUS
10
177.377
20
-36.56
11
177.377
21
-34.56
0
LINE
8
BLACK
6
CONTINUOUS
10
177.377
20
-34.56
11
177.397
21
-34.4643
0
LINE
8
BLACK
6
CONTINUOUS
10
177.397
20
-34.4643
11
177.451
21
-34.3832
0
LINE
8
BLACK
6
CONTINUOUS
10
177.451
20
-34.3832
11
177.532
21
-34.329
0
LINE
8
BLACK
6
CONTINUOUS
10
177.532
20
-34.329
11
177.627
21
-34.31
0
LINE
8
BLACK
6
CONTINUOUS
10
177.627
20
-34.31
11
179.677
21
-34.31
0
LINE
8
BLACK
6
CONTINUOUS
10
179.677
20
-34.31
11
179.773
21
-34.329
0
LINE
8
BLACK
6
CONTINUOUS
10
160.723
20
-34.329
11
160.804
21
-34.3832
0
LINE
8
BLACK
6
CONTINUOUS
10
160.804
20
-34.3832
11
160.858
21
-34.4643
0
LINE
8
BLACK
6
CONTINUOUS
10
160.858
20
-34.4643
11
160.877
21
-34.56
0
LINE
8
BLACK
6
CONTINUOUS
10
160.877
20
-34.56
11
160.877
21
-36.56
0
LINE
8
BLACK
6
CONTINUOUS
10
160.877
20
-36.56
11
160.858
21
-36.6557
0
LINE
8
BLACK
6
CONTINUOUS
10
160.858
20
-36.6557
11
160.804
21
-36.7368
0
LINE
8
BLACK
6
CONTINUOUS
10
160.804
20
-36.7368
11
160.723
21
-36.791
0
LINE
8
BLACK
6
CONTINUOUS
10
160.723
20
-36.791
11
160.627
21
-36.81
0
LINE
8
BLACK
6
CONTINUOUS
10
160.627
20
-36.81
11
158.577
21
-36.81
0
LINE
8
BLACK
6
CONTINUOUS
10
158.577
20
-36.81
11
158.482
21
-36.791
0
LINE
8
BLACK
6
CONTINUOUS
10
158.482
20
-36.791
11
158.401
21
-36.7368
0
LINE
8
BLACK
6
CONTINUOUS
10
158.401
20
-36.7368
11
158.347
21
-36.6557
0
LINE
8
BLACK
6
CONTINUOUS
10
158.347
20
-36.6557
11
158.327
21
-36.56
0
LINE
8
BLACK
6
CONTINUOUS
10
158.327
20
-36.56
11
158.327
21
-34.56
0
LINE
8
BLACK
6
CONTINUOUS
10
158.327
20
-34.56
11
158.347
21
-34.4643
0
LINE
8
BLACK
6
CONTINUOUS
10
158.347
20
-34.4643
11
158.401
21
-34.3832
0
LINE
8
BLACK
6
CONTINUOUS
10
158.401
20
-34.3832
11
158.482
21
-34.329
0
LINE
8
BLACK
6
CONTINUOUS
10
158.482
20
-34.329
11
158.577
21
-34.31
0
LINE
8
BLACK
6
CONTINUOUS
10
158.577
20
-34.31
11
160.627
21
-34.31
0
LINE
8
BLACK
6
CONTINUOUS
10
160.627
20
-34.31
11
160.723
21
-34.329
0
LINE
8
BLACK
6
CONTINUOUS
10
141.673
20
-34.329
11
141.754
21
-34.3832
0
LINE
8
BLACK
6
CONTINUOUS
10
141.754
20
-34.3832
11
141.808
21
-34.4643
0
LINE
8
BLACK
6
CONTINUOUS
10
141.808
20
-34.4643
11
141.827
21
-34.56
0
LINE
8
BLACK
6
CONTINUOUS
10
141.827
20
-34.56
11
141.827
21
-36.56
0
LINE
8
BLACK
6
CONTINUOUS
10
141.827
20
-36.56
11
141.808
21
-36.6557
0
LINE
8
BLACK
6
CONTINUOUS
10
141.808
20
-36.6557
11
141.754
21
-36.7368
0
LINE
8
BLACK
6
CONTINUOUS
10
141.754
20
-36.7368
11
141.673
21
-36.791
0
LINE
8
BLACK
6
CONTINUOUS
10
141.673
20
-36.791
11
141.577
21
-36.81
0
LINE
8
BLACK
6
CONTINUOUS
10
141.577
20
-36.81
11
139.528
21
-36.81
0
LINE
8
BLACK
6
CONTINUOUS
10
139.528
20
-36.81
11
139.432
21
-36.791
0
LINE
8
BLACK
6
CONTINUOUS
10
139.432
20
-36.791
11
139.351
21
-36.7368
0
LINE
8
BLACK
6
CONTINUOUS
10
139.351
20
-36.7368
11
139.297
21
-36.6557
0
LINE
8
BLACK
6
CONTINUOUS
10
139.297
20
-36.6557
11
139.278
21
-36.56
0
LINE
8
BLACK
6
CONTINUOUS
10
139.278
20
-36.56
11
139.278
21
-34.56
0
LINE
8
BLACK
6
CONTINUOUS
10
139.278
20
-34.56
11
139.297
21
-34.4643
0
LINE
8
BLACK
6
CONTINUOUS
10
139.297
20
-34.4643
11
139.351
21
-34.3832
0
LINE
8
BLACK
6
CONTINUOUS
10
139.351
20
-34.3832
11
139.432
21
-34.329
0
LINE
8
BLACK
6
CONTINUOUS
10
139.432
20
-34.329
11
139.528
21
-34.31
0
LINE
8
BLACK
6
CONTINUOUS
10
139.528
20
-34.31
11
141.577
21
-34.31
0
LINE
8
BLACK
6
CONTINUOUS
10
141.577
20
-34.31
11
141.673
21
-34.329
0
LINE
8
BLACK
6
CONTINUOUS
10
122.623
20
-34.329
11
122.704
21
-34.3832
0
LINE
8
BLACK
6
CONTINUOUS
10
122.704
20
-34.3832
11
122.758
21
-34.4643
0
LINE
8
BLACK
6
CONTINUOUS
10
122.758
20
-34.4643
11
122.777
21
-34.56
0
LINE
8
BLACK
6
CONTINUOUS
10
122.777
20
-34.56
11
122.777
21
-36.56
0
LINE
8
BLACK
6
CONTINUOUS
10
122.777
20
-36.56
11
122.758
21
-36.6557
0
LINE
8
BLACK
6
CONTINUOUS
10
122.758
20
-36.6557
11
122.704
21
-36.7368
0
LINE
8
BLACK
6
CONTINUOUS
10
122.704
20
-36.7368
11
122.623
21
-36.791
0
LINE
8
BLACK
6
CONTINUOUS
10
122.623
20
-36.791
11
122.527
21
-36.81
0
LINE
8
BLACK
6
CONTINUOUS
10
122.527
20
-36.81
11
120.477
21
-36.81
0
LINE
8
BLACK
6
CONTINUOUS
10
120.477
20
-36.81
11
120.382
21
-36.791
0
LINE
8
BLACK
6
CONTINUOUS
10
120.382
20
-36.791
11
120.301
21
-36.7368
0
LINE
8
BLACK
6
CONTINUOUS
10
120.301
20
-36.7368
11
120.247
21
-36.6557
0
LINE
8
BLACK
6
CONTINUOUS
10
120.247
20
-36.6557
11
120.227
21
-36.56
0
LINE
8
BLACK
6
CONTINUOUS
10
120.227
20
-36.56
11
120.227
21
-34.56
0
LINE
8
BLACK
6
CONTINUOUS
10
120.227
20
-34.56
11
120.247
21
-34.4643
0
LINE
8
BLACK
6
CONTINUOUS
10
120.247
20
-34.4643
11
120.301
21
-34.3832
0
LINE
8
BLACK
6
CONTINUOUS
10
120.301
20
-34.3832
11
120.382
21
-34.329
0
LINE
8
BLACK
6
CONTINUOUS
10
120.382
20
-34.329
11
120.477
21
-34.31
0
LINE
8
BLACK
6
CONTINUOUS
10
120.477
20
-34.31
11
122.527
21
-34.31
0
LINE
8
BLACK
6
CONTINUOUS
10
122.527
20
-34.31
11
122.623
21
-34.329
0
LINE
8
BLACK
6
CONTINUOUS
10
103.573
20
-34.329
11
103.654
21
-34.3832
0
LINE
8
BLACK
6
CONTINUOUS
10
103.654
20
-34.3832
11
103.708
21
-34.4643
0
LINE
8
BLACK
6
CONTINUOUS
10
103.708
20
-34.4643
11
103.727
21
-34.56
0
LINE
8
BLACK
6
CONTINUOUS
10
103.727
20
-34.56
11
103.727
21
-36.56
0
LINE
8
BLACK
6
CONTINUOUS
10
103.727
20
-36.56
11
103.708
21
-36.6557
0
LINE
8
BLACK
6
CONTINUOUS
10
103.708
20
-36.6557
11
103.654
21
-36.7368
0
LINE
8
BLACK
6
CONTINUOUS
10
103.654
20
-36.7368
11
103.573
21
-36.791
0
LINE
8
BLACK
6
CONTINUOUS
10
103.573
20
-36.791
11
103.477
21
-36.81
0
LINE
8
BLACK
6
CONTINUOUS
10
103.477
20
-36.81
11
101.427
21
-36.81
0
LINE
8
BLACK
6
CONTINUOUS
10
101.427
20
-36.81
11
101.332
21
-36.791
0
LINE
8
BLACK
6
CONTINUOUS
10
101.332
20
-36.791
11
101.251
21
-36.7368
0
LINE
8
BLACK
6
CONTINUOUS
10
101.251
20
-36.7368
11
101.197
21
-36.6557
0
LINE
8
BLACK
6
CONTINUOUS
10
101.197
20
-36.6557
11
101.177
21
-36.56
0
LINE
8
BLACK
6
CONTINUOUS
10
101.177
20
-36.56
11
101.177
21
-34.56
0
LINE
8
BLACK
6
CONTINUOUS
10
101.177
20
-34.56
11
101.197
21
-34.4643
0
LINE
8
BLACK
6
CONTINUOUS
10
101.197
20
-34.4643
11
101.251
21
-34.3832
0
LINE
8
BLACK
6
CONTINUOUS
10
101.251
20
-34.3832
11
101.332
21
-34.329
0
LINE
8
BLACK
6
CONTINUOUS
10
101.332
20
-34.329
11
101.427
21
-34.31
0
LINE
8
BLACK
6
CONTINUOUS
10
101.427
20
-34.31
11
103.477
21
-34.31
0
LINE
8
BLACK
6
CONTINUOUS
10
103.477
20
-34.31
11
103.573
21
-34.329
0
LINE
8
BLACK
6
CONTINUOUS
10
70.2357
20
-34.329
11
70.3168
21
-34.3832
0
LINE
8
BLACK
6
CONTINUOUS
10
70.3168
20
-34.3832
11
70.371
21
-34.4643
0
LINE
8
BLACK
6
CONTINUOUS
10
70.371
20
-34.4643
11
70.39
21
-34.56
0
LINE
8
BLACK
6
CONTINUOUS
10
70.39
20
-34.56
11
70.39
21
-36.56
0
LINE
8
BLACK
6
CONTINUOUS
10
70.39
20
-36.56
11
70.371
21
-36.6557
0
LINE
8
BLACK
6
CONTINUOUS
10
70.371
20
-36.6557
11
70.3168
21
-36.7368
0
LINE
8
BLACK
6
CONTINUOUS
10
70.3168
20
-36.7368
11
70.2357
21
-36.791
0
LINE
8
BLACK
6
CONTINUOUS
10
70.2357
20
-36.791
11
70.14
21
-36.81
0
LINE
8
BLACK
6
CONTINUOUS
10
70.14
20
-36.81
11
68.09
21
-36.81
0
LINE
8
BLACK
6
CONTINUOUS
10
68.09
20
-36.81
11
67.9943
21
-36.791
0
LINE
8
BLACK
6
CONTINUOUS
10
67.9943
20
-36.791
11
67.9132
21
-36.7368
0
LINE
8
BLACK
6
CONTINUOUS
10
67.9132
20
-36.7368
11
67.859
21
-36.6557
0
LINE
8
BLACK
6
CONTINUOUS
10
67.859
20
-36.6557
11
67.84
21
-36.56
0
LINE
8
BLACK
6
CONTINUOUS
10
67.84
20
-36.56
11
67.84
21
-34.56
0
LINE
8
BLACK
6
CONTINUOUS
10
67.84
20
-34.56
11
67.859
21
-34.4643
0
LINE
8
BLACK
6
CONTINUOUS
10
67.859
20
-34.4643
11
67.9132
21
-34.3832
0
LINE
8
BLACK
6
CONTINUOUS
10
67.9132
20
-34.3832
11
67.9943
21
-34.329
0
LINE
8
BLACK
6
CONTINUOUS
10
67.9943
20
-34.329
11
68.09
21
-34.31
0
LINE
8
BLACK
6
CONTINUOUS
10
68.09
20
-34.31
11
70.14
21
-34.31
0
LINE
8
BLACK
6
CONTINUOUS
10
70.14
20
-34.31
11
70.2357
21
-34.329
0
LINE
8
BLACK
6
CONTINUOUS
10
192.7
20
-31.789
11
192.781
21
-31.8432
0
LINE
8
BLACK
6
CONTINUOUS
10
192.781
20
-31.8432
11
192.835
21
-31.9243
0
LINE
8
BLACK
6
CONTINUOUS
10
192.835
20
-31.9243
11
192.855
21
-32.02
0
LINE
8
BLACK
6
CONTINUOUS
10
192.855
20
-32.02
11
192.855
21
-34.02
0
LINE
8
BLACK
6
CONTINUOUS
10
192.855
20
-34.02
11
192.835
21
-34.1157
0
LINE
8
BLACK
6
CONTINUOUS
10
192.835
20
-34.1157
11
192.781
21
-34.1968
0
LINE
8
BLACK
6
CONTINUOUS
10
192.781
20
-34.1968
11
192.7
21
-34.251
0
LINE
8
BLACK
6
CONTINUOUS
10
192.7
20
-34.251
11
192.605
21
-34.27
0
LINE
8
BLACK
6
CONTINUOUS
10
192.605
20
-34.27
11
190.554
21
-34.27
0
LINE
8
BLACK
6
CONTINUOUS
10
190.554
20
-34.27
11
190.459
21
-34.251
0
LINE
8
BLACK
6
CONTINUOUS
10
190.459
20
-34.251
11
190.378
21
-34.1968
0
LINE
8
BLACK
6
CONTINUOUS
10
190.378
20
-34.1968
11
190.324
21
-34.1157
0
LINE
8
BLACK
6
CONTINUOUS
10
190.324
20
-34.1157
11
190.304
21
-34.02
0
LINE
8
BLACK
6
CONTINUOUS
10
190.304
20
-34.02
11
190.304
21
-32.02
0
LINE
8
BLACK
6
CONTINUOUS
10
190.304
20
-32.02
11
190.324
21
-31.9243
0
LINE
8
BLACK
6
CONTINUOUS
10
190.324
20
-31.9243
11
190.378
21
-31.8432
0
LINE
8
BLACK
6
CONTINUOUS
10
190.378
20
-31.8432
11
190.459
21
-31.789
0
LINE
8
BLACK
6
CONTINUOUS
10
190.459
20
-31.789
11
190.554
21
-31.77
0
LINE
8
BLACK
6
CONTINUOUS
10
190.554
20
-31.77
11
192.605
21
-31.77
0
LINE
8
BLACK
6
CONTINUOUS
10
192.605
20
-31.77
11
192.7
21
-31.789
0
LINE
8
BLACK
6
CONTINUOUS
10
173.65
20
-31.789
11
173.731
21
-31.8432
0
LINE
8
BLACK
6
CONTINUOUS
10
173.731
20
-31.8432
11
173.785
21
-31.9243
0
LINE
8
BLACK
6
CONTINUOUS
10
173.785
20
-31.9243
11
173.804
21
-32.02
0
LINE
8
BLACK
6
CONTINUOUS
10
173.804
20
-32.02
11
173.804
21
-34.02
0
LINE
8
BLACK
6
CONTINUOUS
10
173.804
20
-34.02
11
173.785
21
-34.1157
0
LINE
8
BLACK
6
CONTINUOUS
10
173.785
20
-34.1157
11
173.731
21
-34.1968
0
LINE
8
BLACK
6
CONTINUOUS
10
173.731
20
-34.1968
11
173.65
21
-34.251
0
LINE
8
BLACK
6
CONTINUOUS
10
173.65
20
-34.251
11
173.554
21
-34.27
0
LINE
8
BLACK
6
CONTINUOUS
10
173.554
20
-34.27
11
171.504
21
-34.27
0
LINE
8
BLACK
6
CONTINUOUS
10
171.504
20
-34.27
11
171.409
21
-34.251
0
LINE
8
BLACK
6
CONTINUOUS
10
171.409
20
-34.251
11
171.328
21
-34.1968
0
LINE
8
BLACK
6
CONTINUOUS
10
171.328
20
-34.1968
11
171.274
21
-34.1157
0
LINE
8
BLACK
6
CONTINUOUS
10
171.274
20
-34.1157
11
171.254
21
-34.02
0
LINE
8
BLACK
6
CONTINUOUS
10
171.254
20
-34.02
11
171.254
21
-32.02
0
LINE
8
BLACK
6
CONTINUOUS
10
171.254
20
-32.02
11
171.274
21
-31.9243
0
LINE
8
BLACK
6
CONTINUOUS
10
171.274
20
-31.9243
11
171.328
21
-31.8432
0
LINE
8
BLACK
6
CONTINUOUS
10
171.328
20
-31.8432
11
171.409
21
-31.789
0
LINE
8
BLACK
6
CONTINUOUS
10
171.409
20
-31.789
11
171.504
21
-31.77
0
LINE
8
BLACK
6
CONTINUOUS
10
171.504
20
-31.77
11
173.554
21
-31.77
0
LINE
8
BLACK
6
CONTINUOUS
10
173.554
20
-31.77
11
173.65
21
-31.789
0
LINE
8
BLACK
6
CONTINUOUS
10
154.6
20
-31.789
11
154.681
21
-31.8432
0
LINE
8
BLACK
6
CONTINUOUS
10
154.681
20
-31.8432
11
154.735
21
-31.9243
0
LINE
8
BLACK
6
CONTINUOUS
10
154.735
20
-31.9243
11
154.754
21
-32.02
0
LINE
8
BLACK
6
CONTINUOUS
10
154.754
20
-32.02
11
154.754
21
-34.02
0
LINE
8
BLACK
6
CONTINUOUS
10
154.754
20
-34.02
11
154.735
21
-34.1157
0
LINE
8
BLACK
6
CONTINUOUS
10
154.735
20
-34.1157
11
154.681
21
-34.1968
0
LINE
8
BLACK
6
CONTINUOUS
10
154.681
20
-34.1968
11
154.6
21
-34.251
0
LINE
8
BLACK
6
CONTINUOUS
10
154.6
20
-34.251
11
154.504
21
-34.27
0
LINE
8
BLACK
6
CONTINUOUS
10
154.504
20
-34.27
11
152.454
21
-34.27
0
LINE
8
BLACK
6
CONTINUOUS
10
152.454
20
-34.27
11
152.359
21
-34.251
0
LINE
8
BLACK
6
CONTINUOUS
10
152.359
20
-34.251
11
152.278
21
-34.1968
0
LINE
8
BLACK
6
CONTINUOUS
10
152.278
20
-34.1968
11
152.224
21
-34.1157
0
LINE
8
BLACK
6
CONTINUOUS
10
152.224
20
-34.1157
11
152.204
21
-34.02
0
LINE
8
BLACK
6
CONTINUOUS
10
152.204
20
-34.02
11
152.204
21
-32.02
0
LINE
8
BLACK
6
CONTINUOUS
10
152.204
20
-32.02
11
152.224
21
-31.9243
0
LINE
8
BLACK
6
CONTINUOUS
10
152.224
20
-31.9243
11
152.278
21
-31.8432
0
LINE
8
BLACK
6
CONTINUOUS
10
152.278
20
-31.8432
11
152.359
21
-31.789
0
LINE
8
BLACK
6
CONTINUOUS
10
152.359
20
-31.789
11
152.454
21
-31.77
0
LINE
8
BLACK
6
CONTINUOUS
10
152.454
20
-31.77
11
154.504
21
-31.77
0
LINE
8
BLACK
6
CONTINUOUS
10
154.504
20
-31.77
11
154.6
21
-31.789
0
LINE
8
BLACK
6
CONTINUOUS
10
135.55
20
-31.789
11
135.631
21
-31.8432
0
LINE
8
BLACK
6
CONTINUOUS
10
135.631
20
-31.8432
11
135.685
21
-31.9243
0
LINE
8
BLACK
6
CONTINUOUS
10
135.685
20
-31.9243
11
135.704
21
-32.02
0
LINE
8
BLACK
6
CONTINUOUS
10
135.704
20
-32.02
11
135.704
21
-34.02
0
LINE
8
BLACK
6
CONTINUOUS
10
135.704
20
-34.02
11
135.685
21
-34.1157
0
LINE
8
BLACK
6
CONTINUOUS
10
135.685
20
-34.1157
11
135.631
21
-34.1968
0
LINE
8
BLACK
6
CONTINUOUS
10
135.631
20
-34.1968
11
135.55
21
-34.251
0
LINE
8
BLACK
6
CONTINUOUS
10
135.55
20
-34.251
11
135.454
21
-34.27
0
LINE
8
BLACK
6
CONTINUOUS
10
135.454
20
-34.27
11
133.404
21
-34.27
0
LINE
8
BLACK
6
CONTINUOUS
10
133.404
20
-34.27
11
133.309
21
-34.251
0
LINE
8
BLACK
6
CONTINUOUS
10
133.309
20
-34.251
11
133.228
21
-34.1968
0
LINE
8
BLACK
6
CONTINUOUS
10
133.228
20
-34.1968
11
133.174
21
-34.1157
0
LINE
8
BLACK
6
CONTINUOUS
10
133.174
20
-34.1157
11
133.154
21
-34.02
0
LINE
8
BLACK
6
CONTINUOUS
10
133.154
20
-34.02
11
133.154
21
-32.02
0
LINE
8
BLACK
6
CONTINUOUS
10
133.154
20
-32.02
11
133.174
21
-31.9243
0
LINE
8
BLACK
6
CONTINUOUS
10
133.174
20
-31.9243
11
133.228
21
-31.8432
0
LINE
8
BLACK
6
CONTINUOUS
10
133.228
20
-31.8432
11
133.309
21
-31.789
0
LINE
8
BLACK
6
CONTINUOUS
10
133.309
20
-31.789
11
133.404
21
-31.77
0
LINE
8
BLACK
6
CONTINUOUS
10
133.404
20
-31.77
11
135.454
21
-31.77
0
LINE
8
BLACK
6
CONTINUOUS
10
135.454
20
-31.77
11
135.55
21
-31.789
0
LINE
8
BLACK
6
CONTINUOUS
10
116.5
20
-31.789
11
116.581
21
-31.8432
0
LINE
8
BLACK
6
CONTINUOUS
10
116.581
20
-31.8432
11
116.635
21
-31.9243
0
LINE
8
BLACK
6
CONTINUOUS
10
116.635
20
-31.9243
11
116.654
21
-32.02
0
LINE
8
BLACK
6
CONTINUOUS
10
116.654
20
-32.02
11
116.654
21
-34.02
0
LINE
8
BLACK
6
CONTINUOUS
10
116.654
20
-34.02
11
116.635
21
-34.1157
0
LINE
8
BLACK
6
CONTINUOUS
10
116.635
20
-34.1157
11
116.581
21
-34.1968
0
LINE
8
BLACK
6
CONTINUOUS
10
116.581
20
-34.1968
11
116.5
21
-34.251
0
LINE
8
BLACK
6
CONTINUOUS
10
116.5
20
-34.251
11
116.404
21
-34.27
0
LINE
8
BLACK
6
CONTINUOUS
10
116.404
20
-34.27
11
114.355
21
-34.27
0
LINE
8
BLACK
6
CONTINUOUS
10
114.355
20
-34.27
11
114.259
21
-34.251
0
LINE
8
BLACK
6
CONTINUOUS
10
114.259
20
-34.251
11
114.178
21
-34.1968
0
LINE
8
BLACK
6
CONTINUOUS
10
114.178
20
-34.1968
11
114.124
21
-34.1157
0
LINE
8
BLACK
6
CONTINUOUS
10
114.124
20
-34.1157
11
114.105
21
-34.02
0
LINE
8
BLACK
6
CONTINUOUS
10
114.105
20
-34.02
11
114.105
21
-32.02
0
LINE
8
BLACK
6
CONTINUOUS
10
114.105
20
-32.02
11
114.124
21
-31.9243
0
LINE
8
BLACK
6
CONTINUOUS
10
114.124
20
-31.9243
11
114.178
21
-31.8432
0
LINE
8
BLACK
6
CONTINUOUS
10
114.178
20
-31.8432
11
114.259
21
-31.789
0
LINE
8
BLACK
6
CONTINUOUS
10
114.259
20
-31.789
11
114.355
21
-31.77
0
LINE
8
BLACK
6
CONTINUOUS
10
114.355
20
-31.77
11
116.404
21
-31.77
0
LINE
8
BLACK
6
CONTINUOUS
10
116.404
20
-31.77
11
116.5
21
-31.789
0
LINE
8
BLACK
6
CONTINUOUS
10
83.1627
20
-31.789
11
83.2438
21
-31.8432
0
LINE
8
BLACK
6
CONTINUOUS
10
83.2438
20
-31.8432
11
83.298
21
-31.9243
0
LINE
8
BLACK
6
CONTINUOUS
10
83.298
20
-31.9243
11
83.317
21
-32.02
0
LINE
8
BLACK
6
CONTINUOUS
10
83.317
20
-32.02
11
83.317
21
-34.02
0
LINE
8
BLACK
6
CONTINUOUS
10
83.317
20
-34.02
11
83.298
21
-34.1157
0
LINE
8
BLACK
6
CONTINUOUS
10
83.298
20
-34.1157
11
83.2438
21
-34.1968
0
LINE
8
BLACK
6
CONTINUOUS
10
83.2438
20
-34.1968
11
83.1627
21
-34.251
0
LINE
8
BLACK
6
CONTINUOUS
10
83.1627
20
-34.251
11
83.067
21
-34.27
0
LINE
8
BLACK
6
CONTINUOUS
10
83.067
20
-34.27
11
81.017
21
-34.27
0
LINE
8
BLACK
6
CONTINUOUS
10
81.017
20
-34.27
11
80.9213
21
-34.251
0
LINE
8
BLACK
6
CONTINUOUS
10
80.9213
20
-34.251
11
80.8402
21
-34.1968
0
LINE
8
BLACK
6
CONTINUOUS
10
80.8402
20
-34.1968
11
80.786
21
-34.1157
0
LINE
8
BLACK
6
CONTINUOUS
10
80.786
20
-34.1157
11
80.767
21
-34.02
0
LINE
8
BLACK
6
CONTINUOUS
10
80.767
20
-34.02
11
80.767
21
-32.02
0
LINE
8
BLACK
6
CONTINUOUS
10
80.767
20
-32.02
11
80.786
21
-31.9243
0
LINE
8
BLACK
6
CONTINUOUS
10
80.786
20
-31.9243
11
80.8402
21
-31.8432
0
LINE
8
BLACK
6
CONTINUOUS
10
80.8402
20
-31.8432
11
80.9213
21
-31.789
0
LINE
8
BLACK
6
CONTINUOUS
10
80.9213
20
-31.789
11
81.017
21
-31.77
0
LINE
8
BLACK
6
CONTINUOUS
10
81.017
20
-31.77
11
83.067
21
-31.77
0
LINE
8
BLACK
6
CONTINUOUS
10
83.067
20
-31.77
11
83.1627
21
-31.789
  0
ENDSEC
  0
EOF
