  0
SECTION
  2
HEADER
  9
$ANGBASE
  50
0.0
  9
$ANGDIR
  70
1
  9
$MEASUREMENT
  70
1
  0
ENDSEC
  0
SECTION
  2
TABLES
  0
TABLE
  2
LTYPE
  70
4
  0
LTYPE
  5
40F
  2
CONTINUOUS
  70
0
  3
Solid line
  72
65
  73
0
  40
0.0
  0
LTYPE
  5
410
  2
DASHDOT
 70
0
  3
Dash Dot ____ _ ____ _
 72
65
 73
4
 40
2.0
 49
1.25
 49
-0.25
 49
0.25
 49
-0.25
  0
LTYPE
  5
411
  2
DASHED
 70
0
  3
Dashed __ __ __ __ __
 72
65
 73
2
 40
0.75
 49
0.5
 49
-0.25
  0
LTYPE
  5
43B
  2
DOTTED
 70
0
  3
Dotted .  .  .  .
 72
65
 73
2
 40
0.2
 49
0.0
 49
-0.2
  0
ENDTAB
  0
TABLE
  2
STYLE
  70
4
  0
STYLE
  2
KICAD
  70
0
  40
0
  41
1
  42
1
  50
0
  71
0
  3
isocp.shx
  0
STYLE
  2
KICADB
  70
0
  40
0
  41
1
  42
1
  50
0
  71
0
  3
isocp.shx
  0
STYLE
  2
KICADI
  70
0
  40
0
  41
1
  42
1
  50
15
  71
0
  3
isocp.shx
  0
STYLE
  2
KICADBI
  70
0
  40
0
  41
1
  42
1
  50
15
  71
0
  3
isocp.shx
  0
ENDTAB
  0
TABLE
  2
LAYER
  70
1
  0
LAYER
  2
BLACK
  70
0
  62
7
  6
CONTINUOUS
  0
ENDTAB
  0
ENDSEC
  0
SECTION
  2
ENTITIES
0
LINE
8
BLACK
6
CONTINUOUS
10
195.914
20
-130.674
11
195.93
21
-130.686
0
LINE
8
BLACK
6
CONTINUOUS
10
195.93
20
-130.686
11
195.932
21
-130.705
0
LINE
8
BLACK
6
CONTINUOUS
10
195.932
20
-130.705
11
192.179
21
-144.711
0
LINE
8
BLACK
6
CONTINUOUS
10
192.179
20
-144.711
11
192.168
21
-144.726
0
LINE
8
BLACK
6
CONTINUOUS
10
192.168
20
-144.726
11
192.149
21
-144.729
0
LINE
8
BLACK
6
CONTINUOUS
10
192.149
20
-144.729
11
192.149
21
-144.729
0
LINE
8
BLACK
6
CONTINUOUS
10
192.149
20
-144.729
11
192.149
21
-144.729
0
LINE
8
BLACK
6
CONTINUOUS
10
192.149
20
-144.729
11
178.143
21
-140.976
0
LINE
8
BLACK
6
CONTINUOUS
10
178.143
20
-140.976
11
178.127
21
-140.964
0
LINE
8
BLACK
6
CONTINUOUS
10
178.127
20
-140.964
11
178.125
21
-140.945
0
LINE
8
BLACK
6
CONTINUOUS
10
178.125
20
-140.945
11
178.125
21
-140.945
0
LINE
8
BLACK
6
CONTINUOUS
10
178.125
20
-140.945
11
181.878
21
-126.939
0
LINE
8
BLACK
6
CONTINUOUS
10
181.878
20
-126.939
11
181.889
21
-126.924
0
LINE
8
BLACK
6
CONTINUOUS
10
181.889
20
-126.924
11
181.908
21
-126.922
0
LINE
8
BLACK
6
CONTINUOUS
10
181.908
20
-126.922
11
195.914
21
-130.674
0
LINE
8
BLACK
6
CONTINUOUS
10
178.18
20
-140.934
11
192.137
21
-144.674
0
LINE
8
BLACK
6
CONTINUOUS
10
192.137
20
-144.674
11
195.877
21
-130.716
0
LINE
8
BLACK
6
CONTINUOUS
10
195.877
20
-130.716
11
181.92
21
-126.976
0
LINE
8
BLACK
6
CONTINUOUS
10
181.92
20
-126.976
11
178.18
21
-140.934
0
LINE
8
BLACK
6
CONTINUOUS
10
177.514
20
-125.744
11
177.529
21
-125.756
0
LINE
8
BLACK
6
CONTINUOUS
10
177.529
20
-125.756
11
177.531
21
-125.775
0
LINE
8
BLACK
6
CONTINUOUS
10
177.531
20
-125.775
11
173.778
21
-139.78
0
LINE
8
BLACK
6
CONTINUOUS
10
173.778
20
-139.78
11
173.767
21
-139.796
0
LINE
8
BLACK
6
CONTINUOUS
10
173.767
20
-139.796
11
173.748
21
-139.798
0
LINE
8
BLACK
6
CONTINUOUS
10
173.748
20
-139.798
11
173.748
21
-139.798
0
LINE
8
BLACK
6
CONTINUOUS
10
173.748
20
-139.798
11
173.748
21
-139.798
0
LINE
8
BLACK
6
CONTINUOUS
10
173.748
20
-139.798
11
159.742
21
-136.045
0
LINE
8
BLACK
6
CONTINUOUS
10
159.742
20
-136.045
11
159.727
21
-136.034
0
LINE
8
BLACK
6
CONTINUOUS
10
159.727
20
-136.034
11
159.724
21
-136.015
0
LINE
8
BLACK
6
CONTINUOUS
10
159.724
20
-136.015
11
163.477
21
-122.009
0
LINE
8
BLACK
6
CONTINUOUS
10
163.477
20
-122.009
11
163.489
21
-121.994
0
LINE
8
BLACK
6
CONTINUOUS
10
163.489
20
-121.994
11
163.508
21
-121.991
0
LINE
8
BLACK
6
CONTINUOUS
10
163.508
20
-121.991
11
177.514
21
-125.744
0
LINE
8
BLACK
6
CONTINUOUS
10
159.779
20
-136.003
11
173.736
21
-139.743
0
LINE
8
BLACK
6
CONTINUOUS
10
173.736
20
-139.743
11
177.476
21
-125.786
0
LINE
8
BLACK
6
CONTINUOUS
10
177.476
20
-125.786
11
163.519
21
-122.046
0
LINE
8
BLACK
6
CONTINUOUS
10
163.519
20
-122.046
11
159.779
21
-136.003
0
LINE
8
BLACK
6
CONTINUOUS
10
159.113
20
-120.813
11
159.128
21
-120.825
0
LINE
8
BLACK
6
CONTINUOUS
10
159.128
20
-120.825
11
159.13
21
-120.844
0
LINE
8
BLACK
6
CONTINUOUS
10
159.13
20
-120.844
11
155.377
21
-134.85
0
LINE
8
BLACK
6
CONTINUOUS
10
155.377
20
-134.85
11
155.366
21
-134.865
0
LINE
8
BLACK
6
CONTINUOUS
10
155.366
20
-134.865
11
155.347
21
-134.868
0
LINE
8
BLACK
6
CONTINUOUS
10
155.347
20
-134.868
11
155.347
21
-134.868
0
LINE
8
BLACK
6
CONTINUOUS
10
155.347
20
-134.868
11
155.347
21
-134.868
0
LINE
8
BLACK
6
CONTINUOUS
10
155.347
20
-134.868
11
141.341
21
-131.115
0
LINE
8
BLACK
6
CONTINUOUS
10
141.341
20
-131.115
11
141.326
21
-131.103
0
LINE
8
BLACK
6
CONTINUOUS
10
141.326
20
-131.103
11
141.323
21
-131.084
0
LINE
8
BLACK
6
CONTINUOUS
10
141.323
20
-131.084
11
141.323
21
-131.084
0
LINE
8
BLACK
6
CONTINUOUS
10
141.323
20
-131.084
11
145.076
21
-117.078
0
LINE
8
BLACK
6
CONTINUOUS
10
145.076
20
-117.078
11
145.088
21
-117.063
0
LINE
8
BLACK
6
CONTINUOUS
10
145.088
20
-117.063
11
145.107
21
-117.061
0
LINE
8
BLACK
6
CONTINUOUS
10
145.107
20
-117.061
11
159.113
21
-120.813
0
LINE
8
BLACK
6
CONTINUOUS
10
141.378
20
-131.073
11
155.336
21
-134.813
0
LINE
8
BLACK
6
CONTINUOUS
10
155.336
20
-134.813
11
159.076
21
-120.855
0
LINE
8
BLACK
6
CONTINUOUS
10
159.076
20
-120.855
11
145.118
21
-117.115
0
LINE
8
BLACK
6
CONTINUOUS
10
145.118
20
-117.115
11
141.378
21
-131.073
0
LINE
8
BLACK
6
CONTINUOUS
10
140.712
20
-115.883
11
140.727
21
-115.895
0
LINE
8
BLACK
6
CONTINUOUS
10
140.727
20
-115.895
11
140.729
21
-115.914
0
LINE
8
BLACK
6
CONTINUOUS
10
140.729
20
-115.914
11
136.977
21
-129.919
0
LINE
8
BLACK
6
CONTINUOUS
10
136.977
20
-129.919
11
136.965
21
-129.935
0
LINE
8
BLACK
6
CONTINUOUS
10
136.965
20
-129.935
11
136.946
21
-129.937
0
LINE
8
BLACK
6
CONTINUOUS
10
136.946
20
-129.937
11
136.946
21
-129.937
0
LINE
8
BLACK
6
CONTINUOUS
10
136.946
20
-129.937
11
136.946
21
-129.937
0
LINE
8
BLACK
6
CONTINUOUS
10
136.946
20
-129.937
11
122.94
21
-126.184
0
LINE
8
BLACK
6
CONTINUOUS
10
122.94
20
-126.184
11
122.925
21
-126.173
0
LINE
8
BLACK
6
CONTINUOUS
10
122.925
20
-126.173
11
122.922
21
-126.154
0
LINE
8
BLACK
6
CONTINUOUS
10
122.922
20
-126.154
11
122.922
21
-126.154
0
LINE
8
BLACK
6
CONTINUOUS
10
122.922
20
-126.154
11
126.675
21
-112.148
0
LINE
8
BLACK
6
CONTINUOUS
10
126.675
20
-112.148
11
126.687
21
-112.133
0
LINE
8
BLACK
6
CONTINUOUS
10
126.687
20
-112.133
11
126.706
21
-112.13
0
LINE
8
BLACK
6
CONTINUOUS
10
126.706
20
-112.13
11
140.712
21
-115.883
0
LINE
8
BLACK
6
CONTINUOUS
10
122.977
20
-126.142
11
136.935
21
-129.882
0
LINE
8
BLACK
6
CONTINUOUS
10
136.935
20
-129.882
11
140.675
21
-115.925
0
LINE
8
BLACK
6
CONTINUOUS
10
140.675
20
-115.925
11
126.717
21
-112.185
0
LINE
8
BLACK
6
CONTINUOUS
10
126.717
20
-112.185
11
122.977
21
-126.142
0
LINE
8
BLACK
6
CONTINUOUS
10
116.787
20
-107.025
11
116.805
21
-107.032
0
LINE
8
BLACK
6
CONTINUOUS
10
116.805
20
-107.032
11
116.812
21
-107.05
0
LINE
8
BLACK
6
CONTINUOUS
10
116.812
20
-107.05
11
116.812
21
-121.55
0
LINE
8
BLACK
6
CONTINUOUS
10
116.812
20
-121.55
11
116.805
21
-121.568
0
LINE
8
BLACK
6
CONTINUOUS
10
116.805
20
-121.568
11
116.787
21
-121.575
0
LINE
8
BLACK
6
CONTINUOUS
10
116.787
20
-121.575
11
102.287
21
-121.575
0
LINE
8
BLACK
6
CONTINUOUS
10
102.287
20
-121.575
11
102.27
21
-121.568
0
LINE
8
BLACK
6
CONTINUOUS
10
102.27
20
-121.568
11
102.262
21
-121.55
0
LINE
8
BLACK
6
CONTINUOUS
10
102.262
20
-121.55
11
102.262
21
-107.05
0
LINE
8
BLACK
6
CONTINUOUS
10
102.262
20
-107.05
11
102.27
21
-107.032
0
LINE
8
BLACK
6
CONTINUOUS
10
102.27
20
-107.032
11
102.287
21
-107.025
0
LINE
8
BLACK
6
CONTINUOUS
10
102.287
20
-107.025
11
116.787
21
-107.025
0
LINE
8
BLACK
6
CONTINUOUS
10
102.312
20
-107.075
11
102.312
21
-121.525
0
LINE
8
BLACK
6
CONTINUOUS
10
102.312
20
-121.525
11
116.762
21
-121.525
0
LINE
8
BLACK
6
CONTINUOUS
10
116.762
20
-121.525
11
116.762
21
-107.075
0
LINE
8
BLACK
6
CONTINUOUS
10
116.762
20
-107.075
11
102.312
21
-107.075
0
LINE
8
BLACK
6
CONTINUOUS
10
95.3562
20
-107.025
11
95.3739
21
-107.032
0
LINE
8
BLACK
6
CONTINUOUS
10
95.3739
20
-107.032
11
95.3812
21
-107.05
0
LINE
8
BLACK
6
CONTINUOUS
10
95.3812
20
-107.05
11
95.3812
21
-121.55
0
LINE
8
BLACK
6
CONTINUOUS
10
95.3812
20
-121.55
11
95.3739
21
-121.568
0
LINE
8
BLACK
6
CONTINUOUS
10
95.3739
20
-121.568
11
95.3562
21
-121.575
0
LINE
8
BLACK
6
CONTINUOUS
10
95.3562
20
-121.575
11
80.8563
21
-121.575
0
LINE
8
BLACK
6
CONTINUOUS
10
80.8563
20
-121.575
11
80.8386
21
-121.568
0
LINE
8
BLACK
6
CONTINUOUS
10
80.8386
20
-121.568
11
80.8312
21
-121.55
0
LINE
8
BLACK
6
CONTINUOUS
10
80.8312
20
-121.55
11
80.8312
21
-107.05
0
LINE
8
BLACK
6
CONTINUOUS
10
80.8312
20
-107.05
11
80.8386
21
-107.032
0
LINE
8
BLACK
6
CONTINUOUS
10
80.8386
20
-107.032
11
80.8563
21
-107.025
0
LINE
8
BLACK
6
CONTINUOUS
10
80.8563
20
-107.025
11
95.3562
21
-107.025
0
LINE
8
BLACK
6
CONTINUOUS
10
80.8812
20
-107.075
11
80.8812
21
-121.525
0
LINE
8
BLACK
6
CONTINUOUS
10
80.8812
20
-121.525
11
95.3312
21
-121.525
0
LINE
8
BLACK
6
CONTINUOUS
10
95.3312
20
-121.525
11
95.3312
21
-107.075
0
LINE
8
BLACK
6
CONTINUOUS
10
95.3312
20
-107.075
11
80.8812
21
-107.075
0
LINE
8
BLACK
6
CONTINUOUS
10
73.925
20
-107.025
11
73.9427
21
-107.032
0
LINE
8
BLACK
6
CONTINUOUS
10
73.9427
20
-107.032
11
73.95
21
-107.05
0
LINE
8
BLACK
6
CONTINUOUS
10
73.95
20
-107.05
11
73.95
21
-121.55
0
LINE
8
BLACK
6
CONTINUOUS
10
73.95
20
-121.55
11
73.9427
21
-121.568
0
LINE
8
BLACK
6
CONTINUOUS
10
73.9427
20
-121.568
11
73.925
21
-121.575
0
LINE
8
BLACK
6
CONTINUOUS
10
73.925
20
-121.575
11
59.425
21
-121.575
0
LINE
8
BLACK
6
CONTINUOUS
10
59.425
20
-121.575
11
59.4073
21
-121.568
0
LINE
8
BLACK
6
CONTINUOUS
10
59.4073
20
-121.568
11
59.4
21
-121.55
0
LINE
8
BLACK
6
CONTINUOUS
10
59.4
20
-121.55
11
59.4
21
-107.05
0
LINE
8
BLACK
6
CONTINUOUS
10
59.4
20
-107.05
11
59.4073
21
-107.032
0
LINE
8
BLACK
6
CONTINUOUS
10
59.4073
20
-107.032
11
59.425
21
-107.025
0
LINE
8
BLACK
6
CONTINUOUS
10
59.425
20
-107.025
11
73.925
21
-107.025
0
LINE
8
BLACK
6
CONTINUOUS
10
59.45
20
-107.075
11
59.45
21
-121.525
0
LINE
8
BLACK
6
CONTINUOUS
10
59.45
20
-121.525
11
73.9
21
-121.525
0
LINE
8
BLACK
6
CONTINUOUS
10
73.9
20
-121.525
11
73.9
21
-107.075
0
LINE
8
BLACK
6
CONTINUOUS
10
73.9
20
-107.075
11
59.45
21
-107.075
0
LINE
8
BLACK
6
CONTINUOUS
10
192.987
20
-87.975
11
193.005
21
-87.9823
0
LINE
8
BLACK
6
CONTINUOUS
10
193.005
20
-87.9823
11
193.012
21
-88
0
LINE
8
BLACK
6
CONTINUOUS
10
193.012
20
-88
11
193.012
21
-102.5
0
LINE
8
BLACK
6
CONTINUOUS
10
193.012
20
-102.5
11
193.005
21
-102.518
0
LINE
8
BLACK
6
CONTINUOUS
10
193.005
20
-102.518
11
192.987
21
-102.525
0
LINE
8
BLACK
6
CONTINUOUS
10
192.987
20
-102.525
11
178.487
21
-102.525
0
LINE
8
BLACK
6
CONTINUOUS
10
178.487
20
-102.525
11
178.47
21
-102.518
0
LINE
8
BLACK
6
CONTINUOUS
10
178.47
20
-102.518
11
178.463
21
-102.5
0
LINE
8
BLACK
6
CONTINUOUS
10
178.463
20
-102.5
11
178.463
21
-88
0
LINE
8
BLACK
6
CONTINUOUS
10
178.463
20
-88
11
178.47
21
-87.9823
0
LINE
8
BLACK
6
CONTINUOUS
10
178.47
20
-87.9823
11
178.487
21
-87.975
0
LINE
8
BLACK
6
CONTINUOUS
10
178.487
20
-87.975
11
192.987
21
-87.975
0
LINE
8
BLACK
6
CONTINUOUS
10
178.512
20
-88.025
11
178.512
21
-102.475
0
LINE
8
BLACK
6
CONTINUOUS
10
178.512
20
-102.475
11
192.962
21
-102.475
0
LINE
8
BLACK
6
CONTINUOUS
10
192.962
20
-102.475
11
192.962
21
-88.025
0
LINE
8
BLACK
6
CONTINUOUS
10
192.962
20
-88.025
11
178.512
21
-88.025
0
LINE
8
BLACK
6
CONTINUOUS
10
173.938
20
-87.975
11
173.955
21
-87.9823
0
LINE
8
BLACK
6
CONTINUOUS
10
173.955
20
-87.9823
11
173.963
21
-88
0
LINE
8
BLACK
6
CONTINUOUS
10
173.963
20
-88
11
173.963
21
-102.5
0
LINE
8
BLACK
6
CONTINUOUS
10
173.963
20
-102.5
11
173.955
21
-102.518
0
LINE
8
BLACK
6
CONTINUOUS
10
173.955
20
-102.518
11
173.938
21
-102.525
0
LINE
8
BLACK
6
CONTINUOUS
10
173.938
20
-102.525
11
159.438
21
-102.525
0
LINE
8
BLACK
6
CONTINUOUS
10
159.438
20
-102.525
11
159.42
21
-102.518
0
LINE
8
BLACK
6
CONTINUOUS
10
159.42
20
-102.518
11
159.412
21
-102.5
0
LINE
8
BLACK
6
CONTINUOUS
10
159.412
20
-102.5
11
159.412
21
-88
0
LINE
8
BLACK
6
CONTINUOUS
10
159.412
20
-88
11
159.42
21
-87.9823
0
LINE
8
BLACK
6
CONTINUOUS
10
159.42
20
-87.9823
11
159.438
21
-87.975
0
LINE
8
BLACK
6
CONTINUOUS
10
159.438
20
-87.975
11
173.938
21
-87.975
0
LINE
8
BLACK
6
CONTINUOUS
10
159.463
20
-88.025
11
159.463
21
-102.475
0
LINE
8
BLACK
6
CONTINUOUS
10
159.463
20
-102.475
11
173.912
21
-102.475
0
LINE
8
BLACK
6
CONTINUOUS
10
173.912
20
-102.475
11
173.912
21
-88.025
0
LINE
8
BLACK
6
CONTINUOUS
10
173.912
20
-88.025
11
159.463
21
-88.025
0
LINE
8
BLACK
6
CONTINUOUS
10
154.887
20
-87.975
11
154.905
21
-87.9823
0
LINE
8
BLACK
6
CONTINUOUS
10
154.905
20
-87.9823
11
154.912
21
-88
0
LINE
8
BLACK
6
CONTINUOUS
10
154.912
20
-88
11
154.912
21
-102.5
0
LINE
8
BLACK
6
CONTINUOUS
10
154.912
20
-102.5
11
154.905
21
-102.518
0
LINE
8
BLACK
6
CONTINUOUS
10
154.905
20
-102.518
11
154.887
21
-102.525
0
LINE
8
BLACK
6
CONTINUOUS
10
154.887
20
-102.525
11
140.387
21
-102.525
0
LINE
8
BLACK
6
CONTINUOUS
10
140.387
20
-102.525
11
140.37
21
-102.518
0
LINE
8
BLACK
6
CONTINUOUS
10
140.37
20
-102.518
11
140.362
21
-102.5
0
LINE
8
BLACK
6
CONTINUOUS
10
140.362
20
-102.5
11
140.362
21
-88
0
LINE
8
BLACK
6
CONTINUOUS
10
140.362
20
-88
11
140.37
21
-87.9823
0
LINE
8
BLACK
6
CONTINUOUS
10
140.37
20
-87.9823
11
140.387
21
-87.975
0
LINE
8
BLACK
6
CONTINUOUS
10
140.387
20
-87.975
11
154.887
21
-87.975
0
LINE
8
BLACK
6
CONTINUOUS
10
140.412
20
-88.025
11
140.412
21
-102.475
0
LINE
8
BLACK
6
CONTINUOUS
10
140.412
20
-102.475
11
154.862
21
-102.475
0
LINE
8
BLACK
6
CONTINUOUS
10
154.862
20
-102.475
11
154.862
21
-88.025
0
LINE
8
BLACK
6
CONTINUOUS
10
154.862
20
-88.025
11
140.412
21
-88.025
0
LINE
8
BLACK
6
CONTINUOUS
10
135.838
20
-87.975
11
135.855
21
-87.9823
0
LINE
8
BLACK
6
CONTINUOUS
10
135.855
20
-87.9823
11
135.862
21
-88
0
LINE
8
BLACK
6
CONTINUOUS
10
135.862
20
-88
11
135.862
21
-102.5
0
LINE
8
BLACK
6
CONTINUOUS
10
135.862
20
-102.5
11
135.855
21
-102.518
0
LINE
8
BLACK
6
CONTINUOUS
10
135.855
20
-102.518
11
135.838
21
-102.525
0
LINE
8
BLACK
6
CONTINUOUS
10
135.838
20
-102.525
11
121.337
21
-102.525
0
LINE
8
BLACK
6
CONTINUOUS
10
121.337
20
-102.525
11
121.32
21
-102.518
0
LINE
8
BLACK
6
CONTINUOUS
10
121.32
20
-102.518
11
121.312
21
-102.5
0
LINE
8
BLACK
6
CONTINUOUS
10
121.312
20
-102.5
11
121.312
21
-88
0
LINE
8
BLACK
6
CONTINUOUS
10
121.312
20
-88
11
121.32
21
-87.9823
0
LINE
8
BLACK
6
CONTINUOUS
10
121.32
20
-87.9823
11
121.337
21
-87.975
0
LINE
8
BLACK
6
CONTINUOUS
10
121.337
20
-87.975
11
135.838
21
-87.975
0
LINE
8
BLACK
6
CONTINUOUS
10
121.362
20
-88.025
11
121.362
21
-102.475
0
LINE
8
BLACK
6
CONTINUOUS
10
121.362
20
-102.475
11
135.812
21
-102.475
0
LINE
8
BLACK
6
CONTINUOUS
10
135.812
20
-102.475
11
135.812
21
-88.025
0
LINE
8
BLACK
6
CONTINUOUS
10
135.812
20
-88.025
11
121.362
21
-88.025
0
LINE
8
BLACK
6
CONTINUOUS
10
116.787
20
-87.975
11
116.805
21
-87.9823
0
LINE
8
BLACK
6
CONTINUOUS
10
116.805
20
-87.9823
11
116.812
21
-88
0
LINE
8
BLACK
6
CONTINUOUS
10
116.812
20
-88
11
116.812
21
-102.5
0
LINE
8
BLACK
6
CONTINUOUS
10
116.812
20
-102.5
11
116.805
21
-102.518
0
LINE
8
BLACK
6
CONTINUOUS
10
116.805
20
-102.518
11
116.787
21
-102.525
0
LINE
8
BLACK
6
CONTINUOUS
10
116.787
20
-102.525
11
102.287
21
-102.525
0
LINE
8
BLACK
6
CONTINUOUS
10
102.287
20
-102.525
11
102.27
21
-102.518
0
LINE
8
BLACK
6
CONTINUOUS
10
102.27
20
-102.518
11
102.262
21
-102.5
0
LINE
8
BLACK
6
CONTINUOUS
10
102.262
20
-102.5
11
102.262
21
-88
0
LINE
8
BLACK
6
CONTINUOUS
10
102.262
20
-88
11
102.27
21
-87.9823
0
LINE
8
BLACK
6
CONTINUOUS
10
102.27
20
-87.9823
11
102.287
21
-87.975
0
LINE
8
BLACK
6
CONTINUOUS
10
102.287
20
-87.975
11
116.787
21
-87.975
0
LINE
8
BLACK
6
CONTINUOUS
10
102.312
20
-88.025
11
102.312
21
-102.475
0
LINE
8
BLACK
6
CONTINUOUS
10
102.312
20
-102.475
11
116.762
21
-102.475
0
LINE
8
BLACK
6
CONTINUOUS
10
116.762
20
-102.475
11
116.762
21
-88.025
0
LINE
8
BLACK
6
CONTINUOUS
10
116.762
20
-88.025
11
102.312
21
-88.025
0
LINE
8
BLACK
6
CONTINUOUS
10
95.3562
20
-87.975
11
95.3739
21
-87.9823
0
LINE
8
BLACK
6
CONTINUOUS
10
95.3739
20
-87.9823
11
95.3812
21
-88
0
LINE
8
BLACK
6
CONTINUOUS
10
95.3812
20
-88
11
95.3812
21
-102.5
0
LINE
8
BLACK
6
CONTINUOUS
10
95.3812
20
-102.5
11
95.3739
21
-102.518
0
LINE
8
BLACK
6
CONTINUOUS
10
95.3739
20
-102.518
11
95.3562
21
-102.525
0
LINE
8
BLACK
6
CONTINUOUS
10
95.3562
20
-102.525
11
80.8563
21
-102.525
0
LINE
8
BLACK
6
CONTINUOUS
10
80.8563
20
-102.525
11
80.8386
21
-102.518
0
LINE
8
BLACK
6
CONTINUOUS
10
80.8386
20
-102.518
11
80.8312
21
-102.5
0
LINE
8
BLACK
6
CONTINUOUS
10
80.8312
20
-102.5
11
80.8312
21
-88
0
LINE
8
BLACK
6
CONTINUOUS
10
80.8312
20
-88
11
80.8386
21
-87.9823
0
LINE
8
BLACK
6
CONTINUOUS
10
80.8386
20
-87.9823
11
80.8563
21
-87.975
0
LINE
8
BLACK
6
CONTINUOUS
10
80.8563
20
-87.975
11
95.3562
21
-87.975
0
LINE
8
BLACK
6
CONTINUOUS
10
80.8812
20
-88.025
11
80.8812
21
-102.475
0
LINE
8
BLACK
6
CONTINUOUS
10
80.8812
20
-102.475
11
95.3312
21
-102.475
0
LINE
8
BLACK
6
CONTINUOUS
10
95.3312
20
-102.475
11
95.3312
21
-88.025
0
LINE
8
BLACK
6
CONTINUOUS
10
95.3312
20
-88.025
11
80.8812
21
-88.025
0
LINE
8
BLACK
6
CONTINUOUS
10
73.925
20
-87.975
11
73.9427
21
-87.9823
0
LINE
8
BLACK
6
CONTINUOUS
10
73.9427
20
-87.9823
11
73.95
21
-88
0
LINE
8
BLACK
6
CONTINUOUS
10
73.95
20
-88
11
73.95
21
-102.5
0
LINE
8
BLACK
6
CONTINUOUS
10
73.95
20
-102.5
11
73.9427
21
-102.518
0
LINE
8
BLACK
6
CONTINUOUS
10
73.9427
20
-102.518
11
73.925
21
-102.525
0
LINE
8
BLACK
6
CONTINUOUS
10
73.925
20
-102.525
11
59.425
21
-102.525
0
LINE
8
BLACK
6
CONTINUOUS
10
59.425
20
-102.525
11
59.4073
21
-102.518
0
LINE
8
BLACK
6
CONTINUOUS
10
59.4073
20
-102.518
11
59.4
21
-102.5
0
LINE
8
BLACK
6
CONTINUOUS
10
59.4
20
-102.5
11
59.4
21
-88
0
LINE
8
BLACK
6
CONTINUOUS
10
59.4
20
-88
11
59.4073
21
-87.9823
0
LINE
8
BLACK
6
CONTINUOUS
10
59.4073
20
-87.9823
11
59.425
21
-87.975
0
LINE
8
BLACK
6
CONTINUOUS
10
59.425
20
-87.975
11
73.925
21
-87.975
0
LINE
8
BLACK
6
CONTINUOUS
10
59.45
20
-88.025
11
59.45
21
-102.475
0
LINE
8
BLACK
6
CONTINUOUS
10
59.45
20
-102.475
11
73.9
21
-102.475
0
LINE
8
BLACK
6
CONTINUOUS
10
73.9
20
-102.475
11
73.9
21
-88.025
0
LINE
8
BLACK
6
CONTINUOUS
10
73.9
20
-88.025
11
59.45
21
-88.025
0
LINE
8
BLACK
6
CONTINUOUS
10
192.987
20
-68.925
11
193.005
21
-68.9323
0
LINE
8
BLACK
6
CONTINUOUS
10
193.005
20
-68.9323
11
193.012
21
-68.95
0
LINE
8
BLACK
6
CONTINUOUS
10
193.012
20
-68.95
11
193.012
21
-83.45
0
LINE
8
BLACK
6
CONTINUOUS
10
193.012
20
-83.45
11
193.005
21
-83.4677
0
LINE
8
BLACK
6
CONTINUOUS
10
193.005
20
-83.4677
11
192.987
21
-83.475
0
LINE
8
BLACK
6
CONTINUOUS
10
192.987
20
-83.475
11
178.487
21
-83.475
0
LINE
8
BLACK
6
CONTINUOUS
10
178.487
20
-83.475
11
178.47
21
-83.4677
0
LINE
8
BLACK
6
CONTINUOUS
10
178.47
20
-83.4677
11
178.463
21
-83.45
0
LINE
8
BLACK
6
CONTINUOUS
10
178.463
20
-83.45
11
178.463
21
-68.95
0
LINE
8
BLACK
6
CONTINUOUS
10
178.463
20
-68.95
11
178.47
21
-68.9323
0
LINE
8
BLACK
6
CONTINUOUS
10
178.47
20
-68.9323
11
178.487
21
-68.925
0
LINE
8
BLACK
6
CONTINUOUS
10
178.487
20
-68.925
11
192.987
21
-68.925
0
LINE
8
BLACK
6
CONTINUOUS
10
178.512
20
-68.975
11
178.512
21
-83.425
0
LINE
8
BLACK
6
CONTINUOUS
10
178.512
20
-83.425
11
192.962
21
-83.425
0
LINE
8
BLACK
6
CONTINUOUS
10
192.962
20
-83.425
11
192.962
21
-68.975
0
LINE
8
BLACK
6
CONTINUOUS
10
192.962
20
-68.975
11
178.512
21
-68.975
0
LINE
8
BLACK
6
CONTINUOUS
10
173.938
20
-68.925
11
173.955
21
-68.9323
0
LINE
8
BLACK
6
CONTINUOUS
10
173.955
20
-68.9323
11
173.963
21
-68.95
0
LINE
8
BLACK
6
CONTINUOUS
10
173.963
20
-68.95
11
173.963
21
-83.45
0
LINE
8
BLACK
6
CONTINUOUS
10
173.963
20
-83.45
11
173.955
21
-83.4677
0
LINE
8
BLACK
6
CONTINUOUS
10
173.955
20
-83.4677
11
173.938
21
-83.475
0
LINE
8
BLACK
6
CONTINUOUS
10
173.938
20
-83.475
11
159.438
21
-83.475
0
LINE
8
BLACK
6
CONTINUOUS
10
159.438
20
-83.475
11
159.42
21
-83.4677
0
LINE
8
BLACK
6
CONTINUOUS
10
159.42
20
-83.4677
11
159.412
21
-83.45
0
LINE
8
BLACK
6
CONTINUOUS
10
159.412
20
-83.45
11
159.412
21
-68.95
0
LINE
8
BLACK
6
CONTINUOUS
10
159.412
20
-68.95
11
159.42
21
-68.9323
0
LINE
8
BLACK
6
CONTINUOUS
10
159.42
20
-68.9323
11
159.438
21
-68.925
0
LINE
8
BLACK
6
CONTINUOUS
10
159.438
20
-68.925
11
173.938
21
-68.925
0
LINE
8
BLACK
6
CONTINUOUS
10
159.463
20
-68.975
11
159.463
21
-83.425
0
LINE
8
BLACK
6
CONTINUOUS
10
159.463
20
-83.425
11
173.912
21
-83.425
0
LINE
8
BLACK
6
CONTINUOUS
10
173.912
20
-83.425
11
173.912
21
-68.975
0
LINE
8
BLACK
6
CONTINUOUS
10
173.912
20
-68.975
11
159.463
21
-68.975
0
LINE
8
BLACK
6
CONTINUOUS
10
154.887
20
-68.925
11
154.905
21
-68.9323
0
LINE
8
BLACK
6
CONTINUOUS
10
154.905
20
-68.9323
11
154.912
21
-68.95
0
LINE
8
BLACK
6
CONTINUOUS
10
154.912
20
-68.95
11
154.912
21
-83.45
0
LINE
8
BLACK
6
CONTINUOUS
10
154.912
20
-83.45
11
154.905
21
-83.4677
0
LINE
8
BLACK
6
CONTINUOUS
10
154.905
20
-83.4677
11
154.887
21
-83.475
0
LINE
8
BLACK
6
CONTINUOUS
10
154.887
20
-83.475
11
140.387
21
-83.475
0
LINE
8
BLACK
6
CONTINUOUS
10
140.387
20
-83.475
11
140.37
21
-83.4677
0
LINE
8
BLACK
6
CONTINUOUS
10
140.37
20
-83.4677
11
140.362
21
-83.45
0
LINE
8
BLACK
6
CONTINUOUS
10
140.362
20
-83.45
11
140.362
21
-68.95
0
LINE
8
BLACK
6
CONTINUOUS
10
140.362
20
-68.95
11
140.37
21
-68.9323
0
LINE
8
BLACK
6
CONTINUOUS
10
140.37
20
-68.9323
11
140.387
21
-68.925
0
LINE
8
BLACK
6
CONTINUOUS
10
140.387
20
-68.925
11
154.887
21
-68.925
0
LINE
8
BLACK
6
CONTINUOUS
10
140.412
20
-68.975
11
140.412
21
-83.425
0
LINE
8
BLACK
6
CONTINUOUS
10
140.412
20
-83.425
11
154.862
21
-83.425
0
LINE
8
BLACK
6
CONTINUOUS
10
154.862
20
-83.425
11
154.862
21
-68.975
0
LINE
8
BLACK
6
CONTINUOUS
10
154.862
20
-68.975
11
140.412
21
-68.975
0
LINE
8
BLACK
6
CONTINUOUS
10
135.838
20
-68.925
11
135.855
21
-68.9323
0
LINE
8
BLACK
6
CONTINUOUS
10
135.855
20
-68.9323
11
135.862
21
-68.95
0
LINE
8
BLACK
6
CONTINUOUS
10
135.862
20
-68.95
11
135.862
21
-83.45
0
LINE
8
BLACK
6
CONTINUOUS
10
135.862
20
-83.45
11
135.855
21
-83.4677
0
LINE
8
BLACK
6
CONTINUOUS
10
135.855
20
-83.4677
11
135.838
21
-83.475
0
LINE
8
BLACK
6
CONTINUOUS
10
135.838
20
-83.475
11
121.337
21
-83.475
0
LINE
8
BLACK
6
CONTINUOUS
10
121.337
20
-83.475
11
121.32
21
-83.4677
0
LINE
8
BLACK
6
CONTINUOUS
10
121.32
20
-83.4677
11
121.312
21
-83.45
0
LINE
8
BLACK
6
CONTINUOUS
10
121.312
20
-83.45
11
121.312
21
-68.95
0
LINE
8
BLACK
6
CONTINUOUS
10
121.312
20
-68.95
11
121.32
21
-68.9323
0
LINE
8
BLACK
6
CONTINUOUS
10
121.32
20
-68.9323
11
121.337
21
-68.925
0
LINE
8
BLACK
6
CONTINUOUS
10
121.337
20
-68.925
11
135.838
21
-68.925
0
LINE
8
BLACK
6
CONTINUOUS
10
121.362
20
-68.975
11
121.362
21
-83.425
0
LINE
8
BLACK
6
CONTINUOUS
10
121.362
20
-83.425
11
135.812
21
-83.425
0
LINE
8
BLACK
6
CONTINUOUS
10
135.812
20
-83.425
11
135.812
21
-68.975
0
LINE
8
BLACK
6
CONTINUOUS
10
135.812
20
-68.975
11
121.362
21
-68.975
0
LINE
8
BLACK
6
CONTINUOUS
10
116.787
20
-68.925
11
116.805
21
-68.9323
0
LINE
8
BLACK
6
CONTINUOUS
10
116.805
20
-68.9323
11
116.812
21
-68.95
0
LINE
8
BLACK
6
CONTINUOUS
10
116.812
20
-68.95
11
116.812
21
-83.45
0
LINE
8
BLACK
6
CONTINUOUS
10
116.812
20
-83.45
11
116.805
21
-83.4677
0
LINE
8
BLACK
6
CONTINUOUS
10
116.805
20
-83.4677
11
116.787
21
-83.475
0
LINE
8
BLACK
6
CONTINUOUS
10
116.787
20
-83.475
11
102.287
21
-83.475
0
LINE
8
BLACK
6
CONTINUOUS
10
102.287
20
-83.475
11
102.27
21
-83.4677
0
LINE
8
BLACK
6
CONTINUOUS
10
102.27
20
-83.4677
11
102.262
21
-83.45
0
LINE
8
BLACK
6
CONTINUOUS
10
102.262
20
-83.45
11
102.262
21
-68.95
0
LINE
8
BLACK
6
CONTINUOUS
10
102.262
20
-68.95
11
102.27
21
-68.9323
0
LINE
8
BLACK
6
CONTINUOUS
10
102.27
20
-68.9323
11
102.287
21
-68.925
0
LINE
8
BLACK
6
CONTINUOUS
10
102.287
20
-68.925
11
116.787
21
-68.925
0
LINE
8
BLACK
6
CONTINUOUS
10
102.312
20
-68.975
11
102.312
21
-83.425
0
LINE
8
BLACK
6
CONTINUOUS
10
102.312
20
-83.425
11
116.762
21
-83.425
0
LINE
8
BLACK
6
CONTINUOUS
10
116.762
20
-83.425
11
116.762
21
-68.975
0
LINE
8
BLACK
6
CONTINUOUS
10
116.762
20
-68.975
11
102.312
21
-68.975
0
LINE
8
BLACK
6
CONTINUOUS
10
95.3562
20
-68.925
11
95.3739
21
-68.9323
0
LINE
8
BLACK
6
CONTINUOUS
10
95.3739
20
-68.9323
11
95.3812
21
-68.95
0
LINE
8
BLACK
6
CONTINUOUS
10
95.3812
20
-68.95
11
95.3812
21
-83.45
0
LINE
8
BLACK
6
CONTINUOUS
10
95.3812
20
-83.45
11
95.3739
21
-83.4677
0
LINE
8
BLACK
6
CONTINUOUS
10
95.3739
20
-83.4677
11
95.3562
21
-83.475
0
LINE
8
BLACK
6
CONTINUOUS
10
95.3562
20
-83.475
11
80.8563
21
-83.475
0
LINE
8
BLACK
6
CONTINUOUS
10
80.8563
20
-83.475
11
80.8386
21
-83.4677
0
LINE
8
BLACK
6
CONTINUOUS
10
80.8386
20
-83.4677
11
80.8312
21
-83.45
0
LINE
8
BLACK
6
CONTINUOUS
10
80.8312
20
-83.45
11
80.8312
21
-68.95
0
LINE
8
BLACK
6
CONTINUOUS
10
80.8312
20
-68.95
11
80.8386
21
-68.9323
0
LINE
8
BLACK
6
CONTINUOUS
10
80.8386
20
-68.9323
11
80.8563
21
-68.925
0
LINE
8
BLACK
6
CONTINUOUS
10
80.8563
20
-68.925
11
95.3562
21
-68.925
0
LINE
8
BLACK
6
CONTINUOUS
10
80.8812
20
-68.975
11
80.8812
21
-83.425
0
LINE
8
BLACK
6
CONTINUOUS
10
80.8812
20
-83.425
11
95.3312
21
-83.425
0
LINE
8
BLACK
6
CONTINUOUS
10
95.3312
20
-83.425
11
95.3312
21
-68.975
0
LINE
8
BLACK
6
CONTINUOUS
10
95.3312
20
-68.975
11
80.8812
21
-68.975
0
LINE
8
BLACK
6
CONTINUOUS
10
73.925
20
-68.925
11
73.9427
21
-68.9323
0
LINE
8
BLACK
6
CONTINUOUS
10
73.9427
20
-68.9323
11
73.95
21
-68.95
0
LINE
8
BLACK
6
CONTINUOUS
10
73.95
20
-68.95
11
73.95
21
-83.45
0
LINE
8
BLACK
6
CONTINUOUS
10
73.95
20
-83.45
11
73.9427
21
-83.4677
0
LINE
8
BLACK
6
CONTINUOUS
10
73.9427
20
-83.4677
11
73.925
21
-83.475
0
LINE
8
BLACK
6
CONTINUOUS
10
73.925
20
-83.475
11
59.425
21
-83.475
0
LINE
8
BLACK
6
CONTINUOUS
10
59.425
20
-83.475
11
59.4073
21
-83.4677
0
LINE
8
BLACK
6
CONTINUOUS
10
59.4073
20
-83.4677
11
59.4
21
-83.45
0
LINE
8
BLACK
6
CONTINUOUS
10
59.4
20
-83.45
11
59.4
21
-68.95
0
LINE
8
BLACK
6
CONTINUOUS
10
59.4
20
-68.95
11
59.4073
21
-68.9323
0
LINE
8
BLACK
6
CONTINUOUS
10
59.4073
20
-68.9323
11
59.425
21
-68.925
0
LINE
8
BLACK
6
CONTINUOUS
10
59.425
20
-68.925
11
73.925
21
-68.925
0
LINE
8
BLACK
6
CONTINUOUS
10
59.45
20
-68.975
11
59.45
21
-83.425
0
LINE
8
BLACK
6
CONTINUOUS
10
59.45
20
-83.425
11
73.9
21
-83.425
0
LINE
8
BLACK
6
CONTINUOUS
10
73.9
20
-83.425
11
73.9
21
-68.975
0
LINE
8
BLACK
6
CONTINUOUS
10
73.9
20
-68.975
11
59.45
21
-68.975
0
LINE
8
BLACK
6
CONTINUOUS
10
192.987
20
-49.875
11
193.005
21
-49.8823
0
LINE
8
BLACK
6
CONTINUOUS
10
193.005
20
-49.8823
11
193.012
21
-49.9
0
LINE
8
BLACK
6
CONTINUOUS
10
193.012
20
-49.9
11
193.012
21
-64.4
0
LINE
8
BLACK
6
CONTINUOUS
10
193.012
20
-64.4
11
193.005
21
-64.4177
0
LINE
8
BLACK
6
CONTINUOUS
10
193.005
20
-64.4177
11
192.987
21
-64.425
0
LINE
8
BLACK
6
CONTINUOUS
10
192.987
20
-64.425
11
178.487
21
-64.425
0
LINE
8
BLACK
6
CONTINUOUS
10
178.487
20
-64.425
11
178.47
21
-64.4177
0
LINE
8
BLACK
6
CONTINUOUS
10
178.47
20
-64.4177
11
178.463
21
-64.4
0
LINE
8
BLACK
6
CONTINUOUS
10
178.463
20
-64.4
11
178.463
21
-49.9
0
LINE
8
BLACK
6
CONTINUOUS
10
178.463
20
-49.9
11
178.47
21
-49.8823
0
LINE
8
BLACK
6
CONTINUOUS
10
178.47
20
-49.8823
11
178.487
21
-49.875
0
LINE
8
BLACK
6
CONTINUOUS
10
178.487
20
-49.875
11
192.987
21
-49.875
0
LINE
8
BLACK
6
CONTINUOUS
10
178.512
20
-49.925
11
178.512
21
-64.375
0
LINE
8
BLACK
6
CONTINUOUS
10
178.512
20
-64.375
11
192.962
21
-64.375
0
LINE
8
BLACK
6
CONTINUOUS
10
192.962
20
-64.375
11
192.962
21
-49.925
0
LINE
8
BLACK
6
CONTINUOUS
10
192.962
20
-49.925
11
178.512
21
-49.925
0
LINE
8
BLACK
6
CONTINUOUS
10
173.938
20
-49.875
11
173.955
21
-49.8823
0
LINE
8
BLACK
6
CONTINUOUS
10
173.955
20
-49.8823
11
173.963
21
-49.9
0
LINE
8
BLACK
6
CONTINUOUS
10
173.963
20
-49.9
11
173.963
21
-64.4
0
LINE
8
BLACK
6
CONTINUOUS
10
173.963
20
-64.4
11
173.955
21
-64.4177
0
LINE
8
BLACK
6
CONTINUOUS
10
173.955
20
-64.4177
11
173.938
21
-64.425
0
LINE
8
BLACK
6
CONTINUOUS
10
173.938
20
-64.425
11
159.438
21
-64.425
0
LINE
8
BLACK
6
CONTINUOUS
10
159.438
20
-64.425
11
159.42
21
-64.4177
0
LINE
8
BLACK
6
CONTINUOUS
10
159.42
20
-64.4177
11
159.412
21
-64.4
0
LINE
8
BLACK
6
CONTINUOUS
10
159.412
20
-64.4
11
159.412
21
-49.9
0
LINE
8
BLACK
6
CONTINUOUS
10
159.412
20
-49.9
11
159.42
21
-49.8823
0
LINE
8
BLACK
6
CONTINUOUS
10
159.42
20
-49.8823
11
159.438
21
-49.875
0
LINE
8
BLACK
6
CONTINUOUS
10
159.438
20
-49.875
11
173.938
21
-49.875
0
LINE
8
BLACK
6
CONTINUOUS
10
159.463
20
-49.925
11
159.463
21
-64.375
0
LINE
8
BLACK
6
CONTINUOUS
10
159.463
20
-64.375
11
173.912
21
-64.375
0
LINE
8
BLACK
6
CONTINUOUS
10
173.912
20
-64.375
11
173.912
21
-49.925
0
LINE
8
BLACK
6
CONTINUOUS
10
173.912
20
-49.925
11
159.463
21
-49.925
0
LINE
8
BLACK
6
CONTINUOUS
10
154.887
20
-49.875
11
154.905
21
-49.8823
0
LINE
8
BLACK
6
CONTINUOUS
10
154.905
20
-49.8823
11
154.912
21
-49.9
0
LINE
8
BLACK
6
CONTINUOUS
10
154.912
20
-49.9
11
154.912
21
-64.4
0
LINE
8
BLACK
6
CONTINUOUS
10
154.912
20
-64.4
11
154.905
21
-64.4177
0
LINE
8
BLACK
6
CONTINUOUS
10
154.905
20
-64.4177
11
154.887
21
-64.425
0
LINE
8
BLACK
6
CONTINUOUS
10
154.887
20
-64.425
11
140.387
21
-64.425
0
LINE
8
BLACK
6
CONTINUOUS
10
140.387
20
-64.425
11
140.37
21
-64.4177
0
LINE
8
BLACK
6
CONTINUOUS
10
140.37
20
-64.4177
11
140.362
21
-64.4
0
LINE
8
BLACK
6
CONTINUOUS
10
140.362
20
-64.4
11
140.362
21
-49.9
0
LINE
8
BLACK
6
CONTINUOUS
10
140.362
20
-49.9
11
140.37
21
-49.8823
0
LINE
8
BLACK
6
CONTINUOUS
10
140.37
20
-49.8823
11
140.387
21
-49.875
0
LINE
8
BLACK
6
CONTINUOUS
10
140.387
20
-49.875
11
154.887
21
-49.875
0
LINE
8
BLACK
6
CONTINUOUS
10
140.412
20
-49.925
11
140.412
21
-64.375
0
LINE
8
BLACK
6
CONTINUOUS
10
140.412
20
-64.375
11
154.862
21
-64.375
0
LINE
8
BLACK
6
CONTINUOUS
10
154.862
20
-64.375
11
154.862
21
-49.925
0
LINE
8
BLACK
6
CONTINUOUS
10
154.862
20
-49.925
11
140.412
21
-49.925
0
LINE
8
BLACK
6
CONTINUOUS
10
135.838
20
-49.875
11
135.855
21
-49.8823
0
LINE
8
BLACK
6
CONTINUOUS
10
135.855
20
-49.8823
11
135.862
21
-49.9
0
LINE
8
BLACK
6
CONTINUOUS
10
135.862
20
-49.9
11
135.862
21
-64.4
0
LINE
8
BLACK
6
CONTINUOUS
10
135.862
20
-64.4
11
135.855
21
-64.4177
0
LINE
8
BLACK
6
CONTINUOUS
10
135.855
20
-64.4177
11
135.838
21
-64.425
0
LINE
8
BLACK
6
CONTINUOUS
10
135.838
20
-64.425
11
121.337
21
-64.425
0
LINE
8
BLACK
6
CONTINUOUS
10
121.337
20
-64.425
11
121.32
21
-64.4177
0
LINE
8
BLACK
6
CONTINUOUS
10
121.32
20
-64.4177
11
121.312
21
-64.4
0
LINE
8
BLACK
6
CONTINUOUS
10
121.312
20
-64.4
11
121.312
21
-49.9
0
LINE
8
BLACK
6
CONTINUOUS
10
121.312
20
-49.9
11
121.32
21
-49.8823
0
LINE
8
BLACK
6
CONTINUOUS
10
121.32
20
-49.8823
11
121.337
21
-49.875
0
LINE
8
BLACK
6
CONTINUOUS
10
121.337
20
-49.875
11
135.838
21
-49.875
0
LINE
8
BLACK
6
CONTINUOUS
10
121.362
20
-49.925
11
121.362
21
-64.375
0
LINE
8
BLACK
6
CONTINUOUS
10
121.362
20
-64.375
11
135.812
21
-64.375
0
LINE
8
BLACK
6
CONTINUOUS
10
135.812
20
-64.375
11
135.812
21
-49.925
0
LINE
8
BLACK
6
CONTINUOUS
10
135.812
20
-49.925
11
121.362
21
-49.925
0
LINE
8
BLACK
6
CONTINUOUS
10
116.787
20
-49.875
11
116.805
21
-49.8823
0
LINE
8
BLACK
6
CONTINUOUS
10
116.805
20
-49.8823
11
116.812
21
-49.9
0
LINE
8
BLACK
6
CONTINUOUS
10
116.812
20
-49.9
11
116.812
21
-64.4
0
LINE
8
BLACK
6
CONTINUOUS
10
116.812
20
-64.4
11
116.805
21
-64.4177
0
LINE
8
BLACK
6
CONTINUOUS
10
116.805
20
-64.4177
11
116.787
21
-64.425
0
LINE
8
BLACK
6
CONTINUOUS
10
116.787
20
-64.425
11
102.287
21
-64.425
0
LINE
8
BLACK
6
CONTINUOUS
10
102.287
20
-64.425
11
102.27
21
-64.4177
0
LINE
8
BLACK
6
CONTINUOUS
10
102.27
20
-64.4177
11
102.262
21
-64.4
0
LINE
8
BLACK
6
CONTINUOUS
10
102.262
20
-64.4
11
102.262
21
-49.9
0
LINE
8
BLACK
6
CONTINUOUS
10
102.262
20
-49.9
11
102.27
21
-49.8823
0
LINE
8
BLACK
6
CONTINUOUS
10
102.27
20
-49.8823
11
102.287
21
-49.875
0
LINE
8
BLACK
6
CONTINUOUS
10
102.287
20
-49.875
11
116.787
21
-49.875
0
LINE
8
BLACK
6
CONTINUOUS
10
102.312
20
-49.925
11
102.312
21
-64.375
0
LINE
8
BLACK
6
CONTINUOUS
10
102.312
20
-64.375
11
116.762
21
-64.375
0
LINE
8
BLACK
6
CONTINUOUS
10
116.762
20
-64.375
11
116.762
21
-49.925
0
LINE
8
BLACK
6
CONTINUOUS
10
116.762
20
-49.925
11
102.312
21
-49.925
0
LINE
8
BLACK
6
CONTINUOUS
10
95.3562
20
-49.875
11
95.3739
21
-49.8823
0
LINE
8
BLACK
6
CONTINUOUS
10
95.3739
20
-49.8823
11
95.3812
21
-49.9
0
LINE
8
BLACK
6
CONTINUOUS
10
95.3812
20
-49.9
11
95.3812
21
-64.4
0
LINE
8
BLACK
6
CONTINUOUS
10
95.3812
20
-64.4
11
95.3739
21
-64.4177
0
LINE
8
BLACK
6
CONTINUOUS
10
95.3739
20
-64.4177
11
95.3562
21
-64.425
0
LINE
8
BLACK
6
CONTINUOUS
10
95.3562
20
-64.425
11
80.8563
21
-64.425
0
LINE
8
BLACK
6
CONTINUOUS
10
80.8563
20
-64.425
11
80.8386
21
-64.4177
0
LINE
8
BLACK
6
CONTINUOUS
10
80.8386
20
-64.4177
11
80.8312
21
-64.4
0
LINE
8
BLACK
6
CONTINUOUS
10
80.8312
20
-64.4
11
80.8312
21
-49.9
0
LINE
8
BLACK
6
CONTINUOUS
10
80.8312
20
-49.9
11
80.8386
21
-49.8823
0
LINE
8
BLACK
6
CONTINUOUS
10
80.8386
20
-49.8823
11
80.8563
21
-49.875
0
LINE
8
BLACK
6
CONTINUOUS
10
80.8563
20
-49.875
11
95.3562
21
-49.875
0
LINE
8
BLACK
6
CONTINUOUS
10
80.8812
20
-49.925
11
80.8812
21
-64.375
0
LINE
8
BLACK
6
CONTINUOUS
10
80.8812
20
-64.375
11
95.3312
21
-64.375
0
LINE
8
BLACK
6
CONTINUOUS
10
95.3312
20
-64.375
11
95.3312
21
-49.925
0
LINE
8
BLACK
6
CONTINUOUS
10
95.3312
20
-49.925
11
80.8812
21
-49.925
0
LINE
8
BLACK
6
CONTINUOUS
10
192.987
20
-30.825
11
193.005
21
-30.8323
0
LINE
8
BLACK
6
CONTINUOUS
10
193.005
20
-30.8323
11
193.012
21
-30.85
0
LINE
8
BLACK
6
CONTINUOUS
10
193.012
20
-30.85
11
193.012
21
-45.35
0
LINE
8
BLACK
6
CONTINUOUS
10
193.012
20
-45.35
11
193.005
21
-45.3677
0
LINE
8
BLACK
6
CONTINUOUS
10
193.005
20
-45.3677
11
192.987
21
-45.375
0
LINE
8
BLACK
6
CONTINUOUS
10
192.987
20
-45.375
11
178.487
21
-45.375
0
LINE
8
BLACK
6
CONTINUOUS
10
178.487
20
-45.375
11
178.47
21
-45.3677
0
LINE
8
BLACK
6
CONTINUOUS
10
178.47
20
-45.3677
11
178.463
21
-45.35
0
LINE
8
BLACK
6
CONTINUOUS
10
178.463
20
-45.35
11
178.463
21
-30.85
0
LINE
8
BLACK
6
CONTINUOUS
10
178.463
20
-30.85
11
178.47
21
-30.8323
0
LINE
8
BLACK
6
CONTINUOUS
10
178.47
20
-30.8323
11
178.487
21
-30.825
0
LINE
8
BLACK
6
CONTINUOUS
10
178.487
20
-30.825
11
192.987
21
-30.825
0
LINE
8
BLACK
6
CONTINUOUS
10
178.512
20
-30.875
11
178.512
21
-45.325
0
LINE
8
BLACK
6
CONTINUOUS
10
178.512
20
-45.325
11
192.962
21
-45.325
0
LINE
8
BLACK
6
CONTINUOUS
10
192.962
20
-45.325
11
192.962
21
-30.875
0
LINE
8
BLACK
6
CONTINUOUS
10
192.962
20
-30.875
11
178.512
21
-30.875
0
LINE
8
BLACK
6
CONTINUOUS
10
173.938
20
-30.825
11
173.955
21
-30.8323
0
LINE
8
BLACK
6
CONTINUOUS
10
173.955
20
-30.8323
11
173.963
21
-30.85
0
LINE
8
BLACK
6
CONTINUOUS
10
173.963
20
-30.85
11
173.963
21
-45.35
0
LINE
8
BLACK
6
CONTINUOUS
10
173.963
20
-45.35
11
173.955
21
-45.3677
0
LINE
8
BLACK
6
CONTINUOUS
10
173.955
20
-45.3677
11
173.938
21
-45.375
0
LINE
8
BLACK
6
CONTINUOUS
10
173.938
20
-45.375
11
159.438
21
-45.375
0
LINE
8
BLACK
6
CONTINUOUS
10
159.438
20
-45.375
11
159.42
21
-45.3677
0
LINE
8
BLACK
6
CONTINUOUS
10
159.42
20
-45.3677
11
159.412
21
-45.35
0
LINE
8
BLACK
6
CONTINUOUS
10
159.412
20
-45.35
11
159.412
21
-30.85
0
LINE
8
BLACK
6
CONTINUOUS
10
159.412
20
-30.85
11
159.42
21
-30.8323
0
LINE
8
BLACK
6
CONTINUOUS
10
159.42
20
-30.8323
11
159.438
21
-30.825
0
LINE
8
BLACK
6
CONTINUOUS
10
159.438
20
-30.825
11
173.938
21
-30.825
0
LINE
8
BLACK
6
CONTINUOUS
10
159.463
20
-30.875
11
159.463
21
-45.325
0
LINE
8
BLACK
6
CONTINUOUS
10
159.463
20
-45.325
11
173.912
21
-45.325
0
LINE
8
BLACK
6
CONTINUOUS
10
173.912
20
-45.325
11
173.912
21
-30.875
0
LINE
8
BLACK
6
CONTINUOUS
10
173.912
20
-30.875
11
159.463
21
-30.875
0
LINE
8
BLACK
6
CONTINUOUS
10
154.887
20
-30.825
11
154.905
21
-30.8323
0
LINE
8
BLACK
6
CONTINUOUS
10
154.905
20
-30.8323
11
154.912
21
-30.85
0
LINE
8
BLACK
6
CONTINUOUS
10
154.912
20
-30.85
11
154.912
21
-45.35
0
LINE
8
BLACK
6
CONTINUOUS
10
154.912
20
-45.35
11
154.905
21
-45.3677
0
LINE
8
BLACK
6
CONTINUOUS
10
154.905
20
-45.3677
11
154.887
21
-45.375
0
LINE
8
BLACK
6
CONTINUOUS
10
154.887
20
-45.375
11
140.387
21
-45.375
0
LINE
8
BLACK
6
CONTINUOUS
10
140.387
20
-45.375
11
140.37
21
-45.3677
0
LINE
8
BLACK
6
CONTINUOUS
10
140.37
20
-45.3677
11
140.362
21
-45.35
0
LINE
8
BLACK
6
CONTINUOUS
10
140.362
20
-45.35
11
140.362
21
-30.85
0
LINE
8
BLACK
6
CONTINUOUS
10
140.362
20
-30.85
11
140.37
21
-30.8323
0
LINE
8
BLACK
6
CONTINUOUS
10
140.37
20
-30.8323
11
140.387
21
-30.825
0
LINE
8
BLACK
6
CONTINUOUS
10
140.387
20
-30.825
11
154.887
21
-30.825
0
LINE
8
BLACK
6
CONTINUOUS
10
140.412
20
-30.875
11
140.412
21
-45.325
0
LINE
8
BLACK
6
CONTINUOUS
10
140.412
20
-45.325
11
154.862
21
-45.325
0
LINE
8
BLACK
6
CONTINUOUS
10
154.862
20
-45.325
11
154.862
21
-30.875
0
LINE
8
BLACK
6
CONTINUOUS
10
154.862
20
-30.875
11
140.412
21
-30.875
0
LINE
8
BLACK
6
CONTINUOUS
10
135.838
20
-30.825
11
135.855
21
-30.8323
0
LINE
8
BLACK
6
CONTINUOUS
10
135.855
20
-30.8323
11
135.862
21
-30.85
0
LINE
8
BLACK
6
CONTINUOUS
10
135.862
20
-30.85
11
135.862
21
-45.35
0
LINE
8
BLACK
6
CONTINUOUS
10
135.862
20
-45.35
11
135.855
21
-45.3677
0
LINE
8
BLACK
6
CONTINUOUS
10
135.855
20
-45.3677
11
135.838
21
-45.375
0
LINE
8
BLACK
6
CONTINUOUS
10
135.838
20
-45.375
11
121.337
21
-45.375
0
LINE
8
BLACK
6
CONTINUOUS
10
121.337
20
-45.375
11
121.32
21
-45.3677
0
LINE
8
BLACK
6
CONTINUOUS
10
121.32
20
-45.3677
11
121.312
21
-45.35
0
LINE
8
BLACK
6
CONTINUOUS
10
121.312
20
-45.35
11
121.312
21
-30.85
0
LINE
8
BLACK
6
CONTINUOUS
10
121.312
20
-30.85
11
121.32
21
-30.8323
0
LINE
8
BLACK
6
CONTINUOUS
10
121.32
20
-30.8323
11
121.337
21
-30.825
0
LINE
8
BLACK
6
CONTINUOUS
10
121.337
20
-30.825
11
135.838
21
-30.825
0
LINE
8
BLACK
6
CONTINUOUS
10
121.362
20
-30.875
11
121.362
21
-45.325
0
LINE
8
BLACK
6
CONTINUOUS
10
121.362
20
-45.325
11
135.812
21
-45.325
0
LINE
8
BLACK
6
CONTINUOUS
10
135.812
20
-45.325
11
135.812
21
-30.875
0
LINE
8
BLACK
6
CONTINUOUS
10
135.812
20
-30.875
11
121.362
21
-30.875
0
LINE
8
BLACK
6
CONTINUOUS
10
116.787
20
-30.825
11
116.805
21
-30.8323
0
LINE
8
BLACK
6
CONTINUOUS
10
116.805
20
-30.8323
11
116.812
21
-30.85
0
LINE
8
BLACK
6
CONTINUOUS
10
116.812
20
-30.85
11
116.812
21
-45.35
0
LINE
8
BLACK
6
CONTINUOUS
10
116.812
20
-45.35
11
116.805
21
-45.3677
0
LINE
8
BLACK
6
CONTINUOUS
10
116.805
20
-45.3677
11
116.787
21
-45.375
0
LINE
8
BLACK
6
CONTINUOUS
10
116.787
20
-45.375
11
102.287
21
-45.375
0
LINE
8
BLACK
6
CONTINUOUS
10
102.287
20
-45.375
11
102.27
21
-45.3677
0
LINE
8
BLACK
6
CONTINUOUS
10
102.27
20
-45.3677
11
102.262
21
-45.35
0
LINE
8
BLACK
6
CONTINUOUS
10
102.262
20
-45.35
11
102.262
21
-30.85
0
LINE
8
BLACK
6
CONTINUOUS
10
102.262
20
-30.85
11
102.27
21
-30.8323
0
LINE
8
BLACK
6
CONTINUOUS
10
102.27
20
-30.8323
11
102.287
21
-30.825
0
LINE
8
BLACK
6
CONTINUOUS
10
102.287
20
-30.825
11
116.787
21
-30.825
0
LINE
8
BLACK
6
CONTINUOUS
10
102.312
20
-30.875
11
102.312
21
-45.325
0
LINE
8
BLACK
6
CONTINUOUS
10
102.312
20
-45.325
11
116.762
21
-45.325
0
LINE
8
BLACK
6
CONTINUOUS
10
116.762
20
-45.325
11
116.762
21
-30.875
0
LINE
8
BLACK
6
CONTINUOUS
10
116.762
20
-30.875
11
102.312
21
-30.875
0
LINE
8
BLACK
6
CONTINUOUS
10
83.45
20
-30.825
11
83.4677
21
-30.8323
0
LINE
8
BLACK
6
CONTINUOUS
10
83.4677
20
-30.8323
11
83.475
21
-30.85
0
LINE
8
BLACK
6
CONTINUOUS
10
83.475
20
-30.85
11
83.475
21
-45.35
0
LINE
8
BLACK
6
CONTINUOUS
10
83.475
20
-45.35
11
83.4677
21
-45.3677
0
LINE
8
BLACK
6
CONTINUOUS
10
83.4677
20
-45.3677
11
83.45
21
-45.375
0
LINE
8
BLACK
6
CONTINUOUS
10
83.45
20
-45.375
11
68.95
21
-45.375
0
LINE
8
BLACK
6
CONTINUOUS
10
68.95
20
-45.375
11
68.9323
21
-45.3677
0
LINE
8
BLACK
6
CONTINUOUS
10
68.9323
20
-45.3677
11
68.925
21
-45.35
0
LINE
8
BLACK
6
CONTINUOUS
10
68.925
20
-45.35
11
68.925
21
-30.85
0
LINE
8
BLACK
6
CONTINUOUS
10
68.925
20
-30.85
11
68.9323
21
-30.8323
0
LINE
8
BLACK
6
CONTINUOUS
10
68.9323
20
-30.8323
11
68.95
21
-30.825
0
LINE
8
BLACK
6
CONTINUOUS
10
68.95
20
-30.825
11
83.45
21
-30.825
0
LINE
8
BLACK
6
CONTINUOUS
10
68.975
20
-30.875
11
68.975
21
-45.325
0
LINE
8
BLACK
6
CONTINUOUS
10
68.975
20
-45.325
11
83.425
21
-45.325
0
LINE
8
BLACK
6
CONTINUOUS
10
83.425
20
-45.325
11
83.425
21
-30.875
0
LINE
8
BLACK
6
CONTINUOUS
10
83.425
20
-30.875
11
68.975
21
-30.875
0
LINE
8
BLACK
6
CONTINUOUS
10
96.21
20
-33.905
11
96.2277
21
-33.9123
0
LINE
8
BLACK
6
CONTINUOUS
10
96.2277
20
-33.9123
11
96.235
21
-33.93
0
LINE
8
BLACK
6
CONTINUOUS
10
96.235
20
-33.93
11
96.235
21
-39.43
0
LINE
8
BLACK
6
CONTINUOUS
10
96.235
20
-39.43
11
96.2277
21
-39.4477
0
LINE
8
BLACK
6
CONTINUOUS
10
96.2277
20
-39.4477
11
96.21
21
-39.455
0
LINE
8
BLACK
6
CONTINUOUS
10
96.21
20
-39.455
11
89.31
21
-39.455
0
LINE
8
BLACK
6
CONTINUOUS
10
89.31
20
-39.455
11
89.2923
21
-39.4477
0
LINE
8
BLACK
6
CONTINUOUS
10
89.2923
20
-39.4477
11
89.285
21
-39.43
0
LINE
8
BLACK
6
CONTINUOUS
10
89.285
20
-39.43
11
89.285
21
-33.93
0
LINE
8
BLACK
6
CONTINUOUS
10
89.285
20
-33.93
11
89.2923
21
-33.9123
0
LINE
8
BLACK
6
CONTINUOUS
10
89.2923
20
-33.9123
11
89.31
21
-33.905
0
LINE
8
BLACK
6
CONTINUOUS
10
89.31
20
-33.905
11
96.21
21
-33.905
0
LINE
8
BLACK
6
CONTINUOUS
10
89.335
20
-33.955
11
89.335
21
-39.405
0
LINE
8
BLACK
6
CONTINUOUS
10
89.335
20
-39.405
11
96.185
21
-39.405
0
LINE
8
BLACK
6
CONTINUOUS
10
96.185
20
-39.405
11
96.185
21
-33.955
0
LINE
8
BLACK
6
CONTINUOUS
10
96.185
20
-33.955
11
89.335
21
-33.955
  0
ENDSEC
  0
EOF
